<?xml version="1.0" standalone="no"?>
<!DOCTYPE svg PUBLIC "-//W3C//DTD SVG 1.1//EN" "http://www.w3.org/Graphics/SVG/1.1/DTD/svg11.dtd" >
<!--
2011-5-25: Created.
-->
<svg xmlns="http://www.w3.org/2000/svg" xmlns:xlink="http://www.w3.org/1999/xlink" version="1.1">
<metadata>
Created by FontForge 20201107 at Thu Jun 30 23:44:44 2022
 By Ricardo Bánffy
Copyright 2011-2021 The 3270font Project Authors (https://github.com/rbanffy/3270font)
</metadata>
<defs>
<font id="3270SemiCondensed" horiz-adv-x="972" vert-adv-y="2000" >
  <font-face 
    font-family="IBM 3270 Semi-Condensed"
    font-weight="400"
    font-stretch="normal"
    units-per-em="2000"
    panose-1="2 0 5 9 0 0 0 0 0 0"
    ascent="1600"
    descent="-400"
    x-height="950"
    cap-height="1194"
    bbox="-60 -405 1636 1626"
    underline-thickness="120"
    underline-position="-200"
    unicode-range="U+000D-1FBF9"
  />
    <missing-glyph />
    <glyph glyph-name="nobreakspace" vert-adv-y="0" 
 />
    <glyph glyph-name="Euro" unicode="&#x20ac;" vert-adv-y="0" 
d="M151 646h109v122h-109v122h108l3 152l250 276h263l117 -124l-82 -88l-82 90h-165l-193 -208v-98h549l-57 -122h-492v-122h495l-63 -122h-432v-86l189 -218h164l87 96l82 -96l-115 -122h-272l-245 280v146h-109v122z" />
    <glyph glyph-name="cr" vert-adv-y="0" 
 />
    <glyph glyph-name="nl" vert-adv-y="0" 
 />
    <glyph glyph-name="eightones" vert-adv-y="0" 
d="M294 644c0 160 113 288 252 288s252 -128 252 -288c0 -158 -113 -288 -252 -288s-252 130 -252 288z" />
    <glyph glyph-name="hyphen" unicode="-" vert-adv-y="0" 
d="M268 712h536v-112h-536v112z" />
    <glyph glyph-name="greater" unicode="&#x3e;" vert-adv-y="0" 
d="M185 1100c-9 12 -15 28 -15 44s8 30 17 42s23 18 37 20c4 0 6 1 10 1c10 0 18 -3 28 -9l438 -490v-112l-436 -492c-10 -5 -20 -12 -32 -12h-4c-13 2 -23 8 -32 18c-11 10 -16 26 -18 42c0 4 -1 7 -1 11c0 12 3 22 8 33l410 456z" />
    <glyph glyph-name="less" unicode="&#x3c;" vert-adv-y="0" 
d="M794 198c9 -12 15 -28 15 -44s-8 -30 -17 -42s-23 -18 -37 -20c-4 0 -6 -1 -10 -1c-10 0 -18 3 -28 9l-438 490v112l436 492c10 5 20 12 32 12h4c13 -2 23 -8 32 -18c11 -10 16 -26 18 -42c0 -4 1 -7 1 -11c0 -12 -3 -22 -8 -33l-410 -456z" />
    <glyph glyph-name="bracketleft" unicode="[" vert-adv-y="0" 
d="M376 1318h320v-122h-216v-1098h216v-124h-320v1344z" />
    <glyph glyph-name="bracketright" unicode="]" vert-adv-y="0" 
d="M376 1318h320v-1344h-320v124h214v1098h-214v122z" />
    <glyph glyph-name="parenright" unicode=")" vert-adv-y="0" 
d="M591 354l-225 -238c-11 -10 -23 -18 -36 -18c-14 0 -27 8 -36 20c-11 12 -16 26 -16 42s5 28 16 40l209 226v440l-211 232c-11 10 -16 26 -16 42s5 28 16 38c11 12 23 18 36 18s27 -6 36 -18l226 -250c11 -12 16 -22 16 -38v-488c0 -16 -4 -36 -15 -48z" />
    <glyph glyph-name="parenleft" unicode="(" vert-adv-y="0" 
d="M401 940l225 238c11 10 23 18 36 18c14 0 27 -8 36 -20c11 -12 16 -26 16 -42s-5 -28 -16 -40l-209 -226v-440l211 -232c11 -10 16 -26 16 -42s-5 -28 -16 -38c-11 -12 -23 -18 -36 -18s-27 6 -36 18l-226 250c-11 12 -16 22 -16 38v488c0 16 4 36 15 48z" />
    <glyph glyph-name="braceright" unicode="}" vert-adv-y="0" 
d="M416 1346l17 -3l13 -7l8 -8l113 -122l10 -15l5 -15l2 -12v-344l75 -86h65v-120h-65l-75 -88v-342l-2 -13l-5 -16l-10 -15l-113 -122l-8 -7l-13 -8l-17 -3h-162v120h140l82 88v342l2 18l6 15l6 9l70 82l-70 80l-6 9l-6 15l-2 18v342l-82 88h-140v120h162z" />
    <glyph glyph-name="braceleft" unicode="{" vert-adv-y="0" 
d="M690 1346v-120h-140l-82 -88v-342c0 -20 -9 -36 -14 -42l-70 -80l70 -82c5 -6 14 -22 14 -42v-342l82 -88h140v-120h-162c-18 0 -33 12 -38 18l-113 122c-13 14 -17 34 -17 44v342l-75 88h-65v120h65l75 86v344c0 10 4 28 17 42l113 122c5 8 20 18 38 18h162z" />
    <glyph glyph-name="space" unicode=" " vert-adv-y="0" 
 />
    <glyph glyph-name="equal" unicode="=" vert-adv-y="0" 
d="M162 934h748v-112h-748v112zM162 600h748v-112h-748v112z" />
    <glyph glyph-name="afii57929" unicode="&#x2bc;" vert-adv-y="0" 
 />
    <glyph glyph-name="quotedbl" unicode="&#x22;" vert-adv-y="0" 
d="M254 1318h112v-366h-112v366zM584 1318h110v-366h-110v366z" />
    <glyph glyph-name="slash" unicode="/" vert-adv-y="0" 
d="M180 236c-6.75321 7.69179 -11.5779 17.055 -14 27c-2.38904 9.8093 -2.39147 20.1913 0 30c2.42418 9.94288 7.29329 19.2697 14 27c7.68223 8.85471 17.7533 15.5915 28.8212 19.4547c11.0679 3.86327 23.1042 4.85967 34.6812 3.01641
c23.1538 -3.68651 43.9292 -19.008 55.2462 -39.5413c6.92745 -12.569 10.3461 -26.9053 10.3461 -41.2667c0 -9.1 -1.37262 -18.21 -4.09493 -26.8869c-7.01858 -22.3703 -22.7045 -41.7158 -42.6114 -54.1015c-17.8736 -11.1206 -38.9862 -16.7028 -60.0518 -16.7028
c-2.39638 0 -4.79216 0.0722385 -7.18248 0.21678c-23.4027 1.41515 -46.2315 9.62587 -65.7285 22.6473c-38.9939 26.0429 -63.5558 70.467 -71.4762 116.684c-2.15698 12.5864 -3.16818 25.3027 -3.16818 38.0325c0 34.0139 7.21946 68.1246 19.091 100.114
c16.3145 43.9612 41.1632 84.3545 69.3891 121.798c56.4518 74.888 125.109 139.549 190.218 207.046c64.6498 68.5788 125.68 140.461 189.027 210.246c31.6732 34.8923 64.3723 69.0254 100.608 99.1525c36.2356 30.1271 76.3732 56.3726 120.912 71.7645
c24.7845 8.56491 51.1922 13.5856 77.3753 13.5856c20.8722 0 41.6017 -3.19051 61.2523 -10.3195c22.1506 -8.03592 42.6277 -21.0829 58.3354 -38.6468s26.5063 -39.7407 29.2433 -63.1444c0.448793 -3.83755 0.673059 -7.70614 0.673059 -11.5763
c0 -19.7323 -5.82998 -39.5047 -17.4553 -55.4083c-13.9054 -19.0228 -36.2908 -32.0228 -59.8323 -33.0327c-11.7708 -0.504935 -23.6854 1.92886 -34.2103 7.22334s-19.6235 13.462 -25.8099 23.4887c-6.18638 10.0267 -9.4118 21.8975 -8.89371 33.6678
c0.518086 11.7702 4.81791 23.3848 12.2962 32.4888c6.27339 7.46106 14.6804 13.142 24 16c9.05895 2.77802 18.952 2.81335 28 0c9.29781 -2.89101 17.5759 -8.68304 24 -16c6.75321 -7.69179 11.5779 -17.055 14 -27c2.38904 -9.8093 2.39147 -20.1913 0 -30
c-2.42418 -9.94288 -7.29329 -19.2697 -14 -27c-7.68223 -8.85471 -17.7533 -15.5915 -28.8212 -19.4547s-23.1042 -4.85967 -34.6812 -3.01641c-23.1538 3.68651 -43.9292 19.008 -55.2462 39.5413c-6.92745 12.569 -10.3461 26.9053 -10.3461 41.2667
c0 9.1 1.37262 18.21 4.09493 26.8869c7.01858 22.3703 22.7045 41.7158 42.6114 54.1015c17.8736 11.1206 38.9862 16.7028 60.0518 16.7028c2.39638 0 4.79216 -0.0722385 7.18248 -0.21678c23.4027 -1.41515 46.2315 -9.62587 65.7285 -22.6473
c38.9939 -26.0429 63.5558 -70.467 71.4762 -116.684c2.15698 -12.5864 3.16818 -25.3027 3.16818 -38.0325c0 -34.0139 -7.21946 -68.1246 -19.091 -100.114c-16.3145 -43.9612 -41.1632 -84.3545 -69.3891 -121.798c-56.4518 -74.888 -125.109 -139.549 -190.218 -207.046
c-64.6498 -68.5788 -125.68 -140.461 -189.027 -210.246c-31.6732 -34.8923 -64.3723 -69.0254 -100.608 -99.1525s-76.3732 -56.3726 -120.912 -71.7645c-24.7845 -8.56491 -51.1922 -13.5856 -77.3753 -13.5856c-20.8722 0 -41.6017 3.19051 -61.2523 10.3195
c-22.1506 8.03592 -42.6277 21.0829 -58.3354 38.6468c-15.7078 17.5639 -26.5063 39.7407 -29.2433 63.1444c-0.448793 3.83755 -0.673059 7.70614 -0.673059 11.5763c0 19.7323 5.82998 39.5047 17.4553 55.4083c13.9054 19.0228 36.2908 32.0228 59.8323 33.0327
c11.7708 0.504935 23.6854 -1.92886 34.2103 -7.22334s19.6235 -13.462 25.8099 -23.4887s9.4118 -21.8975 8.89371 -33.6678s-4.81791 -23.3848 -12.2962 -32.4888c-6.27339 -7.46106 -14.6804 -13.142 -24 -16c-9.05895 -2.77802 -18.952 -2.81335 -28 0
c-9.29781 2.89101 -17.5759 8.68304 -24 16z" />
    <glyph glyph-name="backslash" unicode="\" vert-adv-y="0" 
d="M150 1010c7.69141 6.75293 17.0547 11.5781 27 14c9.80957 2.38867 20.1914 2.3916 30 0c9.94336 -2.42383 19.2695 -7.29297 27 -14c8.85449 -7.68262 15.5918 -17.7529 19.4551 -28.8213c3.86328 -11.0674 4.85938 -23.1045 3.01562 -34.6807
c-3.68652 -23.1543 -19.0078 -43.9297 -39.541 -55.2461c-12.5684 -6.92773 -26.9053 -10.3467 -41.2666 -10.3467c-9.09961 0 -18.21 1.37305 -26.8867 4.09473c-22.3701 7.01855 -41.7158 22.7051 -54.1016 42.6113c-11.1211 17.874 -16.7031 38.9863 -16.7031 60.0518
c0 2.39648 0.0722656 4.79297 0.216797 7.18262c1.41504 23.4033 9.62598 46.2314 22.6475 65.7285c26.043 38.9941 70.4668 63.5566 116.685 71.4766c12.5859 2.15723 25.3027 3.16797 38.0322 3.16797c34.0137 0 68.125 -7.21973 100.114 -19.0908
c43.9609 -16.3145 84.3535 -41.1631 121.798 -69.3887c74.8877 -56.4521 139.549 -125.11 207.046 -190.218c68.5791 -64.6504 140.462 -125.681 210.246 -189.027c34.8926 -31.6729 69.0254 -64.3721 99.1523 -100.607s56.373 -76.373 71.7646 -120.913
c8.56445 -24.7842 13.5859 -51.1914 13.5859 -77.375c0 -20.8721 -3.19043 -41.6016 -10.3193 -61.252c-8.03613 -22.1504 -21.083 -42.6279 -38.6475 -58.3359c-17.5635 -15.707 -39.7402 -26.5059 -63.1445 -29.2432
c-3.83691 -0.448242 -7.70605 -0.672852 -11.5762 -0.672852c-19.7324 0 -39.5049 5.83008 -55.4082 17.4551c-19.0225 13.9053 -32.0225 36.291 -33.0322 59.832c-0.504883 11.7715 1.92871 23.6855 7.22266 34.2109c5.29492 10.5244 13.4619 19.623 23.4893 25.8096
c10.0264 6.18652 21.8975 9.41211 33.668 8.89355c11.7695 -0.517578 23.3848 -4.81738 32.4883 -12.2959c7.46094 -6.27344 13.1416 -14.6807 16 -24c2.77832 -9.05859 2.81348 -18.9521 0 -28c-2.89062 -9.29785 -8.68262 -17.5762 -16 -24
c-7.69141 -6.75293 -17.0547 -11.5781 -27 -14c-9.80957 -2.38867 -20.1914 -2.3916 -30 0c-9.94336 2.42383 -19.2695 7.29297 -27 14c-8.85449 7.68262 -15.5918 17.7529 -19.4551 28.8213c-3.86328 11.0674 -4.85938 23.1045 -3.01562 34.6807
c3.68652 23.1543 19.0078 43.9297 39.541 55.2461c12.5684 6.92773 26.9053 10.3467 41.2666 10.3467c9.09961 0 18.21 -1.37305 26.8867 -4.09473c22.3701 -7.01855 41.7158 -22.7051 54.1016 -42.6113c11.1211 -17.874 16.7031 -38.9863 16.7031 -60.0518
c0 -2.39648 -0.0722656 -4.79297 -0.216797 -7.18262c-1.41504 -23.4033 -9.62598 -46.2314 -22.6475 -65.7285c-26.043 -38.9941 -70.4668 -63.5566 -116.685 -71.4766c-12.5859 -2.15723 -25.3027 -3.16797 -38.0322 -3.16797
c-34.0137 0 -68.125 7.21973 -100.114 19.0908c-43.9609 16.3145 -84.3535 41.1631 -121.798 69.3887c-74.8877 56.4521 -139.549 125.11 -207.046 190.218c-68.5791 64.6504 -140.462 125.681 -210.246 189.027c-34.8926 31.6729 -69.0254 64.3721 -99.1523 100.607
s-56.373 76.373 -71.7646 120.913c-8.56445 24.7842 -13.5859 51.1914 -13.5859 77.375c0 20.8721 3.19043 41.6016 10.3193 61.252c8.03613 22.1504 21.083 42.6279 38.6475 58.3359c17.5635 15.707 39.7402 26.5059 63.1445 29.2432
c3.83691 0.448242 7.70605 0.672852 11.5762 0.672852c19.7324 0 39.5049 -5.83008 55.4082 -17.4551c19.0225 -13.9053 32.0225 -36.291 33.0322 -59.832c0.504883 -11.7715 -1.92871 -23.6855 -7.22266 -34.2109c-5.29492 -10.5244 -13.4619 -19.623 -23.4893 -25.8096
c-10.0264 -6.18652 -21.8975 -9.41211 -33.668 -8.89355c-11.7695 0.517578 -23.3848 4.81738 -32.4883 12.2959c-7.46094 6.27344 -13.1416 14.6807 -16 24c-2.77832 9.05859 -2.81348 18.9521 0 28c2.89062 9.29785 8.68262 17.5762 16 24z" />
    <glyph glyph-name="bar" unicode="|" vert-adv-y="0" 
d="M480 1440h110v-1676h-110v1676z" />
    <glyph glyph-name="brokenbar" unicode="&#xa6;" vert-adv-y="0" 
d="M480 708v732h110v-732h-110zM590 468v-704h-110v704h110z" />
    <glyph glyph-name="question" unicode="?" vert-adv-y="0" 
d="M382 954h-108v184c0 16 7 32 16 42l113 124c11 12 27 14 38 14h308c14 0 29 -6 38 -16l113 -126c11 -12 16 -28 16 -42v-122c0 -16 -9 -34 -18 -44l-302 -320v-184h-108v210c0 14 5 32 16 44l306 320v72l-83 90h-264l-81 -88v-158zM488 222h108v-122h-108v122z" />
    <glyph glyph-name="exclam" unicode="!" vert-adv-y="0" 
d="M480 220h112v-122h-112v122zM480 1318h110v-856h-110v856z" />
    <glyph glyph-name="dollar" unicode="$" vert-adv-y="0" 
d="M930 1076v-120h-332v-246h162c14 0 31 -8 40 -18l112 -124c11 -12 14 -28 14 -42v-128c0 -16 -5 -32 -14 -42l-108 -120c-11 -12 -27 -18 -40 -18h-166v-240h-108v240h-320v120h320v252h-164c-13 0 -26 6 -37 18l-108 120c-9 10 -17 26 -17 42v126c0 14 6 30 17 42
l108 120c9 10 23 18 37 18h164v240h108v-240h332zM490 956h-140l-78 -86v-76l78 -84h140v246zM598 338h144l76 84v78l-79 90h-141v-252z" />
    <glyph glyph-name="cent" unicode="&#xa2;" vert-adv-y="0" 
d="M474 1318h110v-244h219v-122h-219v-366h219v-122h-219v-244l-110 2v242h-185c-2.00135 0 -4.00978 -0.210762 -6 0c-1.6912 0.179095 -3.32562 0.702224 -5 1c-1.99958 0.35561 -4.07241 0.360335 -6 1c-1.41756 0.470412 -2.70102 1.26284 -4 2
c-1.29703 0.736055 -2.64336 1.38067 -4 2c-1.3567 0.619361 -2.71183 1.24843 -4 2c-1.44296 0.841878 -2.78634 1.85199 -4 3c-1.02745 0.971878 -1.98566 2.01444 -3 3c-1.35295 1.31456 -2.73964 2.59642 -4 4l-88 98
c-0.776364 -0.0381006 -1.56079 0.106099 -2.27382 0.415605c-0.713021 0.309506 -1.35183 0.783445 -1.86876 1.36394c-0.516931 0.580496 -0.910383 1.26434 -1.20055 1.98545s-0.477533 1.47868 -0.656878 2.235c-0.243873 1.02845 -0.528989 2.05378 -1 3
c-0.332299 0.667563 -0.719543 1.30905 -1 2c-0.396734 0.977413 -0.578886 2.03284 -1 3c-0.297615 0.683525 -0.684981 1.32432 -1 2c-0.315497 0.676706 -0.570771 1.38907 -1 2c-0.271612 0.386588 -0.608878 0.722448 -0.962974 1.03524
c-0.354096 0.312794 -0.72199 0.612656 -1.03703 0.964758c-0.360789 0.403237 -0.643249 0.87871 -0.803608 1.39548c-0.160359 0.516773 -0.201171 1.06346 -0.196392 1.60452c0.00589161 0.667123 0.064441 1.33597 0 2
c-0.0512003 0.527591 -0.179241 1.04629 -0.362606 1.54364s-0.415928 0.974776 -0.637394 1.45636c-0.575446 1.25133 -0.978242 2.60757 -0.915372 3.98344c0.0628704 1.37587 0.512274 2.69956 0.915372 4.01656c0.39959 1.30554 0.730944 2.64505 0.766023 4.00992
s-0.219035 2.73912 -0.766023 3.99008v292c0 0.854785 0.0612373 1.71328 0.271917 2.5417c0.21068 0.828415 0.523778 1.62829 0.728083 2.4583c0.240278 0.976156 0.297849 1.99079 0.23103 2.99386c-0.066819 1.00307 -0.219418 2.00091 -0.23103 3.00614
c-0.019744 1.7092 0.43819 3.38565 1 5c0.590282 1.69616 1.22611 3.37935 2 5c0.642417 1.34533 1.37839 2.64493 2 4c0.748585 1.63188 1.30696 3.34377 2 5c0.575838 1.37614 1.25092 2.70995 2 4c0.839637 1.446 1.80984 2.82551 3 4
c0.671929 0.663085 1.39641 1.27054 2.08303 1.9184c0.686616 0.647865 1.31555 1.35395 1.91697 2.0816l81 98c0.0675607 1.37684 0.649753 2.71387 1.57707 3.73383c0.927319 1.01997 2.17066 1.68991 3.42293 2.26617c0.677456 0.311747 1.35791 0.620715 2 1
c1.03519 0.611497 1.96087 1.39521 3 2c0.644441 0.375077 1.32479 0.683645 2 1c1.35007 0.632545 2.64279 1.38292 4 2c1.63475 0.743265 3.38098 1.22307 5 2c1.34494 0.645405 2.60378 1.47465 4 2c1.59452 0.599966 3.31609 0.741391 5 1
c2.00541 0.307984 3.97566 0.863633 6 1c1.66333 0.112048 3.3329 0 5 0h189v244zM474 952h-166l-50 -60v-242l54 -64h162v366z" />
    <glyph glyph-name="sterling" unicode="&#xa3;" vert-adv-y="0" 
d="M333 220l-13 4h-50v-12h50zM493 280l15 -4c1.31689 -0.35117 2.62647 -0.775507 3.79982 -1.46888c1.17335 -0.693375 2.20396 -1.60103 3.20018 -2.53112c1.90528 -1.7788 3.86918 -3.49873 6 -5c1.0668 -0.751619 2.14585 -1.48847 3.15909 -2.31087
c1.01324 -0.8224 1.94091 -1.74413 2.84091 -2.68913l40 -42h180l95 100l74 -88l-112 -116c-2.79419 -2.89398 -5.64742 -5.77677 -9 -8c-4.2473 -2.81656 -9.11001 -4.56453 -14 -6c-4.5434 -1.33372 -9.26488 -2 -14 -2h-220
c-2.03936 0 -4.08587 0.069146 -6.09438 0.422512c-2.00851 0.353366 -3.96752 0.942855 -5.90562 1.57749c-4.71098 1.54262 -9.47633 2.97283 -14 5c-2.29997 1.03068 -4.5038 2.28771 -6.5043 3.82073c-2.0005 1.53303 -3.76948 3.34287 -5.4957 5.17927l-47 50l-36 12
l-61 -66c-3.23412 -3.49921 -6.78679 -6.77451 -11 -9c-4.11074 -2.17136 -8.55681 -3.63211 -13 -5c-2.10568 -0.648261 -4.23659 -1.23212 -6.41182 -1.58218c-2.17522 -0.350061 -4.38498 -0.417817 -6.58818 -0.417817h-112
c-4.79126 0 -9.63346 0.21452 -14.2348 1.55025c-4.6013 1.33573 -8.88013 3.64581 -12.7652 6.44975c-8.08978 5.83852 -14.9761 13.3807 -20 22c-2.62251 4.49931 -4.6234 9.37499 -5.73844 14.462c-1.11504 5.08705 -1.26156 10.3301 -1.26156 15.538v122
c0 5.20782 0.146518 10.4509 1.26156 15.538c1.11504 5.08705 3.11593 9.96272 5.73844 14.462c5.02395 8.61933 11.9102 16.1615 20 22c3.88511 2.80394 8.16394 5.11402 12.7652 6.44975c4.6013 1.33573 9.44351 1.55025 14.2348 1.55025h108
c1.18175 0 2.3657 -0.0734658 3.52584 -0.29846c1.16014 -0.224995 2.30334 -0.541168 3.47416 -0.70154c1.65436 -0.226603 3.33182 -0.073651 5 0c1.02189 0.045117 2.0507 0.02856 3.05937 -0.141383c1.00867 -0.169943 1.98195 -0.501901 2.94063 -0.858617l43 -16v386
h-222v122h222v306c0 4.6879 0.0414271 9.41115 1 14c1.01536 4.86069 2.93762 9.48293 5 14c1.15779 2.53581 2.3938 5.04277 3.88088 7.4006c1.48708 2.35783 3.27138 4.51214 5.11912 6.5994l108 122c3.13091 3.53677 6.20455 7.18826 10 10
c4.20505 3.11517 9.12331 5.10143 14 7c2.39483 0.932344 4.82216 1.80809 7.33493 2.34699c2.51278 0.538905 5.09515 0.653005 7.66507 0.653005h115c2.08537 0 4.18634 -0.126765 6.19568 -0.684721c2.00934 -0.557956 3.90678 -1.45035 5.80432 -2.31528
c2.31163 -1.05368 4.66578 -2.01081 7.03966 -2.91555c2.37388 -0.904739 4.75223 -1.82823 6.96034 -3.08445c2.36991 -1.34827 4.50399 -3.08232 6.44291 -4.99931c1.93892 -1.91699 3.7331 -3.97403 5.55709 -6.00069l108 -120l-77 -84l-92 102h-70l-76 -86v-282h219
v-122h-219v-426z" />
    <glyph glyph-name="yen" unicode="&#xa5;" vert-adv-y="0" 
d="M534 1012l292 292l75 -92l-313 -310l2 -72h329v-122h-329v-244h329v-122h-329v-244h-110v244h-329v122h329v244h-329v122h329l-2 66l-313 316l74 94z" />
    <glyph glyph-name="paragraph" unicode="&#xb6;" vert-adv-y="0" 
d="M265 1208v-372h261l78 84v200l-78 88h-261zM265 96h-101v1222h382c0.834332 0 1.66825 -0.0296606 2.50177 -0.066392c0.833523 -0.0367315 1.67209 -0.0502303 2.49823 0.066392c1.36226 0.192304 2.6421 0.779006 4 1
c0.70103 0.11409 1.42508 0.11602 2.11618 -0.0478299c0.691095 -0.16385 1.34364 -0.491022 1.88382 -0.95217c1.32199 -0.688974 2.66815 -1.33029 4 -2c0.965689 -0.485585 1.92274 -1.00029 2.78448 -1.6528s1.60586 -1.45464 2.21552 -2.3472
c0.472766 -0.692142 0.874105 -1.43054 1.33641 -2.12971s1.00347 -1.35375 1.66359 -1.87029c0.588726 -0.460674 1.25954 -0.80556 1.94612 -1.10124s1.39025 -0.554649 2.05388 -0.898761c0.638168 -0.330909 1.23587 -0.745838 1.74046 -1.25784
s0.908096 -1.11507 1.25954 -1.74216c0.294869 -0.526151 0.56361 -1.06754 0.886548 -1.57695c0.322939 -0.509405 0.709969 -0.974737 1.11345 -1.42305l108 -120c0.560635 -0.622928 1.16718 -1.20942 1.86254 -1.67721
c0.69536 -0.467788 1.44792 -0.84646 2.13746 -1.32279c0.696495 -0.48114 1.31712 -1.07431 1.80944 -1.76294c0.492322 -0.688636 0.863246 -1.45637 1.19056 -2.23706c0.694138 -1.6556 1.28181 -3.3547 2 -5c1.78944 -4.09941 3.92149 -8.03931 6 -12
c-0.41381 -1.63058 -0.351261 -3.35481 0 -5c0.355458 -1.66485 0.892441 -3.30103 1 -5c0.0842608 -1.33096 0 -2.66637 0 -4v-246c0 -1.6667 0.033215 -3.33363 0 -5c-0.0406182 -2.03778 -0.296246 -4.08717 -1 -6c-0.620139 -1.68556 -1.47317 -3.28299 -2 -5
c-0.310511 -1.01199 -0.5213 -2.05156 -0.797322 -3.07349c-0.276022 -1.02194 -0.648654 -2.02451 -1.20268 -2.92651c-0.634058 -1.0323 -1.48815 -1.90704 -2.2582 -2.84228c-0.770054 -0.935246 -1.40724 -1.99336 -1.7418 -3.15772
c-0.190149 -0.661772 -0.29736 -1.34389 -0.427597 -2.02s-0.295769 -1.34946 -0.572403 -1.98c-0.33609 -0.766053 -0.834117 -1.45019 -1.37771 -2.08604c-0.543591 -0.635849 -1.11645 -1.24769 -1.62229 -1.91396
c-0.50466 -0.664712 -0.943666 -1.3763 -1.41799 -2.06299c-0.474326 -0.686687 -1.01331 -1.32619 -1.58201 -1.93701l-108 -116c-0.96506 -1.03655 -1.8679 -2.14905 -3 -3c-0.597517 -0.449123 -1.25723 -0.810174 -1.93846 -1.11786
s-1.38167 -0.571476 -2.06154 -0.882143c-1.5284 -0.698403 -2.87479 -1.75193 -4 -3c-0.94933 -1.05299 -1.84786 -2.17381 -3 -3c-1.214 -0.870556 -2.64005 -1.38178 -4 -2c-1.77193 -0.805501 -3.35983 -1.95196 -5 -3
c-1.67577 -1.07079 -3.55599 -1.92239 -5.54323 -1.99784c-1.98724 -0.0754497 -4.00312 0.640742 -5.45677 1.99784h-281v-628zM600 584h109v-122h110v-119h-110v-367h-109v367h-111v119h111v122z" />
    <glyph glyph-name="currency" unicode="&#xa4;" vert-adv-y="0" 
d="M438 374l-227 -256l-61 66l209 240c-58 52 -94 132 -94 220c0 90 36 170 94 222l-213 244l61 66l229 -260c27 12 57 16 88 16s61 -4 88 -16l227 258l63 -66l-210 -242c56 -52 91 -134 91 -222c0 -86 -32 -164 -86 -216l209 -244l-63 -66l-227 258
c-29 -12 -60 -20 -92 -20c-31 0 -59 8 -86 18zM351 644c0 -106 78 -192 173 -192s173 86 173 192s-78 194 -173 194s-173 -88 -173 -194z" />
    <glyph glyph-name="zero" unicode="0" vert-adv-y="0" 
d="M536 888c29 0 54 -28 54 -60v-246c0 -32 -25 -60 -54 -60c-31 0 -54 28 -54 60v246c0 32 23 60 54 60zM268 990v-564l187 -208h164l185 204v568l-191 210h-154zM178 1056l223 246c9 12 25 18 38 18h196c14 0 29 -8 38 -18l221 -246c11 -10 16 -28 16 -42v-616
c0 -16 -7 -34 -16 -42l-216 -240c-11 -12 -27 -18 -38 -18h-205c-14 0 -31 8 -38 18l-219 244c-11 12 -16 28 -16 42v612c0 16 7 34 16 42z" />
    <glyph glyph-name="one" unicode="1" vert-adv-y="0" 
d="M488 1296c11 12 23 20 36 20c7 0 18 0 25 -4c22 -10 27 -30 27 -56v-1156h-108v1008l-173 -196l-75 78z" />
    <glyph glyph-name="two" unicode="2" vert-adv-y="0" 
d="M267 952h-106v64c0 16 8 32 17 42l217 244c11 12 25 18 38 18h313c14 0 29 -8 38 -18l110 -122c11 -12 16 -28 16 -42v-252c0 -16 -7 -32 -16 -42l-553 -628h569v-120h-700c-13 0 -27 6 -38 18s-16 28 -16 42s5 30 16 42l632 712v204l-78 86h-271l-188 -208v-40z" />
    <glyph glyph-name="three" unicode="3" vert-adv-y="0" 
d="M268 1200v120h642v-186c0 -16 -7 -32 -16 -42l-239 -266c7 -2 14 -8 18 -12l219 -244c11 -12 17 -28 17 -42v-134c0 -16 -8 -32 -17 -42l-210 -234c-11 -12 -25 -18 -38 -18h-326c-14 0 -29 8 -38 18l-118 132l75 84l103 -114h286l178 198v84l-187 210h-88
c-13 0 -27 6 -38 18s-16 26 -16 42s5 30 16 42l313 344v42h-536z" />
    <glyph glyph-name="four" unicode="4" vert-adv-y="0" 
d="M804 600h106v-112h-106v-438h-108v438h-480c-29 0 -54 28 -54 60v224c0 12 5 30 16 42l432 488c7 10 24 18 38 18h156v-720zM696 600v600h-25l-407 -458v-142h432z" />
    <glyph glyph-name="five" unicode="5" vert-adv-y="0" 
d="M910 1320v-120h-642v-246h372c13 0 27 -6 38 -18l216 -240c9 -8 16 -26 16 -42v-252c0 -14 -5 -30 -16 -42l-218 -242c-7 -10 -23 -18 -37 -18h-472v120h452l185 208v202l-183 204h-459v486h748z" />
    <glyph glyph-name="six" unicode="6" vert-adv-y="0" 
d="M162 372v2v636c0 14 5 30 16 42l257 286l78 -84l-242 -268v-330l135 150c9 10 24 18 38 18h198c13 0 27 -6 38 -18l214 -242c9 -10 16 -26 16 -42v-144c0 -14 -5 -30 -16 -42l-223 -248c-9 -10 -24 -18 -38 -18h-196c-13 0 -27 6 -38 18l-221 244c-2 2 -16 40 -16 40z
M271 492v-92l188 -210h153l190 214v100l-183 206h-153z" />
    <glyph glyph-name="seven" unicode="7" vert-adv-y="0" 
d="M482 98h-106v568c0 16 7 34 16 42l410 456v36h-640v120h748v-180c0 -14 -5 -32 -16 -42l-412 -458v-542z" />
    <glyph glyph-name="eight" unicode="8" vert-adv-y="0" 
d="M284 1166l104 132c11 14 26 20 40 20h214c16 0 29 -6 38 -16l104 -120c11 -12 17 -26 17 -40v-250l-18 -40l-65 -68l180 -214c7 -10 12 -24 12 -40v-142c0 -14 -5 -26 -16 -38l-218 -238c-9 -10 -20 -14 -34 -14h-216c-16 0 -31 6 -38 14l-210 238l-16 40v142
c0 10 7 24 18 38l176 210l-70 68c-11 10 -18 26 -18 44v238c0 10 5 24 16 36zM270 508v-94l178 -206h173l185 208v92l-185 218h-166zM376 1108v-192l77 -78h169l72 78v204l-73 84h-170z" />
    <glyph glyph-name="nine" unicode="9" vert-adv-y="0" 
d="M804 868l-236 -262c-7 -10 -23 -18 -37 -18h-213c-13 0 -27 6 -38 18l-102 114c-9 8 -16 26 -16 42v254c0 14 5 32 16 42l219 244c7 10 24 18 38 18h312c13 0 28 -6 37 -18l110 -124c9 -10 16 -26 16 -42v-856c0 -14 -5 -30 -16 -42l-144 -160l-75 84l129 140v566z
M804 1032v82l-79 86h-268l-187 -208v-206l70 -78h169z" />
    <glyph glyph-name="germandbls" unicode="&#xdf;" vert-adv-y="0" 
d="M152 1030v5v6v5l2 5l2 4l2 5l2 4l3 4l4 4l218 228l5 6l2 1l2 2l1 1l4 3l4 3l3 2h7h8h120h5l5 1l5 -1l4 -3l4 -4l4 -3l4 -3l3 -3l4 -4l103 -120l5 -6l1 -2l1 -2l2 -2l1 -4l2 -4v-4l1 -3v-2l1 -3v-8v-124v-8l-1 -2v-2l-1 -2v-3l-1 -2l-1 -3v-2v-2l-1 -2l-2 -2l-1 -2l-1 -2
l-2 -1l-2 -2l-1 -1l-72 -86l291 -324l4 -4l3 -4l2 -4l2 -4l1 -4l1 -4v-3l1 -2l1 -3v-8v-246l-1 -5l-1 -6l-2 -5l-1 -4l-1 -4l-2 -4l-2 -4l-3 -4l-4 -4l-102 -112l-4 -4l-3 -3l-4 -3l-4 -2l-5 -2l-4 -2l-4 -2l-4 -3l-4 -1h-227h-7h-6l-4 3l-4 2l-4 3l-4 3l-3 3l-4 4l-110 120
l72 80l94 -100h185l74 80v198l-313 346l-4 4l-3 4l-2 4l-2 5l-1 4l-1 5l-1 5l-1 4v5v14l1 5l3 5l2 4l2 4l3 4l4 4l93 110v78l-73 86h-80l-187 -196v-908h-101v932z" />
    <glyph glyph-name="section" unicode="&#xa7;" vert-adv-y="0" 
d="M645 252l45 48v202l-389 416l-45 -44v-202zM690 146v-106v-16c-2 -4 -7 -8 -9 -12s-4 -8 -8 -12l-100 -122c-4 -4 -7 -8 -11 -10c-5 -2 -9 -8 -13 -10c-2 -1 -3 -1 -5 -1c-4 0 -6 1 -9 1h-279v120h255l72 84v96l-421 448c-4 4 -7 8 -9 12l-7 14c-1 2 -1 4 -1 6
c0 4 1 7 1 10v252c0 6 3 10 5 16c2 4 4 10 6 14c4 4 7 6 11 10l88 84v106c0 4 -1 7 -1 11c0 1 0 3 1 5c0 4 3 8 5 12s5 8 7 12l103 122c2 4 6 8 11 10c4 2 7 4 12 6c4 2 10 10 15 10h281v-122h-258l-74 -88v-92l422 -448c4 -4 7 -8 9 -12c4 -6 5 -10 5 -14c2 -6 2 -12 2 -16
v-252c0 -6 -4 -12 -6 -16c-2 -6 -3 -10 -5 -14s-5 -8 -9 -12z" />
    <glyph glyph-name="numbersign" unicode="#" vert-adv-y="0" 
d="M580 952h-214v-246h214v246zM258 1196h108v-122h214v122h106v-124h108v-120h-108v-246h108v-120h-108v-120h-106v120h-214v-122h-108v122h-106v122h106v244h-106v122h106v122z" />
    <glyph glyph-name="at" unicode="@" vert-adv-y="0" 
d="M590 704v120h-29l-77 -86v-34h106zM698 704h34l70 80v328l-72 80h-385l-75 -84v-810l66 -76h574v-120h-595c-13 0 -29 6 -40 18l-99 110c-9 10 -14 26 -14 42v860c0 14 3 30 14 42l108 120c9 10 26 18 40 18h428c13 0 29 -6 40 -18l104 -116c9 -10 14 -26 14 -42v-378
c0 -14 -3 -30 -14 -42l-103 -114c-9 -10 -23 -18 -37 -18h-326c-29 0 -54 28 -54 60v118c0 14 3 30 14 42l110 122c9 10 26 14 40 14h104c29 0 54 -24 54 -56v-180z" />
    <glyph glyph-name="percent" unicode="%" vert-adv-y="0" 
d="M711 126c5.47971 -10.3205 13.327 -19.4446 23 -26c9.12106 -6.18133 19.9819 -9.93394 31 -10c11.3408 -0.0679972 22.5494 3.73073 32 10c9.75199 6.46918 17.7589 15.5366 23 26c5.55489 11.09 8 23.5966 8 36c1.13687e-13 12.4034 -2.44511 24.91 -8 36
c-5.24106 10.4634 -13.248 19.5308 -23 26c-9.45062 6.26927 -20.6592 10.068 -32 10c-11.0181 -0.0660624 -21.8789 -3.81867 -31 -10c-9.67303 -6.55541 -17.5203 -15.6795 -23 -26c-5.85848 -11.0339 -9 -23.5072 -9 -36s3.14152 -24.9661 9 -36zM599.996 161.362
c0 32.0505 7.16802 64.2321 22.0043 92.6376c13.8051 26.4312 34.1858 49.4639 59 66c24.3535 16.2291 53.268 26.0008 82.5299 26.0008c0.156702 0 0.313414 -0.000280233 0.470135 -0.000841207c29.0892 -0.104123 57.7944 -9.86679 82 -26
c24.8128 -16.5379 45.194 -39.5695 59 -66c14.8369 -28.4041 22.0043 -60.5849 22.0043 -92.6345c0 -0.455209 -0.00144591 -0.910392 -0.0043363 -1.36554c-0.204094 -32.1384 -7.46562 -64.3352 -22 -93c-13.6115 -26.8448 -33.8267 -50.5009 -59 -67
c-24.2356 -15.8845 -53.0229 -24.9012 -82 -25c-0.160496 -0.000547332 -0.320988 -0.000820826 -0.481475 -0.000820826c-29.1483 0 -58.1383 9.02179 -82.5185 25.0008c-25.1735 16.4989 -45.3884 40.1553 -59 67c-14.7434 29.0768 -22.0043 61.3931 -22.0043 94.3624z
M273 1092c5.21983 -10.4792 13.2067 -19.585 23 -26c9.47626 -6.20735 20.6722 -9.89269 32 -10c11.3573 -0.107591 22.6842 3.50276 32 10c9.4041 6.55879 16.7599 15.8022 22 26c5.70647 11.1054 9 23.5142 9 36s-3.29353 24.8946 -9 36
c-5.2401 10.1978 -12.5959 19.4412 -22 26c-9.31585 6.49724 -20.6427 10.1076 -32 10c-11.3278 -0.107312 -22.5237 -3.79265 -32 -10c-9.79327 -6.41501 -17.7802 -15.5208 -23 -26c-5.52963 -11.1012 -8 -23.5979 -8 -36s2.47037 -24.8988 8 -36zM162 1126
c0 32.234 8.26641 64.3303 23 93c13.6483 26.5578 33.1539 50.4391 58 67c24.3948 16.2601 53.6828 25 83 25s58.6052 -8.73991 83 -25c24.8461 -16.5609 44.3517 -40.4422 58 -67c14.7336 -28.6697 23 -60.766 23 -93s-8.26641 -64.3303 -23 -93
c-13.6483 -26.5578 -33.1539 -50.4391 -58 -67c-24.3948 -16.2601 -53.6828 -25 -83 -25s-58.6052 8.73991 -83 25c-24.8461 16.5609 -44.3517 40.4422 -58 67c-14.7336 28.6697 -23 60.766 -23 93zM180 236c-6.75293 7.69141 -11.5781 17.0547 -14 27
c-2.38867 9.80957 -2.3916 20.1914 0 30c2.42383 9.94336 7.29297 19.2695 14 27c7.68262 8.85449 17.7529 15.5918 28.8213 19.4551c11.0674 3.86328 23.1045 4.85938 34.6807 3.01562c23.1543 -3.68652 43.9297 -19.0078 55.2461 -39.541
c6.92773 -12.5684 10.3467 -26.9053 10.3467 -41.2666c0 -9.09961 -1.37305 -18.21 -4.09473 -26.8867c-7.01855 -22.3701 -22.7051 -41.7158 -42.6113 -54.1016c-17.874 -11.1211 -38.9863 -16.7031 -60.0518 -16.7031c-2.39648 0 -4.79297 0.0722656 -7.18262 0.216797
c-23.4033 1.41504 -46.2314 9.62598 -65.7285 22.6475c-38.9941 26.043 -63.5566 70.4668 -71.4766 116.685c-2.15723 12.5859 -3.16797 25.3027 -3.16797 38.0322c0 34.0137 7.21973 68.125 19.0908 100.114c16.3145 43.9609 41.1631 84.3535 69.3887 121.798
c56.4521 74.8877 125.11 139.549 190.218 207.046c64.6504 68.5791 125.681 140.462 189.027 210.246c31.6729 34.8926 64.3721 69.0254 100.607 99.1523s76.373 56.373 120.913 71.7646c24.7842 8.56445 51.1914 13.5859 77.375 13.5859
c20.8721 0 41.6016 -3.19043 61.252 -10.3193c22.1504 -8.03613 42.6279 -21.083 58.3359 -38.6475c15.707 -17.5635 26.5059 -39.7402 29.2432 -63.1445c0.448242 -3.83691 0.672852 -7.70605 0.672852 -11.5762c0 -19.7324 -5.83008 -39.5049 -17.4551 -55.4082
c-13.9053 -19.0225 -36.291 -32.0225 -59.832 -33.0322c-11.7715 -0.504883 -23.6855 1.92871 -34.2109 7.22266c-10.5244 5.29492 -19.623 13.4619 -25.8096 23.4893c-6.18652 10.0264 -9.41211 21.8975 -8.89355 33.668c0.517578 11.7695 4.81738 23.3848 12.2959 32.4883
c6.27344 7.46094 14.6807 13.1416 24 16c9.05859 2.77832 18.9521 2.81348 28 0c9.29785 -2.89062 17.5762 -8.68262 24 -16c6.75293 -7.69141 11.5781 -17.0547 14 -27c2.38867 -9.80957 2.3916 -20.1914 0 -30c-2.42383 -9.94336 -7.29297 -19.2695 -14 -27
c-7.68262 -8.85449 -17.7529 -15.5918 -28.8213 -19.4551c-11.0674 -3.86328 -23.1045 -4.85938 -34.6807 -3.01562c-23.1543 3.68652 -43.9297 19.0078 -55.2461 39.541c-6.92773 12.5684 -10.3467 26.9053 -10.3467 41.2666c0 9.09961 1.37305 18.21 4.09473 26.8867
c7.01855 22.3701 22.7051 41.7158 42.6113 54.1016c17.874 11.1211 38.9863 16.7031 60.0518 16.7031c2.39648 0 4.79297 -0.0722656 7.18262 -0.216797c23.4033 -1.41504 46.2314 -9.62598 65.7285 -22.6475c38.9941 -26.043 63.5566 -70.4668 71.4766 -116.685
c2.15723 -12.5859 3.16797 -25.3027 3.16797 -38.0322c0 -34.0137 -7.21973 -68.125 -19.0908 -100.114c-16.3145 -43.9609 -41.1631 -84.3535 -69.3887 -121.798c-56.4521 -74.8877 -125.11 -139.549 -190.218 -207.046
c-64.6504 -68.5791 -125.681 -140.462 -189.027 -210.246c-31.6729 -34.8926 -64.3721 -69.0254 -100.607 -99.1523s-76.373 -56.373 -120.913 -71.7646c-24.7842 -8.56445 -51.1914 -13.5859 -77.375 -13.5859c-20.8721 0 -41.6016 3.19043 -61.252 10.3193
c-22.1504 8.03613 -42.6279 21.083 -58.3359 38.6475c-15.707 17.5635 -26.5059 39.7402 -29.2432 63.1445c-0.448242 3.83691 -0.672852 7.70605 -0.672852 11.5762c0 19.7324 5.83008 39.5049 17.4551 55.4082c13.9053 19.0225 36.291 32.0225 59.832 33.0322
c11.7715 0.504883 23.6855 -1.92871 34.2109 -7.22266c10.5244 -5.29492 19.623 -13.4619 25.8096 -23.4893c6.18652 -10.0264 9.41211 -21.8975 8.89355 -33.668c-0.517578 -11.7695 -4.81738 -23.3848 -12.2959 -32.4883c-6.27344 -7.46094 -14.6807 -13.1416 -24 -16
c-9.05859 -2.77832 -18.9521 -2.81348 -28 0c-9.29785 2.89062 -17.5762 8.68262 -24 16z" />
    <glyph glyph-name="underscore" unicode="_" vert-adv-y="0" 
d="M151 98h768v-124h-768v124z" />
    <glyph glyph-name="ampersand" unicode="&#x26;" vert-adv-y="0" 
d="M388 484l-4 3l-3 4l-2 3l-3 4l-2 4l-2 4l-1 5v4l1 5v76h-65l-49 -78v-214l74 -84h182l56 62zM170 736l-3 3l-3 4l-3 3v4v6v6v6v246v8v6v8v2l-1 2l1 2l2 2l3 2l2 2l6 6l99 118l3 4l4 3l3 3l4 2l5 2l4 2l5 1l4 -1h5h121h4l4 -1l5 -1l4 -2l4 -2l4 -2l2 -1l2 -2l2 -1l1 -1
l2 -2l2 -1l101 -110l1 -2l1 -2l1 -2l2 -2l1 -2l1 -2l2 -5l2 -4l1 -5l2 -5v-4l1 -5v-248l1 -3l2 -2l2 -3l-1 -3l-1 -2v-3l-2 -5l-1 -4v-5l-2 -2l-1 -2l-1 -2l-6 -6l-100 -114v-68l170 -186l189 208l74 -80l-191 -210l186 -204l-72 -78l-186 202l-72 -80l-3 -4l-4 -3l-3 -3
l-5 -2l-4 -2l-4 -2l-5 -1l-5 1h-4h-224h-4l-4 -1l-4 1l-4 3l-3 2l-4 3l-2 1l-2 2l-1 1l-2 1l-2 2l-2 1l-108 118l-3 4l-2 4l-2 4l-2 5l-3 4l-2 5l-1 5l2 6l1 5v254v6v6l1 2l3 2l1 2v4v3v4v3l58 88zM480 796v200l-71 80h-77l-70 -84v-206l41 -66h112z" />
    <glyph glyph-name="minus" unicode="&#x2212;" vert-adv-y="0" 
d="M268 712h536v-112h-536v112z" />
    <glyph glyph-name="period" unicode="." vert-adv-y="0" 
d="M370 322h214v-222h-214v222z" />
    <glyph glyph-name="comma" unicode="," vert-adv-y="0" 
d="M690 378v-214l-32 -84l-243 -272l-151 168l212 238v164h214z" />
    <glyph glyph-name="colon" unicode=":" vert-adv-y="0" 
d="M370 322h214v-222h-214v222zM370 822h214v-222h-214v222z" />
    <glyph glyph-name="plus" unicode="+" vert-adv-y="0" 
d="M482 1044h108v-332h320v-126h-320v-320h-108v320h-320v126h320v332z" />
    <glyph glyph-name="logicalnot" unicode="&#xac;" vert-adv-y="0" 
d="M162 820h748v-364h-108v244h-640v120z" />
    <glyph glyph-name="macron" unicode="&#xaf;" vert-adv-y="0" 
d="M241 1318h588v-122h-588v122z" />
    <glyph glyph-name="degree" unicode="&#xb0;" vert-adv-y="0" 
d="M476 1318c119 0 212 -110 212 -242s-93 -242 -212 -242s-212 110 -212 242s93 242 212 242zM366 1076c0 -72 51 -128 110 -128s110 56 110 128s-51 130 -110 130s-110 -58 -110 -130z" />
    <glyph glyph-name="periodcentered" unicode="&#xb7;" vert-adv-y="0" 
d="M366 708h218v-246h-218v246z" />
    <glyph glyph-name="asciicircum" unicode="^" vert-adv-y="0" 
d="M293 992l-38 42l247 274c3.48576 3.8668 7.13023 7.66432 11.5054 10.4858c4.37514 2.82148 9.36014 4.65413 14.4946 5.51419c9.29422 1.55686 18.9071 0.474893 28 -2c4.26755 -1.16153 8.43862 -2.78257 12.1689 -5.15868
c3.73032 -2.37611 6.86971 -5.55627 9.83106 -8.84132l247 -274l-38 -42l-39 -42l-208 231l-208 -231z" />
    <glyph glyph-name="asciitilde" unicode="~" vert-adv-y="0" 
d="M218 1136l-38 42l108 120c3.50322 3.89247 7.41192 7.47545 12 10c4.45245 2.44992 9.19968 4.33166 14 6c1.9271 0.669759 3.89013 1.25317 5.90129 1.59601c2.01116 0.342832 4.05853 0.403994 6.09871 0.403994h118c4.74378 0 9.55443 -0.344618 14 -2
c4.61953 -1.72016 8.80777 -4.40688 13 -7c2.02409 -1.25201 4.03363 -2.53794 5.89275 -4.02392c1.85912 -1.48599 3.516 -3.20622 5.10725 -4.97608l196 -218h73l86 96l39 -42l38 -42l-103 -114c-3.01515 -3.33716 -6.27968 -6.47275 -10 -9
c-4.32857 -2.94044 -9.0367 -5.34219 -14 -7c-4.49508 -1.50142 -9.26081 -2 -14 -2h-117c-4.40978 0 -8.83001 0.565658 -13 2c-4.51937 1.55452 -8.86818 3.59806 -13 6c-4.52411 2.62999 -8.49143 6.11742 -12 10l-197 218h-72l-92 -102z" />
    <glyph glyph-name="dieresis" unicode="&#xa8;" vert-adv-y="0" 
d="M253 1318h113v-122h-113v122zM584 1318h111v-122h-111v122z" />
    <glyph glyph-name="grave" unicode="`" vert-adv-y="0" 
d="M401 1302c11 12 25 16 39 16c13 0 27 -4 38 -16l225 -248c11 -12 15 -28 15 -42c0 -16 -4 -32 -15 -44s-25 -16 -39 -16c-13 0 -27 4 -38 16l-225 250c-11 12 -15 28 -15 42c0 16 4 32 15 42z" />
    <glyph glyph-name="acute" unicode="&#xb4;" vert-adv-y="0" 
d="M392 972c-11 12 -16 28 -16 42c0 18 7 34 16 44l216 242c11 12 25 18 38 18c16 0 31 -8 40 -18s16 -26 16 -44c0 -14 -5 -30 -16 -42l-216 -242c-9 -10 -24 -18 -40 -18c-13 0 -27 6 -38 18z" />
    <glyph glyph-name="cedilla" unicode="&#xb8;" vert-adv-y="0" 
d="M473 350h108v-323c0 -16 -7 -33 -16 -42l-101 -112c-10 -12 -26 -18 -38 -18h-163v120h141l69 77v298z" />
    <glyph glyph-name="agrave" unicode="&#xe0;" vert-adv-y="0" 
d="M280 1416c11 12 25 16 39 16c13 0 27 -4 38 -16l225 -248c11 -12 15 -28 15 -42c0 -16 -4 -32 -15 -44s-25 -16 -39 -16c-13 0 -27 4 -38 16l-225 250c-11 12 -15 28 -15 42c0 16 4 32 15 42zM702 216v252h-362l-77 -88v-74l75 -90h364zM810 216h110v-116h-605
c-18 0 -33 12 -38 18l-104 124c-13 14 -17 34 -17 42v120c0 20 12 36 17 42l106 122c13 14 29 16 38 16h385v166l-74 84h-367v118h389c18 0 32 -12 37 -18l107 -120c13 -14 16 -30 16 -40v-558z" />
    <glyph glyph-name="egrave" unicode="&#xe8;" vert-adv-y="0" 
d="M279 1416c11 12 25 16 39 16c13 0 27 -4 38 -16l225 -248c11 -12 15 -28 15 -42c0 -16 -4 -32 -15 -44s-25 -16 -39 -16c-13 0 -27 4 -38 16l-225 250c-11 12 -15 28 -15 42c0 16 4 32 15 42zM257 462v-158l77 -90h474v-112h-496c-16 0 -31 10 -36 16l-111 120
c-13 14 -15 32 -15 42v484c0 20 13 34 18 40l110 126c13 14 31 22 40 22h326c18 0 33 -16 38 -22l106 -124c13 -14 16 -30 16 -40v-304h-547zM258 586h442v156l-78 88h-284l-80 -90v-154z" />
    <glyph glyph-name="igrave" unicode="&#xec;" vert-adv-y="0" 
d="M469 952h110v-854h-110v854zM288 1420c11 12 25 16 39 16c13 0 27 -4 38 -16l225 -248c11 -12 15 -28 15 -42c0 -16 -4 -32 -15 -44s-25 -16 -39 -16c-13 0 -27 4 -38 16l-225 250c-11 12 -15 28 -15 42c0 16 4 32 15 42z" />
    <glyph glyph-name="ograve" unicode="&#xf2;" vert-adv-y="0" 
d="M226 1416c11 12 25 16 39 16c13 0 27 -4 38 -16l225 -248c11 -12 15 -28 15 -42c0 -16 -4 -32 -15 -44s-25 -16 -39 -16c-13 0 -27 4 -38 16l-225 250c-11 12 -15 28 -15 42c0 16 4 32 15 42zM258 748v-444l78 -84h292l72 84v444l-71 88h-293zM168 814l110 126
c13 14 29 14 36 14h339c18 0 32 -12 39 -20l101 -126c11 -12 15 -28 15 -38v-490c0 -20 -12 -36 -17 -42l-104 -118c-10 -13 -23 -14 -32 -14h-6h-335c-16 0 -29 8 -36 14l-111 116c-14 14 -17 32 -17 44v494c0 20 13 34 18 40z" />
    <glyph glyph-name="ugrave" unicode="&#xf9;" vert-adv-y="0" 
d="M277 1416c11 12 25 16 39 16c13 0 27 -4 38 -16l225 -248c11 -12 15 -28 15 -42c0 -16 -4 -32 -15 -44s-25 -16 -39 -16c-13 0 -27 4 -38 16l-225 250c-11 12 -15 28 -15 42c0 16 4 32 15 42zM725 168l-43 -48c-5 -6 -20 -18 -38 -18h-327c-9 0 -23 2 -36 16l-107 116
c-5 6 -16 22 -16 42v676h106v-652l74 -82h285l75 88v646h108v-670c0 -6 -3 -14 -7 -24l33 -40h88v-116h-110c-18 0 -33 8 -38 16z" />
    <glyph glyph-name="atilde" unicode="&#xe3;" vert-adv-y="0" 
d="M222 1254l-38 42l108 120c3.50293 3.89258 7.41211 7.47559 12 10c4.45215 2.4502 9.19922 4.33203 14 6c1.92676 0.669922 3.88965 1.25293 5.90137 1.5957c2.01074 0.342773 4.05859 0.404297 6.09863 0.404297h118c4.74414 0 9.55469 -0.344727 14 -2
c4.61914 -1.71973 8.80762 -4.40723 13 -7c2.02441 -1.25195 4.0332 -2.53809 5.89258 -4.02344c1.85938 -1.48633 3.5166 -3.20703 5.10742 -4.97656l196 -218h73l86 96l39 -42l38 -42l-103 -114c-3.01562 -3.33691 -6.2793 -6.47266 -10 -9
c-4.32812 -2.94043 -9.03711 -5.3418 -14 -7c-4.49512 -1.50098 -9.26074 -2 -14 -2h-117c-4.41016 0 -8.83008 0.56543 -13 2c-4.51953 1.55469 -8.86816 3.59766 -13 6c-4.52441 2.62988 -8.49121 6.11719 -12 10l-197 218h-72l-92 -102zM702 216v252h-362l-77 -88v-74
l75 -90h364zM810 216h110v-116h-605c-18 0 -33 12 -38 18l-104 124c-13 14 -17 34 -17 42v120c0 20 12 36 17 42l106 122c13 14 29 16 38 16h385v166l-74 84h-367v118h389c18 0 32 -12 37 -18l107 -120c13 -14 16 -30 16 -40v-558z" />
    <glyph glyph-name="otilde" unicode="&#xf5;" vert-adv-y="0" 
d="M153 1254l-38 42l108 120c3.50293 3.89258 7.41211 7.47559 12 10c4.45215 2.4502 9.19922 4.33203 14 6c1.92676 0.669922 3.88965 1.25293 5.90137 1.5957c2.01074 0.342773 4.05859 0.404297 6.09863 0.404297h118c4.74414 0 9.55469 -0.344727 14 -2
c4.61914 -1.71973 8.80762 -4.40723 13 -7c2.02441 -1.25195 4.0332 -2.53809 5.89258 -4.02344c1.85938 -1.48633 3.5166 -3.20703 5.10742 -4.97656l196 -218h73l86 96l39 -42l38 -42l-103 -114c-3.01562 -3.33691 -6.2793 -6.47266 -10 -9
c-4.32812 -2.94043 -9.03711 -5.3418 -14 -7c-4.49512 -1.50098 -9.26074 -2 -14 -2h-117c-4.41016 0 -8.83008 0.56543 -13 2c-4.51953 1.55469 -8.86816 3.59766 -13 6c-4.52441 2.62988 -8.49121 6.11719 -12 10l-197 218h-72l-92 -102zM258 748v-444l78 -84h292l72 84
v444l-71 88h-293zM168 814l110 126c13 14 29 14 36 14h339c18 0 32 -12 39 -20l101 -126c11 -12 15 -28 15 -38v-490c0 -20 -12 -36 -17 -42l-104 -118c-10 -13 -23 -14 -32 -14h-6h-335c-16 0 -29 8 -36 14l-111 116c-14 14 -17 32 -17 44v494c0 20 13 34 18 40z" />
    <glyph glyph-name="ydiaeresis" vert-adv-y="0" 
d="M228 1196h113v-122h-113v122zM559 1196h111v-122h-111v122zM443 156l-289 326c-11 12 -17 26 -17 42v428h108v-404l276 -306l164 182v528h108v-552c0 -16 -6 -30 -17 -42l-552 -614l-76 84z" />
    <glyph glyph-name="Yacute" unicode="&#xdd;" vert-adv-y="0" 
d="M487 1238c-11 12 -16 28 -16 42c0 18 7 34 16 44l216 242c11 12 25 18 38 18c16 0 31 -8 40 -18s16 -26 16 -44c0 -14 -5 -30 -16 -42l-216 -242c-9 -10 -24 -18 -40 -18c-13 0 -27 6 -38 18zM590 742v-642h-110v642l-302 348c-11 12 -16 26 -16 42v62h108v-38l268 -304
l264 304v38h108v-58c0 -16 -3 -32 -14 -44z" />
    <glyph glyph-name="yacute" unicode="&#xfd;" vert-adv-y="0" 
d="M430 1092c-11 12 -16 28 -16 42c0 18 7 34 16 44l216 242c11 12 25 18 38 18c16 0 31 -8 40 -18s16 -26 16 -44c0 -14 -5 -30 -16 -42l-216 -242c-9 -10 -24 -18 -40 -18c-13 0 -27 6 -38 18zM456 156l-289 326c-11 12 -17 26 -17 42v428h108v-404l276 -306l164 182v528
h108v-552c0 -16 -6 -30 -17 -42l-552 -614l-76 84z" />
    <glyph glyph-name="eacute" unicode="&#xe9;" vert-adv-y="0" 
d="M502 1092c-11 12 -16 28 -16 42c0 18 7 34 16 44l216 242c11 12 25 18 38 18c16 0 31 -8 40 -18s16 -26 16 -44c0 -14 -5 -30 -16 -42l-216 -242c-9 -10 -24 -18 -40 -18c-13 0 -27 6 -38 18zM257 462v-158l77 -90h474v-112h-496c-16 0 -31 10 -36 16l-111 120
c-13 14 -15 32 -15 42v484c0 20 13 34 18 40l110 126c13 14 31 22 40 22h326c18 0 33 -16 38 -22l106 -124c13 -14 16 -30 16 -40v-304h-547zM258 586h442v156l-78 88h-284l-80 -90v-154z" />
    <glyph glyph-name="onequarter" unicode="&#xbc;" vert-adv-y="0" 
d="M1001 346v-120h-54v-126h-108v126h-164c-40 0 -52 40 -52 62v56v58c0 18 11 34 16 40l164 184c11 14 29 20 36 20h58c36 0 52 -36 52 -58v-242h52zM839 346v152l-108 -124v-28h108zM817 1120c11 12 25 18 39 18s29 -6 40 -18s16 -28 16 -44s-5 -32 -14 -44l-648 -732
c-11 -12 -24 -18 -38 -18s-29 6 -40 18s-16 28 -16 44s5 32 14 44zM403 828h-110v360l-14 -16l-76 84l108 118c5 6 16 18 38 18c20 0 54 -18 54 -60v-504z" />
    <glyph glyph-name="onehalf" unicode="&#xbd;" vert-adv-y="0" 
d="M403 828h-110v360l-14 -16l-76 84l108 118c5 6 16 18 38 18c20 0 54 -18 54 -60v-504zM817 1120c11 12 25 18 39 18s29 -6 40 -18s16 -28 16 -44s-5 -32 -14 -44l-648 -732c-11 -12 -24 -18 -38 -18s-29 6 -40 18s-16 28 -16 44s5 32 14 44zM1006 222v-120h-330v118
c0 20 10 36 15 42l205 224v20l-20 22h-72l-36 -42l-79 80l52 62c7 10 22 18 40 18h120c9 0 25 -4 38 -18l49 -58c7 -8 14 -24 14 -42v-66c0 -10 -1 -28 -14 -42l-180 -198h198z" />
    <glyph glyph-name="threequarters" unicode="&#xbe;" vert-adv-y="0" 
d="M1001 346v-120h-54v-126h-108v126h-164c-40 0 -52 40 -52 62v56v58c0 18 11 34 16 40l164 184c11 14 29 20 36 20h58c36 0 52 -36 52 -58v-242h52zM839 346v152l-108 -124v-28h108zM817 1120c11 12 25 18 39 18s29 -6 40 -18s16 -28 16 -44s-5 -32 -14 -44l-648 -732
c-11 -12 -24 -18 -38 -18s-29 6 -40 18s-16 28 -16 44s5 32 14 44zM215 1202v110h319v-92l-83 -102l66 -76c7 -10 13 -24 13 -36v-104c0 -14 -4 -26 -11 -36l-57 -76c-9 -12 -24 -20 -38 -20h-144c-13 0 -24 6 -33 14l-61 60l65 82l47 -46h103l30 40l-2 62l-27 34h-99v88
l83 98h-171z" />
    <glyph glyph-name="udieresis" unicode="&#xfc;" vert-adv-y="0" 
d="M293 1196h113v-122h-113v122zM624 1196h111v-122h-111v122zM725 168l-43 -48c-5 -6 -20 -18 -38 -18h-327c-9 0 -23 2 -36 16l-107 116c-5 6 -16 22 -16 42v676h106v-652l74 -82h285l75 88v646h108v-670c0 -6 -3 -14 -7 -24l33 -40h88v-116h-110c-18 0 -33 8 -38 16z" />
    <glyph glyph-name="ccedilla" unicode="&#xe7;" vert-adv-y="0" 
d="M808 950v-118h-366l-185 -208v-198l191 -208h360v-116h-141v-321c0 -16 -7 -33 -16 -42l-101 -112c-10 -12 -26 -18 -38 -18h-163v120h141l69 77v296h-133c-7 0 -25 2 -38 16l-221 242c-5 6 -17 22 -17 42v246c0 10 4 28 17 42l216 242c5 6 18 18 36 18h389z" />
    <glyph glyph-name="adieresis" unicode="&#xe4;" vert-adv-y="0" 
d="M237 1320h113v-122h-113v122zM568 1320h111v-122h-111v122zM702 216v252h-362l-77 -88v-74l75 -90h364zM810 216h110v-116h-605c-18 0 -33 12 -38 18l-104 124c-13 14 -17 34 -17 42v120c0 20 12 36 17 42l106 122c13 14 29 16 38 16h385v166l-74 84h-367v118h389
c18 0 32 -12 37 -18l107 -120c13 -14 16 -30 16 -40v-558z" />
    <glyph glyph-name="edieresis" unicode="&#xeb;" vert-adv-y="0" 
d="M237 1316h113v-122h-113v122zM568 1316h111v-122h-111v122zM257 462v-158l77 -90h474v-112h-496c-16 0 -31 10 -36 16l-111 120c-13 14 -15 32 -15 42v484c0 20 13 34 18 40l110 126c13 14 31 22 40 22h326c18 0 33 -16 38 -22l106 -124c13 -14 16 -30 16 -40v-304h-547z
M258 586h442v156l-78 88h-284l-80 -90v-154z" />
    <glyph glyph-name="idieresis" unicode="&#xef;" vert-adv-y="0" 
d="M479 952h110v-854h-110v854zM633 1314h111v-122h-111v122zM302 1314h113v-122h-113v122z" />
    <glyph glyph-name="odieresis" unicode="&#xf6;" vert-adv-y="0" 
d="M235 1316h113v-122h-113v122zM566 1316h111v-122h-111v122zM258 748v-444l78 -84h292l72 84v444l-71 88h-293zM168 814l110 126c13 14 29 14 36 14h339c18 0 32 -12 39 -20l101 -126c11 -12 15 -28 15 -38v-490c0 -20 -12 -36 -17 -42l-104 -118c-10 -13 -23 -14 -32 -14
h-6h-335c-16 0 -29 8 -36 14l-111 116c-14 14 -17 32 -17 44v494c0 20 13 34 18 40z" />
    <glyph glyph-name="uni03BC" unicode="&#x3bc;" vert-adv-y="0" 
d="M155 952h102v-652l78 -82h289l76 88v646h108v-670c0 -6 -3 -14 -7 -24l32 -40h88v-116h-109c-18 0 -33 8 -38 16l-47 50l-43 -48c-5 -6 -20 -18 -38 -18h-333c-9 0 -23 2 -36 16l-16 18v-404h-106v1220z" />
    <glyph glyph-name="acircumflex" unicode="&#xe2;" vert-adv-y="0" 
d="M271 1092l-38 42l247 274c3.48535 3.86719 7.12988 7.66406 11.5059 10.4854c4.375 2.82227 9.35938 4.6543 14.4941 5.51465c9.29395 1.55664 18.9072 0.474609 28 -2c4.26758 -1.16113 8.43848 -2.78223 12.1689 -5.1582
c3.73047 -2.37695 6.87012 -5.55664 9.83105 -8.8418l247 -274l-38 -42l-39 -42l-208 231l-208 -231zM702 216v252h-362l-77 -88v-74l75 -90h364zM810 216h110v-116h-605c-18 0 -33 12 -38 18l-104 124c-13 14 -17 34 -17 42v120c0 20 12 36 17 42l106 122
c13 14 29 16 38 16h385v166l-74 84h-367v118h389c18 0 32 -12 37 -18l107 -120c13 -14 16 -30 16 -40v-558z" />
    <glyph glyph-name="ecircumflex" unicode="&#xea;" vert-adv-y="0" 
d="M252 1092l-38 42l247 274c3.48535 3.86719 7.12988 7.66406 11.5059 10.4854c4.375 2.82227 9.35938 4.6543 14.4941 5.51465c9.29395 1.55664 18.9072 0.474609 28 -2c4.26758 -1.16113 8.43848 -2.78223 12.1689 -5.1582
c3.73047 -2.37695 6.87012 -5.55664 9.83105 -8.8418l247 -274l-38 -42l-39 -42l-208 231l-208 -231zM257 462v-158l77 -90h474v-112h-496c-16 0 -31 10 -36 16l-111 120c-13 14 -15 32 -15 42v484c0 20 13 34 18 40l110 126c13 14 31 22 40 22h326c18 0 33 -16 38 -22
l106 -124c13 -14 16 -30 16 -40v-304h-547zM258 586h442v156l-78 88h-284l-80 -90v-154z" />
    <glyph glyph-name="icircumflex" unicode="&#xee;" vert-adv-y="0" 
d="M481 952h109v-854h-109v854zM293 1024l-38 42l247 274c3.48535 3.86719 7.12988 7.66406 11.5059 10.4854c4.375 2.82227 9.35938 4.6543 14.4941 5.51465c9.29395 1.55664 18.9072 0.474609 28 -2c4.26758 -1.16113 8.43848 -2.78223 12.1689 -5.1582
c3.73047 -2.37695 6.87012 -5.55664 9.83105 -8.8418l247 -274l-38 -42l-39 -42l-208 231l-208 -231z" />
    <glyph glyph-name="ocircumflex" unicode="&#xf4;" vert-adv-y="0" 
d="M230 1092l-38 42l247 274c3.48535 3.86719 7.12988 7.66406 11.5059 10.4854c4.375 2.82227 9.35938 4.6543 14.4941 5.51465c9.29395 1.55664 18.9072 0.474609 28 -2c4.26758 -1.16113 8.43848 -2.78223 12.1689 -5.1582
c3.73047 -2.37695 6.87012 -5.55664 9.83105 -8.8418l247 -274l-38 -42l-39 -42l-208 231l-208 -231zM258 748v-444l78 -84h292l72 84v444l-71 88h-293zM168 814l110 126c13 14 29 14 36 14h339c18 0 32 -12 39 -20l101 -126c11 -12 15 -28 15 -38v-490
c0 -20 -12 -36 -17 -42l-104 -118c-10 -13 -23 -14 -32 -14h-6h-335c-16 0 -29 8 -36 14l-111 116c-14 14 -17 32 -17 44v494c0 20 13 34 18 40z" />
    <glyph glyph-name="ucircumflex" unicode="&#xfb;" vert-adv-y="0" 
d="M279 1092l-38 42l247 274c3.48535 3.86719 7.12988 7.66406 11.5059 10.4854c4.375 2.82227 9.35938 4.6543 14.4941 5.51465c9.29395 1.55664 18.9072 0.474609 28 -2c4.26758 -1.16113 8.43848 -2.78223 12.1689 -5.1582
c3.73047 -2.37695 6.87012 -5.55664 9.83105 -8.8418l247 -274l-38 -42l-39 -42l-208 231l-208 -231zM725 168l-43 -48c-5 -6 -20 -18 -38 -18h-327c-9 0 -23 2 -36 16l-107 116c-5 6 -16 22 -16 42v676h106v-652l74 -82h285l75 88v646h108v-670c0 -6 -3 -14 -7 -24l33 -40
h88v-116h-110c-18 0 -33 8 -38 16z" />
    <glyph glyph-name="aacute" unicode="&#xe1;" vert-adv-y="0" 
d="M480 1092c-11 12 -16 28 -16 42c0 18 7 34 16 44l216 242c11 12 25 18 38 18c16 0 31 -8 40 -18s16 -26 16 -44c0 -14 -5 -30 -16 -42l-216 -242c-9 -10 -24 -18 -40 -18c-13 0 -27 6 -38 18zM702 216v252h-362l-77 -88v-74l75 -90h364zM810 216h110v-116h-605
c-18 0 -33 12 -38 18l-104 124c-13 14 -17 34 -17 42v120c0 20 12 36 17 42l106 122c13 14 29 16 38 16h385v166l-74 84h-367v118h389c18 0 32 -12 37 -18l107 -120c13 -14 16 -30 16 -40v-558z" />
    <glyph glyph-name="multiply" unicode="&#xd7;" vert-adv-y="0" 
d="M224 906l78 86l232 -260l234 260l78 -86l-234 -260l234 -260l-78 -84l-234 258l-232 -258l-78 84l234 260z" />
    <glyph glyph-name="iacute" unicode="&#xed;" vert-adv-y="0" 
d="M487 952h114v-854h-114v854zM493 1090c-11 12 -16 28 -16 42c0 18 7 34 16 44l216 242c11 12 25 18 38 18c16 0 31 -8 40 -18s16 -26 16 -44c0 -14 -5 -30 -16 -42l-216 -242c-9 -10 -24 -18 -40 -18c-13 0 -27 6 -38 18z" />
    <glyph glyph-name="oacute" unicode="&#xf3;" vert-adv-y="0" 
d="M433 1092c-11 12 -16 28 -16 42c0 18 7 34 16 44l216 242c11 12 25 18 38 18c16 0 31 -8 40 -18s16 -26 16 -44c0 -14 -5 -30 -16 -42l-216 -242c-9 -10 -24 -18 -40 -18c-13 0 -27 6 -38 18zM258 748v-444l78 -84h292l72 84v444l-71 88h-293zM168 814l110 126
c13 14 29 14 36 14h339c18 0 32 -12 39 -20l101 -126c11 -12 15 -28 15 -38v-490c0 -20 -12 -36 -17 -42l-104 -118c-10 -13 -23 -14 -32 -14h-6h-335c-16 0 -29 8 -36 14l-111 116c-14 14 -17 32 -17 44v494c0 20 13 34 18 40z" />
    <glyph glyph-name="uacute" unicode="&#xfa;" vert-adv-y="0" 
d="M482 1092c-11 12 -16 28 -16 42c0 18 7 34 16 44l216 242c11 12 25 18 38 18c16 0 31 -8 40 -18s16 -26 16 -44c0 -14 -5 -30 -16 -42l-216 -242c-9 -10 -24 -18 -40 -18c-13 0 -27 6 -38 18zM725 168l-43 -48c-5 -6 -20 -18 -38 -18h-327c-9 0 -23 2 -36 16l-107 116
c-5 6 -16 22 -16 42v676h106v-652l74 -82h285l75 88v646h108v-670c0 -6 -3 -14 -7 -24l33 -40h88v-116h-110c-18 0 -33 8 -38 16z" />
    <glyph glyph-name="ntilde" unicode="&#xf1;" vert-adv-y="0" 
d="M207 1254l-38 42l108 120c3.50293 3.89258 7.41211 7.47559 12 10c4.45215 2.4502 9.19922 4.33203 14 6c1.92676 0.669922 3.88965 1.25293 5.90137 1.5957c2.01074 0.342773 4.05859 0.404297 6.09863 0.404297h118c4.74414 0 9.55469 -0.344727 14 -2
c4.61914 -1.71973 8.80762 -4.40723 13 -7c2.02441 -1.25195 4.0332 -2.53809 5.89258 -4.02344c1.85938 -1.48633 3.5166 -3.20703 5.10742 -4.97656l196 -218h73l86 96l39 -42l38 -42l-103 -114c-3.01562 -3.33691 -6.2793 -6.47266 -10 -9
c-4.32812 -2.94043 -9.03711 -5.3418 -14 -7c-4.49512 -1.50098 -9.26074 -2 -14 -2h-117c-4.41016 0 -8.83008 0.56543 -13 2c-4.51953 1.55469 -8.86816 3.59766 -13 6c-4.52441 2.62988 -8.49121 6.11719 -12 10l-197 218h-72l-92 -102zM345 884l43 48c5 6 20 18 38 18
h223c9 0 23 -2 36 -16l106 -116c5 -6 17 -22 17 -42v-674h-103v650l-77 78h-180l-76 -84v-646h-108v670c0 6 3 14 7 24l-32 40h-89v118h114c18 0 29 -10 34 -18z" />
    <glyph glyph-name="Agrave" unicode="&#xc0;" vert-adv-y="0" 
d="M174 1566c11 12 25 16 39 16c13 0 27 -4 38 -16l225 -248c11 -12 15 -28 15 -42c0 -16 -4 -32 -15 -44s-25 -16 -39 -16c-13 0 -27 4 -38 16l-225 250c-11 12 -15 28 -15 42c0 16 4 32 15 42zM268 488v-390h-106v676c0 18 11 34 16 40l318 362c11 14 25 18 36 18
c18 0 33 -8 42 -18l322 -364c13 -14 14 -32 14 -42v-672h-108v390h-534zM270 600h532v146l-268 300l-264 -298v-148z" />
    <glyph glyph-name="Egrave" unicode="&#xc8;" vert-adv-y="0" 
d="M293 1570c11 12 25 16 39 16c13 0 27 -4 38 -16l225 -248c11 -12 15 -28 15 -42c0 -16 -4 -32 -15 -44s-25 -16 -39 -16c-13 0 -27 4 -38 16l-225 250c-11 12 -15 28 -15 42c0 16 4 32 15 42zM162 1196h748v-122h-642v-362h428v-122h-428v-372h642v-120h-748v1098z" />
    <glyph glyph-name="Igrave" unicode="&#xcc;" vert-adv-y="0" 
d="M280 1570c11 12 25 16 39 16c13 0 27 -4 38 -16l225 -248c11 -12 15 -28 15 -42c0 -16 -4 -32 -15 -44s-25 -16 -39 -16c-13 0 -27 4 -38 16l-225 250c-11 12 -15 28 -15 42c0 16 4 32 15 42zM376 1194h320v-120h-106v-856h106v-122h-320v122h106v856h-106v120z" />
    <glyph glyph-name="Ograve" unicode="&#xd2;" vert-adv-y="0" 
d="M279 1568c11 12 25 16 39 16c13 0 27 -4 38 -16l225 -248c11 -12 15 -28 15 -42c0 -16 -4 -32 -15 -44s-25 -16 -39 -16c-13 0 -27 4 -38 16l-225 250c-11 12 -15 28 -15 42c0 16 4 32 15 42zM273 988v-688l70 -80h382l77 86v680l-77 90h-380zM180 1052l102 124
c13 16 29 18 40 18h426c18 0 35 -10 40 -18l108 -124c13 -14 14 -32 14 -42v-730c0 -20 -9 -36 -16 -42l-110 -120c-13 -14 -28 -18 -37 -18h-425c-18 0 -33 10 -38 16l-106 114c-13 14 -16 34 -16 44v738c0 18 11 32 18 40z" />
    <glyph glyph-name="Ugrave" unicode="&#xd9;" vert-adv-y="0" 
d="M268 1566c11 12 25 16 39 16c13 0 27 -4 38 -16l225 -248c11 -12 15 -28 15 -42c0 -16 -4 -32 -15 -44s-25 -16 -39 -16c-13 0 -27 4 -38 16l-225 250c-11 12 -15 28 -15 42c0 16 4 32 15 42zM162 1194h104v-890l77 -84h386l73 86v888h108v-912c0 -8 -1 -26 -14 -40
l-104 -122c-7 -8 -22 -20 -40 -20h-432c-9 0 -25 4 -38 18l-106 118c-5 6 -14 22 -14 42v916z" />
    <glyph glyph-name="Atilde" unicode="&#xc3;" vert-adv-y="0" 
d="M202 1414l-38 42l108 120c3.50293 3.89258 7.41211 7.47559 12 10c4.45215 2.4502 9.19922 4.33203 14 6c1.92676 0.669922 3.88965 1.25293 5.90137 1.5957c2.01074 0.342773 4.05859 0.404297 6.09863 0.404297h118c4.74414 0 9.55469 -0.344727 14 -2
c4.61914 -1.71973 8.80762 -4.40723 13 -7c2.02441 -1.25195 4.0332 -2.53809 5.89258 -4.02344c1.85938 -1.48633 3.5166 -3.20703 5.10742 -4.97656l196 -218h73l86 96l39 -42l38 -42l-103 -114c-3.01562 -3.33691 -6.2793 -6.47266 -10 -9
c-4.32812 -2.94043 -9.03711 -5.3418 -14 -7c-4.49512 -1.50098 -9.26074 -2 -14 -2h-117c-4.41016 0 -8.83008 0.56543 -13 2c-4.51953 1.55469 -8.86816 3.59766 -13 6c-4.52441 2.62988 -8.49121 6.11719 -12 10l-197 218h-72l-92 -102zM268 488v-390h-106v676
c0 18 11 34 16 40l318 362c11 14 25 18 36 18c18 0 33 -8 42 -18l322 -364c13 -14 14 -32 14 -42v-672h-108v390h-534zM270 600h532v146l-268 300l-264 -298v-148z" />
    <glyph glyph-name="Otilde" unicode="&#xd5;" vert-adv-y="0" 
d="M210 1414l-38 42l108 120c3.50293 3.89258 7.41211 7.47559 12 10c4.45215 2.4502 9.19922 4.33203 14 6c1.92676 0.669922 3.88965 1.25293 5.90137 1.5957c2.01074 0.342773 4.05859 0.404297 6.09863 0.404297h118c4.74414 0 9.55469 -0.344727 14 -2
c4.61914 -1.71973 8.80762 -4.40723 13 -7c2.02441 -1.25195 4.0332 -2.53809 5.89258 -4.02344c1.85938 -1.48633 3.5166 -3.20703 5.10742 -4.97656l196 -218h73l86 96l39 -42l38 -42l-103 -114c-3.01562 -3.33691 -6.2793 -6.47266 -10 -9
c-4.32812 -2.94043 -9.03711 -5.3418 -14 -7c-4.49512 -1.50098 -9.26074 -2 -14 -2h-117c-4.41016 0 -8.83008 0.56543 -13 2c-4.51953 1.55469 -8.86816 3.59766 -13 6c-4.52441 2.62988 -8.49121 6.11719 -12 10l-197 218h-72l-92 -102zM273 988v-688l70 -80h382l77 86
v680l-77 90h-380zM180 1052l102 124c13 16 29 18 40 18h426c18 0 35 -10 40 -18l108 -124c13 -14 14 -32 14 -42v-730c0 -20 -9 -36 -16 -42l-110 -120c-13 -14 -28 -18 -37 -18h-425c-18 0 -33 10 -38 16l-106 114c-13 14 -16 34 -16 44v738c0 18 11 32 18 40z" />
    <glyph glyph-name="uni00B9" unicode="&#xb9;" vert-adv-y="0" 
d="M404 1038l-76 84l164 180c11 12 25 16 38 16c16 0 31 -6 38 -16c16 -16 16 -34 16 -42v-734h-110v590z" />
    <glyph glyph-name="uni00B2" unicode="&#xb2;" vert-adv-y="0" 
d="M768 648v-122h-430v70v52c0.964179 4.61697 1.51997 9.30792 2 14c0.487944 4.76941 1.06361 9.61414 3 14c1.65105 3.73956 4.28094 6.94763 7 10l310 348v84l-76 84h-72l-79 -88v-36h-97v58c0 2.03698 0.0998228 4.0806 0.491262 6.07962
c0.39144 1.99901 0.997404 3.94863 1.50874 5.92038c0.599611 2.31216 1.02373 4.66545 1.41082 7.02252c0.387083 2.35708 0.801936 4.72229 1.58918 6.97748c0.797725 2.2852 1.98201 4.42399 3.39464 6.38944c1.41263 1.96545 3.01786 3.78344 4.60536 5.61056l106 122
c3.25906 3.75099 6.99585 7.05753 11 10c3.14139 2.30847 6.37478 4.56642 10 6c2.36137 0.933793 4.86397 1.4855 7.38993 1.74531c2.52597 0.259812 5.07077 0.254693 7.61007 0.254693h113c1.87605 0 3.7598 -0.0719495 5.60186 -0.427461
c1.84206 -0.355512 3.63128 -0.941845 5.39814 -1.57254c4.5091 -1.60955 9.10038 -3.22231 13 -6c3.84789 -2.74084 6.82656 -6.50032 10 -10l107 -118c1.5079 -1.66291 3.06543 -3.27971 4.63383 -4.8857c1.56839 -1.60598 3.111 -3.25323 4.36617 -5.1143
c1.39382 -2.06665 2.39285 -4.37934 3.1305 -6.76045c0.737649 -2.38111 1.2802 -4.81746 1.8695 -7.23955c0.559221 -2.29845 1.14562 -4.59386 1.52552 -6.92866c0.379901 -2.33479 0.474481 -4.70584 0.474481 -7.07134v-128
c0 -2.03944 -0.0682305 -4.08605 -0.420505 -6.09484c-0.352275 -2.00879 -0.941438 -3.9681 -1.57949 -5.90516c-1.55072 -4.70778 -3.02732 -9.45286 -5 -14c-1.92321 -4.4331 -4.79442 -8.38401 -8 -12l-289 -326h311z" />
    <glyph glyph-name="uni00B3" unicode="&#xb3;" vert-adv-y="0" 
d="M316 1196v122h387c36 0 53 -34 53 -56v-4s2 0 0 -2v-60c0 -18 -12 -32 -17 -40l-129 -148c11 -4 18 -10 20 -12l109 -122c11 -12 15 -28 15 -39v-5v-122c0 -20 -11 -36 -16 -42l-107 -120c-10 -13 -23 -17 -33 -17c-3 0 -4 1 -6 1h-166c-16 0 -29 8 -36 16l-56 56l72 88
l42 -42h122l76 84v74l-78 86h-82h-4c-6 0 -23 1 -36 14c-9 10 -16 26 -16 46c0 12 3 26 14 40l182 204h-310z" />
    <glyph glyph-name="ordfeminine" unicode="&#xaa;" vert-adv-y="0" 
d="M702 458v254h-362l-76 -88v-74l78 -92h360zM810 458h109v-116h-603c-18 0 -33 18 -38 24l-106 120c-13 14 -14 34 -14 42v120c0 20 9 34 14 40l108 124c13 14 29 16 38 16h384v162l-74 84h-366v120h389c18 0 31 -14 36 -20l108 -120c13 -14 15 -30 15 -40v-556zM151 218
h768v-120h-768v120z" />
    <glyph glyph-name="masculine" vert-adv-y="0" 
d="M253 990v-444l77 -84h290l72 84v444l-70 88h-292zM163 1056l110 122c13 14 29 16 36 16h336c18 0 33 -10 40 -18l101 -126c11 -12 14 -28 14 -38v-490c0 -20 -11 -36 -16 -42l-105 -118c-10 -13 -22 -14 -31 -14h-6h-333c-16 0 -29 8 -36 14l-112 116
c-14 14 -16 32 -16 44v494c0 20 13 34 18 40zM145 218h662v-120h-662v120z" />
    <glyph glyph-name="guillemotleft" unicode="&#xab;" vert-adv-y="0" 
d="M495 1122l77 -84l-344 -388l344 -384l-77 -84l-380 426c-9 10 -16 26 -16 44c0 12 5 28 16 40zM824 1120l77 -84l-343 -388l343 -384l-77 -84l-380 426c-9 10 -14 26 -14 42c0 14 3 28 14 42z" />
    <glyph glyph-name="guillemotright" unicode="&#xbb;" vert-adv-y="0" 
d="M571 1122l380 -430c11 -14 15 -28 15 -42c0 -16 -6 -32 -15 -42l-380 -426l-77 84l342 384l-342 388zM240 1120l382 -430c11 -12 14 -26 14 -40c0 -18 -7 -34 -14 -44l-382 -426l-76 84l342 384l-342 388z" />
    <glyph glyph-name="exclamdown" unicode="&#xa1;" vert-adv-y="0" 
d="M480 1318h110v-122h-110v122zM480 952h110v-854h-110v854z" />
    <glyph glyph-name="questiondown" unicode="&#xbf;" vert-adv-y="0" 
d="M711 1202h-117v122h117v-122zM923 472v-214c0 -2 -1 -4 -1 -6c-4 -9 -7 -17 -13 -24l-85 -108c-7 -8 -16 -21 -30 -21l-11 1h-362c-4 0 -5 -1 -8 -1c-11 0 -24 10 -30 17l-99 102c-7 8 -18 20 -18 36v12v156c0 16 14 35 22 44l306 314v180h110v-218c0 -2 -2 -6 -2 -8
c-5 -12 -8 -19 -16 -28l-304 -314v-102l63 -66h311l58 64v184h109z" />
    <glyph glyph-name="Adieresis" unicode="&#xc4;" vert-adv-y="0" 
d="M293 1438h113v-122h-113v122zM624 1438h111v-122h-111v122zM268 488v-390h-106v676c0 18 11 34 16 40l318 362c11 14 25 18 36 18c18 0 33 -8 42 -18l322 -364c13 -14 14 -32 14 -42v-672h-108v390h-534zM270 600h532v146l-268 300l-264 -298v-148z" />
    <glyph glyph-name="Edieresis" unicode="&#xcb;" vert-adv-y="0" 
d="M294 1438h113v-122h-113v122zM625 1438h111v-122h-111v122zM162 1196h748v-122h-642v-362h428v-122h-428v-372h642v-120h-748v1098z" />
    <glyph glyph-name="Idieresis" unicode="&#xcf;" vert-adv-y="0" 
d="M300 1432h113v-122h-113v122zM631 1432h111v-122h-111v122zM376 1194h320v-120h-106v-856h106v-122h-320v122h106v856h-106v120z" />
    <glyph glyph-name="Odieresis" unicode="&#xd6;" vert-adv-y="0" 
d="M321 1438h113v-122h-113v122zM652 1438h111v-122h-111v122zM273 988v-688l70 -80h382l77 86v680l-77 90h-380zM180 1052l102 124c13 16 29 18 40 18h426c18 0 35 -10 40 -18l108 -124c13 -14 14 -32 14 -42v-730c0 -20 -9 -36 -16 -42l-110 -120c-13 -14 -28 -18 -37 -18
h-425c-18 0 -33 10 -38 16l-106 114c-13 14 -16 34 -16 44v738c0 18 11 32 18 40z" />
    <glyph glyph-name="Udieresis" unicode="&#xdc;" vert-adv-y="0" 
d="M289 1444h113v-122h-113v122zM620 1444h111v-122h-111v122zM162 1194h104v-890l77 -84h386l73 86v888h108v-912c0 -8 -1 -26 -14 -40l-104 -122c-7 -8 -22 -20 -40 -20h-432c-9 0 -25 4 -38 18l-106 118c-5 6 -14 22 -14 42v916z" />
    <glyph glyph-name="Acircumflex" unicode="&#xc2;" vert-adv-y="0" 
d="M279 1268l-38 42l247 274c3.48535 3.86719 7.12988 7.66406 11.5059 10.4854c4.375 2.82227 9.35938 4.6543 14.4941 5.51465c9.29395 1.55664 18.9072 0.474609 28 -2c4.26758 -1.16113 8.43848 -2.78223 12.1689 -5.1582
c3.73047 -2.37695 6.87012 -5.55664 9.83105 -8.8418l247 -274l-38 -42l-39 -42l-208 231l-208 -231zM268 488v-390h-106v676c0 18 11 34 16 40l318 362c11 14 25 18 36 18c18 0 33 -8 42 -18l322 -364c13 -14 14 -32 14 -42v-672h-108v390h-534zM270 600h532v146l-268 300
l-264 -298v-148z" />
    <glyph glyph-name="Ecircumflex" unicode="&#xca;" vert-adv-y="0" 
d="M284 1270l-38 42l247 274c3.48535 3.86719 7.12988 7.66406 11.5059 10.4854c4.375 2.82227 9.35938 4.6543 14.4941 5.51465c9.29395 1.55664 18.9072 0.474609 28 -2c4.26758 -1.16113 8.43848 -2.78223 12.1689 -5.1582
c3.73047 -2.37695 6.87012 -5.55664 9.83105 -8.8418l247 -274l-38 -42l-39 -42l-208 231l-208 -231zM162 1196h748v-122h-642v-362h428v-122h-428v-372h642v-120h-748v1098z" />
    <glyph glyph-name="Icircumflex" unicode="&#xce;" vert-adv-y="0" 
d="M295 1268l-38 42l247 274c3.48535 3.86719 7.12988 7.66406 11.5059 10.4854c4.375 2.82227 9.35938 4.6543 14.4941 5.51465c9.29395 1.55664 18.9072 0.474609 28 -2c4.26758 -1.16113 8.43848 -2.78223 12.1689 -5.1582
c3.73047 -2.37695 6.87012 -5.55664 9.83105 -8.8418l247 -274l-38 -42l-39 -42l-208 231l-208 -231zM376 1194h320v-120h-106v-856h106v-122h-320v122h106v856h-106v120z" />
    <glyph glyph-name="Ocircumflex" unicode="&#xd4;" vert-adv-y="0" 
d="M295 1268l-38 42l247 274c3.48535 3.86719 7.12988 7.66406 11.5059 10.4854c4.375 2.82227 9.35938 4.6543 14.4941 5.51465c9.29395 1.55664 18.9072 0.474609 28 -2c4.26758 -1.16113 8.43848 -2.78223 12.1689 -5.1582
c3.73047 -2.37695 6.87012 -5.55664 9.83105 -8.8418l247 -274l-38 -42l-39 -42l-208 231l-208 -231zM273 988v-688l70 -80h382l77 86v680l-77 90h-380zM180 1052l102 124c13 16 29 18 40 18h426c18 0 35 -10 40 -18l108 -124c13 -14 14 -32 14 -42v-730
c0 -20 -9 -36 -16 -42l-110 -120c-13 -14 -28 -18 -37 -18h-425c-18 0 -33 10 -38 16l-106 114c-13 14 -16 34 -16 44v738c0 18 11 32 18 40z" />
    <glyph glyph-name="Ucircumflex" unicode="&#xdb;" vert-adv-y="0" 
d="M275 1268l-38 42l247 274c3.48535 3.86719 7.12988 7.66406 11.5059 10.4854c4.375 2.82227 9.35938 4.6543 14.4941 5.51465c9.29395 1.55664 18.9072 0.474609 28 -2c4.26758 -1.16113 8.43848 -2.78223 12.1689 -5.1582
c3.73047 -2.37695 6.87012 -5.55664 9.83105 -8.8418l247 -274l-38 -42l-39 -42l-208 231l-208 -231zM162 1194h104v-890l77 -84h386l73 86v888h108v-912c0 -8 -1 -26 -14 -40l-104 -122c-7 -8 -22 -20 -40 -20h-432c-9 0 -25 4 -38 18l-106 118c-5 6 -14 22 -14 42v916z
" />
    <glyph glyph-name="Aacute" unicode="&#xc1;" vert-adv-y="0" 
d="M599 1242c-11 12 -16 28 -16 42c0 18 7 34 16 44l216 242c11 12 25 18 38 18c16 0 31 -8 40 -18s16 -26 16 -44c0 -14 -5 -30 -16 -42l-216 -242c-9 -10 -24 -18 -40 -18c-13 0 -27 6 -38 18zM268 488v-390h-106v676c0 18 11 34 16 40l318 362c11 14 25 18 36 18
c18 0 33 -8 42 -18l322 -364c13 -14 14 -32 14 -42v-672h-108v390h-534zM270 600h532v146l-268 300l-264 -298v-148z" />
    <glyph glyph-name="Eacute" unicode="&#xc9;" vert-adv-y="0" 
d="M477 1242c-11 12 -16 28 -16 42c0 18 7 34 16 44l216 242c11 12 25 18 38 18c16 0 31 -8 40 -18s16 -26 16 -44c0 -14 -5 -30 -16 -42l-216 -242c-9 -10 -24 -18 -40 -18c-13 0 -27 6 -38 18zM162 1196h748v-122h-642v-362h428v-122h-428v-372h642v-120h-748v1098z" />
    <glyph glyph-name="Iacute" unicode="&#xcd;" vert-adv-y="0" 
d="M498 1240c-11 12 -16 28 -16 42c0 18 7 34 16 44l216 242c11 12 25 18 38 18c16 0 31 -8 40 -18s16 -26 16 -44c0 -14 -5 -30 -16 -42l-216 -242c-9 -10 -24 -18 -40 -18c-13 0 -27 6 -38 18zM376 1194h320v-120h-106v-856h106v-122h-320v122h106v856h-106v120z" />
    <glyph glyph-name="Oacute" unicode="&#xd3;" vert-adv-y="0" 
d="M514 1240c-11 12 -16 28 -16 42c0 18 7 34 16 44l216 242c11 12 25 18 38 18c16 0 31 -8 40 -18s16 -26 16 -44c0 -14 -5 -30 -16 -42l-216 -242c-9 -10 -24 -18 -40 -18c-13 0 -27 6 -38 18zM273 988v-688l70 -80h382l77 86v680l-77 90h-380zM180 1052l102 124
c13 16 29 18 40 18h426c18 0 35 -10 40 -18l108 -124c13 -14 14 -32 14 -42v-730c0 -20 -9 -36 -16 -42l-110 -120c-13 -14 -28 -18 -37 -18h-425c-18 0 -33 10 -38 16l-106 114c-13 14 -16 34 -16 44v738c0 18 11 32 18 40z" />
    <glyph glyph-name="Uacute" unicode="&#xda;" vert-adv-y="0" 
d="M489 1238c-11 12 -16 28 -16 42c0 18 7 34 16 44l216 242c11 12 25 18 38 18c16 0 31 -8 40 -18s16 -26 16 -44c0 -14 -5 -30 -16 -42l-216 -242c-9 -10 -24 -18 -40 -18c-13 0 -27 6 -38 18zM162 1194h104v-890l77 -84h386l73 86v888h108v-912c0 -8 -1 -26 -14 -40
l-104 -122c-7 -8 -22 -20 -40 -20h-432c-9 0 -25 4 -38 18l-106 118c-5 6 -14 22 -14 42v916z" />
    <glyph glyph-name="Ntilde" unicode="&#xd1;" vert-adv-y="0" 
d="M205 1412l-38 42l108 120c3.50293 3.89258 7.41211 7.47559 12 10c4.45215 2.4502 9.19922 4.33203 14 6c1.92676 0.669922 3.88965 1.25293 5.90137 1.5957c2.01074 0.342773 4.05859 0.404297 6.09863 0.404297h118c4.74414 0 9.55469 -0.344727 14 -2
c4.61914 -1.71973 8.80762 -4.40723 13 -7c2.02441 -1.25195 4.0332 -2.53809 5.89258 -4.02344c1.85938 -1.48633 3.5166 -3.20703 5.10742 -4.97656l196 -218h73l86 96l39 -42l38 -42l-103 -114c-3.01562 -3.33691 -6.2793 -6.47266 -10 -9
c-4.32812 -2.94043 -9.03711 -5.3418 -14 -7c-4.49512 -1.50098 -9.26074 -2 -14 -2h-117c-4.41016 0 -8.83008 0.56543 -13 2c-4.51953 1.55469 -8.86816 3.59766 -13 6c-4.52441 2.62988 -8.49121 6.11719 -12 10l-197 218h-72l-92 -102zM162 100v1094h106l536 -610v610
h106v-1094h-106v300l-536 616v-916h-106z" />
    <glyph glyph-name="a" unicode="a" vert-adv-y="0" 
d="M702 216v252h-362l-77 -88v-74l75 -90h364zM810 216h110v-116h-605c-18 0 -33 12 -38 18l-104 124c-13 14 -17 34 -17 42v120c0 20 12 36 17 42l106 122c13 14 29 16 38 16h385v166l-74 84h-367v118h389c18 0 32 -12 37 -18l107 -120c13 -14 16 -30 16 -40v-558z" />
    <glyph glyph-name="b" unicode="b" vert-adv-y="0" 
d="M150 104v1214h108v-368h281c18 0 33 -12 38 -18l214 -242c13 -14 16 -32 16 -42v-246c0 -20 -11 -36 -16 -42l-221 -242c-13 -14 -31 -14 -38 -14h-382zM258 218h252l191 208v198l-183 208h-260v-614z" />
    <glyph glyph-name="c" unicode="c" vert-adv-y="0" 
d="M808 950v-118h-366l-185 -208v-198l191 -208h360v-116h-382c-7 0 -25 2 -38 16l-221 242c-5 6 -17 22 -17 42v246c0 10 4 28 17 42l216 242c5 6 18 18 36 18h389z" />
    <glyph glyph-name="d" unicode="d" vert-adv-y="0" 
d="M808 102h-382c-7 0 -25 2 -38 16l-221 242c-5 6 -17 22 -17 42v246c0 10 4 28 17 42l216 242c5 6 18 18 36 18h281v368h108v-1216zM700 218v614h-258l-185 -208v-198l191 -208h252z" />
    <glyph glyph-name="e" unicode="e" vert-adv-y="0" 
d="M257 462v-158l77 -90h474v-112h-496c-16 0 -31 10 -36 16l-111 120c-13 14 -15 32 -15 42v484c0 20 13 34 18 40l110 126c13 14 31 22 40 22h326c18 0 33 -16 38 -22l106 -124c13 -14 16 -30 16 -40v-304h-547zM258 586h442v156l-78 88h-284l-80 -90v-154z" />
    <glyph glyph-name="f" unicode="f" vert-adv-y="0" 
d="M554 1198l-72 -82v-164h218v-122h-220v-732h-106v732h-224v122h224v188c0 16 3 30 14 42l103 118c11 12 23 18 39 18h278v-120h-254z" />
    <glyph glyph-name="g" unicode="g" vert-adv-y="0" 
d="M753 380l-125 -138c-7 -10 -23 -18 -37 -18h-171c-13 0 -27 6 -38 18l-212 236c-9 8 -17 26 -17 42v134c0 14 6 30 17 42l217 244c7 10 24 16 38 16h272c13 0 27 -4 38 -16l109 -124c9 -8 17 -26 17 -42v-742c0 -14 -6 -30 -17 -42l-100 -112c-7 -10 -24 -18 -38 -18
h-290c-13 0 -27 6 -38 18l-104 116l76 84l88 -98h246l69 76v324zM753 548v202l-78 86h-228l-186 -206v-86l180 -200h128z" />
    <glyph glyph-name="h" unicode="h" vert-adv-y="0" 
d="M150 96v1236h108v-536l130 144c11 10 24 10 38 10h214c14 0 27 -6 38 -16l113 -120c11 -12 17 -26 17 -44v-674h-108v648l-82 88h-170l-190 -202v-534h-108z" />
    <glyph glyph-name="i" unicode="i" vert-adv-y="0" 
d="M480 1318h110v-122h-110v122zM480 952h110v-854h-110v854z" />
    <glyph glyph-name="j" unicode="j" vert-adv-y="0" 
d="M813 34c0 -16 -8 -30 -19 -42l-108 -122c-11 -12 -21 -16 -37 -16h-223c-14 0 -27 6 -38 18l-108 122l75 84l94 -106h178l76 86v894h110v-918zM703 1318h111v-122h-111v122z" />
    <glyph glyph-name="k" unicode="k" vert-adv-y="0" 
d="M503 524l299 -342l-77 -84l-319 368h-144v-368h-112v1220h112v-732h146l324 366l76 -84z" />
    <glyph glyph-name="l" unicode="l" vert-adv-y="0" 
d="M594 246l24 -28h88v-120h-110c-14 0 -27 6 -38 18l-56 62c-11 12 -16 26 -16 42v1098h108v-1072z" />
    <glyph glyph-name="m" unicode="m" vert-adv-y="0" 
d="M592 746v-648h-110v648l-74 84h-64l-80 -86v-646h-108v852h110v-34l16 18c11 12 24 18 38 18h112c16 0 28 -6 39 -18l65 -78l68 76c11 12 24 18 38 18h116c14 0 26 -6 37 -18l107 -118c11 -12 16 -26 16 -42v-674h-108v650l-74 82h-70z" />
    <glyph glyph-name="n" unicode="n" vert-adv-y="0" 
d="M345 884l43 48c5 6 20 18 38 18h223c9 0 23 -2 36 -16l106 -116c5 -6 17 -22 17 -42v-674h-103v650l-77 78h-180l-76 -84v-646h-108v670c0 6 3 14 7 24l-32 40h-89v118h114c18 0 29 -10 34 -18z" />
    <glyph glyph-name="o" unicode="o" vert-adv-y="0" 
d="M258 748v-444l78 -84h292l72 84v444l-71 88h-293zM168 814l110 126c13 14 29 14 36 14h339c18 0 32 -12 39 -20l101 -126c11 -12 15 -28 15 -38v-490c0 -20 -12 -36 -17 -42l-104 -118c-10 -13 -23 -14 -32 -14h-6h-335c-16 0 -29 8 -36 14l-111 116
c-14 14 -17 32 -17 44v494c0 20 13 34 18 40z" />
    <glyph glyph-name="p" unicode="p" vert-adv-y="0" 
d="M150 956h396c11 0 17 0 24 -8l221 -236c5 -6 16 -22 16 -42v-268c0 -10 -3 -28 -16 -42l-216 -242c-5 -6 -18 -18 -36 -18h-281v-368h-108v1224zM258 830v-612h258l185 208v220l-174 184h-269z" />
    <glyph glyph-name="q" unicode="q" vert-adv-y="0" 
d="M810 948v-1078h110v-124h-220v362h-275c-18 0 -31 12 -36 18l-216 242c-13 14 -17 32 -17 42v238c0 20 12 36 17 42l221 242c13 14 31 16 38 16h378zM700 832h-247l-190 -208v-190l185 -208h252v606z" />
    <glyph glyph-name="r" unicode="r" vert-adv-y="0" 
d="M347 626v-526h-107v668c0 18 -5 30 -16 44c-13 12 -23 18 -41 18h-33v122h89c31 0 108 -58 108 -122v-38l124 140c11 12 24 20 38 20h131c16 0 29 -6 38 -18l113 -122c11 -12 17 -26 17 -44v-60h-108v36l-82 86h-86z" />
    <glyph glyph-name="s" unicode="s" vert-adv-y="0" 
d="M694 744l-79 88h-277l-52 -60l502 -442c13 -12 20 -26 20 -44s-6 -34 -17 -46l-113 -124c-11 -12 -24 -18 -38 -18h-324c-14 0 -27 6 -38 18l-111 120c-11 12 -17 26 -17 44v56h108v-30l80 -88h280l54 60l-500 440c-13 10 -18 26 -20 44v7c0 15 6 29 15 39l108 126
c11 12 23 18 39 18h322c14 0 27 -6 38 -18l112 -122c11 -12 16 -26 16 -42v-64h-108v38z" />
    <glyph glyph-name="t" unicode="t" vert-adv-y="0" 
d="M588 246l23 -28h89v-120h-110c-14 0 -27 6 -38 18l-56 62c-11 12 -16 26 -16 42v610h-221v122h221v366h108v-366h221v-122h-221v-584z" />
    <glyph glyph-name="u" unicode="u" vert-adv-y="0" 
d="M725 168l-43 -48c-5 -6 -20 -18 -38 -18h-327c-9 0 -23 2 -36 16l-107 116c-5 6 -16 22 -16 42v676h106v-652l74 -82h285l75 88v646h108v-670c0 -6 -3 -14 -7 -24l33 -40h88v-116h-110c-18 0 -33 8 -38 16z" />
    <glyph glyph-name="v" unicode="v" vert-adv-y="0" 
d="M264 782l272 -508l276 514v162h108v-178c0 -12 -3 -20 -8 -30l-329 -616c-11 -20 -27 -30 -47 -30s-36 10 -47 30l-325 610c-5 10 -8 18 -8 30v184h108v-168z" />
    <glyph glyph-name="w" unicode="w" vert-adv-y="0" 
d="M594 422l156 -178l62 64v644h108v-670c0 -18 -6 -32 -17 -44l-115 -122c-11 -10 -25 -16 -38 -16s-26 6 -37 18l-175 198l-180 -204c-11 -12 -24 -20 -38 -20s-27 8 -38 20l-109 124c-11 12 -17 26 -17 42v674h108v-650l56 -62l164 182v164h110v-164z" />
    <glyph glyph-name="x" unicode="x" vert-adv-y="0" 
d="M536 440l-277 -306v-38h-108v64c0 16 3 30 14 42l294 322l-294 324c-11 12 -14 28 -14 44v60h108v-40l277 -302l277 302v40h108v-60c0 -16 -5 -32 -16 -44l-293 -322l293 -324c11 -12 16 -26 16 -42v-64h-108v38z" />
    <glyph glyph-name="y" unicode="y" vert-adv-y="0" 
d="M456 156l-289 326c-11 12 -17 26 -17 42v428h108v-404l276 -306l164 182v528h108v-552c0 -16 -6 -30 -17 -42l-552 -614l-76 84z" />
    <glyph glyph-name="z" unicode="z" vert-adv-y="0" 
d="M156 952h764l-542 -734h542v-120h-764l544 732h-544v122z" />
    <glyph glyph-name="ae" unicode="&#xe6;" vert-adv-y="0" 
d="M482 588h-32l-191 -208v-78l79 -84h67l77 88v282zM482 708v36l-79 86h-252v120h273c18 0 33 -10 38 -16l72 -78l72 78c5 6 20 16 38 16h115c7 0 25 -2 38 -16l110 -120c7 -8 16 -24 16 -44v-308h-333v-158l78 -86h250v-120h-274c-9 0 -25 4 -38 18l-70 80l-70 -80
c-13 -16 -29 -18 -38 -18h-112c-18 0 -32 10 -37 16l-112 120c-13 14 -16 34 -16 44v128c0 20 11 36 16 42l223 242c13 14 29 18 38 18h54zM590 588h225v158l-79 84h-70l-76 -80v-162z" />
    <glyph glyph-name="oslash" unicode="&#xf8;" vert-adv-y="0" 
d="M680 770l-54 62h-178l-79 -86v-326zM700 622l-306 -340l50 -62h182l74 84v318zM810 742v-462c0 -16 -7 -30 -18 -42l-106 -120c-11 -12 -22 -14 -38 -14h-225c-14 0 -27 6 -38 18l-69 74l-73 -82l-76 84l94 104v468c0 16 5 30 16 42l110 122c11 12 23 20 37 20h226
c16 0 28 -2 39 -14l69 -86l73 86l76 -88z" />
    <glyph glyph-name="aring" unicode="&#xe5;" vert-adv-y="0" 
d="M514 1558c119 0 212 -110 212 -242s-93 -242 -212 -242s-212 110 -212 242s93 242 212 242zM404 1316c0 -72 51 -128 110 -128s110 56 110 128s-51 130 -110 130s-110 -58 -110 -130zM702 216v252h-362l-77 -88v-74l75 -90h364zM810 216h110v-116h-605
c-18 0 -33 12 -38 18l-104 124c-13 14 -17 34 -17 42v120c0 20 12 36 17 42l106 122c13 14 29 16 38 16h385v166l-74 84h-367v118h389c18 0 32 -12 37 -18l107 -120c13 -14 16 -30 16 -40v-558z" />
    <glyph glyph-name="uni0247" unicode="&#x247;" vert-adv-y="0" 
d="M206 100c-32 0 -57 34 -57 69c0 20 6 31 15 41l49 56c-1 2 -1 4 -1 5c0 4 1 6 1 9v472c0 20 13 34 18 40l110 126c13 14 30 22 39 22h267c18 0 33 -16 38 -22l52 -62l74 84c10 11 18 20 39 20c31 0 56 -27 56 -61c0 -19 -7 -35 -16 -45l-83 -94v-298h-263l-182 -208
l35 -40h414v-112h-436c-16 0 -31 10 -36 16l-50 54l-44 -50c-10 -11 -18 -22 -39 -22zM319 384l69 78h-69v-78zM497 586l166 188l-38 44h-225l-79 -90v-142h176zM654 586h49v56z" />
    <glyph glyph-name="fm" vert-adv-y="0" 
d="M151 1318h768v-244h-768v244zM480 952h220v-244h-220v244zM480 462h220c-41 -304 -172 -442 -440 -488z" />
    <glyph glyph-name="dup" vert-adv-y="0" 
d="M480 466h110v-368h-110v368zM480 954h110v-368h-110v368zM829 814l78 -84l-179 -200l182 -208l-77 -84l-257 292zM242 814l254 -284l-257 -292l-76 84l182 208l-178 200zM151 1318h768v-244h-768v244z" />
    <glyph glyph-name="A" unicode="A" vert-adv-y="0" 
d="M268 488v-390h-106v676c0 18 11 34 16 40l318 362c11 14 25 18 36 18c18 0 33 -8 42 -18l322 -364c13 -14 14 -32 14 -42v-672h-108v390h-534zM270 600h532v146l-268 300l-264 -298v-148z" />
    <glyph glyph-name="B" unicode="B" vert-adv-y="0" 
d="M268 218v858h-106v118h478c18 0 33 -10 40 -16l216 -250c11 -12 14 -26 14 -40c0 -20 -7 -36 -16 -46l-182 -194l182 -198c11 -12 16 -28 16 -40c0 -18 -7 -34 -16 -44l-219 -250c-13 -14 -29 -18 -38 -18h-475v120h106zM615 586h-239v-368h237l168 188zM613 708l168 180
l-164 188h-241v-368h237z" />
    <glyph glyph-name="C" unicode="C" vert-adv-y="0" 
d="M910 1058l-75 -84l-96 102h-174l-295 -328v-202l297 -328h171l93 110l79 -84l-109 -128c-7 -8 -22 -18 -40 -18h-216c-9 0 -25 6 -38 20l-329 360c-5 6 -16 22 -16 42v252c0 10 1 28 14 42l329 364c5 6 20 16 38 16h218c9 0 25 0 38 -14z" />
    <glyph glyph-name="D" unicode="D" vert-adv-y="0" 
d="M376 220h241l185 206v440l-185 210h-241v-856zM268 1076h-106v118h478c18 0 33 -12 38 -18l216 -244c13 -14 16 -32 16 -42v-488c0 -20 -11 -38 -16 -44l-218 -240c-13 -14 -28 -20 -37 -20h-477v120h106v858z" />
    <glyph glyph-name="E" unicode="E" vert-adv-y="0" 
d="M162 1196h748v-122h-642v-362h428v-122h-428v-372h642v-120h-748v1098z" />
    <glyph glyph-name="F" unicode="F" vert-adv-y="0" 
d="M162 1194h748v-120h-642v-362h536v-112h-536v-502h-106v1096z" />
    <glyph glyph-name="G" unicode="G" vert-adv-y="0" 
d="M482 600h428v-112h-106v-386h-372c-9 0 -25 2 -38 16l-216 238c-5 6 -16 22 -16 42v496c0 10 1 32 14 46l216 238c5 8 20 16 38 16h216c9 0 26 -2 39 -16l135 -152l-77 -84l-119 134h-171l-183 -206v-446l183 -202h245v266h-216v112z" />
    <glyph glyph-name="H" unicode="H" vert-adv-y="0" 
d="M162 1194h106v-482h536v482h106v-1094h-106v500h-536v-500h-106v1094z" />
    <glyph glyph-name="I" unicode="I" vert-adv-y="0" 
d="M376 1194h320v-120h-106v-856h106v-122h-320v122h106v856h-106v120z" />
    <glyph glyph-name="J" unicode="J" vert-adv-y="0" 
d="M156 464h106v-162l79 -82h167l76 86v768h-108v120h322v-120h-108v-792c0 -8 -1 -28 -14 -42l-106 -122c-7 -8 -22 -18 -40 -18h-212c-7 0 -25 2 -38 16l-108 116c-5 6 -16 22 -16 42v190z" />
    <glyph glyph-name="K" unicode="K" vert-adv-y="0" 
d="M275 376v-278h-113v1096h113v-646l527 608v38h107v-62c0 -16 -6 -30 -17 -42l-387 -444l389 -444c11 -12 16 -26 16 -42v-62h-108v38l-372 426z" />
    <glyph glyph-name="L" unicode="L" vert-adv-y="0" 
d="M162 1194h106v-976h642v-120h-748v1096z" />
    <glyph glyph-name="M" unicode="M" vert-adv-y="0" 
d="M590 740v-152h-110v152l-210 248v-888h-108v1032c0 26 12 46 34 56c7 4 13 6 20 6c13 0 26 -8 37 -20l279 -322l287 326c11 12 24 16 37 16c4 0 10 2 14 2c2 0 3 -1 6 -2c22 -10 34 -32 34 -58v-1036h-108v892z" />
    <glyph glyph-name="N" unicode="N" vert-adv-y="0" 
d="M162 100v1094h106l536 -610v610h106v-1094h-106v300l-536 616v-916h-106z" />
    <glyph glyph-name="O" unicode="O" vert-adv-y="0" 
d="M273 988v-688l70 -80h382l77 86v680l-77 90h-380zM180 1052l102 124c13 16 29 18 40 18h426c18 0 35 -10 40 -18l108 -124c13 -14 14 -32 14 -42v-730c0 -20 -9 -36 -16 -42l-110 -120c-13 -14 -28 -18 -37 -18h-425c-18 0 -33 10 -38 16l-106 114c-13 14 -16 34 -16 44
v738c0 18 11 32 18 40z" />
    <glyph glyph-name="P" unicode="P" vert-adv-y="0" 
d="M268 586h349l187 210v78l-185 200h-351v-488zM268 462v-366h-106v1098h478c14 0 27 -4 38 -16l216 -238c11 -12 16 -24 16 -40v-128c0 -16 -3 -30 -14 -42l-218 -246c-11 -12 -24 -22 -38 -22h-372z" />
    <glyph glyph-name="Q" unicode="Q" vert-adv-y="0" 
d="M721 166l182 -218l-79 -80l-194 236h-197c-14 0 -26 6 -37 18l-218 238c-11 12 -16 26 -16 42v494c0 16 5 32 16 44l216 238c11 12 24 16 38 16h212c14 0 27 -4 38 -16l212 -244c11 -12 16 -26 16 -42v-492c0 -18 -5 -30 -16 -42zM644 248l158 178v442l-181 208h-166
l-185 -204v-444l185 -204h76l-45 80c-5 10 -8 18 -8 30v130h108v-114z" />
    <glyph glyph-name="R" unicode="R" vert-adv-y="0" 
d="M554 588l340 -382c11 -12 16 -26 16 -42v-64h-106v28l-405 460h-131v-488h-106v1094h585c14 0 26 -6 37 -18l110 -120c11 -12 16 -26 16 -42v-246c0 -16 -5 -30 -16 -42l-106 -120c-11 -12 -24 -18 -38 -18h-196zM268 708h459l75 84v196l-77 86h-457v-366z" />
    <glyph glyph-name="S" unicode="S" vert-adv-y="0" 
d="M799 996l-69 80h-378l-77 -86v-64l608 -476c16 -12 24 -30 24 -50v-118c0 -16 -6 -28 -15 -40l-102 -124c-11 -12 -24 -22 -40 -22h-425c-14 0 -26 6 -37 18l-110 122c-11 12 -16 26 -16 42v62h108v-38l77 -84h380l72 88v62l-609 476c-16 12 -23 30 -23 50v120
c0 16 5 30 16 42l110 122c11 12 24 16 38 16h421c14 0 27 -4 38 -16l104 -116c11 -12 16 -26 16 -42v-64h-111v40z" />
    <glyph glyph-name="T" unicode="T" vert-adv-y="0" 
d="M162 1194h748v-120h-320v-976h-108v976h-320v120z" />
    <glyph glyph-name="U" unicode="U" vert-adv-y="0" 
d="M162 1194h104v-890l77 -84h386l73 86v888h108v-912c0 -8 -1 -26 -14 -40l-104 -122c-7 -8 -22 -20 -40 -20h-432c-9 0 -25 4 -38 18l-106 118c-5 6 -14 22 -14 42v916z" />
    <glyph glyph-name="V" unicode="V" vert-adv-y="0" 
d="M270 1026l260 -716l272 714v170h108v-182c0 -8 -1 -16 -3 -24l-326 -856c-9 -22 -28 -36 -51 -36s-41 14 -50 36l-318 858c-1 3 -2 5 -2 7c0 5 2 10 2 15v182h108v-168z" />
    <glyph glyph-name="W" unicode="W" vert-adv-y="0" 
d="M532 314l-171 -200c-11 -12 -24 -18 -37 -18c-14 0 -27 6 -38 18l-108 120c-11 12 -16 26 -16 42v918h106v-894l56 -58l156 184v278h108v-282l159 -180l55 60v892h108v-918c0 -18 -5 -32 -16 -44l-110 -118c-11 -10 -23 -18 -37 -18c-13 0 -27 8 -38 20z" />
    <glyph glyph-name="X" unicode="X" vert-adv-y="0" 
d="M532 562l-260 -306v-154h-108v178c0 16 5 30 16 42l277 324l-277 330c-11 12 -16 26 -16 42v178h108v-154l262 -310l268 308v154h108v-178c0 -16 -5 -30 -16 -42l-284 -326l284 -328c11 -12 16 -26 16 -42v-178h-108v154z" />
    <glyph glyph-name="Y" unicode="Y" vert-adv-y="0" 
d="M590 742v-642h-110v642l-302 348c-11 12 -16 26 -16 42v62h108v-38l268 -304l264 304v38h108v-58c0 -16 -3 -32 -14 -44z" />
    <glyph glyph-name="Z" unicode="Z" vert-adv-y="0" 
d="M909 1012c0 -16 -6 -30 -17 -42l-622 -712v-38h640v-122h-748v184c0 16 5 30 16 42l623 712v38h-639v120h747v-182z" />
    <glyph glyph-name="AE" unicode="&#xc6;" vert-adv-y="0" 
d="M590 1074l-330 -326v-162h330v488zM149 98v414v244c0 56 25 84 61 120l263 264c29 28 47 44 72 54h374v-120h-219v-366h219v-122h-219v-368h219v-120h-329v364h-330v-364h-111z" />
    <glyph glyph-name="Oslash" unicode="&#xd8;" vert-adv-y="0" 
d="M811 864l-532 -584l55 -60h400l77 86v558zM788 1012l-54 64h-398l-72 -88v-554zM171 1052l102 124c13 16 29 18 40 18h444c18 0 35 -10 40 -18l108 -124c13 -14 14 -32 14 -42v-730c0 -20 -9 -36 -16 -42l-110 -120c-13 -14 -28 -18 -37 -18h-443c-18 0 -33 10 -38 16
l-106 114c-13 14 -16 34 -16 44v738c0 18 11 32 18 40z" />
    <glyph glyph-name="Aring" unicode="&#xc5;" vert-adv-y="0" 
d="M262 296v-198h-106v508c0 18 11 34 16 40l324 362c11 14 25 18 36 18c18 0 33 -8 42 -18l329 -364c13 -14 15 -32 15 -42v-504h-108l2 198h-550zM264 418h546v160l-276 304l-270 -302v-162zM521 1598c119 0 212 -110 212 -242s-93 -242 -212 -242s-212 110 -212 242
s93 242 212 242zM411 1356c0 -72 51 -128 110 -128s110 56 110 128s-51 130 -110 130s-110 -58 -110 -130z" />
    <glyph glyph-name="Ccedilla" unicode="&#xc7;" vert-adv-y="0" 
d="M910 1058l-75 -84l-96 102h-174l-295 -328v-202l297 -328h171l93 110l79 -84l-109 -128c-7 -8 -22 -18 -40 -18h-81v-308.87c0 -15.4844 -7 -31.9365 -16 -40.6465l-101 -108.39c-10 -11.6133 -26 -17.4199 -38 -17.4199h-163v116.132h141l69 74.5186v284.676h-27
c-9 0 -25 6 -38 20l-329 360c-5 6 -16 22 -16 42v252c0 10 1 28 14 42l329 364c5 6 20 16 38 16h218c9 0 25 0 38 -14z" />
    <glyph glyph-name="semicolon" unicode=";" vert-adv-y="0" 
d="M477 822h214v-222h-214v222zM690 378v-214l-32 -84l-243 -272l-151 168l212 238v164h214z" />
    <glyph glyph-name="asterisk" unicode="*" vert-adv-y="0" 
d="M480 708h110v-368h-110v368zM480 1196h110v-368h-110v368zM830 1056l77 -84l-178 -200l181 -208l-77 -84l-257 292zM243 1056l253 -284l-257 -292l-75 84l181 208l-178 200z" />
    <glyph glyph-name="c0" vert-adv-y="0" 
 />
    <glyph glyph-name="c1" vert-adv-y="0" 
 />
    <glyph glyph-name="c2" vert-adv-y="0" 
 />
    <glyph glyph-name="c3" vert-adv-y="0" 
 />
    <glyph glyph-name="c4" vert-adv-y="0" 
 />
    <glyph glyph-name="c5" vert-adv-y="0" 
 />
    <glyph glyph-name="c6" vert-adv-y="0" 
 />
    <glyph glyph-name="c7" vert-adv-y="0" 
 />
    <glyph glyph-name="c8" vert-adv-y="0" 
 />
    <glyph glyph-name="c9" vert-adv-y="0" 
 />
    <glyph glyph-name="ca" vert-adv-y="0" 
 />
    <glyph glyph-name="cb" vert-adv-y="0" 
 />
    <glyph glyph-name="cc" vert-adv-y="0" 
 />
    <glyph glyph-name="cd" vert-adv-y="0" 
 />
    <glyph glyph-name="ce" vert-adv-y="0" 
 />
    <glyph glyph-name="cf" vert-adv-y="0" 
 />
    <glyph glyph-name="copyright" unicode="&#xa9;" vert-adv-y="0" 
d="M700 950v-120h-144l-76 -86v-196l76 -86h144v-120h-166c-9 0 -26 4 -39 18l-108 122c-5 6 -15 22 -15 42v244c0 10 2 28 15 42l108 122c5 8 20 18 38 18h167zM174 996l162 182c13 14 27 16 36 16h330c18 0 34 -8 39 -16l162 -184c13 -14 15 -32 15 -42v-610
c0 -20 -10 -38 -15 -44l-162 -180c-13 -14 -30 -18 -39 -18h-330c-18 0 -32 12 -37 18l-161 180c-13 14 -16 34 -16 44v612c0 20 11 36 16 42zM266 928v-564l130 -144h284l130 144v564l-130 148h-282z" />
    <glyph glyph-name="registered" unicode="&#xae;" vert-adv-y="0" 
d="M174 996l162 182c13 14 26 16 35 16h331c18 0 32 -8 39 -16l162 -184c13 -14 15 -32 15 -42v-612c0 -20 -10 -36 -15 -42l-162 -180c-14 -14 -30 -18 -39 -18h-331c-18 0 -31 10 -36 18l-161 180c-13 14 -16 32 -16 42v614c0 20 11 34 16 42zM266 928v-564l130 -144h284
l130 144v564l-130 148h-282zM371 950h219c18 0 33 -10 38 -16l58 -60c13 -14 16 -32 16 -44v-122c0 -20 -9 -36 -16 -44l-49 -52l56 -118c2 -6 5 -16 5 -28v-124h-108v110l-65 134h-46v-246h-108v610zM479 830v-124h90l21 28v70l-21 26h-90z" />
    <glyph glyph-name="boxA" vert-adv-y="0" 
d="M54 462h964v-488h-964v488zM163 342v-244h746v244h-746zM162 586h-108l3 552c0 20 11 36 16 42l220 240c11 12 23 16 34 16c18 0 33 -8 42 -18l217 -242c13 -14 15 -32 15 -42v-548h-108v244h-330zM163 950h330v160l-164 182l-164 -180z" />
    <glyph glyph-name="insert" vert-adv-y="0" 
d="M54 36v368l480 548l484 -554l-1 -362l-483 546z" />
    <glyph glyph-name="boxB" vert-adv-y="0" 
d="M54 462h963v-488h-963v488zM163 342v-244h744v244h-744zM469 1318v120l386 -2c18 0 32 -10 37 -16l110 -122c13 -14 16 -32 16 -42v-120c0 -20 -9 -38 -16 -44l-72 -76l70 -84c13 -14 15 -32 15 -40v-124c0 -20 -10 -36 -15 -42l-108 -120c-13 -14 -28 -18 -37 -18h-386
v120h107v610h-107zM687 708h144l76 84v76l-72 84h-148v-244zM687 1318v-246h141l82 88v72l-77 86h-146z" />
    <glyph glyph-name="box6" vert-adv-y="0" 
d="M372 464h33l91 104c5 6 20 18 38 18h112c9 0 23 -4 36 -18l111 -120c7 -6 18 -24 18 -44v-124c0 -8 -3 -26 -16 -40l-106 -124c-7 -8 -22 -20 -40 -20h-223c-9 0 -25 4 -38 18l-109 122c-5 6 -15 22 -15 42v490c0 10 2 28 15 42l108 124l79 -82l-94 -108v-280zM372 344
v-42l78 -86h176l77 90v74l-81 86h-64l-94 -104c-13 -14 -29 -18 -38 -18h-54zM163 1074v-1100h746v1100h-746zM54 1196h964v-1342h-964v1342z" />
    <glyph glyph-name="plusminus" unicode="&#xb1;" vert-adv-y="0" 
d="M480 1318h110v-366h329v-122h-329v-368h-110v368h-329v122h329v366zM151 342h768v-124h-768v124z" />
    <glyph glyph-name="Eth" unicode="&#xd0;" vert-adv-y="0" 
d="M260 1076h-109v118h496c18 0 33 -10 38 -18l216 -244c13 -14 16 -32 16 -42v-488c0 -20 -9 -36 -16 -44l-218 -240c-13 -14 -28 -20 -37 -20h-495v120h109v378h-108v108h108v372zM370 220h254l185 206v440l-185 210h-254v-372h222v-108h-222v-376z" />
    <glyph glyph-name="rightarrow" vert-adv-y="0" 
d="M598 952l325 -306l-325 -304v244h-549v122h549v244z" />
    <glyph glyph-name="Thorn" unicode="&#xde;" vert-adv-y="0" 
d="M152 1194h105v-180h389c18 0 33 -12 38 -18l219 -242c13 -14 15 -34 15 -44v-124c0 -20 -10 -36 -15 -42l-219 -244c-13 -14 -29 -18 -38 -18h-389v-182h-105v1094zM257 894v-492h365l188 210v74l-186 208h-367z" />
    <glyph glyph-name="upshift" vert-adv-y="0" 
d="M366 -22v652h-280l446 644l444 -644h-277v-652h-333zM474 98h117v652h168l-227 328l-227 -328h169v-652z" />
    <glyph glyph-name="human" vert-adv-y="0" 
d="M241 114l-69 94l308 282v218h-329v122h329v132c-67 26 -108 98 -108 174c0 106 78 188 164 188c97 0 164 -92 164 -188c0 -84 -49 -150 -112 -174l2 -132h329v-122h-329v-218l311 -288l-68 -92l-299 276zM480 1136c0 -36 25 -64 56 -64c27 0 56 24 56 64
c0 36 -25 68 -56 68c-27 0 -56 -28 -56 -68z" />
    <glyph glyph-name="underB" vert-adv-y="0" 
d="M264 1318v120h385c18 0 35 -12 40 -18l110 -120c13 -14 14 -34 14 -44v-120c0 -20 -9 -38 -16 -44l-70 -76l70 -84c13 -14 14 -32 14 -40v-124c0 -20 -11 -36 -16 -42l-106 -120c-13 -14 -31 -18 -40 -18h-385v120h108v610h-108zM482 708h146l75 86v74l-72 86h-149v-246z
M482 1318v-246h142l81 88v72l-77 86h-146zM54 462h964v-120h-964v120z" />
    <glyph glyph-name="downshift" vert-adv-y="0" 
d="M370 1316h335v-652h277l-446 -644l-446 644h280v652zM478 1196v-652h-169l227 -328l227 328h-166v652h-119z" />
    <glyph glyph-name="boxquestion" vert-adv-y="0" 
d="M378 830h-108v184c0 20 9 36 16 42l111 122c13 14 29 18 38 18h223c18 0 31 -12 38 -20l108 -124c13 -14 16 -30 16 -40v-240c0 -20 -11 -36 -16 -42l-205 -228v-158h-108v182c0 10 3 28 16 42l205 230v188l-77 90h-178l-79 -88v-158zM489 218h110v-120h-110v120z
M163 1318v-1344h746v1344h-746zM54 1440h964v-1586h-964v1586z" />
    <glyph glyph-name="boxsolid" vert-adv-y="0" 
d="M54 1440h964v-1586h-964v1586z" />
    <glyph glyph-name="e0" vert-adv-y="0" 
 />
    <glyph glyph-name="e1" vert-adv-y="0" 
 />
    <glyph glyph-name="e2" vert-adv-y="0" 
 />
    <glyph glyph-name="e3" vert-adv-y="0" 
 />
    <glyph glyph-name="e4" vert-adv-y="0" 
 />
    <glyph glyph-name="e5" vert-adv-y="0" 
 />
    <glyph glyph-name="e6" vert-adv-y="0" 
 />
    <glyph glyph-name="e7" vert-adv-y="0" 
 />
    <glyph glyph-name="e8" vert-adv-y="0" 
 />
    <glyph glyph-name="e9" vert-adv-y="0" 
 />
    <glyph glyph-name="ea" vert-adv-y="0" 
 />
    <glyph glyph-name="eb" vert-adv-y="0" 
 />
    <glyph glyph-name="ec" vert-adv-y="0" 
 />
    <glyph glyph-name="ed" vert-adv-y="0" 
 />
    <glyph glyph-name="ee" vert-adv-y="0" 
 />
    <glyph glyph-name="badcommhi" vert-adv-y="0" 
d="M54 1378l604 -668h359v-122l-260 -2l260 -280l1 -366l-577 646h-387v124h268l-268 304v364z" />
    <glyph glyph-name="commhi" vert-adv-y="0" 
d="M54 704h964v-118h-964v118z" />
    <glyph glyph-name="commjag" vert-adv-y="0" 
d="M54 590v120h734l-436 -492h666v-120h-925l436 492h-475z" />
    <glyph glyph-name="commlo" vert-adv-y="0" 
d="M54 220h964v-124h-964v124z" />
    <glyph glyph-name="clockleft" vert-adv-y="0" 
d="M821 1254c0 36 27 66 59 66s60 -30 60 -66s-28 -66 -60 -66s-59 30 -59 66zM497 1134c0 36 27 66 59 66s60 -30 60 -66s-28 -66 -60 -66s-59 30 -59 66zM275 894c0 36 28 66 60 66s59 -30 59 -66s-27 -66 -59 -66s-60 30 -60 66zM164 524c0 38 27 68 61 68
c32 0 58 -30 58 -68c0 -36 -26 -64 -58 -64c-34 0 -61 28 -61 64zM275 160c0 36 28 64 60 64s59 -28 59 -64c0 -38 -27 -68 -59 -68s-60 30 -60 68zM495 -84c0 36 26 66 58 66c34 0 61 -30 61 -66s-27 -66 -61 -66c-32 0 -58 30 -58 66zM823 -208c0 38 27 68 61 68
c32 0 57 -30 57 -68c0 -36 -25 -64 -57 -64c-34 0 -61 28 -61 64zM1024 770v-170l-86 -100v-492h-108v516c0 10 1 28 14 44z" />
    <glyph glyph-name="clockright" vert-adv-y="0" 
d="M253 1254c0 36 27 66 59 66s60 -30 60 -66s-28 -66 -60 -66s-59 30 -59 66zM474 1016c0 36 28 68 60 68s59 -32 59 -68s-27 -64 -59 -64s-60 28 -60 64zM580 648c0 36 26 66 58 66s61 -30 61 -66s-29 -66 -61 -66s-58 30 -58 66zM472 282c0 36 26 66 58 66s61 -30 61 -66
s-29 -66 -61 -66s-58 30 -58 66zM256 40c0 36 26 64 58 64s61 -28 61 -64s-29 -68 -61 -68s-58 32 -58 68zM285 1074l76 -84l-324 -368v172z" />
    <glyph glyph-name="lock" vert-adv-y="0" 
d="M1026 1494v-548l-209 -234l209 -233v-551l-455 510l-517 -580v548l270 306l-270 302v546l517 -574z" />
    <glyph glyph-name="eth" unicode="&#xf0;" vert-adv-y="0" 
 />
    <glyph glyph-name="leftarrow" vert-adv-y="0" 
d="M472 952v-244h549v-122h-549v-244l-325 304z" />
    <glyph glyph-name="thorn" unicode="&#xfe;" vert-adv-y="0" 
d="M157 1318h111v-370h278c18 0 34 -12 39 -18l216 -242c13 -14 16 -32 16 -42v-244c0 -20 -11 -36 -16 -42l-219 -246c-13 -14 -29 -18 -38 -18h-276v-364h-111v1586zM268 828v-612h254l187 210v196l-185 206h-256z" />
    <glyph glyph-name="keyleft" vert-adv-y="0" 
d="M496 776c0 -110 80 -204 184 -204c99 0 183 88 183 204c0 110 -79 204 -183 204c-99 0 -184 -88 -184 -204zM388 776c0 184 135 324 292 324c148 0 265 -120 288 -270h68v-122h-72c-29 -150 -147 -256 -284 -256c-166 0 -292 150 -292 324z" />
    <glyph glyph-name="keyright" vert-adv-y="0" 
d="M54 830h964v-488h-219v368h-110v-246h-329v244h-306v122z" />
    <glyph glyph-name="box4" vert-adv-y="0" 
d="M703 462h108v-120h-108v-244h-108v244h-277c-20 0 -54 18 -54 60v120c0 10 3 28 16 44l330 368c2 0 16 16 39 16c20 0 54 -16 54 -60v-428zM595 462v284l-223 -248v-36h223zM160 1076v-1102h752v1102h-752zM54 1192h964v-1340h-964v1340z" />
    <glyph glyph-name="underA" vert-adv-y="0" 
d="M54 460h964v-116h-964v116zM381 592l-108 2l4 552c0 20 11 34 16 42l220 238c11 12 23 16 36 16c16 0 30 -6 39 -16l218 -242c13 -16 14 -34 14 -44v-548h-108v244h-329zM383 956h329v160l-163 182l-164 -178z" />
    <glyph glyph-name="magcard" vert-adv-y="0" 
d="M162 464v-116h756v116h-756zM162 948v-360h748v360h-748zM54 1076h964v-860h-964v860z" />
    <glyph glyph-name="boxhuman" vert-adv-y="0" 
d="M482 1016c0 -36 25 -64 56 -64c27 0 56 24 56 64c0 36 -25 68 -56 68c-27 0 -56 -28 -56 -68zM54 1440h964v-1580h-964v1580zM914 54v534h-322v-218zM914 710v610h-749v-610h317v132c-67 26 -108 98 -108 174c0 106 78 188 164 188c97 0 164 -92 164 -188
c0 -84 -49 -150 -112 -174l2 -132h322zM230 -32h608l-302 298zM165 588v-524l317 306v218h-317z" />
    <glyph glyph-name="apl_space" vert-adv-y="0" 
 />
    <glyph glyph-name="apl_bracketright" vert-adv-y="0" 
d="M386 1318h328v-1344h-328v124h218v1098h-218v122z" />
    <glyph glyph-name="apl_bracketleft" vert-adv-y="0" 
d="M386 1318h328v-122h-220v-1098h220v-124h-328v1344z" />
    <glyph glyph-name="apl_stile" vert-adv-y="0" 
d="M494 1600h110v-2000h-110v2000z" />
    <glyph glyph-name="apl_2vertical" vert-adv-y="0" 
d="M768 1602h111v-2000h-111v2000zM221 1602h108v-2000h-108v2000z" />
    <glyph glyph-name="apl_2horizontal" vert-adv-y="0" 
d="M54 -86h964v-122h-964v122zM54 1378h964v-120h-964v120z" />
    <glyph glyph-name="apl_leftvbar" vert-adv-y="0" 
d="M190 1602h108v-2000h-108v2000z" />
    <glyph glyph-name="apl_rightvbar" vert-adv-y="0" 
d="M798 1602h112v-2000h-112v2000z" />
    <glyph glyph-name="apl_midvbar" vert-adv-y="0" 
d="M494 1602h110v-1624h-110v1624z" />
    <glyph glyph-name="apl_leftsolid" vert-adv-y="0" 
d="M27 1600h486v-2000h-486v2000z" />
    <glyph glyph-name="apl_rightsolid" vert-adv-y="0" 
d="M567 1600h486v-2000h-486v2000z" />
    <glyph glyph-name="apl_topsolid" vert-adv-y="0" 
d="M54 1600h972v-1000h-972v1000z" />
    <glyph glyph-name="apl_bottomsolid" vert-adv-y="0" 
d="M54 600h972v-1000h-972v1000z" />
    <glyph glyph-name="apl_solid" vert-adv-y="0" 
d="M54 1600h972v-2000h-972v2000z" />
    <glyph glyph-name="apl_midhbar" vert-adv-y="0" 
d="M54 708h962v-122h-962v122z" />
    <glyph glyph-name="apl_lowerleft" vert-adv-y="0" 
d="M513 1560h108v-768l78 -84h342v-120h-366c-13 0 -26 6 -37 18l-108 120c-9 10 -17 26 -17 42v792z" />
    <glyph glyph-name="apl_upperleft" vert-adv-y="0" 
d="M513 -264v792c0 16 8 32 17 42l108 120c11 12 24 18 37 18h366v-120h-342l-78 -84v-768h-108z" />
    <glyph glyph-name="apl_leftjoin" vert-adv-y="0" 
d="M517 1602h110v-894h414v-122h-414v-984h-110v2000z" />
    <glyph glyph-name="apl_bottomjoin" vert-adv-y="0" 
d="M493 1602h109v-894h413v-122h-962v122h440v894z" />
    <glyph glyph-name="apl_intersect" vert-adv-y="0" 
d="M493 1602h110v-894h413v-122h-413v-982h-110v982h-439v122h439v894z" />
    <glyph glyph-name="apl_lowerright" vert-adv-y="0" 
d="M575 1560v-792c0 -16 -8 -32 -17 -42l-108 -120c-11 -12 -24 -18 -37 -18h-366v120h342l78 84v768h108z" />
    <glyph glyph-name="apl_upperright" vert-adv-y="0" 
d="M468 -268h-108v768l-78 84h-342v120h366c13 0 26 -6 37 -18l108 -120c9 -10 17 -26 17 -42v-792z" />
    <glyph glyph-name="apl_rightjoin" vert-adv-y="0" 
d="M470 1602h110v-2000h-110v984h-440v122h440v894z" />
    <glyph glyph-name="apl_topjoin" vert-adv-y="0" 
d="M54 708h962v-122h-413v-982h-110v982h-439v122z" />
    <glyph glyph-name="dec_solid" vert-adv-y="0" 
d="M328 1602h440v-2000h-440v2000z" />
    <glyph glyph-name="dec_filled_circle" vert-adv-y="0" 
d="M347 646c0 134 93 240 205 240c113 0 205 -106 205 -240c0 -132 -92 -240 -205 -240c-112 0 -205 108 -205 240z" />
    <glyph glyph-name="dec_halftone_block" vert-adv-y="0" 
 />
    <glyph glyph-name="dec_ht" vert-adv-y="0" 
d="M218 1378h108v-244h111v244h108v-608h-108v244h-111v-244h-108v608zM491 646h331v-122h-111v-486h-110v486l-110 2v120z" />
    <glyph glyph-name="dec_ff" vert-adv-y="0" 
d="M491 652h328v-120h-220v-124h166v-122h-166v-242h-108v608zM217 1378h328v-120h-220v-124h166v-122h-166v-242h-108v608z" />
    <glyph glyph-name="dec_cr" vert-adv-y="0" 
d="M545 1196h-108v38l-22 22h-75l-15 -16v-324l18 -24h76l16 20v40h108v-62c0 -10 -3 -26 -14 -40l-47 -58c-7 -8 -20 -20 -40 -20h-122c-11 0 -27 4 -40 20l-48 60c-7 8 -15 22 -15 40v372c0 10 4 28 17 42l46 52c5 6 20 18 38 18h119c7 0 23 -2 36 -16l54 -56
c7 -8 18 -24 18 -46v-62zM493 36v608h221c18 0 31 -10 38 -18l52 -60c13 -14 15 -34 15 -42v-62c0 -20 -10 -36 -15 -42l-81 -92l90 -202c5 -10 6 -20 6 -26v-64h-108v50l-87 198h-23v-248h-108zM601 402h36l74 84v16l-20 24l-90 -2v-122z" />
    <glyph glyph-name="dec_lf" vert-adv-y="0" 
d="M491 652h328v-120h-220v-124h166v-122h-166v-242h-108v608zM217 1378h108v-488h220v-120h-328v608z" />
    <glyph glyph-name="dec_degree" vert-adv-y="0" 
d="M365 1074c0 -74 54 -134 119 -134c67 0 123 60 123 134s-56 134 -123 134c-65 0 -119 -60 -119 -134zM275 1074c0 130 94 234 209 234c117 0 213 -104 213 -234c0 -128 -96 -234 -213 -234c-115 0 -209 106 -209 234z" />
    <glyph glyph-name="dec_plusminus" vert-adv-y="0" 
d="M494 1318h110v-366h329v-122h-329v-368h-110v368h-329v122h329v366zM165 342h768v-124h-768v124z" />
    <glyph glyph-name="dec_nl" vert-adv-y="0" 
d="M218 1378h108l165 -304v304h110v-608l-106 2l-169 302v-304h-108v608zM491 646h110v-488h221v-120h-331v608z" />
    <glyph glyph-name="dec_vt" vert-adv-y="0" 
d="M216 1380h108v-346l84 -110l83 110v346h108v-368c0 -10 -2 -24 -13 -38l-138 -182s5 4 -6 -6c-9 -8 -22 -16 -36 -16s-28 6 -39 22l-139 182c-5 6 -12 20 -12 38v368zM491 646h331v-122h-111v-486h-110v486l-110 2v120z" />
    <glyph glyph-name="dec_lowerright" vert-adv-y="0" 
d="M583 1560v-792c0 -16 -8 -32 -17 -42l-108 -120c-11 -12 -24 -18 -37 -18h-366v120h342l78 84v768h108z" />
    <glyph glyph-name="dec_upperright" vert-adv-y="0" 
d="M468 -268h-108v768l-78 84h-342v120h366c13 0 26 -6 37 -18l108 -120c9 -10 17 -26 17 -42v-792z" />
    <glyph glyph-name="dec_upperleft" vert-adv-y="0" 
d="M513 -264v792c0 16 8 32 17 42l108 120c11 12 24 18 37 18h366v-120h-342l-78 -84v-768h-108z" />
    <glyph glyph-name="dec_lowerleft" vert-adv-y="0" 
d="M513 1560h108v-768l78 -84h342v-120h-366c-13 0 -26 6 -37 18l-108 120c-9 10 -17 26 -17 42v792z" />
    <glyph glyph-name="dec_intersect" vert-adv-y="0" 
d="M493 1600h110v-892h415v-122h-415v-986h-110v986h-439v122h439v892z" />
    <glyph glyph-name="dec_hbar1" vert-adv-y="0" 
d="M54 1440h964v-122h-964v122z" />
    <glyph glyph-name="dec_hbar2" vert-adv-y="0" 
d="M54 1074h964v-122h-964v122z" />
    <glyph glyph-name="dec_hbar3" vert-adv-y="0" 
d="M54 708h964v-122h-964v122z" />
    <glyph glyph-name="dec_hbar4" vert-adv-y="0" 
d="M54 342h964v-124h-964v124z" />
    <glyph glyph-name="dec_hbar5" vert-adv-y="0" 
d="M54 -26h964v-120h-964v120z" />
    <glyph glyph-name="dec_leftjoin" vert-adv-y="0" 
d="M517 1600h110v-892h416v-122h-416v-986h-110v2000z" />
    <glyph glyph-name="dec_rightjoin" vert-adv-y="0" 
d="M470 1600h110v-2000h-110v986h-440v122h440v892z" />
    <glyph glyph-name="dec_bottomjoin" vert-adv-y="0" 
d="M493 1598h110v-890h415v-122h-964v122h439v890z" />
    <glyph glyph-name="dec_topjoin" vert-adv-y="0" 
d="M54 708h964v-122h-415v-984h-110v984h-439v122z" />
    <glyph glyph-name="dec_vbar" vert-adv-y="0" 
d="M494 1600h110v-2000h-110v2000z" />
    <glyph glyph-name="dec_notgreater" vert-adv-y="0" 
d="M807 198c9 -12 15 -28 15 -44s-7 -30 -16 -42s-24 -18 -38 -20c-4 0 -6 -1 -10 -1c-10 0 -18 3 -28 9l-437 490v112l435 498c8 4 17 7 27 7c3 0 5 -1 9 -1c13 -2 24 -8 33 -18c11 -10 16 -26 18 -42c0 -4 1 -7 1 -11c0 -12 -4 -22 -9 -33l-410 -456zM221 -26h658v-120
h-658v120z" />
    <glyph glyph-name="dec_notless" vert-adv-y="0" 
d="M303 1098c-9 12 -12 28 -12 44s7 30 16 42s22 20 36 22c3 0 4 1 7 1c12 0 22 -4 33 -11l437 -490v-110l-436 -500c-7 -4 -14 -5 -22 -5c-4 0 -10 0 -14 1c-13 2 -23 6 -32 16c-11 10 -18 26 -20 42c0 3 -1 5 -1 8c0 13 4 24 10 36l409 456zM221 -26h658v-120h-658v120z
" />
    <glyph glyph-name="dec_pi" vert-adv-y="0" 
d="M165 1074h768v-122h-109l1 -854h-111v854l-330 2v-670c0 -6 -1 -16 -5 -26l-61 -160l-98 52l56 148v656h-110z" />
    <glyph glyph-name="dec_notequal" vert-adv-y="0" 
d="M247 224l-75 84l137 154h-144v124h255l110 122h-367v122h477l210 234l76 -84l-133 -150h138v-122h-248l-110 -122h360v-124h-471z" />
    <glyph glyph-name="dec_sterling" vert-adv-y="0" 
d="M333 220l-13 4h-50v-12h50zM493 280l15 -4c1.31641 -0.351562 2.62695 -0.775391 3.7998 -1.46875c1.17383 -0.693359 2.2041 -1.60156 3.2002 -2.53125c1.90527 -1.77832 3.86914 -3.49902 6 -5c1.06641 -0.751953 2.14551 -1.48828 3.15918 -2.31055
c1.0127 -0.822266 1.94043 -1.74414 2.84082 -2.68945l40 -42h180l95 100l74 -88l-112 -116c-2.79395 -2.89355 -5.64746 -5.77637 -9 -8c-4.24707 -2.81641 -9.11035 -4.56445 -14 -6c-4.54297 -1.33398 -9.26465 -2 -14 -2h-220
c-2.03906 0 -4.08594 0.0693359 -6.09473 0.422852c-2.00781 0.352539 -3.9668 0.942383 -5.90527 1.57715c-4.71094 1.54297 -9.47656 2.97266 -14 5c-2.2998 1.03027 -4.50391 2.28809 -6.50391 3.82031c-2.00098 1.5332 -3.76953 3.34375 -5.49609 5.17969l-47 50l-36 12
l-61 -66c-3.23438 -3.49902 -6.78711 -6.77441 -11 -9c-4.11035 -2.1709 -8.55664 -3.63184 -13 -5c-2.10547 -0.648438 -4.23633 -1.23242 -6.41211 -1.58203c-2.1748 -0.350586 -4.38477 -0.417969 -6.58789 -0.417969h-112c-4.79102 0 -9.63379 0.214844 -14.2344 1.5498
c-4.60156 1.33594 -8.88086 3.64648 -12.7656 6.4502c-8.08984 5.83887 -14.9756 13.3809 -20 22c-2.62207 4.49902 -4.62305 9.375 -5.73828 14.4619s-1.26172 10.3301 -1.26172 15.5381v122c0 5.20801 0.146484 10.4512 1.26172 15.5381s3.11621 9.96289 5.73828 14.4619
c5.02441 8.61914 11.9102 16.1611 20 22c3.88477 2.80371 8.16406 5.11426 12.7656 6.4502c4.60059 1.33496 9.44336 1.5498 14.2344 1.5498h108c1.18164 0 2.36523 -0.0732422 3.52539 -0.298828c1.16016 -0.224609 2.30371 -0.541016 3.47461 -0.701172
c1.6543 -0.226562 3.33203 -0.0732422 5 0c1.02148 0.0449219 2.05078 0.0283203 3.05957 -0.141602s1.98145 -0.501953 2.94043 -0.858398l43 -16v386h-222v122h222v306c0 4.6875 0.0410156 9.41113 1 14c1.01562 4.86035 2.9375 9.4834 5 14
c1.1582 2.53613 2.39355 5.04297 3.88086 7.40039c1.4873 2.3584 3.27148 4.5127 5.11914 6.59961l108 122c3.13086 3.53711 6.2041 7.18848 10 10c4.20508 3.11523 9.12305 5.10156 14 7c2.39453 0.932617 4.82227 1.80762 7.33496 2.34668
s5.09473 0.65332 7.66504 0.65332h115c2.08496 0 4.18652 -0.126953 6.19531 -0.68457c2.00977 -0.558594 3.90723 -1.4502 5.80469 -2.31543c2.31152 -1.05371 4.66602 -2.01074 7.04004 -2.91602c2.37305 -0.904297 4.75195 -1.82812 6.95996 -3.08398
c2.37012 -1.34863 4.50391 -3.08203 6.44336 -4.99902c1.93848 -1.91699 3.73242 -3.97461 5.55664 -6.00098l108 -120l-77 -84l-92 102h-70l-76 -86v-282h219v-122h-219v-426z" />
    <glyph glyph-name="dec_periodcentered" vert-adv-y="0" 
d="M380 708h218v-246h-218v246z" />
    <glyph glyph-name="quotesingle" unicode="'" vert-adv-y="0" 
d="M494 1318h110v-366h-110v366z" />
    <glyph glyph-name="uni00AD" unicode="&#xad;" vert-adv-y="0" 
d="M275 708h550v-122h-550v122z" />
    <glyph glyph-name="uni00B5" unicode="&#xb5;" vert-adv-y="0" 
d="M155 952h102v-652l78 -82h289l76 88v646h108v-670c0 -6 -3 -14 -7 -24l32 -40h88v-116h-109c-18 0 -33 8 -38 16l-47 50l-43 -48c-5 -6 -20 -18 -38 -18h-333c-9 0 -23 2 -36 16l-16 18v-404h-106v1220z" />
    <glyph glyph-name="divide" unicode="&#xf7;" vert-adv-y="0" 
d="M426 1134h220v-244h-220v244zM151 708h768v-122h-768v122zM426 402h220v-244h-220v244z" />
    <glyph glyph-name="ydieresis" unicode="&#xff;" vert-adv-y="0" 
d="M228 1196h113v-122h-113v122zM559 1196h111v-122h-111v122zM443 156l-289 326c-11 12 -17 26 -17 42v428h108v-404l276 -306l164 182v528h108v-552c0 -16 -6 -30 -17 -42l-552 -614l-76 84z" />
    <glyph glyph-name="uni1E54" unicode="&#x1e54;" vert-adv-y="0" 
d="M336 1242c-11 12 -16 28 -16 42c0 18 7 34 16 44l216 242c11 12 25 18 38 18c16 0 31 -8 40 -18s16 -26 16 -44c0 -14 -5 -30 -16 -42l-216 -242c-9 -10 -24 -18 -40 -18c-13 0 -27 6 -38 18zM255 586h349l187 210v78l-185 200h-351v-488zM255 462v-366h-106v1098h478
c14 0 27 -4 38 -16l216 -238c11 -12 16 -24 16 -40v-128c0 -16 -3 -30 -14 -42l-218 -246c-11 -12 -24 -22 -38 -22h-372z" />
    <glyph glyph-name="uni1E55" unicode="&#x1e55;" vert-adv-y="0" 
d="M469 1092c-11 12 -16 28 -16 42c0 18 7 34 16 44l216 242c11 12 25 18 38 18c16 0 31 -8 40 -18s16 -26 16 -44c0 -14 -5 -30 -16 -42l-216 -242c-9 -10 -24 -18 -40 -18c-13 0 -27 6 -38 18zM137 956h396c11 0 17 0 24 -8l221 -236c5 -6 16 -22 16 -42v-268
c0 -10 -3 -28 -16 -42l-216 -242c-5 -6 -18 -18 -36 -18h-281v-368h-108v1224zM245 830v-612h258l185 208v220l-174 184h-269z" />
    <glyph glyph-name="uni1E57" unicode="&#x1e57;" vert-adv-y="0" 
d="M288 1238c0 62 45 112 101 112s101 -50 101 -112s-45 -112 -101 -112s-101 50 -101 112zM137 956h396c11 0 17 0 24 -8l221 -236c5 -6 16 -22 16 -42v-268c0 -10 -3 -28 -16 -42l-216 -242c-5 -6 -18 -18 -36 -18h-281v-368h-108v1224zM245 830v-612h258l185 208v220
l-174 184h-269z" />
    <glyph glyph-name="ordmasculine" unicode="&#xba;" vert-adv-y="0" 
d="M253 990v-444l77 -84h290l72 84v444l-70 88h-292zM163 1056l110 122c13 14 29 16 36 16h336c18 0 33 -10 40 -18l101 -126c11 -12 14 -28 14 -38v-490c0 -20 -11 -36 -16 -42l-105 -118c-10 -13 -22 -14 -31 -14h-6h-333c-16 0 -29 8 -36 14l-112 116
c-14 14 -16 32 -16 44v494c0 20 13 34 18 40zM145 218h662v-120h-662v120z" />
    <glyph glyph-name="Amacron" unicode="&#x100;" vert-adv-y="0" 
d="M212 1438h588v-122h-588v122zM255 488v-390h-106v676c0 18 11 34 16 40l318 362c11 14 25 18 36 18c18 0 33 -8 42 -18l322 -364c13 -14 14 -32 14 -42v-672h-108v390h-534zM257 600h532v146l-268 300l-264 -298v-148z" />
    <glyph glyph-name="amacron" unicode="&#x101;" vert-adv-y="0" 
d="M236 1196h588v-122h-588v122zM689 216v252h-362l-77 -88v-74l75 -90h364zM797 216h110v-116h-605c-18 0 -33 12 -38 18l-104 124c-13 14 -17 34 -17 42v120c0 20 12 36 17 42l106 122c13 14 29 16 38 16h385v166l-74 84h-367v118h389c18 0 32 -12 37 -18l107 -120
c13 -14 16 -30 16 -40v-558z" />
    <glyph glyph-name="Abreve" unicode="&#x102;" vert-adv-y="0" 
d="M388 1420c11 12 25 18 36 18c16 0 31 -8 40 -18l74 -82l76 82c11 12 25 18 36 18c31 0 55 -30 55 -62c0 -14 -3 -28 -16 -42l-113 -124c-9 -10 -24 -16 -40 -16c-13 0 -25 4 -36 16l-112 124c-9 10 -16 26 -16 44c0 14 5 30 16 42zM262 464v-366h-106v552
c0 20 11 36 16 42l324 362c11 12 25 18 36 18c16 0 31 -8 40 -18l330 -364c13 -14 16 -32 16 -42v-550h-108v366h-548zM264 586h546v38l-276 304l-270 -304v-38z" />
    <glyph glyph-name="abreve" unicode="&#x103;" vert-adv-y="0" 
d="M385 1300c11 12 25 18 36 18c16 0 31 -8 40 -18l73 -82l76 82c11 12 25 18 36 18c16 0 31 -8 40 -18s16 -26 16 -44c0 -12 -5 -28 -16 -40l-114 -124c-9 -10 -23 -18 -39 -18c-13 0 -25 6 -36 18l-112 124c-9 10 -16 26 -16 44c0 12 5 28 16 40zM702 216v252h-362
l-77 -88v-74l75 -90h364zM810 216h110v-116h-605c-18 0 -33 12 -38 18l-104 124c-13 14 -17 34 -17 42v120c0 20 12 36 17 42l106 122c13 14 29 16 38 16h385v166l-74 84h-367v118h389c18 0 32 -12 37 -18l107 -120c13 -14 16 -30 16 -40v-558z" />
    <glyph glyph-name="Nacute" unicode="&#x143;" vert-adv-y="0" 
d="M468 1244c-11 12 -16 28 -16 42c0 18 7 34 16 44l216 242c11 12 25 18 38 18c16 0 31 -8 40 -18s16 -26 16 -44c0 -14 -5 -30 -16 -42l-216 -242c-9 -10 -24 -18 -40 -18c-13 0 -27 6 -38 18zM149 100v1094h106l536 -610v610h106v-1094h-106v300l-536 616v-916h-106z" />
    <glyph glyph-name="nacute" unicode="&#x144;" vert-adv-y="0" 
d="M475 1092c-11 12 -16 28 -16 42c0 18 7 34 16 44l216 242c11 12 25 18 38 18c16 0 31 -8 40 -18s16 -26 16 -44c0 -14 -5 -30 -16 -42l-216 -242c-9 -10 -24 -18 -40 -18c-13 0 -27 6 -38 18zM332 884l43 48c5 6 20 18 38 18h223c9 0 23 -2 36 -16l106 -116
c5 -6 17 -22 17 -42v-674h-103v650l-77 78h-180l-76 -84v-646h-108v670c0 6 3 14 7 24l-32 40h-89v118h114c18 0 29 -10 34 -18z" />
    <glyph glyph-name="Dcaron" unicode="&#x10e;" vert-adv-y="0" 
d="M677 1548l38 -42l-247 -274c-3.48535 -3.86719 -7.12988 -7.66406 -11.5059 -10.4854c-4.375 -2.82227 -9.35938 -4.6543 -14.4941 -5.51465c-9.29395 -1.55664 -18.9072 -0.474609 -28 2c-4.26758 1.16113 -8.43848 2.78223 -12.1689 5.1582
c-3.73047 2.37695 -6.87012 5.55664 -9.83105 8.8418l-247 274l38 42l39 42l208 -231l208 231zM363 220h241l185 206v440l-185 210h-241v-856zM255 1076h-106v118h478c18 0 33 -12 38 -18l216 -244c13 -14 16 -32 16 -42v-488c0 -20 -11 -38 -16 -44l-218 -240
c-13 -14 -28 -20 -37 -20h-477v120h106v858z" />
    <glyph glyph-name="dcaron" unicode="&#x10f;" vert-adv-y="0" 
d="M795 102h-382c-7 0 -25 2 -38 16l-221 242c-5 6 -17 22 -17 42v246c0 10 4 28 17 42l216 242c5 6 18 18 36 18h281v368h108v-1216zM687 218v614h-258l-185 -208v-198l191 -208h252z" />
    <glyph glyph-name="dcroat" unicode="&#x111;" vert-adv-y="0" 
d="M700 218v614h-257l-186 -208v-198l191 -208h252zM808 102h-381c-7 0 -25 2 -38 16l-222 242c-5 6 -16 22 -16 42v246c0 10 3 28 16 42l216 242c5 6 18 18 36 18h281v110h-261v122h261v136h108v-136h85v-122h-85v-958z" />
    <glyph glyph-name="Dcroat" unicode="&#x110;" vert-adv-y="0" 
d="M260 1076h-109v118h496c18 0 33 -10 38 -18l216 -244c13 -14 16 -32 16 -42v-488c0 -20 -9 -36 -16 -44l-218 -240c-13 -14 -28 -20 -37 -20h-495v120h109v376h-108v122h108v360zM370 220h254l185 206v440l-185 210h-254v-360h110v-122h-110v-374z" />
    <glyph glyph-name="Emacron" unicode="&#x112;" vert-adv-y="0" 
d="M216 1438h588v-122h-588v122zM149 1196h748v-122h-642v-362h428v-122h-428v-372h642v-120h-748v1098z" />
    <glyph glyph-name="emacron" unicode="&#x113;" vert-adv-y="0" 
d="M191 1196h588v-122h-588v122zM244 462v-158l77 -90h474v-112h-496c-16 0 -31 10 -36 16l-111 120c-13 14 -15 32 -15 42v484c0 20 13 34 18 40l110 126c13 14 31 22 40 22h326c18 0 33 -16 38 -22l106 -124c13 -14 16 -30 16 -40v-304h-547zM245 586h442v156l-78 88h-284
l-80 -90v-154z" />
    <glyph glyph-name="Ebreve" unicode="&#x114;" vert-adv-y="0" 
d="M257 1498h108c2 -16 3 -30 7 -46s9 -30 16 -44s17 -22 26 -32c11 -12 21 -24 34 -32s25 -12 39 -16c13 -4 27 -10 40 -10c14 0 28 6 41 10s25 10 38 18s23 20 32 30s19 20 26 34s12 32 16 48c4 14 5 26 5 40h108c0 -26 -2 -52 -9 -76s-16 -48 -27 -70s-25 -44 -41 -62
s-34 -34 -54 -46s-42 -22 -65 -30c-22 -6 -44 -12 -67 -12s-47 2 -70 8s-44 18 -64 30s-40 28 -58 46c-16 18 -32 38 -43 60c-13 22 -22 46 -27 72c-5 24 -11 54 -11 80zM151 1074h768v-122h-658v-366h439v-124h-439v-244h658v-120h-768v976z" />
    <glyph glyph-name="ebreve" unicode="&#x115;" vert-adv-y="0" 
d="M257 462v-158l77 -90h474v-112h-496c-16 0 -31 10 -36 16l-111 120c-13 14 -15 32 -15 42v484c0 20 13 34 18 40l110 126c13 14 31 22 40 22h326c18 0 33 -16 38 -22l106 -124c13 -14 16 -30 16 -40v-304h-547zM258 586h442v156l-78 88h-284l-80 -90v-154zM256 1370
l108 4c1.01953 -15.4961 3.31641 -30.9141 7 -46c3.70996 -15.1953 8.87695 -30.0742 16 -44c6.67383 -13.0479 15.0645 -25.2275 25 -36c10.1689 -11.0254 21.9844 -20.5449 35 -28c12.2246 -7.00195 25.4238 -12.2373 39 -16c13.0293 -3.61133 26.4805 -5.85352 40 -6
c13.8662 -0.149414 27.7354 1.95898 41 6c13.4561 4.09961 26.3096 10.1768 38 18c11.8076 7.90137 22.4189 17.5088 32 28c10.0068 10.957 18.9482 22.9434 26 36c7.44043 13.7773 12.6455 28.7061 16 44c3.16797 14.4424 4.79199 29.2158 5 44h108
c0.046875 -2.02832 0.0693359 -4.05566 0.0693359 -6.08398c0 -23.5625 -3.12695 -47.1123 -9.06934 -69.916c-6.31836 -24.2471 -15.6436 -47.665 -27 -70c-11.2578 -22.1426 -24.6494 -43.2988 -41 -62c-15.6191 -17.8643 -33.9385 -33.3271 -54 -46
c-20.2305 -12.7803 -42.165 -22.8457 -65 -30c-21.7109 -6.80176 -44.2715 -10.9824 -67 -12c-3.45117 -0.154297 -6.90625 -0.232422 -10.3613 -0.232422c-20.1426 0 -40.291 2.65039 -59.6387 8.23242c-23.0039 6.63672 -44.7393 17.2432 -65 30
c-20.7119 13.041 -40.0615 28.332 -57 46c-17.085 17.8213 -31.5273 38.1396 -43 60c-11.9395 22.75 -20.7744 47.0732 -27 72c-6.21289 24.876 -9.85547 50.3857 -11 76z" />
    <glyph glyph-name="Edotaccent" unicode="&#x116;" vert-adv-y="0" 
d="M428 1372c0 62 45 112 101 112s101 -50 101 -112s-45 -112 -101 -112s-101 50 -101 112zM149 1196h748v-122h-642v-362h428v-122h-428v-372h642v-120h-748v1098z" />
    <glyph glyph-name="edotaccent" unicode="&#x117;" vert-adv-y="0" 
d="M383 1238c0 62 45 112 101 112s101 -50 101 -112s-45 -112 -101 -112s-101 50 -101 112zM244 462v-158l77 -90h474v-112h-496c-16 0 -31 10 -36 16l-111 120c-13 14 -15 32 -15 42v484c0 20 13 34 18 40l110 126c13 14 31 22 40 22h326c18 0 33 -16 38 -22l106 -124
c13 -14 16 -30 16 -40v-304h-547zM245 586h442v156l-78 88h-284l-80 -90v-154z" />
    <glyph glyph-name="Eogonek" unicode="&#x118;" vert-adv-y="0" 
d="M162 1196h748v-122h-642v-362h428v-122h-428v-372h642v-120h-92v-36l39 -46h40v-116h-63c-18 0 -25 6 -36 18l-69 82l-8 12c-2 2 -6 10 -6 18v68h-553v1098z" />
    <glyph glyph-name="eogonek" unicode="&#x119;" vert-adv-y="0" 
d="M617 12c-2 2 -6 10 -6 18v72h-299c-16 0 -31 10 -36 16l-111 120c-13 14 -15 32 -15 42v484c0 20 13 34 18 40l110 126c13 14 31 22 40 22h326c18 0 33 -16 38 -22l106 -124c13 -14 16 -30 16 -40v-304h-547v-158l77 -90h474v-112h-94v-40l39 -46h40v-116h-63
c-18 0 -25 6 -36 18l-69 82zM258 586h442v156l-78 88h-284l-80 -90v-154z" />
    <glyph glyph-name="Ecaron" unicode="&#x11a;" vert-adv-y="0" 
d="M677 1548l38 -42l-247 -274c-3.48535 -3.86719 -7.12988 -7.66406 -11.5059 -10.4854c-4.375 -2.82227 -9.35938 -4.6543 -14.4941 -5.51465c-9.29395 -1.55664 -18.9072 -0.474609 -28 2c-4.26758 1.16113 -8.43848 2.78223 -12.1689 5.1582
c-3.73047 2.37695 -6.87012 5.55664 -9.83105 8.8418l-247 274l38 42l39 42l208 -231l208 231zM149 1196h748v-122h-642v-362h428v-122h-428v-372h642v-120h-748v1098z" />
    <glyph glyph-name="ecaron" unicode="&#x11b;" vert-adv-y="0" 
d="M636 1370l38 -42l-247 -274c-3.48535 -3.86719 -7.12988 -7.66406 -11.5059 -10.4854c-4.375 -2.82227 -9.35938 -4.6543 -14.4941 -5.51465c-9.29395 -1.55664 -18.9072 -0.474609 -28 2c-4.26758 1.16113 -8.43848 2.78223 -12.1689 5.1582
c-3.73047 2.37695 -6.87012 5.55664 -9.83105 8.8418l-247 274l38 42l39 42l208 -231l208 231zM244 462v-158l77 -90h474v-112h-496c-16 0 -31 10 -36 16l-111 120c-13 14 -15 32 -15 42v484c0 20 13 34 18 40l110 126c13 14 31 22 40 22h326c18 0 33 -16 38 -22l106 -124
c13 -14 16 -30 16 -40v-304h-547zM245 586h442v156l-78 88h-284l-80 -90v-154z" />
    <glyph glyph-name="gcircumflex" unicode="&#x11d;" vert-adv-y="0" 
d="M270 1092l-38 42l247 274c3.48535 3.86719 7.12988 7.66406 11.5059 10.4854c4.375 2.82227 9.35938 4.6543 14.4941 5.51465c9.29395 1.55664 18.9072 0.474609 28 -2c4.26758 -1.16113 8.43848 -2.78223 12.1689 -5.1582
c3.73047 -2.37695 6.87012 -5.55664 9.83105 -8.8418l247 -274l-38 -42l-39 -42l-208 231l-208 -231zM740 380l-125 -138c-7 -10 -23 -18 -37 -18h-171c-13 0 -27 6 -38 18l-212 236c-9 8 -17 26 -17 42v134c0 14 6 30 17 42l217 244c7 10 24 16 38 16h272
c13 0 27 -4 38 -16l109 -124c9 -8 17 -26 17 -42v-742c0 -14 -6 -30 -17 -42l-100 -112c-7 -10 -24 -18 -38 -18h-290c-13 0 -27 6 -38 18l-104 116l76 84l88 -98h246l69 76v324zM740 548v202l-78 86h-228l-186 -206v-86l180 -200h128z" />
    <glyph glyph-name="Gcircumflex" unicode="&#x11c;" vert-adv-y="0" 
d="M268 1270l-38 42l247 274c3.48535 3.86719 7.12988 7.66406 11.5059 10.4854c4.375 2.82227 9.35938 4.6543 14.4941 5.51465c9.29395 1.55664 18.9072 0.474609 28 -2c4.26758 -1.16113 8.43848 -2.78223 12.1689 -5.1582
c3.73047 -2.37695 6.87012 -5.55664 9.83105 -8.8418l247 -274l-38 -42l-39 -42l-208 231l-208 -231zM469 600h428v-112h-106v-386h-372c-9 0 -25 2 -38 16l-216 238c-5 6 -16 22 -16 42v496c0 10 1 32 14 46l216 238c5 8 20 16 38 16h216c9 0 26 -2 39 -16l135 -152
l-77 -84l-119 134h-171l-183 -206v-446l183 -202h245v266h-216v112z" />
    <glyph glyph-name="Gbreve" unicode="&#x11e;" vert-adv-y="0" 
d="M389 1420c11 12 25 18 36 18c16 0 30 -8 39 -18l74 -82l76 82c11 12 23 18 36 18c16 0 30 -8 39 -20c9 -10 16 -26 16 -44c0 -12 -5 -28 -16 -40l-113 -124c-9 -10 -24 -16 -40 -16c-13 0 -25 4 -36 16l-111 124c-9 10 -17 26 -17 44c0 14 6 30 17 42zM480 586h441v-122
h-113v-304c0 -22 -18 -58 -56 -58h-327c-9 0 -25 2 -38 16l-216 238c-5 6 -16 22 -16 42v416c0 10 1 28 14 42l216 242c5 8 20 18 38 18h225c9 0 26 -4 39 -18l108 -122l-77 -84l-92 104h-180l-183 -206v-366l183 -202h254v242h-220v122z" />
    <glyph glyph-name="gbreve" unicode="&#x11f;" vert-adv-y="0" 
d="M388 1420c11 12 25 18 36 18c16 0 31 -8 40 -18l74 -82l76 82c11 12 23 18 36 18c16 0 30 -8 39 -20c9 -10 16 -26 16 -44c0 -12 -5 -28 -16 -40l-113 -124c-9 -10 -24 -16 -40 -16c-13 0 -25 4 -36 16l-112 124c-9 10 -16 26 -16 44c0 14 5 30 16 42zM813 462v288
l-81 84h-284l-187 -208v-82l187 -202h173l91 102c11 12 24 18 38 18h63zM813 342h-39l-92 -102c-9 -12 -22 -22 -38 -22h-218c-14 0 -27 6 -38 18l-219 240c-11 12 -16 26 -16 42v134c0 18 5 32 16 42l219 238c11 12 24 22 38 22h328c14 0 27 -4 38 -14l113 -120
c11 -12 16 -26 16 -44v-740c0 -16 -7 -30 -16 -42l-104 -120c-11 -12 -24 -18 -40 -18h-335c-14 0 -27 6 -38 18l-109 120l75 84l94 -102h290l75 84v282z" />
    <glyph glyph-name="Gdotaccent" unicode="&#x120;" vert-adv-y="0" 
d="M428 1372c0 62 45 112 101 112s101 -50 101 -112s-45 -112 -101 -112s-101 50 -101 112zM469 600h428v-112h-106v-386h-372c-9 0 -25 2 -38 16l-216 238c-5 6 -16 22 -16 42v496c0 10 1 32 14 46l216 238c5 8 20 16 38 16h216c9 0 26 -2 39 -16l135 -152l-77 -84
l-119 134h-171l-183 -206v-446l183 -202h245v266h-216v112z" />
    <glyph glyph-name="gdotaccent" unicode="&#x121;" vert-adv-y="0" 
d="M428 1238c0 62 45 112 101 112s101 -50 101 -112s-45 -112 -101 -112s-101 50 -101 112zM740 380l-125 -138c-7 -10 -23 -18 -37 -18h-171c-13 0 -27 6 -38 18l-212 236c-9 8 -17 26 -17 42v134c0 14 6 30 17 42l217 244c7 10 24 16 38 16h272c13 0 27 -4 38 -16
l109 -124c9 -8 17 -26 17 -42v-742c0 -14 -6 -30 -17 -42l-100 -112c-7 -10 -24 -18 -38 -18h-290c-13 0 -27 6 -38 18l-104 116l76 84l88 -98h246l69 76v324zM740 548v202l-78 86h-228l-186 -206v-86l180 -200h128z" />
    <glyph glyph-name="Gcommaaccent" unicode="&#x122;" vert-adv-y="0" 
d="M928 1590v-304c0 -16 -5 -28 -14 -40l-107 -120c-11 -12 -22 -18 -36 -18h-36.8289l72.8289 -82l-77 -84l-119 134h-171l-183 -206v-446l183 -202h245v266h-216v112h428v-112h-106v-386h-372c-9 0 -25 2 -38 16l-216 238c-5 6 -16 22 -16 42v496c0 10 1 32 14 46l216 238
c5 8 20 16 38 16h187v28h146l74 86v282h104z" />
    <glyph glyph-name="gcommaaccent" unicode="&#x123;" vert-adv-y="0" 
d="M753 548v202l-78 86h-228l-186 -206v-86l180 -200h128zM753 380l-125 -138c-7 -10 -23 -18 -37 -18h-171c-13 0 -27 6 -38 18l-212 236c-9 8 -17 26 -17 42v134c0 14 6 30 17 42l217 244c7 10 24 16 38 16h272c13 0 27 -4 38 -16l109 -124c9 -8 17 -26 17 -42v-742
c0 -14 -6 -30 -17 -42l-100 -112c-7 -10 -24 -18 -38 -18h-290c-13 0 -27 6 -38 18l-104 116l76 84l88 -98h246l69 76v324zM928 1590v-304c0 -16 -5 -28 -14 -40l-107 -120c-11 -12 -22 -18 -36 -18h-167v114h146l74 86v282h104z" />
    <glyph glyph-name="uni007F" vert-adv-y="0" 
 />
    <glyph glyph-name="uni0080" vert-adv-y="0" 
 />
    <glyph glyph-name="uni0081" vert-adv-y="0" 
 />
    <glyph glyph-name="uni0082" vert-adv-y="0" 
 />
    <glyph glyph-name="uni0083" vert-adv-y="0" 
 />
    <glyph glyph-name="uni0084" vert-adv-y="0" 
 />
    <glyph glyph-name="uni0085" unicode="&#x85;" vert-adv-y="0" 
 />
    <glyph glyph-name="uni0086" vert-adv-y="0" 
 />
    <glyph glyph-name="uni0087" vert-adv-y="0" 
 />
    <glyph glyph-name="uni0088" vert-adv-y="0" 
 />
    <glyph glyph-name="uni0089" vert-adv-y="0" 
 />
    <glyph glyph-name="uni008A" vert-adv-y="0" 
 />
    <glyph glyph-name="uni008B" vert-adv-y="0" 
 />
    <glyph glyph-name="uni008C" vert-adv-y="0" 
 />
    <glyph glyph-name="uni008D" vert-adv-y="0" 
 />
    <glyph glyph-name="uni008E" vert-adv-y="0" 
 />
    <glyph glyph-name="uni008F" vert-adv-y="0" 
 />
    <glyph glyph-name="uni0090" vert-adv-y="0" 
 />
    <glyph glyph-name="uni0091" vert-adv-y="0" 
 />
    <glyph glyph-name="uni0092" vert-adv-y="0" 
 />
    <glyph glyph-name="uni0093" vert-adv-y="0" 
 />
    <glyph glyph-name="uni0094" vert-adv-y="0" 
 />
    <glyph glyph-name="uni0095" vert-adv-y="0" 
 />
    <glyph glyph-name="uni0096" vert-adv-y="0" 
 />
    <glyph glyph-name="uni0097" vert-adv-y="0" 
 />
    <glyph glyph-name="uni0098" vert-adv-y="0" 
 />
    <glyph glyph-name="uni0099" vert-adv-y="0" 
 />
    <glyph glyph-name="uni009A" vert-adv-y="0" 
 />
    <glyph glyph-name="uni009B" vert-adv-y="0" 
 />
    <glyph glyph-name="uni009C" vert-adv-y="0" 
 />
    <glyph glyph-name="uni009D" vert-adv-y="0" 
 />
    <glyph glyph-name="uni009E" vert-adv-y="0" 
 />
    <glyph glyph-name="uni009F" vert-adv-y="0" 
 />
    <glyph glyph-name="uni00A0" unicode="&#xa0;" vert-adv-y="0" 
 />
    <glyph glyph-name="Aogonek" unicode="&#x104;" vert-adv-y="0" 
d="M270 600h532v146l-268 300l-264 -298v-148zM268 488v-390h-106v676c0 18 11 34 16 40l318 362c11 14 25 18 36 18c18 0 33 -8 42 -18l322 -364c13 -14 14 -32 14 -42v-672h-12v-38l39 -46h40v-116h-63c-18 0 -25 6 -36 18l-69 82l-8 12c-2 2 -6 10 -6 18v132h7v328h-534z
" />
    <glyph glyph-name="aogonek" unicode="&#x105;" vert-adv-y="0" 
d="M810 216h110v-116h-130v-38l39 -46h40v-116h-63c-18 0 -25 6 -36 18l-69 82l-8 12c-2 2 -6 10 -6 18v70h-372c-18 0 -33 12 -38 18l-104 124c-13 14 -17 34 -17 42v120c0 20 12 36 17 42l106 122c13 14 29 16 38 16h385v166l-74 84h-367v118h389c18 0 32 -12 37 -18
l107 -120c13 -14 16 -30 16 -40v-558zM702 216v252h-362l-77 -88v-74l75 -90h364z" />
    <glyph glyph-name="Cacute" unicode="&#x106;" vert-adv-y="0" 
d="M624 1242c-11 12 -16 28 -16 42c0 18 7 34 16 44l216 242c11 12 25 18 38 18c16 0 31 -8 40 -18s16 -26 16 -44c0 -14 -5 -30 -16 -42l-216 -242c-9 -10 -24 -18 -40 -18c-13 0 -27 6 -38 18zM897 1058l-75 -84l-96 102h-174l-295 -328v-202l297 -328h171l93 110l79 -84
l-109 -128c-7 -8 -22 -18 -40 -18h-216c-9 0 -25 6 -38 20l-329 360c-5 6 -16 22 -16 42v252c0 10 1 28 14 42l329 364c5 6 20 16 38 16h218c9 0 25 0 38 -14z" />
    <glyph glyph-name="cacute" unicode="&#x107;" vert-adv-y="0" 
d="M552 1092c-11 12 -16 28 -16 42c0 18 7 34 16 44l216 242c11 12 25 18 38 18c16 0 31 -8 40 -18s16 -26 16 -44c0 -14 -5 -30 -16 -42l-216 -242c-9 -10 -24 -18 -40 -18c-13 0 -27 6 -38 18zM795 950v-118h-366l-185 -208v-198l191 -208h360v-116h-382
c-7 0 -25 2 -38 16l-221 242c-5 6 -17 22 -17 42v246c0 10 4 28 17 42l216 242c5 6 18 18 36 18h389z" />
    <glyph glyph-name="Ccircumflex" unicode="&#x108;" vert-adv-y="0" 
d="M385 1270l-38 42l247 274c3.48535 3.86719 7.12988 7.66406 11.5059 10.4854c4.375 2.82227 9.35938 4.6543 14.4941 5.51465c9.29395 1.55664 18.9072 0.474609 28 -2c4.26758 -1.16113 8.43848 -2.78223 12.1689 -5.1582
c3.73047 -2.37695 6.87012 -5.55664 9.83105 -8.8418l247 -274l-38 -42l-39 -42l-208 231l-208 -231zM897 1058l-75 -84l-96 102h-174l-295 -328v-202l297 -328h171l93 110l79 -84l-109 -128c-7 -8 -22 -18 -40 -18h-216c-9 0 -25 6 -38 20l-329 360c-5 6 -16 22 -16 42v252
c0 10 1 28 14 42l329 364c5 6 20 16 38 16h218c9 0 25 0 38 -14z" />
    <glyph glyph-name="ccircumflex" unicode="&#x109;" vert-adv-y="0" 
d="M349 1092l-38 42l247 274c3.48535 3.86719 7.12988 7.66406 11.5059 10.4854c4.375 2.82227 9.35938 4.6543 14.4941 5.51465c9.29395 1.55664 18.9072 0.474609 28 -2c4.26758 -1.16113 8.43848 -2.78223 12.1689 -5.1582
c3.73047 -2.37695 6.87012 -5.55664 9.83105 -8.8418l247 -274l-38 -42l-39 -42l-208 231l-208 -231zM795 950v-118h-366l-185 -208v-198l191 -208h360v-116h-382c-7 0 -25 2 -38 16l-221 242c-5 6 -17 22 -17 42v246c0 10 4 28 17 42l216 242c5 6 18 18 36 18h389z" />
    <glyph glyph-name="Cdotaccent" unicode="&#x10a;" vert-adv-y="0" 
d="M531 1372c0 62 45 112 101 112s101 -50 101 -112s-45 -112 -101 -112s-101 50 -101 112zM897 1058l-75 -84l-96 102h-174l-295 -328v-202l297 -328h171l93 110l79 -84l-109 -128c-7 -8 -22 -18 -40 -18h-216c-9 0 -25 6 -38 20l-329 360c-5 6 -16 22 -16 42v252
c0 10 1 28 14 42l329 364c5 6 20 16 38 16h218c9 0 25 0 38 -14z" />
    <glyph glyph-name="cdotaccent" unicode="&#x10b;" vert-adv-y="0" 
d="M383 1238c0 62 45 112 101 112s101 -50 101 -112s-45 -112 -101 -112s-101 50 -101 112zM795 950v-118h-366l-185 -208v-198l191 -208h360v-116h-382c-7 0 -25 2 -38 16l-221 242c-5 6 -17 22 -17 42v246c0 10 4 28 17 42l216 242c5 6 18 18 36 18h389z" />
    <glyph glyph-name="Ccaron" unicode="&#x10c;" vert-adv-y="0" 
d="M781 1548l38 -42l-247 -274c-3.48535 -3.86719 -7.12988 -7.66406 -11.5059 -10.4854c-4.375 -2.82227 -9.35938 -4.6543 -14.4941 -5.51465c-9.29395 -1.55664 -18.9072 -0.474609 -28 2c-4.26758 1.16113 -8.43848 2.78223 -12.1689 5.1582
c-3.73047 2.37695 -6.87012 5.55664 -9.83105 8.8418l-247 274l38 42l39 42l208 -231l208 231zM897 1058l-75 -84l-96 102h-174l-295 -328v-202l297 -328h171l93 110l79 -84l-109 -128c-7 -8 -22 -18 -40 -18h-216c-9 0 -25 6 -38 20l-329 360c-5 6 -16 22 -16 42v252
c0 10 1 28 14 42l329 364c5 6 20 16 38 16h218c9 0 25 0 38 -14z" />
    <glyph glyph-name="ccaron" unicode="&#x10d;" vert-adv-y="0" 
d="M760 1386l38 -42l-247 -274c-3.48535 -3.86719 -7.12988 -7.66406 -11.5059 -10.4854c-4.375 -2.82227 -9.35938 -4.6543 -14.4941 -5.51465c-9.29395 -1.55664 -18.9072 -0.474609 -28 2c-4.26758 1.16113 -8.43848 2.78223 -12.1689 5.1582
c-3.73047 2.37695 -6.87012 5.55664 -9.83105 8.8418l-247 274l38 42l39 42l208 -231l208 231zM795 950v-118h-366l-185 -208v-198l191 -208h360v-116h-382c-7 0 -25 2 -38 16l-221 242c-5 6 -17 22 -17 42v246c0 10 4 28 17 42l216 242c5 6 18 18 36 18h389z" />
    <glyph glyph-name="uni1E56" unicode="&#x1e56;" vert-adv-y="0" 
d="M343 1372c0 62 45 112 101 112s101 -50 101 -112s-45 -112 -101 -112s-101 50 -101 112zM255 586h349l187 210v78l-185 200h-351v-488zM255 462v-366h-106v1098h478c14 0 27 -4 38 -16l216 -238c11 -12 16 -24 16 -40v-128c0 -16 -3 -30 -14 -42l-218 -246
c-11 -12 -24 -22 -38 -22h-372z" />
    <glyph glyph-name="uniFF00" unicode="&#xff00;" vert-adv-y="0" 
 />
    <glyph glyph-name="uniFF01" unicode="&#xff01;" vert-adv-y="0" 
d="M480 220h112v-122h-112v122zM480 1318h110v-856h-110v856z" />
    <glyph glyph-name="uniFF02" unicode="&#xff02;" vert-adv-y="0" 
d="M254 1318h112v-366h-112v366zM584 1318h110v-366h-110v366z" />
    <glyph glyph-name="uniFF03" unicode="&#xff03;" vert-adv-y="0" 
d="M580 952h-214v-246h214v246zM258 1196h108v-122h214v122h106v-124h108v-120h-108v-246h108v-120h-108v-120h-106v120h-214v-122h-108v122h-106v122h106v244h-106v122h106v122z" />
    <glyph glyph-name="uniFF04" unicode="&#xff04;" vert-adv-y="0" 
d="M930 1076v-120h-332v-246h162c14 0 31 -8 40 -18l112 -124c11 -12 14 -28 14 -42v-128c0 -16 -5 -32 -14 -42l-108 -120c-11 -12 -27 -18 -40 -18h-166v-240h-108v240h-320v120h320v252h-164c-13 0 -26 6 -37 18l-108 120c-9 10 -17 26 -17 42v126c0 14 6 30 17 42
l108 120c9 10 23 18 37 18h164v240h108v-240h332zM490 956h-140l-78 -86v-76l78 -84h140v246zM598 338h144l76 84v78l-79 90h-141v-252z" />
    <glyph glyph-name="uniFF05" unicode="&#xff05;" vert-adv-y="0" 
d="M711 126c5.47949 -10.3203 13.3271 -19.4443 23 -26c9.12109 -6.18164 19.9814 -9.93359 31 -10c11.3408 -0.0683594 22.5498 3.73047 32 10c9.75195 6.46875 17.7588 15.5361 23 26c5.55469 11.0898 8 23.5967 8 36s-2.44531 24.9102 -8 36
c-5.24121 10.4639 -13.248 19.5312 -23 26c-9.4502 6.26953 -20.6592 10.0684 -32 10c-11.0186 -0.0664062 -21.8789 -3.81836 -31 -10c-9.67285 -6.55566 -17.5205 -15.6797 -23 -26c-5.8584 -11.0342 -9 -23.5068 -9 -36s3.1416 -24.9658 9 -36zM599.996 161.362
c0 32.0508 7.16797 64.2324 22.0039 92.6377c13.8047 26.4316 34.1855 49.4639 59 66c24.3535 16.2295 53.2676 26.001 82.5303 26.001c0.15625 0 0.313477 0 0.469727 -0.000976562c29.0889 -0.104492 57.7939 -9.86719 82 -26c24.8125 -16.5381 45.1943 -39.5693 59 -66
c14.8369 -28.4043 22.0039 -60.585 22.0039 -92.6348c0 -0.455078 -0.000976562 -0.910156 -0.00390625 -1.36523c-0.204102 -32.1387 -7.46582 -64.335 -22 -93c-13.6113 -26.8447 -33.8262 -50.501 -59 -67c-24.2354 -15.8848 -53.0225 -24.9014 -82 -25
c-0.160156 -0.000976562 -0.321289 -0.000976562 -0.481445 -0.000976562c-29.1484 0 -58.1387 9.02148 -82.5186 25.001c-25.1738 16.499 -45.3887 40.1553 -59 67c-14.7432 29.0771 -22.0039 61.3936 -22.0039 94.3623zM273 1092c5.21973 -10.4795 13.207 -19.585 23 -26
c9.47656 -6.20703 20.6719 -9.89258 32 -10c11.3574 -0.107422 22.6846 3.50293 32 10c9.4043 6.55859 16.7598 15.8018 22 26c5.70605 11.1055 9 23.5146 9 36s-3.29395 24.8945 -9 36c-5.24023 10.1982 -12.5957 19.4414 -22 26c-9.31543 6.49707 -20.6426 10.1074 -32 10
c-11.3281 -0.107422 -22.5234 -3.79297 -32 -10c-9.79297 -6.41504 -17.7803 -15.5205 -23 -26c-5.5293 -11.1016 -8 -23.5977 -8 -36s2.4707 -24.8984 8 -36zM162 1126c0 32.2344 8.2666 64.3301 23 93c13.6484 26.5576 33.1543 50.4395 58 67
c24.3945 16.2598 53.6826 25 83 25s58.6055 -8.74023 83 -25c24.8457 -16.5605 44.3516 -40.4424 58 -67c14.7334 -28.6699 23 -60.7656 23 -93s-8.2666 -64.3301 -23 -93c-13.6484 -26.5576 -33.1543 -50.4395 -58 -67c-24.3945 -16.2598 -53.6826 -25 -83 -25
s-58.6055 8.74023 -83 25c-24.8457 16.5605 -44.3516 40.4424 -58 67c-14.7334 28.6699 -23 60.7656 -23 93zM180 236c-6.75293 7.69141 -11.5781 17.0547 -14 27c-2.38867 9.80957 -2.3916 20.1914 0 30c2.42383 9.94336 7.29297 19.2695 14 27
c7.68262 8.85449 17.7529 15.5918 28.8213 19.4551c11.0674 3.86328 23.1045 4.85938 34.6807 3.01562c23.1543 -3.68652 43.9297 -19.0078 55.2461 -39.541c6.92773 -12.5684 10.3467 -26.9053 10.3467 -41.2666c0 -9.09961 -1.37305 -18.21 -4.09473 -26.8867
c-7.01855 -22.3701 -22.7051 -41.7158 -42.6113 -54.1016c-17.874 -11.1211 -38.9863 -16.7031 -60.0518 -16.7031c-2.39648 0 -4.79297 0.0722656 -7.18262 0.216797c-23.4033 1.41504 -46.2314 9.62598 -65.7285 22.6475
c-38.9941 26.043 -63.5566 70.4668 -71.4766 116.685c-2.15723 12.5859 -3.16797 25.3027 -3.16797 38.0322c0 34.0137 7.21973 68.125 19.0908 100.114c16.3145 43.9609 41.1631 84.3535 69.3887 121.798c56.4521 74.8877 125.11 139.549 190.218 207.046
c64.6504 68.5791 125.681 140.462 189.027 210.246c31.6729 34.8926 64.3721 69.0254 100.607 99.1523s76.373 56.373 120.913 71.7646c24.7842 8.56445 51.1914 13.5859 77.375 13.5859c20.8721 0 41.6016 -3.19043 61.252 -10.3193
c22.1504 -8.03613 42.6279 -21.083 58.3359 -38.6475c15.707 -17.5635 26.5059 -39.7402 29.2432 -63.1445c0.448242 -3.83691 0.672852 -7.70605 0.672852 -11.5762c0 -19.7324 -5.83008 -39.5049 -17.4551 -55.4082c-13.9053 -19.0225 -36.291 -32.0225 -59.832 -33.0322
c-11.7715 -0.504883 -23.6855 1.92871 -34.2109 7.22266c-10.5244 5.29492 -19.623 13.4619 -25.8096 23.4893c-6.18652 10.0264 -9.41211 21.8975 -8.89355 33.668c0.517578 11.7695 4.81738 23.3848 12.2959 32.4883c6.27344 7.46094 14.6807 13.1416 24 16
c9.05859 2.77832 18.9521 2.81348 28 0c9.29785 -2.89062 17.5762 -8.68262 24 -16c6.75293 -7.69141 11.5781 -17.0547 14 -27c2.38867 -9.80957 2.3916 -20.1914 0 -30c-2.42383 -9.94336 -7.29297 -19.2695 -14 -27
c-7.68262 -8.85449 -17.7529 -15.5918 -28.8213 -19.4551c-11.0674 -3.86328 -23.1045 -4.85938 -34.6807 -3.01562c-23.1543 3.68652 -43.9297 19.0078 -55.2461 39.541c-6.92773 12.5684 -10.3467 26.9053 -10.3467 41.2666c0 9.09961 1.37305 18.21 4.09473 26.8867
c7.01855 22.3701 22.7051 41.7158 42.6113 54.1016c17.874 11.1211 38.9863 16.7031 60.0518 16.7031c2.39648 0 4.79297 -0.0722656 7.18262 -0.216797c23.4033 -1.41504 46.2314 -9.62598 65.7285 -22.6475c38.9941 -26.043 63.5566 -70.4668 71.4766 -116.685
c2.15723 -12.5859 3.16797 -25.3027 3.16797 -38.0322c0 -34.0137 -7.21973 -68.125 -19.0908 -100.114c-16.3145 -43.9609 -41.1631 -84.3535 -69.3887 -121.798c-56.4521 -74.8877 -125.11 -139.549 -190.218 -207.046
c-64.6504 -68.5791 -125.681 -140.462 -189.027 -210.246c-31.6729 -34.8926 -64.3721 -69.0254 -100.607 -99.1523s-76.373 -56.373 -120.913 -71.7646c-24.7842 -8.56445 -51.1914 -13.5859 -77.375 -13.5859c-20.8721 0 -41.6016 3.19043 -61.252 10.3193
c-22.1504 8.03613 -42.6279 21.083 -58.3359 38.6475c-15.707 17.5635 -26.5059 39.7402 -29.2432 63.1445c-0.448242 3.83691 -0.672852 7.70605 -0.672852 11.5762c0 19.7324 5.83008 39.5049 17.4551 55.4082c13.9053 19.0225 36.291 32.0225 59.832 33.0322
c11.7715 0.504883 23.6855 -1.92871 34.2109 -7.22266c10.5244 -5.29492 19.623 -13.4619 25.8096 -23.4893c6.18652 -10.0264 9.41211 -21.8975 8.89355 -33.668c-0.517578 -11.7695 -4.81738 -23.3848 -12.2959 -32.4883c-6.27344 -7.46094 -14.6807 -13.1416 -24 -16
c-9.05859 -2.77832 -18.9521 -2.81348 -28 0c-9.29785 2.89062 -17.5762 8.68262 -24 16z" />
    <glyph glyph-name="uniFF06" unicode="&#xff06;" vert-adv-y="0" 
d="M388 484l-4 3l-3 4l-2 3l-3 4l-2 4l-2 4l-1 5v4l1 5v76h-65l-49 -78v-214l74 -84h182l56 62zM170 736l-3 3l-3 4l-3 3v4v6v6v6v246v8v6v8v2l-1 2l1 2l2 2l3 2l2 2l6 6l99 118l3 4l4 3l3 3l4 2l5 2l4 2l5 1l4 -1h5h121h4l4 -1l5 -1l4 -2l4 -2l4 -2l2 -1l2 -2l2 -1l1 -1
l2 -2l2 -1l101 -110l1 -2l1 -2l1 -2l2 -2l1 -2l1 -2l2 -5l2 -4l1 -5l2 -5v-4l1 -5v-248l1 -3l2 -2l2 -3l-1 -3l-1 -2v-3l-2 -5l-1 -4v-5l-2 -2l-1 -2l-1 -2l-6 -6l-100 -114v-68l170 -186l189 208l74 -80l-191 -210l186 -204l-72 -78l-186 202l-72 -80l-3 -4l-4 -3l-3 -3
l-5 -2l-4 -2l-4 -2l-5 -1l-5 1h-4h-224h-4l-4 -1l-4 1l-4 3l-3 2l-4 3l-2 1l-2 2l-1 1l-2 1l-2 2l-2 1l-108 118l-3 4l-2 4l-2 4l-2 5l-3 4l-2 5l-1 5l2 6l1 5v254v6v6l1 2l3 2l1 2v4v3v4v3l58 88zM480 796v200l-71 80h-77l-70 -84v-206l41 -66h112z" />
    <glyph glyph-name="uniFF07" unicode="&#xff07;" vert-adv-y="0" 
d="M494 1318h110v-366h-110v366z" />
    <glyph glyph-name="uniFF08" unicode="&#xff08;" vert-adv-y="0" 
d="M401 940l225 238c11 10 23 18 36 18c14 0 27 -8 36 -20c11 -12 16 -26 16 -42s-5 -28 -16 -40l-209 -226v-440l211 -232c11 -10 16 -26 16 -42s-5 -28 -16 -38c-11 -12 -23 -18 -36 -18s-27 6 -36 18l-226 250c-11 12 -16 22 -16 38v488c0 16 4 36 15 48z" />
    <glyph glyph-name="uniFF09" unicode="&#xff09;" vert-adv-y="0" 
d="M591 354l-225 -238c-11 -10 -23 -18 -36 -18c-14 0 -27 8 -36 20c-11 12 -16 26 -16 42s5 28 16 40l209 226v440l-211 232c-11 10 -16 26 -16 42s5 28 16 38c11 12 23 18 36 18s27 -6 36 -18l226 -250c11 -12 16 -22 16 -38v-488c0 -16 -4 -36 -15 -48z" />
    <glyph glyph-name="uniFF0A" unicode="&#xff0a;" vert-adv-y="0" 
d="M480 708h110v-368h-110v368zM480 1196h110v-368h-110v368zM830 1056l77 -84l-178 -200l181 -208l-77 -84l-257 292zM243 1056l253 -284l-257 -292l-75 84l181 208l-178 200z" />
    <glyph glyph-name="uniFF0B" unicode="&#xff0b;" vert-adv-y="0" 
d="M482 1044h108v-332h320v-126h-320v-320h-108v320h-320v126h320v332z" />
    <glyph glyph-name="uniFF0C" unicode="&#xff0c;" vert-adv-y="0" 
d="M690 378v-214l-32 -84l-243 -272l-151 168l212 238v164h214z" />
    <glyph glyph-name="uniFF0D" unicode="&#xff0d;" vert-adv-y="0" 
d="M268 712h536v-112h-536v112z" />
    <glyph glyph-name="uniFF0E" unicode="&#xff0e;" vert-adv-y="0" 
d="M370 322h214v-222h-214v222z" />
    <glyph glyph-name="uniFF0F" unicode="&#xff0f;" vert-adv-y="0" 
d="M180 236c-6.75293 7.69141 -11.5781 17.0547 -14 27c-2.38867 9.80957 -2.3916 20.1914 0 30c2.42383 9.94336 7.29297 19.2695 14 27c7.68262 8.85449 17.7529 15.5918 28.8213 19.4551c11.0674 3.86328 23.1045 4.85938 34.6807 3.01562
c23.1543 -3.68652 43.9297 -19.0078 55.2461 -39.541c6.92773 -12.5684 10.3467 -26.9053 10.3467 -41.2666c0 -9.09961 -1.37305 -18.21 -4.09473 -26.8867c-7.01855 -22.3701 -22.7051 -41.7158 -42.6113 -54.1016c-17.874 -11.1211 -38.9863 -16.7031 -60.0518 -16.7031
c-2.39648 0 -4.79297 0.0722656 -7.18262 0.216797c-23.4033 1.41504 -46.2314 9.62598 -65.7285 22.6475c-38.9941 26.043 -63.5566 70.4668 -71.4766 116.685c-2.15723 12.5859 -3.16797 25.3027 -3.16797 38.0322c0 34.0137 7.21973 68.125 19.0908 100.114
c16.3145 43.9609 41.1631 84.3535 69.3887 121.798c56.4521 74.8877 125.11 139.549 190.218 207.046c64.6504 68.5791 125.681 140.462 189.027 210.246c31.6729 34.8926 64.3721 69.0254 100.607 99.1523s76.373 56.373 120.913 71.7646
c24.7842 8.56445 51.1914 13.5859 77.375 13.5859c20.8721 0 41.6016 -3.19043 61.252 -10.3193c22.1504 -8.03613 42.6279 -21.083 58.3359 -38.6475c15.707 -17.5635 26.5059 -39.7402 29.2432 -63.1445c0.448242 -3.83691 0.672852 -7.70605 0.672852 -11.5762
c0 -19.7324 -5.83008 -39.5049 -17.4551 -55.4082c-13.9053 -19.0225 -36.291 -32.0225 -59.832 -33.0322c-11.7715 -0.504883 -23.6855 1.92871 -34.2109 7.22266c-10.5244 5.29492 -19.623 13.4619 -25.8096 23.4893c-6.18652 10.0264 -9.41211 21.8975 -8.89355 33.668
c0.517578 11.7695 4.81738 23.3848 12.2959 32.4883c6.27344 7.46094 14.6807 13.1416 24 16c9.05859 2.77832 18.9521 2.81348 28 0c9.29785 -2.89062 17.5762 -8.68262 24 -16c6.75293 -7.69141 11.5781 -17.0547 14 -27c2.38867 -9.80957 2.3916 -20.1914 0 -30
c-2.42383 -9.94336 -7.29297 -19.2695 -14 -27c-7.68262 -8.85449 -17.7529 -15.5918 -28.8213 -19.4551c-11.0674 -3.86328 -23.1045 -4.85938 -34.6807 -3.01562c-23.1543 3.68652 -43.9297 19.0078 -55.2461 39.541c-6.92773 12.5684 -10.3467 26.9053 -10.3467 41.2666
c0 9.09961 1.37305 18.21 4.09473 26.8867c7.01855 22.3701 22.7051 41.7158 42.6113 54.1016c17.874 11.1211 38.9863 16.7031 60.0518 16.7031c2.39648 0 4.79297 -0.0722656 7.18262 -0.216797c23.4033 -1.41504 46.2314 -9.62598 65.7285 -22.6475
c38.9941 -26.043 63.5566 -70.4668 71.4766 -116.685c2.15723 -12.5859 3.16797 -25.3027 3.16797 -38.0322c0 -34.0137 -7.21973 -68.125 -19.0908 -100.114c-16.3145 -43.9609 -41.1631 -84.3535 -69.3887 -121.798c-56.4521 -74.8877 -125.11 -139.549 -190.218 -207.046
c-64.6504 -68.5791 -125.681 -140.462 -189.027 -210.246c-31.6729 -34.8926 -64.3721 -69.0254 -100.607 -99.1523s-76.373 -56.373 -120.913 -71.7646c-24.7842 -8.56445 -51.1914 -13.5859 -77.375 -13.5859c-20.8721 0 -41.6016 3.19043 -61.252 10.3193
c-22.1504 8.03613 -42.6279 21.083 -58.3359 38.6475c-15.707 17.5635 -26.5059 39.7402 -29.2432 63.1445c-0.448242 3.83691 -0.672852 7.70605 -0.672852 11.5762c0 19.7324 5.83008 39.5049 17.4551 55.4082c13.9053 19.0225 36.291 32.0225 59.832 33.0322
c11.7715 0.504883 23.6855 -1.92871 34.2109 -7.22266c10.5244 -5.29492 19.623 -13.4619 25.8096 -23.4893c6.18652 -10.0264 9.41211 -21.8975 8.89355 -33.668c-0.517578 -11.7695 -4.81738 -23.3848 -12.2959 -32.4883c-6.27344 -7.46094 -14.6807 -13.1416 -24 -16
c-9.05859 -2.77832 -18.9521 -2.81348 -28 0c-9.29785 2.89062 -17.5762 8.68262 -24 16z" />
    <glyph glyph-name="uniFF10" unicode="&#xff10;" vert-adv-y="0" 
d="M536 888c29 0 54 -28 54 -60v-246c0 -32 -25 -60 -54 -60c-31 0 -54 28 -54 60v246c0 32 23 60 54 60zM268 990v-564l187 -208h164l185 204v568l-191 210h-154zM178 1056l223 246c9 12 25 18 38 18h196c14 0 29 -8 38 -18l221 -246c11 -10 16 -28 16 -42v-616
c0 -16 -7 -34 -16 -42l-216 -240c-11 -12 -27 -18 -38 -18h-205c-14 0 -31 8 -38 18l-219 244c-11 12 -16 28 -16 42v612c0 16 7 34 16 42z" />
    <glyph glyph-name="uniFF11" unicode="&#xff11;" vert-adv-y="0" 
d="M488 1296c11 12 23 20 36 20c7 0 18 0 25 -4c22 -10 27 -30 27 -56v-1156h-108v1008l-173 -196l-75 78z" />
    <glyph glyph-name="uniFF12" unicode="&#xff12;" vert-adv-y="0" 
d="M267 952h-106v64c0 16 8 32 17 42l217 244c11 12 25 18 38 18h313c14 0 29 -8 38 -18l110 -122c11 -12 16 -28 16 -42v-252c0 -16 -7 -32 -16 -42l-553 -628h569v-120h-700c-13 0 -27 6 -38 18s-16 28 -16 42s5 30 16 42l632 712v204l-78 86h-271l-188 -208v-40z" />
    <glyph glyph-name="uniFF13" unicode="&#xff13;" vert-adv-y="0" 
d="M268 1200v120h642v-186c0 -16 -7 -32 -16 -42l-239 -266c7 -2 14 -8 18 -12l219 -244c11 -12 17 -28 17 -42v-134c0 -16 -8 -32 -17 -42l-210 -234c-11 -12 -25 -18 -38 -18h-326c-14 0 -29 8 -38 18l-118 132l75 84l103 -114h286l178 198v84l-187 210h-88
c-13 0 -27 6 -38 18s-16 26 -16 42s5 30 16 42l313 344v42h-536z" />
    <glyph glyph-name="uniFF14" unicode="&#xff14;" vert-adv-y="0" 
d="M804 600h106v-112h-106v-438h-108v438h-480c-29 0 -54 28 -54 60v224c0 12 5 30 16 42l432 488c7 10 24 18 38 18h156v-720zM696 600v600h-25l-407 -458v-142h432z" />
    <glyph glyph-name="uniFF15" unicode="&#xff15;" vert-adv-y="0" 
d="M910 1320v-120h-642v-246h372c13 0 27 -6 38 -18l216 -240c9 -8 16 -26 16 -42v-252c0 -14 -5 -30 -16 -42l-218 -242c-7 -10 -23 -18 -37 -18h-472v120h452l185 208v202l-183 204h-459v486h748z" />
    <glyph glyph-name="uniFF16" unicode="&#xff16;" vert-adv-y="0" 
d="M162 372v2v636c0 14 5 30 16 42l257 286l78 -84l-242 -268v-330l135 150c9 10 24 18 38 18h198c13 0 27 -6 38 -18l214 -242c9 -10 16 -26 16 -42v-144c0 -14 -5 -30 -16 -42l-223 -248c-9 -10 -24 -18 -38 -18h-196c-13 0 -27 6 -38 18l-221 244c-2 2 -16 40 -16 40z
M271 492v-92l188 -210h153l190 214v100l-183 206h-153z" />
    <glyph glyph-name="uniFF17" unicode="&#xff17;" vert-adv-y="0" 
d="M482 98h-106v568c0 16 7 34 16 42l410 456v36h-640v120h748v-180c0 -14 -5 -32 -16 -42l-412 -458v-542z" />
    <glyph glyph-name="uniFF18" unicode="&#xff18;" vert-adv-y="0" 
d="M284 1166l104 132c11 14 26 20 40 20h214c16 0 29 -6 38 -16l104 -120c11 -12 17 -26 17 -40v-250l-18 -40l-65 -68l180 -214c7 -10 12 -24 12 -40v-142c0 -14 -5 -26 -16 -38l-218 -238c-9 -10 -20 -14 -34 -14h-216c-16 0 -31 6 -38 14l-210 238l-16 40v142
c0 10 7 24 18 38l176 210l-70 68c-11 10 -18 26 -18 44v238c0 10 5 24 16 36zM270 508v-94l178 -206h173l185 208v92l-185 218h-166zM376 1108v-192l77 -78h169l72 78v204l-73 84h-170z" />
    <glyph glyph-name="uniFF19" unicode="&#xff19;" vert-adv-y="0" 
d="M804 868l-236 -262c-7 -10 -23 -18 -37 -18h-213c-13 0 -27 6 -38 18l-102 114c-9 8 -16 26 -16 42v254c0 14 5 32 16 42l219 244c7 10 24 18 38 18h312c13 0 28 -6 37 -18l110 -124c9 -10 16 -26 16 -42v-856c0 -14 -5 -30 -16 -42l-144 -160l-75 84l129 140v566z
M804 1032v82l-79 86h-268l-187 -208v-206l70 -78h169z" />
    <glyph glyph-name="uniFF1A" unicode="&#xff1a;" vert-adv-y="0" 
d="M370 322h214v-222h-214v222zM370 822h214v-222h-214v222z" />
    <glyph glyph-name="uniFF1B" unicode="&#xff1b;" vert-adv-y="0" 
d="M477 822h214v-222h-214v222zM690 378v-214l-32 -84l-243 -272l-151 168l212 238v164h214z" />
    <glyph glyph-name="uniFF1C" unicode="&#xff1c;" vert-adv-y="0" 
d="M794 198c9 -12 15 -28 15 -44s-8 -30 -17 -42s-23 -18 -37 -20c-4 0 -6 -1 -10 -1c-10 0 -18 3 -28 9l-438 490v112l436 492c10 5 20 12 32 12h4c13 -2 23 -8 32 -18c11 -10 16 -26 18 -42c0 -4 1 -7 1 -11c0 -12 -3 -22 -8 -33l-410 -456z" />
    <glyph glyph-name="uniFF1D" unicode="&#xff1d;" vert-adv-y="0" 
d="M162 934h748v-112h-748v112zM162 600h748v-112h-748v112z" />
    <glyph glyph-name="uniFF1E" unicode="&#xff1e;" vert-adv-y="0" 
d="M185 1100c-9 12 -15 28 -15 44s8 30 17 42s23 18 37 20c4 0 6 1 10 1c10 0 18 -3 28 -9l438 -490v-112l-436 -492c-10 -5 -20 -12 -32 -12h-4c-13 2 -23 8 -32 18c-11 10 -16 26 -18 42c0 4 -1 7 -1 11c0 12 3 22 8 33l410 456z" />
    <glyph glyph-name="uniFF1F" unicode="&#xff1f;" vert-adv-y="0" 
d="M382 954h-108v184c0 16 7 32 16 42l113 124c11 12 27 14 38 14h308c14 0 29 -6 38 -16l113 -126c11 -12 16 -28 16 -42v-122c0 -16 -9 -34 -18 -44l-302 -320v-184h-108v210c0 14 5 32 16 44l306 320v72l-83 90h-264l-81 -88v-158zM488 222h108v-122h-108v122z" />
    <glyph glyph-name="uniFF20" unicode="&#xff20;" vert-adv-y="0" 
d="M590 704v120h-29l-77 -86v-34h106zM698 704h34l70 80v328l-72 80h-385l-75 -84v-810l66 -76h574v-120h-595c-13 0 -29 6 -40 18l-99 110c-9 10 -14 26 -14 42v860c0 14 3 30 14 42l108 120c9 10 26 18 40 18h428c13 0 29 -6 40 -18l104 -116c9 -10 14 -26 14 -42v-378
c0 -14 -3 -30 -14 -42l-103 -114c-9 -10 -23 -18 -37 -18h-326c-29 0 -54 28 -54 60v118c0 14 3 30 14 42l110 122c9 10 26 14 40 14h104c29 0 54 -24 54 -56v-180z" />
    <glyph glyph-name="uniFF22" unicode="&#xff22;" vert-adv-y="0" 
d="M268 218v858h-106v118h478c18 0 33 -10 40 -16l216 -250c11 -12 14 -26 14 -40c0 -20 -7 -36 -16 -46l-182 -194l182 -198c11 -12 16 -28 16 -40c0 -18 -7 -34 -16 -44l-219 -250c-13 -14 -29 -18 -38 -18h-475v120h106zM615 586h-239v-368h237l168 188zM613 708l168 180
l-164 188h-241v-368h237z" />
    <glyph glyph-name="uniFF23" unicode="&#xff23;" vert-adv-y="0" 
d="M910 1058l-75 -84l-96 102h-174l-295 -328v-202l297 -328h171l93 110l79 -84l-109 -128c-7 -8 -22 -18 -40 -18h-216c-9 0 -25 6 -38 20l-329 360c-5 6 -16 22 -16 42v252c0 10 1 28 14 42l329 364c5 6 20 16 38 16h218c9 0 25 0 38 -14z" />
    <glyph glyph-name="uniFF24" unicode="&#xff24;" vert-adv-y="0" 
d="M376 220h241l185 206v440l-185 210h-241v-856zM268 1076h-106v118h478c18 0 33 -12 38 -18l216 -244c13 -14 16 -32 16 -42v-488c0 -20 -11 -38 -16 -44l-218 -240c-13 -14 -28 -20 -37 -20h-477v120h106v858z" />
    <glyph glyph-name="uniFF25" unicode="&#xff25;" vert-adv-y="0" 
d="M162 1196h748v-122h-642v-362h428v-122h-428v-372h642v-120h-748v1098z" />
    <glyph glyph-name="uniFF26" unicode="&#xff26;" vert-adv-y="0" 
d="M162 1194h748v-120h-642v-362h536v-112h-536v-502h-106v1096z" />
    <glyph glyph-name="uniFF27" unicode="&#xff27;" vert-adv-y="0" 
d="M482 600h428v-112h-106v-386h-372c-9 0 -25 2 -38 16l-216 238c-5 6 -16 22 -16 42v496c0 10 1 32 14 46l216 238c5 8 20 16 38 16h216c9 0 26 -2 39 -16l135 -152l-77 -84l-119 134h-171l-183 -206v-446l183 -202h245v266h-216v112z" />
    <glyph glyph-name="uniFF28" unicode="&#xff28;" vert-adv-y="0" 
d="M162 1194h106v-482h536v482h106v-1094h-106v500h-536v-500h-106v1094z" />
    <glyph glyph-name="uniFF29" unicode="&#xff29;" vert-adv-y="0" 
d="M376 1194h320v-120h-106v-856h106v-122h-320v122h106v856h-106v120z" />
    <glyph glyph-name="uniFF2A" unicode="&#xff2a;" vert-adv-y="0" 
d="M156 464h106v-162l79 -82h167l76 86v768h-108v120h322v-120h-108v-792c0 -8 -1 -28 -14 -42l-106 -122c-7 -8 -22 -18 -40 -18h-212c-7 0 -25 2 -38 16l-108 116c-5 6 -16 22 -16 42v190z" />
    <glyph glyph-name="uniFF2B" unicode="&#xff2b;" vert-adv-y="0" 
d="M275 376v-278h-113v1096h113v-646l527 608v38h107v-62c0 -16 -6 -30 -17 -42l-387 -444l389 -444c11 -12 16 -26 16 -42v-62h-108v38l-372 426z" />
    <glyph glyph-name="uniFF2C" unicode="&#xff2c;" vert-adv-y="0" 
d="M162 1194h106v-976h642v-120h-748v1096z" />
    <glyph glyph-name="uniFF2D" unicode="&#xff2d;" vert-adv-y="0" 
d="M590 740v-152h-110v152l-210 248v-888h-108v1032c0 26 12 46 34 56c7 4 13 6 20 6c13 0 26 -8 37 -20l279 -322l287 326c11 12 24 16 37 16c4 0 10 2 14 2c2 0 3 -1 6 -2c22 -10 34 -32 34 -58v-1036h-108v892z" />
    <glyph glyph-name="uniFF2E" unicode="&#xff2e;" vert-adv-y="0" 
d="M162 100v1094h106l536 -610v610h106v-1094h-106v300l-536 616v-916h-106z" />
    <glyph glyph-name="uniFF2F" unicode="&#xff2f;" vert-adv-y="0" 
d="M273 988v-688l70 -80h382l77 86v680l-77 90h-380zM180 1052l102 124c13 16 29 18 40 18h426c18 0 35 -10 40 -18l108 -124c13 -14 14 -32 14 -42v-730c0 -20 -9 -36 -16 -42l-110 -120c-13 -14 -28 -18 -37 -18h-425c-18 0 -33 10 -38 16l-106 114c-13 14 -16 34 -16 44
v738c0 18 11 32 18 40z" />
    <glyph glyph-name="uniFF30" unicode="&#xff30;" vert-adv-y="0" 
d="M268 586h349l187 210v78l-185 200h-351v-488zM268 462v-366h-106v1098h478c14 0 27 -4 38 -16l216 -238c11 -12 16 -24 16 -40v-128c0 -16 -3 -30 -14 -42l-218 -246c-11 -12 -24 -22 -38 -22h-372z" />
    <glyph glyph-name="uniFF31" unicode="&#xff31;" vert-adv-y="0" 
d="M721 166l182 -218l-79 -80l-194 236h-197c-14 0 -26 6 -37 18l-218 238c-11 12 -16 26 -16 42v494c0 16 5 32 16 44l216 238c11 12 24 16 38 16h212c14 0 27 -4 38 -16l212 -244c11 -12 16 -26 16 -42v-492c0 -18 -5 -30 -16 -42zM644 248l158 178v442l-181 208h-166
l-185 -204v-444l185 -204h76l-45 80c-5 10 -8 18 -8 30v130h108v-114z" />
    <glyph glyph-name="uniFF32" unicode="&#xff32;" vert-adv-y="0" 
d="M554 588l340 -382c11 -12 16 -26 16 -42v-64h-106v28l-405 460h-131v-488h-106v1094h585c14 0 26 -6 37 -18l110 -120c11 -12 16 -26 16 -42v-246c0 -16 -5 -30 -16 -42l-106 -120c-11 -12 -24 -18 -38 -18h-196zM268 708h459l75 84v196l-77 86h-457v-366z" />
    <glyph glyph-name="uniFF33" unicode="&#xff33;" vert-adv-y="0" 
d="M799 996l-69 80h-378l-77 -86v-64l608 -476c16 -12 24 -30 24 -50v-118c0 -16 -6 -28 -15 -40l-102 -124c-11 -12 -24 -22 -40 -22h-425c-14 0 -26 6 -37 18l-110 122c-11 12 -16 26 -16 42v62h108v-38l77 -84h380l72 88v62l-609 476c-16 12 -23 30 -23 50v120
c0 16 5 30 16 42l110 122c11 12 24 16 38 16h421c14 0 27 -4 38 -16l104 -116c11 -12 16 -26 16 -42v-64h-111v40z" />
    <glyph glyph-name="uniFF34" unicode="&#xff34;" vert-adv-y="0" 
d="M162 1194h748v-120h-320v-976h-108v976h-320v120z" />
    <glyph glyph-name="uniFF35" unicode="&#xff35;" vert-adv-y="0" 
d="M162 1194h104v-890l77 -84h386l73 86v888h108v-912c0 -8 -1 -26 -14 -40l-104 -122c-7 -8 -22 -20 -40 -20h-432c-9 0 -25 4 -38 18l-106 118c-5 6 -14 22 -14 42v916z" />
    <glyph glyph-name="uniFF36" unicode="&#xff36;" vert-adv-y="0" 
d="M270 1026l260 -716l272 714v170h108v-182c0 -8 -1 -16 -3 -24l-326 -856c-9 -22 -28 -36 -51 -36s-41 14 -50 36l-318 858c-1 3 -2 5 -2 7c0 5 2 10 2 15v182h108v-168z" />
    <glyph glyph-name="uniFF37" unicode="&#xff37;" vert-adv-y="0" 
d="M532 314l-171 -200c-11 -12 -24 -18 -37 -18c-14 0 -27 6 -38 18l-108 120c-11 12 -16 26 -16 42v918h106v-894l56 -58l156 184v278h108v-282l159 -180l55 60v892h108v-918c0 -18 -5 -32 -16 -44l-110 -118c-11 -10 -23 -18 -37 -18c-13 0 -27 8 -38 20z" />
    <glyph glyph-name="uniFF38" unicode="&#xff38;" vert-adv-y="0" 
d="M532 562l-260 -306v-154h-108v178c0 16 5 30 16 42l277 324l-277 330c-11 12 -16 26 -16 42v178h108v-154l262 -310l268 308v154h108v-178c0 -16 -5 -30 -16 -42l-284 -326l284 -328c11 -12 16 -26 16 -42v-178h-108v154z" />
    <glyph glyph-name="uniFF39" unicode="&#xff39;" vert-adv-y="0" 
d="M590 742v-642h-110v642l-302 348c-11 12 -16 26 -16 42v62h108v-38l268 -304l264 304v38h108v-58c0 -16 -3 -32 -14 -44z" />
    <glyph glyph-name="uniFF3A" unicode="&#xff3a;" vert-adv-y="0" 
d="M909 1012c0 -16 -6 -30 -17 -42l-622 -712v-38h640v-122h-748v184c0 16 5 30 16 42l623 712v38h-639v120h747v-182z" />
    <glyph glyph-name="uniFF3B" unicode="&#xff3b;" vert-adv-y="0" 
d="M376 1318h320v-122h-216v-1098h216v-124h-320v1344z" />
    <glyph glyph-name="uniFF3C" unicode="&#xff3c;" vert-adv-y="0" 
d="M150 1010c7.69141 6.75293 17.0547 11.5781 27 14c9.80957 2.38867 20.1914 2.3916 30 0c9.94336 -2.42383 19.2695 -7.29297 27 -14c8.85449 -7.68262 15.5918 -17.7529 19.4551 -28.8213c3.86328 -11.0674 4.85938 -23.1045 3.01562 -34.6807
c-3.68652 -23.1543 -19.0078 -43.9297 -39.541 -55.2461c-12.5684 -6.92773 -26.9053 -10.3467 -41.2666 -10.3467c-9.09961 0 -18.21 1.37305 -26.8867 4.09473c-22.3701 7.01855 -41.7158 22.7051 -54.1016 42.6113c-11.1211 17.874 -16.7031 38.9863 -16.7031 60.0518
c0 2.39648 0.0722656 4.79297 0.216797 7.18262c1.41504 23.4033 9.62598 46.2314 22.6475 65.7285c26.043 38.9941 70.4668 63.5566 116.685 71.4766c12.5859 2.15723 25.3027 3.16797 38.0322 3.16797c34.0137 0 68.125 -7.21973 100.114 -19.0908
c43.9609 -16.3145 84.3535 -41.1631 121.798 -69.3887c74.8877 -56.4521 139.549 -125.11 207.046 -190.218c68.5791 -64.6504 140.462 -125.681 210.246 -189.027c34.8926 -31.6729 69.0254 -64.3721 99.1523 -100.607s56.373 -76.373 71.7646 -120.913
c8.56445 -24.7842 13.5859 -51.1914 13.5859 -77.375c0 -20.8721 -3.19043 -41.6016 -10.3193 -61.252c-8.03613 -22.1504 -21.083 -42.6279 -38.6475 -58.3359c-17.5635 -15.707 -39.7402 -26.5059 -63.1445 -29.2432
c-3.83691 -0.448242 -7.70605 -0.672852 -11.5762 -0.672852c-19.7324 0 -39.5049 5.83008 -55.4082 17.4551c-19.0225 13.9053 -32.0225 36.291 -33.0322 59.832c-0.504883 11.7715 1.92871 23.6855 7.22266 34.2109c5.29492 10.5244 13.4619 19.623 23.4893 25.8096
c10.0264 6.18652 21.8975 9.41211 33.668 8.89355c11.7695 -0.517578 23.3848 -4.81738 32.4883 -12.2959c7.46094 -6.27344 13.1416 -14.6807 16 -24c2.77832 -9.05859 2.81348 -18.9521 0 -28c-2.89062 -9.29785 -8.68262 -17.5762 -16 -24
c-7.69141 -6.75293 -17.0547 -11.5781 -27 -14c-9.80957 -2.38867 -20.1914 -2.3916 -30 0c-9.94336 2.42383 -19.2695 7.29297 -27 14c-8.85449 7.68262 -15.5918 17.7529 -19.4551 28.8213c-3.86328 11.0674 -4.85938 23.1045 -3.01562 34.6807
c3.68652 23.1543 19.0078 43.9297 39.541 55.2461c12.5684 6.92773 26.9053 10.3467 41.2666 10.3467c9.09961 0 18.21 -1.37305 26.8867 -4.09473c22.3701 -7.01855 41.7158 -22.7051 54.1016 -42.6113c11.1211 -17.874 16.7031 -38.9863 16.7031 -60.0518
c0 -2.39648 -0.0722656 -4.79297 -0.216797 -7.18262c-1.41504 -23.4033 -9.62598 -46.2314 -22.6475 -65.7285c-26.043 -38.9941 -70.4668 -63.5566 -116.685 -71.4766c-12.5859 -2.15723 -25.3027 -3.16797 -38.0322 -3.16797
c-34.0137 0 -68.125 7.21973 -100.114 19.0908c-43.9609 16.3145 -84.3535 41.1631 -121.798 69.3887c-74.8877 56.4521 -139.549 125.11 -207.046 190.218c-68.5791 64.6504 -140.462 125.681 -210.246 189.027c-34.8926 31.6729 -69.0254 64.3721 -99.1523 100.607
s-56.373 76.373 -71.7646 120.913c-8.56445 24.7842 -13.5859 51.1914 -13.5859 77.375c0 20.8721 3.19043 41.6016 10.3193 61.252c8.03613 22.1504 21.083 42.6279 38.6475 58.3359c17.5635 15.707 39.7402 26.5059 63.1445 29.2432
c3.83691 0.448242 7.70605 0.672852 11.5762 0.672852c19.7324 0 39.5049 -5.83008 55.4082 -17.4551c19.0225 -13.9053 32.0225 -36.291 33.0322 -59.832c0.504883 -11.7715 -1.92871 -23.6855 -7.22266 -34.2109c-5.29492 -10.5244 -13.4619 -19.623 -23.4893 -25.8096
c-10.0264 -6.18652 -21.8975 -9.41211 -33.668 -8.89355c-11.7695 0.517578 -23.3848 4.81738 -32.4883 12.2959c-7.46094 6.27344 -13.1416 14.6807 -16 24c-2.77832 9.05859 -2.81348 18.9521 0 28c2.89062 9.29785 8.68262 17.5762 16 24z" />
    <glyph glyph-name="uniFF3D" unicode="&#xff3d;" vert-adv-y="0" 
d="M376 1318h320v-1344h-320v124h214v1098h-214v122z" />
    <glyph glyph-name="uniFF3E" unicode="&#xff3e;" vert-adv-y="0" 
d="M293 992l-38 42l247 274c3.48535 3.86719 7.12988 7.66406 11.5059 10.4854c4.375 2.82227 9.35938 4.6543 14.4941 5.51465c9.29395 1.55664 18.9072 0.474609 28 -2c4.26758 -1.16113 8.43848 -2.78223 12.1689 -5.1582
c3.73047 -2.37695 6.87012 -5.55664 9.83105 -8.8418l247 -274l-38 -42l-39 -42l-208 231l-208 -231z" />
    <glyph glyph-name="uniFF3F" unicode="&#xff3f;" vert-adv-y="0" 
d="M151 98h768v-124h-768v124z" />
    <glyph glyph-name="uniFF40" unicode="&#xff40;" vert-adv-y="0" 
d="M401 1302c11 12 25 16 39 16c13 0 27 -4 38 -16l225 -248c11 -12 15 -28 15 -42c0 -16 -4 -32 -15 -44s-25 -16 -39 -16c-13 0 -27 4 -38 16l-225 250c-11 12 -15 28 -15 42c0 16 4 32 15 42z" />
    <glyph glyph-name="uniFF41" unicode="&#xff41;" vert-adv-y="0" 
d="M702 216v252h-362l-77 -88v-74l75 -90h364zM810 216h110v-116h-605c-18 0 -33 12 -38 18l-104 124c-13 14 -17 34 -17 42v120c0 20 12 36 17 42l106 122c13 14 29 16 38 16h385v166l-74 84h-367v118h389c18 0 32 -12 37 -18l107 -120c13 -14 16 -30 16 -40v-558z" />
    <glyph glyph-name="uniFF42" unicode="&#xff42;" vert-adv-y="0" 
d="M150 104v1214h108v-368h281c18 0 33 -12 38 -18l214 -242c13 -14 16 -32 16 -42v-246c0 -20 -11 -36 -16 -42l-221 -242c-13 -14 -31 -14 -38 -14h-382zM258 218h252l191 208v198l-183 208h-260v-614z" />
    <glyph glyph-name="uniFF43" unicode="&#xff43;" vert-adv-y="0" 
d="M808 950v-118h-366l-185 -208v-198l191 -208h360v-116h-382c-7 0 -25 2 -38 16l-221 242c-5 6 -17 22 -17 42v246c0 10 4 28 17 42l216 242c5 6 18 18 36 18h389z" />
    <glyph glyph-name="uniFF44" unicode="&#xff44;" vert-adv-y="0" 
d="M808 102h-382c-7 0 -25 2 -38 16l-221 242c-5 6 -17 22 -17 42v246c0 10 4 28 17 42l216 242c5 6 18 18 36 18h281v368h108v-1216zM700 218v614h-258l-185 -208v-198l191 -208h252z" />
    <glyph glyph-name="uniFF45" unicode="&#xff45;" vert-adv-y="0" 
d="M257 462v-158l77 -90h474v-112h-496c-16 0 -31 10 -36 16l-111 120c-13 14 -15 32 -15 42v484c0 20 13 34 18 40l110 126c13 14 31 22 40 22h326c18 0 33 -16 38 -22l106 -124c13 -14 16 -30 16 -40v-304h-547zM258 586h442v156l-78 88h-284l-80 -90v-154z" />
    <glyph glyph-name="uniFF46" unicode="&#xff46;" vert-adv-y="0" 
d="M554 1198l-72 -82v-164h218v-122h-220v-732h-106v732h-224v122h224v188c0 16 3 30 14 42l103 118c11 12 23 18 39 18h278v-120h-254z" />
    <glyph glyph-name="uniFF47" unicode="&#xff47;" vert-adv-y="0" 
d="M753 380l-125 -138c-7 -10 -23 -18 -37 -18h-171c-13 0 -27 6 -38 18l-212 236c-9 8 -17 26 -17 42v134c0 14 6 30 17 42l217 244c7 10 24 16 38 16h272c13 0 27 -4 38 -16l109 -124c9 -8 17 -26 17 -42v-742c0 -14 -6 -30 -17 -42l-100 -112c-7 -10 -24 -18 -38 -18
h-290c-13 0 -27 6 -38 18l-104 116l76 84l88 -98h246l69 76v324zM753 548v202l-78 86h-228l-186 -206v-86l180 -200h128z" />
    <glyph glyph-name="uniFF48" unicode="&#xff48;" vert-adv-y="0" 
d="M150 96v1236h108v-536l130 144c11 10 24 10 38 10h214c14 0 27 -6 38 -16l113 -120c11 -12 17 -26 17 -44v-674h-108v648l-82 88h-170l-190 -202v-534h-108z" />
    <glyph glyph-name="uniFF49" unicode="&#xff49;" vert-adv-y="0" 
d="M480 1318h110v-122h-110v122zM480 952h110v-854h-110v854z" />
    <glyph glyph-name="uniFF4A" unicode="&#xff4a;" vert-adv-y="0" 
d="M813 34c0 -16 -8 -30 -19 -42l-108 -122c-11 -12 -21 -16 -37 -16h-223c-14 0 -27 6 -38 18l-108 122l75 84l94 -106h178l76 86v894h110v-918zM703 1318h111v-122h-111v122z" />
    <glyph glyph-name="uniFF4B" unicode="&#xff4b;" vert-adv-y="0" 
d="M503 524l299 -342l-77 -84l-319 368h-144v-368h-112v1220h112v-732h146l324 366l76 -84z" />
    <glyph glyph-name="uniFF4C" unicode="&#xff4c;" vert-adv-y="0" 
d="M594 246l24 -28h88v-120h-110c-14 0 -27 6 -38 18l-56 62c-11 12 -16 26 -16 42v1098h108v-1072z" />
    <glyph glyph-name="uniFF4D" unicode="&#xff4d;" vert-adv-y="0" 
d="M592 746v-648h-110v648l-74 84h-64l-80 -86v-646h-108v852h110v-34l16 18c11 12 24 18 38 18h112c16 0 28 -6 39 -18l65 -78l68 76c11 12 24 18 38 18h116c14 0 26 -6 37 -18l107 -118c11 -12 16 -26 16 -42v-674h-108v650l-74 82h-70z" />
    <glyph glyph-name="uniFF4E" unicode="&#xff4e;" vert-adv-y="0" 
d="M345 884l43 48c5 6 20 18 38 18h223c9 0 23 -2 36 -16l106 -116c5 -6 17 -22 17 -42v-674h-103v650l-77 78h-180l-76 -84v-646h-108v670c0 6 3 14 7 24l-32 40h-89v118h114c18 0 29 -10 34 -18z" />
    <glyph glyph-name="uniFF4F" unicode="&#xff4f;" vert-adv-y="0" 
d="M258 748v-444l78 -84h292l72 84v444l-71 88h-293zM168 814l110 126c13 14 29 14 36 14h339c18 0 32 -12 39 -20l101 -126c11 -12 15 -28 15 -38v-490c0 -20 -12 -36 -17 -42l-104 -118c-10 -13 -23 -14 -32 -14h-6h-335c-16 0 -29 8 -36 14l-111 116
c-14 14 -17 32 -17 44v494c0 20 13 34 18 40z" />
    <glyph glyph-name="uniFF50" unicode="&#xff50;" vert-adv-y="0" 
d="M150 956h396c11 0 17 0 24 -8l221 -236c5 -6 16 -22 16 -42v-268c0 -10 -3 -28 -16 -42l-216 -242c-5 -6 -18 -18 -36 -18h-281v-368h-108v1224zM258 830v-612h258l185 208v220l-174 184h-269z" />
    <glyph glyph-name="uniFF51" unicode="&#xff51;" vert-adv-y="0" 
d="M810 948v-1078h110v-124h-220v362h-275c-18 0 -31 12 -36 18l-216 242c-13 14 -17 32 -17 42v238c0 20 12 36 17 42l221 242c13 14 31 16 38 16h378zM700 832h-247l-190 -208v-190l185 -208h252v606z" />
    <glyph glyph-name="uniFF52" unicode="&#xff52;" vert-adv-y="0" 
d="M347 626v-526h-107v668c0 18 -5 30 -16 44c-13 12 -23 18 -41 18h-33v122h89c31 0 108 -58 108 -122v-38l124 140c11 12 24 20 38 20h131c16 0 29 -6 38 -18l113 -122c11 -12 17 -26 17 -44v-60h-108v36l-82 86h-86z" />
    <glyph glyph-name="uniFF53" unicode="&#xff53;" vert-adv-y="0" 
d="M694 744l-79 88h-277l-52 -60l502 -442c13 -12 20 -26 20 -44s-6 -34 -17 -46l-113 -124c-11 -12 -24 -18 -38 -18h-324c-14 0 -27 6 -38 18l-111 120c-11 12 -17 26 -17 44v56h108v-30l80 -88h280l54 60l-500 440c-13 10 -18 26 -20 44v7c0 15 6 29 15 39l108 126
c11 12 23 18 39 18h322c14 0 27 -6 38 -18l112 -122c11 -12 16 -26 16 -42v-64h-108v38z" />
    <glyph glyph-name="uniFF54" unicode="&#xff54;" vert-adv-y="0" 
d="M588 246l23 -28h89v-120h-110c-14 0 -27 6 -38 18l-56 62c-11 12 -16 26 -16 42v610h-221v122h221v366h108v-366h221v-122h-221v-584z" />
    <glyph glyph-name="uniFF55" unicode="&#xff55;" vert-adv-y="0" 
d="M725 168l-43 -48c-5 -6 -20 -18 -38 -18h-327c-9 0 -23 2 -36 16l-107 116c-5 6 -16 22 -16 42v676h106v-652l74 -82h285l75 88v646h108v-670c0 -6 -3 -14 -7 -24l33 -40h88v-116h-110c-18 0 -33 8 -38 16z" />
    <glyph glyph-name="uniFF56" unicode="&#xff56;" vert-adv-y="0" 
d="M264 782l272 -508l276 514v162h108v-178c0 -12 -3 -20 -8 -30l-329 -616c-11 -20 -27 -30 -47 -30s-36 10 -47 30l-325 610c-5 10 -8 18 -8 30v184h108v-168z" />
    <glyph glyph-name="uniFF57" unicode="&#xff57;" vert-adv-y="0" 
d="M594 422l156 -178l62 64v644h108v-670c0 -18 -6 -32 -17 -44l-115 -122c-11 -10 -25 -16 -38 -16s-26 6 -37 18l-175 198l-180 -204c-11 -12 -24 -20 -38 -20s-27 8 -38 20l-109 124c-11 12 -17 26 -17 42v674h108v-650l56 -62l164 182v164h110v-164z" />
    <glyph glyph-name="uniFF58" unicode="&#xff58;" vert-adv-y="0" 
d="M536 440l-277 -306v-38h-108v64c0 16 3 30 14 42l294 322l-294 324c-11 12 -14 28 -14 44v60h108v-40l277 -302l277 302v40h108v-60c0 -16 -5 -32 -16 -44l-293 -322l293 -324c11 -12 16 -26 16 -42v-64h-108v38z" />
    <glyph glyph-name="uniFF59" unicode="&#xff59;" vert-adv-y="0" 
d="M456 156l-289 326c-11 12 -17 26 -17 42v428h108v-404l276 -306l164 182v528h108v-552c0 -16 -6 -30 -17 -42l-552 -614l-76 84z" />
    <glyph glyph-name="uniFF5A" unicode="&#xff5a;" vert-adv-y="0" 
d="M156 952h764l-542 -734h542v-120h-764l544 732h-544v122z" />
    <glyph glyph-name="uniFF5B" unicode="&#xff5b;" vert-adv-y="0" 
d="M690 1346v-120h-140l-82 -88v-342c0 -20 -9 -36 -14 -42l-70 -80l70 -82c5 -6 14 -22 14 -42v-342l82 -88h140v-120h-162c-18 0 -33 12 -38 18l-113 122c-13 14 -17 34 -17 44v342l-75 88h-65v120h65l75 86v344c0 10 4 28 17 42l113 122c5 8 20 18 38 18h162z" />
    <glyph glyph-name="uniFF5C" unicode="&#xff5c;" vert-adv-y="0" 
d="M480 1440h110v-1676h-110v1676z" />
    <glyph glyph-name="uniFF5D" unicode="&#xff5d;" vert-adv-y="0" 
d="M426 1322c4 0 7 -2 9 -2s5 -2 7 -2s6 -2 8 -2s5 -2 7 -4s1 -2 3 -4l4 -4l113 -122c2 -2 4 -6 6 -8s3 -4 5 -8s2 -10 4 -14c0 -2 2 -4 2 -6v-8v-342l75 -88h65v-120h-65l-75 -86v-344v-6s-2 -4 -2 -6s-2 -6 -2 -8s0 -6 -2 -8s-3 -6 -5 -8l-6 -6l-113 -122l-4 -4
s-1 -2 -3 -4s-5 -4 -7 -4s-6 -2 -8 -2s-5 -2 -7 -2s-5 -2 -9 -2h-162v120h140l82 88v342v10s-1 6 1 8s2 4 4 6s1 6 3 8c0 2 2 4 2 6s2 2 4 4l70 80l-70 82c-2 2 -4 2 -4 4s-2 4 -2 6c-2 2 -1 6 -3 8s-2 4 -4 6s-1 4 -1 8v10v342l-82 88h-140v120h162z" />
    <glyph glyph-name="uniFF5E" unicode="&#xff5e;" vert-adv-y="0" 
d="M218 1136l-38 42l108 120c3.50293 3.89258 7.41211 7.47559 12 10c4.45215 2.4502 9.19922 4.33203 14 6c1.92676 0.669922 3.88965 1.25293 5.90137 1.5957c2.01074 0.342773 4.05859 0.404297 6.09863 0.404297h118c4.74414 0 9.55469 -0.344727 14 -2
c4.61914 -1.71973 8.80762 -4.40723 13 -7c2.02441 -1.25195 4.0332 -2.53809 5.89258 -4.02344c1.85938 -1.48633 3.5166 -3.20703 5.10742 -4.97656l196 -218h73l86 96l39 -42l38 -42l-103 -114c-3.01562 -3.33691 -6.2793 -6.47266 -10 -9
c-4.32812 -2.94043 -9.03711 -5.3418 -14 -7c-4.49512 -1.50098 -9.26074 -2 -14 -2h-117c-4.41016 0 -8.83008 0.56543 -13 2c-4.51953 1.55469 -8.86816 3.59766 -13 6c-4.52441 2.62988 -8.49121 6.11719 -12 10l-197 218h-72l-92 -102z" />
    <glyph glyph-name="uni2E28" unicode="&#x2e28;" vert-adv-y="0" 
d="M525 940l225 238c11 10 23 18 36 18c14 0 27 -8 36 -20c11 -12 16 -26 16 -42s-5 -28 -16 -40l-209 -226v-440l211 -232c11 -10 16 -26 16 -42s-5 -28 -16 -38c-11 -12 -23 -18 -36 -18s-27 6 -36 18l-226 250c-11 12 -16 22 -16 38v488c0 16 4 36 15 48zM250 940
l225 238c11 10 23 18 36 18c14 0 27 -8 36 -20c11 -12 16 -26 16 -42s-5 -28 -16 -40l-209 -226v-440l211 -232c11 -10 16 -26 16 -42s-5 -28 -16 -38c-11 -12 -23 -18 -36 -18s-27 6 -36 18l-226 250c-11 12 -16 22 -16 38v488c0 16 4 36 15 48z" />
    <glyph glyph-name="uni2E29" unicode="&#x2e29;" vert-adv-y="0" 
d="M731 354l-225 -238c-11 -10 -23 -18 -36 -18c-14 0 -27 8 -36 20c-11 12 -16 26 -16 42s5 28 16 40l209 226v440l-211 232c-11 10 -16 26 -16 42s5 28 16 38c11 12 23 18 36 18s27 -6 36 -18l226 -250c11 -12 16 -22 16 -38v-488c0 -16 -4 -36 -15 -48zM454 354
l-225 -238c-11 -10 -23 -18 -36 -18c-14 0 -27 8 -36 20c-11 12 -16 26 -16 42s5 28 16 40l209 226v440l-211 232c-11 10 -16 26 -16 42s5 28 16 38c11 12 23 18 36 18s27 -6 36 -18l226 -250c11 -12 16 -22 16 -38v-488c0 -16 -4 -36 -15 -48z" />
    <glyph glyph-name="uniFF61" unicode="&#xff61;" vert-adv-y="0" 
d="M407 296v-152h137v152h-137zM366 388h218c22 0 39 -22 39 -46v-244c0 -24 -17 -46 -39 -46h-218c-22 0 -41 22 -41 46v244c0 24 19 46 41 46z" />
    <glyph glyph-name="uniFF62" unicode="&#xff62;" vert-adv-y="0" 
d="M521 1298h-404v-576h-90v678h494v-102z" />
    <glyph glyph-name="uniFF63" unicode="&#xff63;" vert-adv-y="0" 
d="M547 -290h404v576h90v-678h-494v102z" />
    <glyph glyph-name="uniFF64" unicode="&#xff64;" vert-adv-y="0" 
 />
    <glyph glyph-name="uniFF65" unicode="&#xff65;" vert-adv-y="0" 
d="M426 878h214v-222h-214v222z" />
    <glyph glyph-name="uniFFE0" unicode="&#xffe0;" vert-adv-y="0" 
d="M474 1318h110v-244h219v-122h-219v-366h219v-122h-219v-244l-110 2v242h-185c-2.00098 0 -4.00977 -0.210938 -6 0c-1.69141 0.178711 -3.3252 0.702148 -5 1c-2 0.355469 -4.07227 0.360352 -6 1c-1.41797 0.470703 -2.70117 1.2627 -4 2
c-1.29688 0.736328 -2.64355 1.38086 -4 2s-2.71191 1.24805 -4 2c-1.44336 0.841797 -2.78613 1.85156 -4 3c-1.02734 0.97168 -1.98535 2.01465 -3 3c-1.35254 1.31445 -2.73926 2.59668 -4 4l-88 98c-0.776367 -0.0380859 -1.56055 0.106445 -2.27344 0.416016
c-0.713867 0.30957 -1.35254 0.783203 -1.86914 1.36328c-0.516602 0.581055 -0.910156 1.26465 -1.2002 1.98535c-0.290039 0.72168 -0.477539 1.47949 -0.657227 2.23535c-0.244141 1.02832 -0.529297 2.05371 -1 3c-0.332031 0.667969 -0.719727 1.30859 -1 2
c-0.396484 0.977539 -0.579102 2.0332 -1 3c-0.297852 0.683594 -0.68457 1.32422 -1 2c-0.31543 0.676758 -0.570312 1.38867 -1 2c-0.271484 0.386719 -0.608398 0.722656 -0.962891 1.03516s-0.72168 0.612305 -1.03711 0.964844
c-0.360352 0.40332 -0.643555 0.878906 -0.803711 1.39551s-0.201172 1.06348 -0.196289 1.60449c0.00585938 0.666992 0.0644531 1.33594 0 2c-0.0507812 0.527344 -0.179688 1.0459 -0.362305 1.54395c-0.183594 0.49707 -0.416016 0.974609 -0.637695 1.45605
c-0.575195 1.25098 -0.978516 2.60742 -0.915039 3.9834c0.0625 1.37598 0.511719 2.69922 0.915039 4.0166c0.399414 1.30566 0.730469 2.64551 0.765625 4.00977c0.0351562 1.36523 -0.21875 2.73926 -0.765625 3.99023v292
c0 0.854492 0.0615234 1.71289 0.271484 2.54199c0.210938 0.828125 0.524414 1.62793 0.728516 2.45801c0.240234 0.976562 0.297852 1.99121 0.231445 2.99414c-0.0673828 1.00293 -0.219727 2.00098 -0.231445 3.00586c-0.0195312 1.70898 0.438477 3.38574 1 5
c0.589844 1.69629 1.22656 3.37891 2 5c0.642578 1.3457 1.37793 2.64453 2 4c0.749023 1.63184 1.30664 3.34375 2 5c0.576172 1.37598 1.25098 2.70996 2 4c0.839844 1.44629 1.80957 2.8252 3 4c0.671875 0.663086 1.39648 1.27051 2.08301 1.91797
c0.686523 0.648438 1.31543 1.35449 1.91699 2.08203l81 98c0.0673828 1.37695 0.649414 2.71387 1.57715 3.7334c0.926758 1.02051 2.1709 1.69043 3.42285 2.2666c0.677734 0.311523 1.3584 0.621094 2 1c1.03516 0.611328 1.96094 1.39551 3 2
c0.644531 0.375 1.3252 0.683594 2 1c1.34961 0.632812 2.64258 1.38281 4 2c1.63477 0.743164 3.38086 1.22266 5 2c1.34473 0.645508 2.60352 1.47461 4 2c1.59473 0.599609 3.31641 0.741211 5 1c2.00586 0.307617 3.97559 0.863281 6 1c1.66309 0.112305 3.33301 0 5 0
h189v244zM474 952h-166l-50 -60v-242l54 -64h162v366z" />
    <glyph glyph-name="uniFFE1" unicode="&#xffe1;" vert-adv-y="0" 
d="M333 220l-13 4h-50v-12h50zM493 280l15 -4c1.31641 -0.351562 2.62695 -0.775391 3.7998 -1.46875c1.17383 -0.693359 2.2041 -1.60156 3.2002 -2.53125c1.90527 -1.77832 3.86914 -3.49902 6 -5c1.06641 -0.751953 2.14551 -1.48828 3.15918 -2.31055
c1.0127 -0.822266 1.94043 -1.74414 2.84082 -2.68945l40 -42h180l95 100l74 -88l-112 -116c-2.79395 -2.89355 -5.64746 -5.77637 -9 -8c-4.24707 -2.81641 -9.11035 -4.56445 -14 -6c-4.54297 -1.33398 -9.26465 -2 -14 -2h-220
c-2.03906 0 -4.08594 0.0693359 -6.09473 0.422852c-2.00781 0.352539 -3.9668 0.942383 -5.90527 1.57715c-4.71094 1.54297 -9.47656 2.97266 -14 5c-2.2998 1.03027 -4.50391 2.28809 -6.50391 3.82031c-2.00098 1.5332 -3.76953 3.34375 -5.49609 5.17969l-47 50l-36 12
l-61 -66c-3.23438 -3.49902 -6.78711 -6.77441 -11 -9c-4.11035 -2.1709 -8.55664 -3.63184 -13 -5c-2.10547 -0.648438 -4.23633 -1.23242 -6.41211 -1.58203c-2.1748 -0.350586 -4.38477 -0.417969 -6.58789 -0.417969h-112c-4.79102 0 -9.63379 0.214844 -14.2344 1.5498
c-4.60156 1.33594 -8.88086 3.64648 -12.7656 6.4502c-8.08984 5.83887 -14.9756 13.3809 -20 22c-2.62207 4.49902 -4.62305 9.375 -5.73828 14.4619s-1.26172 10.3301 -1.26172 15.5381v122c0 5.20801 0.146484 10.4512 1.26172 15.5381s3.11621 9.96289 5.73828 14.4619
c5.02441 8.61914 11.9102 16.1611 20 22c3.88477 2.80371 8.16406 5.11426 12.7656 6.4502c4.60059 1.33496 9.44336 1.5498 14.2344 1.5498h108c1.18164 0 2.36523 -0.0732422 3.52539 -0.298828c1.16016 -0.224609 2.30371 -0.541016 3.47461 -0.701172
c1.6543 -0.226562 3.33203 -0.0732422 5 0c1.02148 0.0449219 2.05078 0.0283203 3.05957 -0.141602s1.98145 -0.501953 2.94043 -0.858398l43 -16v386h-222v122h222v306c0 4.6875 0.0410156 9.41113 1 14c1.01562 4.86035 2.9375 9.4834 5 14
c1.1582 2.53613 2.39355 5.04297 3.88086 7.40039c1.4873 2.3584 3.27148 4.5127 5.11914 6.59961l108 122c3.13086 3.53711 6.2041 7.18848 10 10c4.20508 3.11523 9.12305 5.10156 14 7c2.39453 0.932617 4.82227 1.80762 7.33496 2.34668
s5.09473 0.65332 7.66504 0.65332h115c2.08496 0 4.18652 -0.126953 6.19531 -0.68457c2.00977 -0.558594 3.90723 -1.4502 5.80469 -2.31543c2.31152 -1.05371 4.66602 -2.01074 7.04004 -2.91602c2.37305 -0.904297 4.75195 -1.82812 6.95996 -3.08398
c2.37012 -1.34863 4.50391 -3.08203 6.44336 -4.99902c1.93848 -1.91699 3.73242 -3.97461 5.55664 -6.00098l108 -120l-77 -84l-92 102h-70l-76 -86v-282h219v-122h-219v-426z" />
    <glyph glyph-name="uniFFE2" unicode="&#xffe2;" vert-adv-y="0" 
d="M921 612h-111v210h-657v120h768v-330z" />
    <glyph glyph-name="uniFFE3" unicode="&#xffe3;" vert-adv-y="0" 
d="M88 1318h908v-122h-908v122z" />
    <glyph glyph-name="uniFFE4" unicode="&#xffe4;" vert-adv-y="0" 
d="M480 708v732h110v-732h-110zM590 468v-704h-110v704h110z" />
    <glyph glyph-name="uniFFE5" unicode="&#xffe5;" vert-adv-y="0" 
d="M480 704v38l-302 348c-11 12 -16 26 -16 42v62h108v-38l268 -304l264 304v38h108v-58c0 -16 -3 -32 -14 -44l-306 -350v-38h320v-112h-320v-222h320v-112h-320v-158h-110v158h-318v112h318v222h-318v112h318z" />
    <glyph glyph-name="uniFFE6" unicode="&#xffe6;" vert-adv-y="0" 
d="M532 314l-108 -200c-9 -14 -24 -18 -37 -18c-14 0 -27 6 -38 18l-108 120c-11 12 -16 26 -16 42v212h-63v112h63v222h-63v112h63v260h108v-260h406v262h108v-262h63v-112h-63v-222h63v-112h-63v-212c0 -18 -5 -32 -16 -44l-110 -118c-11 -10 -23 -16 -37 -16
c-13 0 -29 4 -38 18zM333 488v-188l54 -58l93 184v62h-147zM588 488v-66l96 -180l55 60v186h-151zM333 600h147v104h108v-104h151v222h-406v-222z" />
    <glyph glyph-name="uniFFE7" unicode="&#xffe7;" vert-adv-y="0" 
 />
    <glyph glyph-name="uniFFE8" unicode="&#xffe8;" vert-adv-y="0" 
 />
    <glyph glyph-name="uniFFE9" unicode="&#xffe9;" vert-adv-y="0" 
d="M518 952v-244h369v-122h-369v-244l-325 304z" />
    <glyph glyph-name="uniFFEA" unicode="&#xffea;" vert-adv-y="0" 
d="M814 672h-220v-412h-108v412h-220l274 360z" />
    <glyph glyph-name="uniFFEB" unicode="&#xffeb;" vert-adv-y="0" 
d="M562 952l325 -306l-325 -304v244h-369v122h369v244z" />
    <glyph glyph-name="uniFFEC" unicode="&#xffec;" vert-adv-y="0" 
d="M266 624h220v408h108v-408h220l-274 -364z" />
    <glyph glyph-name="uniFFED" unicode="&#xffed;" vert-adv-y="0" 
d="M345 1020h378v-432h-378v432z" />
    <glyph glyph-name="uniFFEE" unicode="&#xffee;" vert-adv-y="0" 
d="M350 804c0 -126 88 -226 198 -226c108 0 198 100 198 226s-90 226 -198 226c-110 0 -198 -100 -198 -226zM260 804c0 180 128 326 288 326c158 0 288 -146 288 -326s-130 -326 -288 -326c-160 0 -288 146 -288 326z" />
    <glyph glyph-name="uniFFFC" unicode="&#xfffc;" vert-adv-y="0" 
d="M771 382h90v-284c0 -14 -5 -30 -14 -38l-53 -52c-9 -8 -19 -12 -30 -12h-97c-11 0 -22 6 -31 14l-52 52c-9 10 -15 24 -15 36v96h90v-74l24 -24h65l23 24v262zM278 1382h176c25 0 43 -22 43 -50v-288c0 -28 -18 -50 -43 -50h-176c-25 0 -47 22 -47 50v288
c0 28 22 50 47 50zM321 1282v-188h86v188h-86zM397 776v100h144c11 0 21 -4 28 -12l76 -72c11 -10 14 -22 14 -36c0 -16 -7 -32 -18 -40l-32 -34l36 -38c11 -10 14 -24 14 -38c0 -12 -5 -26 -14 -34l-68 -76c-9 -10 -24 -14 -33 -14h-147v100h10v194h-10zM497 582h29l22 24
l-25 28h-26v-52zM497 776v-42h26l21 20l-21 22h-26z" />
    <glyph glyph-name="uniFFFD" unicode="&#xfffd;" vert-adv-y="0" 
d="M432 736c9 0 18 10 18 20v70l28 32h128l31 -32v-20l-159 -162c-11 -10 -14 -24 -14 -36v-92c0 -10 9 -20 18 -20h54c9 0 18 10 18 20v70l158 164c7 8 15 20 15 36v60c0 12 -4 24 -13 34l-56 62c-9 10 -21 14 -32 14h-166c-7 0 -19 0 -30 -12l-58 -62
c-7 -8 -12 -20 -12 -34v-92c0 -10 9 -20 18 -20h54zM478 416c-9 0 -18 -10 -18 -20v-60c0 -10 9 -20 18 -20h62c9 0 18 10 18 20v60c0 10 -9 20 -18 20h-62zM113 688l385 428c11 12 24 18 38 18s27 -6 38 -18l385 -428c11 -12 16 -28 16 -42s-5 -30 -16 -42l-385 -428
c-11 -12 -24 -18 -38 -18s-27 6 -38 18l-385 428c-11 12 -16 28 -16 42s5 30 16 42z" />
    <glyph glyph-name="uniFFFE" vert-adv-y="0" 
 />
    <glyph glyph-name="uni2B60" unicode="&#x2b60;" vert-adv-y="0" 
d="M288 1502h108v-728h-108v728zM396 122h-108v388c0 20 10 38 21 48l288 250v296h-82l136 360l137 -360h-83v-326c0 -14 -7 -36 -21 -48l-288 -250v-358z" />
    <glyph glyph-name="uni2B61" unicode="&#x2b61;" vert-adv-y="0" 
d="M494 646h108l166 -304v304h110v-608h-110l-166 304v-304h-108v608zM220 1382h110v-488h222v-120h-332v608z" />
    <glyph glyph-name="uni2B62" unicode="&#x2b62;" vert-adv-y="0" 
d="M421 1116h313v-90h-313v-436h101v184h162v86h-162v80h212v-236c-5 -6 -14 -10 -25 -14s-18 -6 -25 -6h-83v-94c0 -24 -6 -46 -22 -64s-35 -26 -57 -26h-101c-22 0 -42 8 -58 26s-25 40 -25 64v436c0 24 9 46 25 64s36 26 58 26z" />
    <glyph glyph-name="uni2B63" unicode="&#x2b63;" vert-adv-y="0" 
d="M338 1116h313c22 0 42 -8 58 -26s25 -40 25 -64v-86c0 -24 -9 -44 -25 -62s-36 -26 -58 -26h-47v-262c0 -24 -9 -46 -25 -64s-35 -26 -57 -26h-101c-22 0 -42 8 -58 26s-25 40 -25 64v114v236h83v-350h101v350h129v86h-313v90z" />
    <glyph glyph-name="uni2B64" unicode="&#x2b64;" vert-adv-y="0" 
d="M536 1186c93 0 127 -74 140 -160c2 -12 4 -20 4 -28v-132h108v-138c0 -29 -13 -81 -20 -108c-29 -108 -104 -192 -232 -192c-161 0 -230 126 -252 278c-1 4 -1 8 -1 11c0 7 1 14 1 19v130h108v132c0 3 -1 8 -1 15c0 21 8 37 12 53c20 65 55 120 133 120zM536 1106
c-41 0 -51 -26 -63 -58c-4 -10 -5 -26 -5 -50s-4 -42 -4 -58v-74h144v132c0 22 -5 40 -9 50s-4 22 -9 32c-10 18 -29 26 -54 26zM590 686c0 46 -14 100 -54 100s-54 -54 -54 -100c0 -39 7 -64 25 -84c9 -10 18 -16 29 -16c23 0 44 30 49 52c4 14 5 30 5 48z" />
    <glyph glyph-name="uni2B80" unicode="&#x2b80;" vert-adv-y="0" 
d="M68 1600l855 -1002l-846 -998h-28v2000h19z" />
    <glyph glyph-name="uni2B81" unicode="&#x2b81;" vert-adv-y="0" 
d="M60 1578c7 8 15 14 29 14c11 0 22 -4 29 -16l741 -944c7 -8 11 -18 11 -34s-4 -26 -11 -34l-741 -946c-7 -12 -18 -14 -29 -14c-14 0 -22 4 -29 12c-7 12 -14 24 -14 36c0 16 4 26 11 34l714 912l-714 912c-7 8 -11 22 -11 38c0 12 7 18 14 30z" />
    <glyph glyph-name="uni2B82" unicode="&#x2b82;" vert-adv-y="0" 
d="M1012 1600h19v-2000h-28l-846 998z" />
    <glyph glyph-name="uni2B83" unicode="&#x2b83;" vert-adv-y="0" 
d="M1004 1578c7 -8 14 -18 14 -30c0 -16 -4 -30 -11 -38l-714 -912l714 -912c7 -8 11 -18 11 -34s-7 -24 -14 -36c-7 -8 -17 -12 -31 -12c-11 0 -18 2 -25 14l-743 946c-7 8 -11 18 -11 34s4 22 11 34l743 944c7 12 14 16 25 16c14 0 24 -6 31 -14z" />
    <glyph glyph-name="uni21E0" unicode="&#x21e0;" vert-adv-y="0" 
d="M472 952v-244h38v-122h-38v-244l-325 304zM562 708h112v-122h-112v122zM948 708h73v-122h-73v122zM757 708h111v-122h-111v122z" />
    <glyph glyph-name="uni21E1" unicode="&#x21e1;" vert-adv-y="0" 
d="M212 770l276 362l274 -362h-220v-42h-110v42h-220zM432 670h110v-124h-110v124zM432 242h110v-82h-110v82zM432 454h110v-124h-110v124z" />
    <glyph glyph-name="uni21E2" unicode="&#x21e2;" vert-adv-y="0" 
d="M598 952l325 -306l-325 -304v244h-38v122h38v244zM508 708v-122h-112v122h112zM122 708v-122h-73v122h73zM313 708v-122h-111v122h111z" />
    <glyph glyph-name="uni21E3" unicode="&#x21e3;" vert-adv-y="0" 
d="M762 522l-276 -362l-274 362h220v42h110v-42h220zM542 622h-110v124h110v-124zM542 1050h-110v82h110v-82zM542 838h-110v124h110v-124z" />
    <glyph glyph-name="uni25B4" unicode="&#x25b4;" vert-adv-y="0" 
d="M262 604l282 473l266 -473h-548z" />
    <glyph glyph-name="uni25BE" unicode="&#x25be;" vert-adv-y="0" 
d="M544 655l-282 473h548z" />
    <glyph glyph-name="SF110000" unicode="&#x2502;" vert-adv-y="0" 
d="M604 1600v-2000h-110v2000h110z" />
    <glyph glyph-name="SF100000" unicode="&#x2500;" vert-adv-y="0" 
d="M1026 710v-122h-972v122h972z" />
    <glyph glyph-name="SF050000" unicode="&#x253c;" vert-adv-y="0" 
d="M493 1600h110v-890h423v-122h-423v-988h-110v988h-439v122h439v890z" />
    <glyph glyph-name="uniE0B0" unicode="&#xe0b0;" vert-adv-y="0" 
d="M63 1592l824 -994l-824 -994h-16v1988h16z" />
    <glyph glyph-name="uniE0B1" unicode="&#xe0b1;" vert-adv-y="0" 
d="M60 1578c7 8 15 14 29 14c11 0 22 -4 29 -16l741 -944c7 -8 11 -18 11 -34s-4 -26 -11 -34l-741 -946c-7 -12 -18 -14 -29 -14c-14 0 -22 4 -29 12c-7 12 -14 24 -14 36c0 16 4 26 11 34l714 912l-714 912c-7 8 -11 22 -11 38c0 12 7 18 14 30z" />
    <glyph glyph-name="uniE0A2" unicode="&#xe0a2;" vert-adv-y="0" 
d="M536 1376c131 0 198 -111 211 -240c2 -18 5 -30 5 -42v-198h162v-208c0 -44 -19 -122 -29 -162c-20 -66 -65 -149 -108 -194c-56 -54 -138 -94 -241 -94c-127 0 -205 51 -265 124c-20 24 -37 48 -48 74c-19 49 -42 98 -51 156c-7 24 -7 46 -9 64s-5 32 -5 44v196h162v198
c0 6 5 20 5 42c0 20 6 40 11 58c13 43 38 92 63 124c25 35 80 58 137 58zM536 1256c-36 0 -63 -11 -76 -42c-17 -43 -27 -53 -27 -120c0 -36 -5 -64 -5 -88v-110h216v198c0 32 -7 60 -14 74c-12 52 -36 88 -94 88zM536 776c-36 0 -66 -43 -72 -78c-7 -22 -9 -46 -9 -72
c0 -56 10 -99 38 -126c14 -16 27 -24 43 -24c33 0 67 43 72 78c7 20 9 44 9 72c0 53 -10 101 -38 128c-14 16 -27 22 -43 22z" />
    <glyph glyph-name="uniE0A0" unicode="&#xe0a0;" vert-adv-y="0" 
d="M288 1502h108v-728h-108v728zM396 122h-108v388c0 20 10 38 21 48l288 250v296h-82l136 360l137 -360h-83v-326c0 -14 -7 -36 -21 -48l-288 -250v-358z" />
    <glyph glyph-name="uniE0A1" unicode="&#xe0a1;" vert-adv-y="0" 
d="M494 646h108l166 -304v304h110v-608h-110l-166 304v-304h-108v608zM220 1382h110v-488h222v-120h-332v608z" />
    <glyph glyph-name="block" unicode="&#x2588;" vert-adv-y="0" 
d="M54 1600h972v-2000h-972v2000z" />
    <glyph glyph-name="NameMe.702" vert-adv-y="0" 
d="M271 1336v-1100h530v1100h-530zM162 1458h748v-1342h-748v1342z" />
    <glyph glyph-name="uniFF21" unicode="&#xff21;" vert-adv-y="0" 
d="M268 488v-390h-106v676c0 18 11 34 16 40l318 362c11 14 25 18 36 18c18 0 33 -8 42 -18l322 -364c13 -14 14 -32 14 -42v-672h-108v390h-534zM270 600h532v146l-268 300l-264 -298v-148z" />
    <glyph glyph-name="SF080000" unicode="&#x251c;" vert-adv-y="0" 
d="M518 1600h109v-890h423v-122h-423v-988h-109v2000z" />
    <glyph glyph-name="SF090000" unicode="&#x2524;" vert-adv-y="0" 
d="M470 1600h110v-2000h-110v988h-440v122h440v890z" />
    <glyph glyph-name="SF010000" unicode="&#x250c;" vert-adv-y="0" 
d="M518 -398v1108h532v-122h-421v-986h-111z" />
    <glyph glyph-name="SF030000" unicode="&#x2510;" vert-adv-y="0" 
d="M581 -398h-111v986h-439v122h550v-1108z" />
    <glyph glyph-name="SF020000" unicode="&#x2514;" vert-adv-y="0" 
d="M518 1600h111v-890h421v-122h-532v1012z" />
    <glyph glyph-name="SF040000" unicode="&#x2518;" vert-adv-y="0" 
d="M581 1600v-1012h-550v122h439v890h111z" />
    <glyph glyph-name="uni21E7" unicode="&#x21e7;" vert-adv-y="0" 
d="M366 -22v652h-280l446 644l444 -644h-277v-652h-333zM474 98h117v652h168l-227 328l-227 -328h169v-652z" />
    <glyph glyph-name="uni21E9" unicode="&#x21e9;" vert-adv-y="0" 
d="M370 1316h335v-652h277l-446 -644l-446 644h280v652zM478 1196v-652h-169l227 -328l227 328h-166v652h-119z" />
    <glyph glyph-name="arrowleft" unicode="&#x2190;" vert-adv-y="0" 
d="M472 952v-244h549v-122h-549v-244l-325 304z" />
    <glyph glyph-name="arrowright" unicode="&#x2192;" vert-adv-y="0" 
d="M611 952l325 -306l-325 -304v244h-549v122h549v244z" />
    <glyph glyph-name="filledbox" unicode="&#x25a0;" vert-adv-y="0" 
d="M187 1012h698v-776h-698v776z" />
    <glyph glyph-name="lfblock" unicode="&#x258c;" vert-adv-y="0" 
d="M29 1600h486v-2000h-486v2000z" />
    <glyph glyph-name="rtblock" unicode="&#x2590;" vert-adv-y="0" 
d="M567 1600h486v-2000h-486v2000z" />
    <glyph glyph-name="upblock" unicode="&#x2580;" vert-adv-y="0" 
d="M54 1600h972v-1000h-972v1000z" />
    <glyph glyph-name="dnblock" unicode="&#x2584;" vert-adv-y="0" 
d="M54 600h972v-1000h-972v1000z" />
    <glyph glyph-name="NameMe.721" vert-adv-y="0" 
d="M121 810h274v312l580 -496l-580 -494v308h-274v370zM229 690v-130h274v-186l295 252l-295 252v-188h-274z" />
    <glyph glyph-name="uni21E8" unicode="&#x21e8;" vert-adv-y="0" 
d="M121 810h274v312l580 -496l-580 -494v308h-274v370zM229 690v-130h274v-186l295 252l-295 252v-188h-274z" />
    <glyph glyph-name="NameMe.1114234" vert-adv-y="0" 
d="M865 444h-274v-312l-580 496l580 494v-308h274v-370zM757 564v130h-274v186l-295 -252l295 -252v188h274z" />
    <glyph glyph-name="uni21E6" unicode="&#x21e6;" vert-adv-y="0" 
d="M865 444h-274v-312l-580 496l580 494v-308h274v-370zM757 564v130h-274v186l-295 -252l295 -252v188h274z" />
    <glyph glyph-name="Hcircumflex" unicode="&#x124;" vert-adv-y="0" 
d="M293 1250l-38 42l247 274c3.48535 3.86719 7.12988 7.66406 11.5059 10.4854c4.375 2.82227 9.35938 4.6543 14.4941 5.51465c9.29395 1.55664 18.9072 0.474609 28 -2c4.26758 -1.16113 8.43848 -2.78223 12.1689 -5.1582
c3.73047 -2.37695 6.87012 -5.55664 9.83105 -8.8418l247 -274l-38 -42l-39 -42l-208 231l-208 -231zM162 1194h106v-482h536v482h106v-1094h-106v500h-536v-500h-106v1094z" />
    <glyph glyph-name="hcircumflex" unicode="&#x125;" vert-adv-y="0" 
d="M150 96v1236h101.241l221.759 246c3.48535 3.86719 7.12988 7.66406 11.5059 10.4854c4.375 2.82227 9.35938 4.6543 14.4941 5.51465c9.29395 1.55664 18.9072 0.474609 28 -2c4.26758 -1.16113 8.43848 -2.78223 12.1689 -5.1582
c3.73047 -2.37695 6.87012 -5.55664 9.83105 -8.8418l247 -274l-38 -42l-39 -42l-208 231l-208 -231l-39 42l-6 6.63158v-472.632l130 144c11 10 24 10 38 10h214c14 0 27 -6 38 -16l113 -120c11 -12 17 -26 17 -44v-674h-108v648l-82 88h-170l-190 -202v-534h-108z" />
    <glyph glyph-name="Hbar" unicode="&#x126;" vert-adv-y="0" 
d="M150 1194h110v-254h551v254h108v-254h43v-118h-43v-724h-108v488h-551v-488h-110v724h-46v118h46v254zM811 822h-551v-114h551v114z" />
    <glyph glyph-name="hbar" unicode="&#x127;" vert-adv-y="0" 
d="M138 1076h-43v118h43v138h108v-138h250v-118h-250v-280l130 144c11 10 24 10 38 10h218c14 0 26 -6 37 -16l114 -120c11 -12 16 -26 16 -44v-674h-108v648l-81 88h-175l-189 -202v-534h-108v980z" />
    <glyph glyph-name="Itilde" unicode="&#x128;" vert-adv-y="0" 
d="M218 1412l-38 42l108 120c3.50293 3.89258 7.41211 7.47559 12 10c4.45215 2.4502 9.19922 4.33203 14 6c1.92676 0.669922 3.88965 1.25293 5.90137 1.5957c2.01074 0.342773 4.05859 0.404297 6.09863 0.404297h118c4.74414 0 9.55469 -0.344727 14 -2
c4.61914 -1.71973 8.80762 -4.40723 13 -7c2.02441 -1.25195 4.0332 -2.53809 5.89258 -4.02344c1.85938 -1.48633 3.5166 -3.20703 5.10742 -4.97656l196 -218h73l86 96l39 -42l38 -42l-103 -114c-3.01562 -3.33691 -6.2793 -6.47266 -10 -9
c-4.32812 -2.94043 -9.03711 -5.3418 -14 -7c-4.49512 -1.50098 -9.26074 -2 -14 -2h-117c-4.41016 0 -8.83008 0.56543 -13 2c-4.51953 1.55469 -8.86816 3.59766 -13 6c-4.52441 2.62988 -8.49121 6.11719 -12 10l-197 218h-72l-92 -102zM376 1194h320v-120h-106v-856h106
v-122h-320v122h106v856h-106v120z" />
    <glyph glyph-name="itilde" unicode="&#x129;" vert-adv-y="0" 
d="M218 1242l-38 42l108 120c3.50293 3.89258 7.41211 7.47559 12 10c4.45215 2.4502 9.19922 4.33203 14 6c1.92676 0.669922 3.88965 1.25293 5.90137 1.5957c2.01074 0.342773 4.05859 0.404297 6.09863 0.404297h118c4.74414 0 9.55469 -0.344727 14 -2
c4.61914 -1.71973 8.80762 -4.40723 13 -7c2.02441 -1.25195 4.0332 -2.53809 5.89258 -4.02344c1.85938 -1.48633 3.5166 -3.20703 5.10742 -4.97656l196 -218h73l86 96l39 -42l38 -42l-103 -114c-3.01562 -3.33691 -6.2793 -6.47266 -10 -9
c-4.32812 -2.94043 -9.03711 -5.3418 -14 -7c-4.49512 -1.50098 -9.26074 -2 -14 -2h-117c-4.41016 0 -8.83008 0.56543 -13 2c-4.51953 1.55469 -8.86816 3.59766 -13 6c-4.52441 2.62988 -8.49121 6.11719 -12 10l-197 218h-72l-92 -102zM480 952h110v-854h-110v854z" />
    <glyph glyph-name="imacron" unicode="&#x12b;" vert-adv-y="0" 
d="M241 1318h588v-122h-588v122zM480 952h110v-854h-110v854z" />
    <glyph glyph-name="ibreve" unicode="&#x12d;" vert-adv-y="0" 
d="M256 1314l108 4c1.01953 -15.4961 3.31641 -30.9141 7 -46c3.70996 -15.1953 8.87695 -30.0742 16 -44c6.67383 -13.0479 15.0645 -25.2275 25 -36c10.1689 -11.0254 21.9844 -20.5449 35 -28c12.2246 -7.00195 25.4238 -12.2373 39 -16
c13.0293 -3.61133 26.4805 -5.85352 40 -6c13.8662 -0.149414 27.7354 1.95898 41 6c13.4561 4.09961 26.3096 10.1768 38 18c11.8076 7.90137 22.4189 17.5088 32 28c10.0068 10.957 18.9482 22.9434 26 36c7.44043 13.7773 12.6455 28.7061 16 44
c3.16797 14.4424 4.79199 29.2158 5 44h108c0.046875 -2.02832 0.0693359 -4.05566 0.0693359 -6.08398c0 -23.5625 -3.12695 -47.1123 -9.06934 -69.916c-6.31836 -24.2471 -15.6436 -47.665 -27 -70c-11.2578 -22.1426 -24.6494 -43.2988 -41 -62
c-15.6191 -17.8643 -33.9385 -33.3271 -54 -46c-20.2305 -12.7803 -42.165 -22.8457 -65 -30c-21.7109 -6.80176 -44.2715 -10.9824 -67 -12c-3.45117 -0.154297 -6.90625 -0.232422 -10.3613 -0.232422c-20.1426 0 -40.291 2.65039 -59.6387 8.23242
c-23.0039 6.63672 -44.7393 17.2432 -65 30c-20.7119 13.041 -40.0615 28.332 -57 46c-17.085 17.8213 -31.5273 38.1396 -43 60c-11.9395 22.75 -20.7744 47.0732 -27 72c-6.21289 24.876 -9.85547 50.3857 -11 76zM480 952h110v-854h-110v854z" />
    <glyph glyph-name="iogonek" unicode="&#x12f;" vert-adv-y="0" 
d="M468 -240c-2 2 -6 10 -6 18v132h103v-100l39 -46h40v-116h-63c-18 0 -25 6 -36 18l-69 82zM480 1318h110v-122h-110v122zM480 952h110v-854h-110v854z" />
    <glyph glyph-name="dotlessi" unicode="&#x131;" vert-adv-y="0" 
d="M480 952h110v-854h-110v854z" />
    <glyph glyph-name="Idotaccent" unicode="&#x130;" vert-adv-y="0" 
d="M370 1194h330v-120h-110v-856h110v-122h-330v122h110v856h-110v120zM480 1440h110v-122h-110v122z" />
    <glyph glyph-name="Imacron" unicode="&#x12a;" vert-adv-y="0" 
d="M241 1440h588v-122h-588v122zM376 1194h320v-120h-106v-856h106v-122h-320v122h106v856h-106v120z" />
    <glyph glyph-name="Ibreve" unicode="&#x12c;" vert-adv-y="0" 
d="M256 1534l108 4c1.01953 -15.4961 3.31641 -30.9141 7 -46c3.70996 -15.1953 8.87695 -30.0742 16 -44c6.67383 -13.0479 15.0645 -25.2275 25 -36c10.1689 -11.0254 21.9844 -20.5449 35 -28c12.2246 -7.00195 25.4238 -12.2373 39 -16
c13.0293 -3.61133 26.4805 -5.85352 40 -6c13.8662 -0.149414 27.7354 1.95898 41 6c13.4561 4.09961 26.3096 10.1768 38 18c11.8076 7.90137 22.4189 17.5088 32 28c10.0068 10.957 18.9482 22.9434 26 36c7.44043 13.7773 12.6455 28.7061 16 44
c3.16797 14.4424 4.79199 29.2158 5 44h108c0.046875 -2.02832 0.0693359 -4.05566 0.0693359 -6.08398c0 -23.5625 -3.12695 -47.1123 -9.06934 -69.916c-6.31836 -24.2471 -15.6436 -47.665 -27 -70c-11.2578 -22.1426 -24.6494 -43.2988 -41 -62
c-15.6191 -17.8643 -33.9385 -33.3271 -54 -46c-20.2305 -12.7803 -42.165 -22.8457 -65 -30c-21.7109 -6.80176 -44.2715 -10.9824 -67 -12c-3.45117 -0.154297 -6.90625 -0.232422 -10.3613 -0.232422c-20.1426 0 -40.291 2.65039 -59.6387 8.23242
c-23.0039 6.63672 -44.7393 17.2432 -65 30c-20.7119 13.041 -40.0615 28.332 -57 46c-17.085 17.8213 -31.5273 38.1396 -43 60c-11.9395 22.75 -20.7744 47.0732 -27 72c-6.21289 24.876 -9.85547 50.3857 -11 76zM376 1194h320v-120h-106v-856h106v-122h-320v122h106v856
h-106v120z" />
    <glyph glyph-name="Iogonek" unicode="&#x12e;" vert-adv-y="0" 
d="M523 -240c-2 2 -6 10 -6 18v132h103v-100l39 -46h40v-116h-63c-18 0 -25 6 -36 18l-69 82zM376 1194h320v-120h-106v-856h106v-122h-320v122h106v856h-106v120z" />
    <glyph glyph-name="ogonek" unicode="&#x2db;" vert-adv-y="0" 
d="M248 12c-2 2 -6 10 -6 18v132h103v-100l39 -46h40v-116h-63c-18 0 -25 6 -36 18l-69 82z" />
    <glyph glyph-name="breve" unicode="&#x2d8;" vert-adv-y="0" 
d="M256 1314l108 4c1.01949 -15.4957 3.31637 -30.9141 7 -46c3.71036 -15.1954 8.87714 -30.0741 16 -44c6.67351 -13.0474 15.0642 -25.2273 25 -36c10.1694 -11.0259 21.9843 -20.545 35 -28c12.2245 -7.00182 25.424 -12.2374 39 -16
c13.0293 -3.61106 26.4804 -5.85394 40 -6c13.8661 -0.149798 27.7351 1.95854 41 6c13.456 4.0997 26.3094 10.1768 38 18c11.8078 7.90157 22.4187 17.5092 32 28c10.0073 10.9572 18.9483 22.9432 26 36c7.44067 13.777 12.6452 28.7057 16 44
c3.16793 14.4425 4.79189 29.2156 5 44h108c0.0465387 -2.02784 0.0697086 -4.05606 0.0697086 -6.08419c0 -23.5622 -3.12725 -47.1124 -9.06971 -69.9158c-6.3186 -24.2468 -15.6438 -47.6647 -27 -70c-11.2583 -22.1428 -24.6497 -43.2993 -41 -62
c-15.6187 -17.864 -33.9388 -33.3267 -54 -46c-20.2309 -12.7806 -42.1647 -22.8457 -65 -30c-21.7111 -6.80206 -44.2711 -10.982 -67 -12c-3.45083 -0.154565 -6.90594 -0.232558 -10.3612 -0.232558c-20.1424 0 -40.2914 2.65037 -59.6388 8.23256
c-23.0036 6.63713 -44.7396 17.2432 -65 30c-20.7119 13.0411 -40.0618 28.3322 -57 46c-17.0852 17.8212 -31.527 38.1398 -43 60c-11.9399 22.7498 -20.7742 47.073 -27 72c-6.21293 24.8757 -9.85517 50.3858 -11 76z" />
    <glyph glyph-name="Jcircumflex" unicode="&#x134;" vert-adv-y="0" 
d="M190 1268l-38 42l247 274c3.48535 3.86719 7.12988 7.66406 11.5059 10.4854c4.375 2.82227 9.35938 4.6543 14.4941 5.51465c9.29395 1.55664 18.9072 0.474609 28 -2c4.26758 -1.16113 8.43848 -2.78223 12.1689 -5.1582
c3.73047 -2.37695 6.87012 -5.55664 9.83105 -8.8418l247 -274l-38 -42l-39 -42l-208 231l-208 -231zM156 464h106v-162l79 -82h167l76 86v768h-108v120h322v-120h-108v-792c0 -8 -1 -28 -14 -42l-106 -122c-7 -8 -22 -18 -40 -18h-212c-7 0 -25 2 -38 16l-108 116
c-5 6 -16 22 -16 42v190z" />
    <glyph glyph-name="jcircumflex" unicode="&#x135;" vert-adv-y="0" 
d="M810 34c0 -16 -7 -30 -18 -42l-108 -122c-11 -12 -22 -16 -38 -16h-223c-14 0 -26 6 -37 18l-110 122l77 84l94 -106h178l75 86v894h110v-918zM291 1084l-38 42l247 274c3.48535 3.86719 7.12988 7.66406 11.5059 10.4854c4.375 2.82227 9.35938 4.6543 14.4941 5.51465
c9.29395 1.55664 18.9072 0.474609 28 -2c4.26758 -1.16113 8.43848 -2.78223 12.1689 -5.1582c3.73047 -2.37695 6.87012 -5.55664 9.83105 -8.8418l247 -274l-38 -42l-39 -42l-208 231l-208 -231z" />
    <glyph glyph-name="IJ" unicode="&#x132;" vert-adv-y="0" 
d="M410 464h104v-162l80 -82h82l76 86v768h-63v120h227v-120h-56v-792c0 -8 -1 -28 -14 -42l-106 -122c-7 -8 -22 -22 -40 -22h-128c-7 0 -25 6 -38 20l-108 116c-5 6 -16 22 -16 42v190zM158 1194h252v-120h-72v-856h72v-122h-252v122h70v856h-70v120z" />
    <glyph glyph-name="ij" unicode="&#x133;" vert-adv-y="0" 
d="M813 34c0 -16 -8 -30 -19 -42l-108 -122c-11 -12 -21 -16 -37 -16h-223c-14 0 -27 6 -38 18l-108 122l75 84l94 -106h178l76 86v894h110v-918zM703 1318h111v-122h-111v122zM480 1318h110v-122h-110v122zM480 952h110v-854h-110v854z" />
    <glyph glyph-name="ellipsis" unicode="&#x2026;" vert-adv-y="0" 
d="M361 342h128v-244h-128v244zM96 342h128v-244h-128v244zM624 342h128v-244h-128v244z" />
    <glyph glyph-name="uni27F3" unicode="&#x27f3;" vert-adv-y="0" 
d="M847 948v240c0 32 25 60 54 60s54 -28 54 -60v-424c0 -32 -25 -60 -54 -60h-378c-29 0 -54 28 -54 60s25 60 54 60h187h20h58c-43 110 -141 186 -254 186c-153 0 -277 -136 -277 -306s124 -310 277 -310c117 0 217 82 257 196h114c-45 -182 -193 -316 -371 -316
c-212 0 -385 194 -385 430s173 426 385 426c130 0 243 -72 313 -182z" />
    <glyph glyph-name="etilde" unicode="&#x1ebd;" vert-adv-y="0" 
d="M257 462v-158l77 -90h474v-112h-496c-16 0 -31 10 -36 16l-111 120c-13 14 -15 32 -15 42v484c0 20 13 34 18 40l110 126c13 14 31 22 40 22h326c18 0 33 -16 38 -22l106 -124c13 -14 16 -30 16 -40v-304h-547zM258 586h442v156l-78 88h-284l-80 -90v-154zM218 1136
l-38 42l108 120c3.50293 3.89258 7.41211 7.47559 12 10c4.45215 2.4502 9.19922 4.33203 14 6c1.92676 0.669922 3.88965 1.25293 5.90137 1.5957c2.01074 0.342773 4.05859 0.404297 6.09863 0.404297h118c4.74414 0 9.55469 -0.344727 14 -2
c4.61914 -1.71973 8.80762 -4.40723 13 -7c2.02441 -1.25195 4.0332 -2.53809 5.89258 -4.02344c1.85938 -1.48633 3.5166 -3.20703 5.10742 -4.97656l196 -218h73l86 96l39 -42l38 -42l-103 -114c-3.01562 -3.33691 -6.2793 -6.47266 -10 -9
c-4.32812 -2.94043 -9.03711 -5.3418 -14 -7c-4.49512 -1.50098 -9.26074 -2 -14 -2h-117c-4.41016 0 -8.83008 0.56543 -13 2c-4.51953 1.55469 -8.86816 3.59766 -13 6c-4.52441 2.62988 -8.49121 6.11719 -12 10l-197 218h-72l-92 -102z" />
    <glyph glyph-name="utilde" unicode="&#x169;" vert-adv-y="0" 
d="M725 168l-43 -48c-5 -6 -20 -18 -38 -18h-327c-9 0 -23 2 -36 16l-107 116c-5 6 -16 22 -16 42v676h106v-652l74 -82h285l75 88v646h108v-670c0 -6 -3 -14 -7 -24l33 -40h88v-116h-110c-18 0 -33 8 -38 16zM218 1136l-38 42l108 120
c3.50293 3.89258 7.41211 7.47559 12 10c4.45215 2.4502 9.19922 4.33203 14 6c1.92676 0.669922 3.88965 1.25293 5.90137 1.5957c2.01074 0.342773 4.05859 0.404297 6.09863 0.404297h118c4.74414 0 9.55469 -0.344727 14 -2c4.61914 -1.71973 8.80762 -4.40723 13 -7
c2.02441 -1.25195 4.0332 -2.53809 5.89258 -4.02344c1.85938 -1.48633 3.5166 -3.20703 5.10742 -4.97656l196 -218h73l86 96l39 -42l38 -42l-103 -114c-3.01562 -3.33691 -6.2793 -6.47266 -10 -9c-4.32812 -2.94043 -9.03711 -5.3418 -14 -7
c-4.49512 -1.50098 -9.26074 -2 -14 -2h-117c-4.41016 0 -8.83008 0.56543 -13 2c-4.51953 1.55469 -8.86816 3.59766 -13 6c-4.52441 2.62988 -8.49121 6.11719 -12 10l-197 218h-72l-92 -102z" />
    <glyph glyph-name="Etilde" unicode="&#x1ebc;" vert-adv-y="0" 
d="M151 940h768v-122h-658v-208h439v-122h-439v-270h658v-120h-768v842zM218 1136l-38 42l108 120c3.50293 3.89258 7.41211 7.47559 12 10c4.45215 2.4502 9.19922 4.33203 14 6c1.92676 0.669922 3.88965 1.25293 5.90137 1.5957
c2.01074 0.342773 4.05859 0.404297 6.09863 0.404297h118c4.74414 0 9.55469 -0.344727 14 -2c4.61914 -1.71973 8.80762 -4.40723 13 -7c2.02441 -1.25195 4.0332 -2.53809 5.89258 -4.02344c1.85938 -1.48633 3.5166 -3.20703 5.10742 -4.97656l196 -218h73l86 96l39 -42
l38 -42l-103 -114c-3.01562 -3.33691 -6.2793 -6.47266 -10 -9c-4.32812 -2.94043 -9.03711 -5.3418 -14 -7c-4.49512 -1.50098 -9.26074 -2 -14 -2h-117c-4.41016 0 -8.83008 0.56543 -13 2c-4.51953 1.55469 -8.86816 3.59766 -13 6
c-4.52441 2.62988 -8.49121 6.11719 -12 10l-197 218h-72l-92 -102z" />
    <glyph glyph-name="Utilde" unicode="&#x168;" vert-adv-y="0" 
d="M154 940h107v-636l75 -84h400l74 86v634h108v-658c0 -8 -2 -26 -15 -40l-104 -122c-7 -8 -22 -20 -40 -20h-446c-9 0 -25 4 -38 18l-106 118c-5 6 -15 22 -15 42v662zM218 1136l-38 42l108 120c3.50293 3.89258 7.41211 7.47559 12 10
c4.45215 2.4502 9.19922 4.33203 14 6c1.92676 0.669922 3.88965 1.25293 5.90137 1.5957c2.01074 0.342773 4.05859 0.404297 6.09863 0.404297h118c4.74414 0 9.55469 -0.344727 14 -2c4.61914 -1.71973 8.80762 -4.40723 13 -7
c2.02441 -1.25195 4.0332 -2.53809 5.89258 -4.02344c1.85938 -1.48633 3.5166 -3.20703 5.10742 -4.97656l196 -218h73l86 96l39 -42l38 -42l-103 -114c-3.01562 -3.33691 -6.2793 -6.47266 -10 -9c-4.32812 -2.94043 -9.03711 -5.3418 -14 -7
c-4.49512 -1.50098 -9.26074 -2 -14 -2h-117c-4.41016 0 -8.83008 0.56543 -13 2c-4.51953 1.55469 -8.86816 3.59766 -13 6c-4.52441 2.62988 -8.49121 6.11719 -12 10l-197 218h-72l-92 -102z" />
    <glyph glyph-name="macute" unicode="&#x1e3f;" vert-adv-y="0" 
d="M592 746v-648h-110v648l-74 84h-64l-80 -86v-646h-108v852h110v-34l16 18c11 12 24 18 38 18h112c16 0 28 -6 39 -18l65 -78l68 76c11 12 24 18 38 18h116c14 0 26 -6 37 -18l107 -118c11 -12 16 -26 16 -42v-674h-108v650l-74 82h-70zM392 972c-11 12 -16 28 -16 42
c0 18 7 34 16 44l216 242c11 12 25 18 38 18c16 0 31 -8 40 -18s16 -26 16 -44c0 -14 -5 -30 -16 -42l-216 -242c-9 -10 -24 -18 -40 -18c-13 0 -27 6 -38 18z" />
    <glyph glyph-name="NameMe.755" vert-adv-y="0" 
d="M151 940h768v-122h-658v-208h439v-122h-439v-270h658v-120h-768v842z" />
    <glyph glyph-name="NameMe.756" vert-adv-y="0" 
d="M154 940h107v-636l75 -84h400l74 86v634h108v-658c0 -8 -2 -26 -15 -40l-104 -122c-7 -8 -22 -20 -40 -20h-446c-9 0 -25 4 -38 18l-106 118c-5 6 -15 22 -15 42v662z" />
    <glyph glyph-name="gacute" unicode="&#x1f5;" vert-adv-y="0" 
d="M753 374l-125 -138c-7 -10 -23 -18 -37 -18h-171c-13 0 -27 6 -38 18l-212 236c-9 8 -17 26 -17 42v134c0 14 6 30 17 42l217 244c7 10 24 16 38 16h272c13 0 27 -4 38 -16l109 -124c9 -8 17 -26 17 -42v-742c0 -14 -6 -30 -17 -42l-100 -112c-7 -10 -24 -18 -38 -18
h-290c-13 0 -27 6 -38 18l-104 116l76 84l88 -98h246l69 76v324zM753 542v202l-78 86h-228l-186 -206v-86l180 -200h128zM396 1026c-11 12 -16 28 -16 42c0 18 7 34 16 44l216 242c11 12 25 18 38 18c16 0 31 -8 40 -18s16 -26 16 -44c0 -14 -5 -30 -16 -42l-216 -242
c-9 -10 -24 -18 -40 -18c-13 0 -27 6 -38 18z" />
    <glyph glyph-name="kacute" unicode="&#x1e31;" vert-adv-y="0" 
d="M503 524l299 -342l-77 -84l-319 368h-144v-368h-112v1220h112v-732h146l324 366l76 -84zM502 972c-11 12 -16 28 -16 42c0 18 7 34 16 44l216 242c11 12 25 18 38 18c16 0 31 -8 40 -18s16 -26 16 -44c0 -14 -5 -30 -16 -42l-216 -242c-9 -10 -24 -18 -40 -18
c-13 0 -27 6 -38 18z" />
    <glyph glyph-name="lacute" unicode="&#x13a;" vert-adv-y="0" 
d="M594 246l24 -28h88v-120h-110c-14 0 -27 6 -38 18l-56 62c-11 12 -16 26 -16 42v722h108v-696zM498 1016c-11 12 -16 28 -16 42c0 18 7 34 16 44l216 242c11 12 25 18 38 18c16 0 31 -8 40 -18s16 -26 16 -44c0 -14 -5 -30 -16 -42l-216 -242c-9 -10 -24 -18 -40 -18
c-13 0 -27 6 -38 18z" />
    <glyph glyph-name="zacute" unicode="&#x17a;" vert-adv-y="0" 
d="M156 952h764l-542 -734h542v-120h-764l544 732h-544v122zM392 1016c-11 12 -16 28 -16 42c0 18 7 34 16 44l216 242c11 12 25 18 38 18c16 0 31 -8 40 -18s16 -26 16 -44c0 -14 -5 -30 -16 -42l-216 -242c-9 -10 -24 -18 -40 -18c-13 0 -27 6 -38 18z" />
    <glyph glyph-name="smalll" vert-adv-y="0" 
d="M594 246l24 -28h88v-120h-110c-14 0 -27 6 -38 18l-56 62c-11 12 -16 26 -16 42v722h108v-696z" />
    <glyph glyph-name="sacute" unicode="&#x15b;" vert-adv-y="0" 
d="M694 744l-79 88h-277l-52 -60l502 -442c13 -12 20 -26 20 -44s-6 -34 -17 -46l-113 -124c-11 -12 -24 -18 -38 -18h-324c-14 0 -27 6 -38 18l-111 120c-11 12 -17 26 -17 44v56h108v-30l80 -88h280l54 60l-500 440c-13 10 -18 26 -20 44v7c0 15 6 29 15 39l108 126
c11 12 23 18 39 18h322c14 0 27 -6 38 -18l112 -122c11 -12 16 -26 16 -42v-64h-108v38zM392 1018c-11 12 -16 28 -16 42c0 18 7 34 16 44l216 242c11 12 25 18 38 18c16 0 31 -8 40 -18s16 -26 16 -44c0 -14 -5 -30 -16 -42l-216 -242c-9 -10 -24 -18 -40 -18
c-13 0 -27 6 -38 18z" />
    <glyph glyph-name="wacute" unicode="&#x1e83;" vert-adv-y="0" 
d="M594 422l156 -178l62 64v644h108v-670c0 -18 -6 -32 -17 -44l-115 -122c-11 -10 -25 -16 -38 -16s-26 6 -37 18l-175 198l-180 -204c-11 -12 -24 -20 -38 -20s-27 8 -38 20l-109 124c-11 12 -17 26 -17 42v674h108v-650l56 -62l164 182v164h110v-164zM392 972
c-11 12 -16 28 -16 42c0 18 7 34 16 44l216 242c11 12 25 18 38 18c16 0 31 -8 40 -18s16 -26 16 -44c0 -14 -5 -30 -16 -42l-216 -242c-9 -10 -24 -18 -40 -18c-13 0 -27 6 -38 18z" />
    <glyph glyph-name="NameMe.2214" vert-adv-y="0" 
d="M347 626v-526h-107v668c0 18 -5 30 -16 44c-13 12 -23 18 -41 18h-33v122h89c31 0 108 -58 108 -122v-38l124 140c11 12 24 20 38 20h131c16 0 29 -6 38 -18l113 -122c11 -12 17 -26 17 -44v-60h-108v36l-82 86h-86zM392 972c-11 12 -16 28 -16 42c0 18 7 34 16 44
l216 242c11 12 25 18 38 18c16 0 31 -8 40 -18s16 -26 16 -44c0 -14 -5 -30 -16 -42l-216 -242c-9 -10 -24 -18 -40 -18c-13 0 -27 6 -38 18z" />
    <glyph glyph-name="uni27EB" unicode="&#x27eb;" vert-adv-y="0" 
d="M571 1122l380 -430c11 -14 15 -28 15 -42c0 -16 -6 -32 -15 -42l-380 -426l-77 84l342 384l-342 388zM240 1120l382 -430c11 -12 14 -26 14 -40c0 -18 -7 -34 -14 -44l-382 -426l-76 84l342 384l-342 388z" />
    <glyph glyph-name="uni27EA" unicode="&#x27ea;" vert-adv-y="0" 
d="M495 1122l77 -84l-344 -388l344 -384l-77 -84l-380 426c-9 10 -16 26 -16 44c0 12 5 28 16 40zM824 1120l77 -84l-343 -388l343 -384l-77 -84l-380 426c-9 10 -14 26 -14 42c0 14 3 28 14 42z" />
    <glyph glyph-name="SF060000" unicode="&#x252c;" vert-adv-y="0" 
d="M1026 710v-122h-423v-988h-110v988h-439v122h972z" />
    <glyph glyph-name="SF070000" unicode="&#x2534;" vert-adv-y="0" 
d="M54 588v122h439v890h110v-890h421v-122h-970z" />
    <glyph glyph-name="SF390000" unicode="&#x2554;" vert-adv-y="0" 
d="M1043 830v-122h-528v-1108h-110v1230h638zM1043 584v-122h-310v-862h-110v984h420z" />
    <glyph glyph-name="SF250000" unicode="&#x2557;" vert-adv-y="0" 
d="M697 830v-1230h-109v1108h-551v122h660zM480 584v-984h-110v862h-333v122h443z" />
    <glyph glyph-name="SF260000" unicode="&#x255d;" vert-adv-y="0" 
d="M697 1600v-1138h-660v122h551v1016h109zM480 1600v-892h-443v122h333v770h110z" />
    <glyph glyph-name="SF380000" unicode="&#x255a;" vert-adv-y="0" 
d="M1043 830v-122h-420v892h110v-770h310zM1043 584v-122h-638v1138h110v-1016h528z" />
    <glyph glyph-name="SF430000" unicode="&#x2550;" vert-adv-y="0" 
d="M1026 584v-122h-972v122h972zM1026 830v-120h-972v120h972z" />
    <glyph glyph-name="SF240000" unicode="&#x2551;" vert-adv-y="0" 
d="M498 1600v-2000h-110v2000h110zM716 1600v-2000h-110v2000h110z" />
    <glyph glyph-name="SF370000" unicode="&#x255f;" vert-adv-y="0" 
d="M515 1600v-2000h-110v2000h110zM1043 708v-122h-310v-986h-110v2000h110v-892h310z" />
    <glyph glyph-name="SF200000" unicode="&#x2562;" vert-adv-y="0" 
d="M480 1600v-2000h-110v986h-333v122h333v892h110zM697 1600v-2000h-109v2000h109z" />
    <glyph glyph-name="SF440000" unicode="&#x256c;" vert-adv-y="0" 
d="M497 1600v-892h-443v122h333v770h110zM1024 830v-122h-419v892h110v-770h309zM1024 584v-122h-309v-862h-110v984h419zM497 584v-984h-110v862h-333v122h443z" />
    <glyph glyph-name="SF530000" unicode="&#x256b;" vert-adv-y="0" 
d="M1024 708v-122h-309v-986h-110v986h-108v-986h-110v986h-333v122h333v892h110v-892h108v892h110v-892h309z" />
    <glyph glyph-name="SF540000" unicode="&#x256a;" vert-adv-y="0" 
d="M1024 830v-122h-421v-124h421v-122h-421v-862h-110v862h-439v122h439v124h-439v122h439v770h110v-770h421z" />
    <glyph glyph-name="SF230000" unicode="&#x2563;" vert-adv-y="0" 
d="M480 584v-984h-110v862h-333v122h443zM480 1600v-892h-443v122h333v770h110zM697 1600v-2000h-109v2000h109z" />
    <glyph glyph-name="SF420000" unicode="&#x2560;" vert-adv-y="0" 
d="M1043 584v-122h-310v-862h-110v984h420zM1043 830v-122h-420v892h110v-770h310zM515 1600v-2000h-110v2000h110z" />
    <glyph glyph-name="SF410000" unicode="&#x2566;" vert-adv-y="0" 
d="M1024 584v-122h-309v-862h-110v984h419zM497 584v-984h-110v862h-333v122h443zM1024 830v-122h-970v122h970z" />
    <glyph glyph-name="SF400000" unicode="&#x2569;" vert-adv-y="0" 
d="M497 1600v-892h-443v122h333v770h110zM1024 830v-122h-419v892h110v-770h309zM1024 584v-122h-970v122h970z" />
    <glyph glyph-name="trademark" unicode="&#x2122;" vert-adv-y="0" 
d="M546 1378h90l72 -124l75 124h90v-608h-90v436l-75 -120l-72 120v-436h-90v608zM141 1378h315v-102h-114v-506h-90v506h-111v102z" />
    <glyph glyph-name="H18533" unicode="&#x25cf;" vert-adv-y="0" 
d="M138 630c0 252 183 456 410 456s410 -204 410 -456s-183 -456 -410 -456s-410 204 -410 456z" />
    <glyph glyph-name="uni2583" unicode="&#x2583;" vert-adv-y="0" 
d="M54 350h972v-750h-972v750z" />
    <glyph glyph-name="uni2581" unicode="&#x2581;" vert-adv-y="0" 
d="M54 -150h972v-250h-972v250z" />
    <glyph glyph-name="uni2582" unicode="&#x2582;" vert-adv-y="0" 
d="M54 100h972v-500h-972v500z" />
    <glyph glyph-name="uni2585" unicode="&#x2585;" vert-adv-y="0" 
d="M54 850h972v-1250h-972v1250z" />
    <glyph glyph-name="uni2586" unicode="&#x2586;" vert-adv-y="0" 
d="M54 1100h972v-1500h-972v1500z" />
    <glyph glyph-name="uni2587" unicode="&#x2587;" vert-adv-y="0" 
d="M54 1350h972v-1750h-972v1750z" />
    <glyph glyph-name="uni2589" unicode="&#x2589;" vert-adv-y="0" 
d="M47 1600h850v-2000h-850v2000z" />
    <glyph glyph-name="uni23CE" unicode="&#x23ce;" vert-adv-y="0" 
d="M622 1150h256v-650h-418v-220l-336 368l336 368v-222h162v356zM788 1050h-76v-356h-342v82l-118 -128l118 -128v80h418v450z" />
    <glyph glyph-name="uni2318" unicode="&#x2318;" vert-adv-y="0" 
d="M314 602v226h-176c-20 0 -42 16 -42 44v248v10c5 30 33 56 60 56h218c20 0 41 -18 41 -46v-200h194v180v10c5 30 33 56 60 56h219c20 0 42 -18 42 -46v-248c0 -2 -2 -6 -2 -10c-5 -30 -31 -54 -58 -54h-160v-226h178c20 0 42 -18 42 -46v-244c0 -2 -2 -6 -2 -10
c-5 -30 -31 -54 -58 -54h-219c-20 0 -42 16 -42 44v200h-194v-180c0 -2 -2 -6 -2 -10c-5 -30 -30 -54 -57 -54h-216c-20 0 -44 16 -44 44v244v10c5 30 35 56 62 56h156zM415 828v-226h194v226h-194zM710 940h119v136h-119v-136zM710 492v-134h119v134h-119zM314 492h-115
v-134h115v134zM314 940v136h-117v-136h117z" />
    </font>
</defs>
</svg>
