<?xml version="1.0" standalone="no"?>
<!DOCTYPE svg PUBLIC "-//W3C//DTD SVG 1.1//EN" "http://www.w3.org/Graphics/SVG/1.1/DTD/svg11.dtd" >
<!--
2011-5-25: Created.
-->
<svg xmlns="http://www.w3.org/2000/svg" xmlns:xlink="http://www.w3.org/1999/xlink" version="1.1">
<metadata>
Created by FontForge 20201107 at Thu Jun 30 23:44:47 2022
 By Ricardo Bánffy
Copyright 2011-2021 The 3270font Project Authors (https://github.com/rbanffy/3270font)
</metadata>
<defs>
<font id="3270Condensed" horiz-adv-x="874" vert-adv-y="2000" >
  <font-face 
    font-family="IBM 3270 Condensed"
    font-weight="400"
    font-stretch="normal"
    units-per-em="2000"
    panose-1="2 0 5 9 0 0 0 0 0 0"
    ascent="1600"
    descent="-400"
    x-height="950"
    cap-height="1194"
    bbox="-132 -405 1564 1626"
    underline-thickness="120"
    underline-position="-200"
    unicode-range="U+000D-1FBF9"
  />
    <missing-glyph />
    <glyph glyph-name="nobreakspace" vert-adv-y="0" 
 />
    <glyph glyph-name="Euro" unicode="&#x20ac;" vert-adv-y="0" 
d="M189 646h99v122h-99v122h98l2 152l225 276h237l105 -124l-74 -88l-73 90h-149l-173 -208v-98h494l-52 -122h-442v-122h445l-57 -122h-388v-86l170 -218h147l78 96l74 -96l-103 -122h-245l-220 280v146h-99v122z" />
    <glyph glyph-name="cr" vert-adv-y="0" 
 />
    <glyph glyph-name="nl" vert-adv-y="0" 
 />
    <glyph glyph-name="eightones" vert-adv-y="0" 
d="M319 644c0 160 102 288 227 288s227 -128 227 -288c0 -158 -102 -288 -227 -288s-227 130 -227 288z" />
    <glyph glyph-name="hyphen" unicode="-" vert-adv-y="0" 
d="M295 712h482v-112h-482v112z" />
    <glyph glyph-name="greater" unicode="&#x3e;" vert-adv-y="0" 
d="M112 1100c-8 12 -14 28 -14 44s8 30 16 42s20 18 33 20c4 0 5 1 9 1c9 0 16 -3 25 -9l394 -490v-112l-392 -492c-9 -5 -18 -12 -29 -12h-3c-12 2 -21 8 -29 18c-10 10 -14 26 -16 42c0 4 -1 7 -1 11c0 12 3 22 7 33l369 456z" />
    <glyph glyph-name="less" unicode="&#x3c;" vert-adv-y="0" 
d="M769 198c8 -12 14 -28 14 -44s-8 -30 -16 -42s-20 -18 -33 -20c-4 0 -5 -1 -9 -1c-9 0 -16 3 -25 9l-394 490v112l392 492c9 5 18 12 29 12h3c12 -2 21 -8 29 -18c10 -10 14 -26 16 -42c0 -4 1 -7 1 -11c0 -12 -3 -22 -7 -33l-369 -456z" />
    <glyph glyph-name="bracketleft" unicode="[" vert-adv-y="0" 
d="M392 1318h288v-122h-194v-1098h194v-124h-288v1344z" />
    <glyph glyph-name="bracketright" unicode="]" vert-adv-y="0" 
d="M392 1318h288v-1344h-288v124h193v1098h-193v122z" />
    <glyph glyph-name="parenright" unicode=")" vert-adv-y="0" 
d="M477 354l-202 -238c-10 -10 -21 -18 -33 -18c-13 0 -24 8 -32 20c-10 12 -15 26 -15 42s5 28 15 40l188 226v440l-190 232c-10 10 -15 26 -15 42s5 28 15 38c10 12 20 18 32 18s25 -6 33 -18l203 -250c10 -12 15 -22 15 -38v-488c0 -16 -4 -36 -14 -48z" />
    <glyph glyph-name="parenleft" unicode="(" vert-adv-y="0" 
d="M416 940l202 238c10 10 21 18 33 18c13 0 24 -8 32 -20c10 -12 15 -26 15 -42s-5 -28 -15 -40l-188 -226v-440l190 -232c10 -10 15 -26 15 -42s-5 -28 -15 -38c-10 -12 -20 -18 -32 -18s-25 6 -33 18l-203 250c-10 12 -15 22 -15 38v488c0 16 4 36 14 48z" />
    <glyph glyph-name="braceright" unicode="}" vert-adv-y="0" 
d="M423 1346l16 -3l11 -7l8 -8l101 -122l9 -15l5 -15l1 -12v-344l68 -86h58v-120h-58l-68 -88v-342l-1 -13l-5 -16l-9 -15l-101 -122l-8 -7l-11 -8l-16 -3h-145v120h126l73 88v342l2 18l5 15l6 9l63 82l-63 80l-6 9l-5 15l-2 18v342l-73 88h-126v120h145z" />
    <glyph glyph-name="braceleft" unicode="{" vert-adv-y="0" 
d="M666 1346v-120h-126l-73 -88v-342c0 -20 -9 -36 -13 -42l-63 -80l63 -82c4 -6 13 -22 13 -42v-342l73 -88h126v-120h-145c-16 0 -31 12 -35 18l-101 122c-12 14 -15 34 -15 44v342l-68 88h-58v120h58l68 86v344c0 10 3 28 15 42l101 122c4 8 19 18 35 18h145z" />
    <glyph glyph-name="space" unicode=" " vert-adv-y="0" 
 />
    <glyph glyph-name="equal" unicode="=" vert-adv-y="0" 
d="M199 934h674v-112h-674v112zM199 600h674v-112h-674v112z" />
    <glyph glyph-name="afii57929" unicode="&#x2bc;" vert-adv-y="0" 
 />
    <glyph glyph-name="quotedbl" unicode="&#x22;" vert-adv-y="0" 
d="M276 1318h101v-366h-101v366zM573 1318h99v-366h-99v366z" />
    <glyph glyph-name="slash" unicode="/" vert-adv-y="0" 
d="M217 236c-6.19225 7.9339 -10.6834 17.2059 -13 27c-1.15824 4.89671 -1.73283 9.92684 -1.73283 14.958c0 5.05774 0.580674 10.1165 1.73283 15.042c2.29313 9.80304 6.79522 19.0717 13 27c13.7949 17.6268 36.1245 28.0143 58.5055 28.0143
c0.387624 0 0.775263 -0.00311581 1.16287 -0.00936378c22.7678 -0.366999 44.998 -11.2825 59.8267 -28.5631c13.6951 -15.9595 21.047 -37.0321 21.047 -58.0679c0 -1.74123 -0.0503725 -3.48221 -0.151689 -5.22001c-1.32533 -22.7322 -11.179 -44.7335 -26.6602 -61.432
c-15.4812 -16.6985 -36.4029 -28.1019 -58.6675 -32.8762c-8.38132 -1.79724 -16.9403 -2.66834 -25.5066 -2.66834c-14.1898 0 -28.4 2.3902 -41.8568 6.92052c-43.1614 14.5305 -77.2075 50.6772 -94.6543 92.7443c-10.9192 26.328 -15.7735 54.772 -15.7735 83.3351
c0 17.0753 1.73481 34.1931 4.94581 50.9269c8.58226 44.7256 27.282 87.0494 50.6191 126.157c46.6742 78.2155 110.216 144.735 171.013 212.558c59.768 68.8424 116.84 139.956 173.986 210.989c57.1469 71.0333 116.521 144.484 197.544 186.279
c32.1641 16.5912 68.1515 27.395 104.119 27.395c9.33872 0 18.6761 -0.728316 27.945 -2.27275c22.4839 -3.74641 44.2958 -12.3746 62.4893 -26.1061c18.1936 -13.7316 32.659 -32.6971 39.6951 -54.3779c3.08239 -9.498 4.67928 -19.5175 4.67928 -29.5103
c0 -12.8174 -2.62726 -25.5908 -8.11684 -37.163c-4.8847 -10.2971 -11.9667 -19.5727 -20.7635 -26.8188c-8.7968 -7.24616 -19.3109 -12.4385 -30.4649 -14.7794c-4.47693 -0.939577 -9.05452 -1.41503 -13.63 -1.41503c-6.82407 0 -13.6435 1.05757 -20.1175 3.21026
c-10.8147 3.59607 -20.6261 10.269 -27.7373 19.1753c-7.1112 8.90625 -11.4633 20.036 -12.0018 31.4202c-0.0376619 0.79622 -0.0564147 1.59339 -0.0564147 2.39062c0 10.6015 3.31609 21.2147 9.58051 29.7653c5.55669 7.33762 13.2705 13.0821 22 16
c4.07322 1.36149 8.37432 2.06751 12.6669 2.06751c4.1925 0 8.37692 -0.673471 12.3331 -2.06751c8.41441 -2.96502 15.5109 -8.967 21 -16c6.19225 -7.9339 10.6834 -17.2059 13 -27c1.15824 -4.89671 1.73283 -9.92684 1.73283 -14.958
c0 -5.05774 -0.580674 -10.1165 -1.73283 -15.042c-2.29313 -9.80304 -6.79522 -19.0717 -13 -27c-13.7949 -17.6268 -36.1245 -28.0143 -58.5055 -28.0143c-0.387624 0 -0.775263 0.00311581 -1.16287 0.00936378c-22.7678 0.366999 -44.998 11.2825 -59.8267 28.5631
c-13.6951 15.9595 -21.047 37.0321 -21.047 58.0679c0 1.74123 0.0503725 3.48221 0.151689 5.22001c1.32533 22.7322 11.179 44.7335 26.6602 61.432c15.4812 16.6985 36.4029 28.1019 58.6675 32.8762c8.38132 1.79724 16.9403 2.66834 25.5066 2.66834
c14.1898 0 28.4 -2.3902 41.8568 -6.92052c43.1614 -14.5305 77.2075 -50.6772 94.6543 -92.7443c10.9192 -26.328 15.7735 -54.772 15.7735 -83.3351c0 -17.0753 -1.73481 -34.1931 -4.94581 -50.9269c-8.58226 -44.7256 -27.282 -87.0494 -50.6191 -126.157
c-46.6742 -78.2155 -110.216 -144.735 -171.013 -212.558c-59.768 -68.8424 -116.84 -139.956 -173.986 -210.989c-57.1469 -71.0333 -116.521 -144.484 -197.544 -186.279c-32.1641 -16.5912 -68.1515 -27.395 -104.119 -27.395
c-9.33872 0 -18.6761 0.728316 -27.945 2.27275c-22.4839 3.74641 -44.2958 12.3746 -62.4893 26.1061s-32.659 32.6971 -39.6951 54.3779c-3.08239 9.498 -4.67928 19.5175 -4.67928 29.5103c0 12.8174 2.62726 25.5908 8.11684 37.163
c4.8847 10.2971 11.9667 19.5727 20.7635 26.8188c8.7968 7.24616 19.3109 12.4385 30.4649 14.7794c4.47693 0.939577 9.05452 1.41503 13.63 1.41503c6.82407 0 13.6435 -1.05757 20.1175 -3.21026c10.8147 -3.59607 20.6261 -10.269 27.7373 -19.1753
s11.4633 -20.036 12.0018 -31.4202c0.0376619 -0.79622 0.0564147 -1.59339 0.0564147 -2.39062c0 -10.6015 -3.31609 -21.2147 -9.58051 -29.7653c-5.55669 -7.33762 -13.2705 -13.0821 -22 -16c-4.07322 -1.36149 -8.37432 -2.06751 -12.6669 -2.06751
c-4.1925 0 -8.37692 0.673471 -12.3331 2.06751c-8.41441 2.96502 -15.5109 8.967 -21 16z" />
    <glyph glyph-name="backslash" unicode="\" vert-adv-y="0" 
d="M159 973c7.93359 6.19238 17.2061 10.6836 27 13c4.89648 1.1582 9.92676 1.73242 14.958 1.73242c5.05762 0 10.1162 -0.580078 15.042 -1.73242c9.80273 -2.29297 19.0713 -6.79492 27 -13c17.627 -13.7949 28.0146 -36.124 28.0146 -58.5059
c0 -0.387695 -0.00390625 -0.775391 -0.00976562 -1.16211c-0.367188 -22.7686 -11.2822 -44.998 -28.5635 -59.8271c-15.959 -13.6953 -37.0312 -21.0469 -58.0674 -21.0469c-1.74121 0 -3.48242 0.0498047 -5.21973 0.151367
c-22.7324 1.3252 -44.7334 11.1787 -61.4326 26.6602c-16.6982 15.4814 -28.1016 36.4033 -32.876 58.668c-1.79688 8.38086 -2.66797 16.9404 -2.66797 25.5068c0 14.1895 2.38965 28.3994 6.91992 41.8564c14.5303 43.1611 50.6777 77.208 92.7441 94.6543
c26.3281 10.9189 54.7725 15.7734 83.3359 15.7734c17.0752 0 34.1924 -1.73438 50.9268 -4.94531c44.7256 -8.58301 87.0488 -27.2822 126.157 -50.6191c78.2148 -46.6748 144.734 -110.217 212.558 -171.013c68.8418 -59.7686 139.955 -116.84 210.988 -173.986
c71.0332 -57.1475 144.484 -116.521 186.279 -197.545c16.5908 -32.1641 27.3945 -68.1514 27.3945 -104.119c0 -9.33887 -0.728516 -18.6768 -2.27246 -27.9453c-3.74609 -22.4834 -12.375 -44.2959 -26.1064 -62.4893s-32.6973 -32.6592 -54.3779 -39.6953
c-9.49805 -3.08203 -19.5176 -4.67871 -29.5098 -4.67871c-12.8174 0 -25.5908 2.62695 -37.1631 8.11621c-10.2969 4.88477 -19.5732 11.9668 -26.8193 20.7637s-12.4385 19.3115 -14.7793 30.4648c-0.939453 4.47754 -1.41504 9.05469 -1.41504 13.6309
c0 6.82324 1.05762 13.6426 3.21094 20.1172c3.5957 10.8145 10.2686 20.626 19.1748 27.7373s20.0361 11.4629 31.4199 12.002c0.796875 0.0371094 1.59375 0.0556641 2.39062 0.0556641c10.6016 0 21.2148 -3.31543 29.7656 -9.58008
c7.33789 -5.55664 13.082 -13.2705 16 -22c1.36133 -4.07324 2.06738 -8.37402 2.06738 -12.667c0 -4.19238 -0.673828 -8.37695 -2.06738 -12.333c-2.96484 -8.41406 -8.9668 -15.5107 -16 -21c-7.93359 -6.19238 -17.2061 -10.6836 -27 -13
c-4.89648 -1.1582 -9.92676 -1.73242 -14.958 -1.73242c-5.05762 0 -10.1162 0.580078 -15.042 1.73242c-9.80273 2.29297 -19.0713 6.79492 -27 13c-17.627 13.7949 -28.0146 36.124 -28.0146 58.5059c0 0.387695 0.00390625 0.775391 0.00976562 1.16211
c0.367188 22.7686 11.2822 44.998 28.5635 59.8271c15.959 13.6953 37.0312 21.0469 58.0674 21.0469c1.74121 0 3.48242 -0.0498047 5.21973 -0.151367c22.7324 -1.3252 44.7334 -11.1787 61.4326 -26.6602c16.6982 -15.4814 28.1016 -36.4033 32.876 -58.668
c1.79688 -8.38086 2.66797 -16.9404 2.66797 -25.5068c0 -14.1895 -2.38965 -28.3994 -6.91992 -41.8564c-14.5303 -43.1611 -50.6777 -77.208 -92.7441 -94.6543c-26.3281 -10.9189 -54.7725 -15.7734 -83.3359 -15.7734c-17.0752 0 -34.1924 1.73438 -50.9268 4.94531
c-44.7256 8.58301 -87.0488 27.2822 -126.157 50.6191c-78.2148 46.6748 -144.734 110.217 -212.558 171.013c-68.8418 59.7686 -139.955 116.84 -210.988 173.986c-71.0332 57.1475 -144.484 116.521 -186.279 197.545c-16.5908 32.1641 -27.3945 68.1514 -27.3945 104.119
c0 9.33887 0.728516 18.6768 2.27246 27.9453c3.74609 22.4834 12.375 44.2959 26.1064 62.4893s32.6973 32.6592 54.3779 39.6953c9.49805 3.08203 19.5176 4.67871 29.5098 4.67871c12.8174 0 25.5908 -2.62695 37.1631 -8.11621
c10.2969 -4.88477 19.5732 -11.9668 26.8193 -20.7637s12.4385 -19.3115 14.7793 -30.4648c0.939453 -4.47754 1.41504 -9.05469 1.41504 -13.6309c0 -6.82324 -1.05762 -13.6426 -3.21094 -20.1172c-3.5957 -10.8145 -10.2686 -20.626 -19.1748 -27.7373
s-20.0361 -11.4629 -31.4199 -12.002c-0.796875 -0.0371094 -1.59375 -0.0556641 -2.39062 -0.0556641c-10.6016 0 -21.2148 3.31543 -29.7656 9.58008c-7.33789 5.55664 -13.082 13.2705 -16 22c-1.36133 4.07324 -2.06738 8.37402 -2.06738 12.667
c0 4.19238 0.673828 8.37695 2.06738 12.333c2.96484 8.41406 8.9668 15.5107 16 21z" />
    <glyph glyph-name="bar" unicode="|" vert-adv-y="0" 
d="M486 1440h99v-1676h-99v1676z" />
    <glyph glyph-name="brokenbar" unicode="&#xa6;" vert-adv-y="0" 
d="M486 708v732h99v-732h-99zM585 468v-704h-99v704h99z" />
    <glyph glyph-name="question" unicode="?" vert-adv-y="0" 
d="M403 954h-97v184c0 16 6 32 14 42l102 124c10 12 24 14 34 14h278c13 0 26 -6 34 -16l102 -126c10 -12 14 -28 14 -42v-122c0 -16 -8 -34 -16 -44l-272 -320v-184h-97v210c0 14 4 32 14 44l275 320v72l-74 90h-238l-73 -88v-158zM499 222h97v-122h-97v122z" />
    <glyph glyph-name="exclam" unicode="!" vert-adv-y="0" 
d="M486 220h100v-122h-100v122zM486 1318h99v-856h-99v856z" />
    <glyph glyph-name="dollar" unicode="$" vert-adv-y="0" 
d="M892 1076v-120h-299v-246h146c13 0 28 -8 36 -18l101 -124c10 -12 12 -28 12 -42v-128c0 -16 -4 -32 -12 -42l-98 -120c-10 -12 -24 -18 -36 -18h-149v-240h-97v240h-288v120h288v252h-148c-12 0 -23 6 -33 18l-97 120c-8 10 -16 26 -16 42v126c0 14 6 30 16 42l97 120
c8 10 20 18 33 18h148v240h97v-240h299zM496 956h-126l-71 -86v-76l71 -84h126v246zM593 338h129l69 84v78l-71 90h-127v-252z" />
    <glyph glyph-name="cent" unicode="&#xa2;" vert-adv-y="0" 
d="M474 1318h99v-244h197v-122h-197v-366h197v-122h-197v-244l-99 2v242h-166c-1.00162 0 -2.0025 -0.0432451 -3.0028 -0.0947203c-0.395787 -0.0203671 -0.792775 -0.0346652 -1.18931 -0.0346652c-0.605652 0 -1.21025 0.033355 -1.80789 0.129385
c-1.35774 0.218163 -2.65042 0.736014 -4 1c-0.999712 0.19555 -2.02141 0.239387 -3.03663 0.322978c-1.01522 0.0835909 -2.03518 0.25735 -2.96337 0.677022c-1.09749 0.496218 -2.02062 1.29891 -3 2c-1.21681 0.871049 -2.59376 1.4883 -4 2
c-1.40792 0.512317 -2.8245 1.07106 -4 2c-1.11058 0.877637 -2.00324 1.99496 -3 3c-0.996382 1.00466 -2.08945 1.91694 -3 3c-0.536452 0.638089 -1.00824 1.32717 -1.48722 2.00946c-0.478977 0.68229 -0.985611 1.34476 -1.51278 1.99054l-80 98
c-1.35099 0.292565 -2.57349 1.1031 -3.40932 2.20407c-0.835836 1.10098 -1.25659 2.4546 -1.59068 3.79593c-0.255351 1.0252 -0.536908 2.05037 -1 3c-0.326799 0.670143 -0.71065 1.31286 -1 2c-0.409303 0.972004 -0.609366 2.02034 -1 3
c-0.276255 0.692811 -0.645965 1.34352 -1 2c-0.353844 0.656125 -0.679152 1.32712 -1 2c-0.320829 0.672836 -0.656419 1.33849 -1 2c-0.245059 0.47182 -0.488952 0.946096 -0.672254 1.44516s-0.296169 1.02411 -0.327746 1.55484
c-0.00847584 0.142458 -0.0115678 0.285041 -0.0115678 0.427697c0 0.384909 0.02251 0.770345 0.02251 1.15527c0 0.139094 -0.00293931 0.278122 -0.0109422 0.417034c-0.0305817 0.530828 -0.142528 1.05624 -0.326831 1.55499s-0.432044 0.971119 -0.673169 1.44501
c-0.314935 0.618952 -0.612153 1.25113 -0.80027 1.91963c-0.160284 0.569594 -0.241402 1.16117 -0.241402 1.75284c0 0.102743 0.00244603 0.205489 0.0073483 0.308123c0.0662664 1.38735 0.575895 2.7083 1.03432 4.01941
c0.45374 1.29769 0.832294 2.63884 0.872395 4.01299c0.00242112 0.0829634 0.00363125 0.16597 0.00363125 0.248983c0 1.29195 -0.29311 2.5853 -0.876026 3.73803v292c0 0.85465 0.0645283 1.71286 0.278881 2.54019
c0.214353 0.827333 0.528183 1.62722 0.721119 2.45981c0.153209 0.661152 0.214973 1.33907 0.214973 2.01816c0 0.325795 -0.0142155 0.651861 -0.0393693 0.976479c-0.068545 0.884595 -0.181881 1.76861 -0.181881 2.65467
c0 0.11686 0.00197138 0.233755 0.00627688 0.350692c0.0313311 0.850948 0.184347 1.69323 0.386573 2.5204c0.202225 0.827163 0.436725 1.64661 0.613427 2.4796c0.353115 1.66462 0.450685 3.38944 1 5c0.481919 1.41296 1.3073 2.67756 2 4
c0.833784 1.59179 1.37003 3.31711 2 5c0.523775 1.39919 1.18267 2.74938 2 4c0.912074 1.39558 1.97929 2.68179 3 4c1.02041 1.31782 2.00435 2.66338 3 4l73 98c1.68625 1.9839 3.23165 4.08891 5 6c0.320257 0.346108 0.651629 0.682205 1 1
c0.891275 0.813049 1.91626 1.46998 3 2c0.669739 0.327548 1.35284 0.629839 2 1c1.0437 0.596971 1.96684 1.38496 3 2c0.772655 0.459963 1.61062 0.799944 2.46255 1.08765c0.851933 0.287701 1.71335 0.552591 2.53745 0.912355c1.36703 0.596786 2.61226 1.45311 4 2
c1.2806 0.504664 2.6525 0.719182 4 1c1.66537 0.347062 3.30532 0.851782 5 1c0.55369 0.0484259 1.10854 0.0645679 1.66401 0.0645679c1.11095 0 2.22438 -0.0645679 3.33599 -0.0645679h170v244zM474 952h-149l-45 -60v-242l48 -64h146v366z" />
    <glyph glyph-name="sterling" unicode="&#xa3;" vert-adv-y="0" 
d="M354 220l-12 4h-45v-12h45zM497 280l14 -4c1.17659 -0.336168 2.34018 -0.770522 3.33317 -1.4856c0.992991 -0.715078 1.81925 -1.6318 2.66683 -2.5144c0.903012 -0.940315 1.86065 -1.82885 2.88404 -2.63649c1.0234 -0.807641 2.09355 -1.55461 3.11596 -2.36351
c1.85199 -1.46524 3.46314 -3.207 5 -5l36 -42h162l86 100l66 -88l-100 -116c-2.63228 -3.05345 -5.60818 -5.821 -9 -8c-3.76985 -2.42186 -7.78146 -4.48968 -12 -6c-4.15302 -1.48686 -8.58884 -2 -13 -2h-198c-1.8767 0 -3.76124 0.0649914 -5.60536 0.413115
c-1.84413 0.348124 -3.63484 0.93489 -5.39464 1.58688c-4.06474 1.50596 -8.12091 3.0654 -12 5c-2.13872 1.06663 -4.1915 2.32111 -6.03196 3.84576c-1.84046 1.52464 -3.43085 3.32425 -4.96804 5.15424l-42 50l-33 12l-55 -66
c-2.88754 -3.46505 -6.12863 -6.6855 -10 -9c-3.46215 -2.06985 -7.19562 -3.65928 -11 -5c-1.92431 -0.678157 -3.88895 -1.25779 -5.90059 -1.59867c-2.01164 -0.340881 -4.0591 -0.401325 -6.09941 -0.401325h-101c-4.32309 0 -8.7033 0.23316 -12.8067 1.59379
c-4.10339 1.36063 -7.83832 3.67983 -11.1933 6.40621c-7.39976 6.01331 -13.6186 13.5312 -18 22c-2.36985 4.58068 -4.07125 9.50878 -4.98816 14.584c-0.91691 5.07524 -1.01184 10.2586 -1.01184 15.416v122c0 5.15741 0.0949282 10.3407 1.01184 15.416
c0.91691 5.07524 2.61831 10.0033 4.98816 14.584c4.38137 8.46876 10.6002 15.9867 18 22c3.35499 2.72639 7.08991 5.04559 11.1933 6.40621c4.10339 1.36063 8.4836 1.59379 12.8067 1.59379h98c1.01757 0 2.03767 -0.0741181 3.02996 -0.299521
c0.992291 -0.225402 1.96498 -0.541389 2.97004 -0.700479c0.549627 -0.0870006 1.10365 -0.118386 1.65934 -0.118386c0.779447 0 1.56218 0.0617503 2.34066 0.118386c0.464189 0.0337706 0.930547 0.0571798 1.39609 0.0571798
c0.561648 0 1.12212 -0.0340711 1.67617 -0.125124c1.01331 -0.166526 1.9813 -0.533559 2.92773 -0.932056l38 -16v386h-199v122h199v306c0 4.68858 0.00697176 9.41778 1 14c1.05111 4.85022 3.07407 9.42613 5 14c1.0476 2.48793 2.10804 4.97661 3.41162 7.34049
c1.30358 2.36388 2.90837 4.5465 4.58838 6.65951l97 122c2.79746 3.51846 5.48787 7.19459 9 10c3.85626 3.08028 8.48913 4.99727 13 7c2.05342 0.911673 4.13295 1.79225 6.31258 2.33711c2.17963 0.544861 4.44072 0.662893 6.68742 0.662893h104
c1.76878 0 3.55634 -0.126977 5.23454 -0.685751c1.6782 -0.558774 3.22138 -1.45146 4.76546 -2.31425c2.08528 -1.1652 4.24357 -2.19721 6.4613 -3.08476c2.21773 -0.88756 4.46904 -1.72251 6.5387 -2.91524c2.2613 -1.30316 4.25006 -3.04021 6.00653 -4.97063
c1.75647 -1.93042 3.35277 -3.99963 4.99347 -6.02937l97 -120l-69 -84l-83 102h-63l-69 -86v-282h198v-122h-198v-426z" />
    <glyph glyph-name="yen" unicode="&#xa5;" vert-adv-y="0" 
d="M534 1012l263 292l67 -92l-281 -310l2 -72h296v-122h-296v-244h296v-122h-296v-244h-99v244h-297v122h297v244h-297v122h297l-2 66l-282 316l67 94z" />
    <glyph glyph-name="paragraph" unicode="&#xb6;" vert-adv-y="0" 
d="M288 1208v-372h235l70 84v200l-70 88h-235zM288 96h-91v1222h344c0.667331 0 1.3344 -0.0210529 2.0012 -0.0477876c0.276805 -0.0110983 0.554211 -0.0196233 0.831357 -0.0196233c0.39047 0 0.780422 0.016922 1.16745 0.0674108
c0.682683 0.0890586 1.34598 0.286569 2.00054 0.499966c0.654561 0.213397 1.31439 0.43163 1.99946 0.500034c0.145764 0.0145548 0.292434 0.0220992 0.439062 0.0220992c0.399129 0 0.797955 -0.0559003 1.1774 -0.178473
c0.518838 -0.167603 0.997959 -0.458126 1.38354 -0.843626c1.37344 -0.582569 2.72322 -1.22827 4 -2c0.81727 -0.493986 1.60119 -1.0511 2.28412 -1.7186s1.24713 -1.4494 1.71588 -2.2814c0.414773 -0.736194 0.766927 -1.50868 1.22834 -2.21657
s1.05479 -1.33608 1.77166 -1.78343c0.634868 -0.396172 1.34564 -0.649867 2.04227 -0.923212c0.69663 -0.273345 1.38496 -0.595174 1.95773 -1.07679c0.463615 -0.389835 0.842534 -0.872883 1.15555 -1.39147c0.313016 -0.518586 0.568955 -1.06908 0.844449 -1.60853
c0.547911 -1.07288 1.24268 -2.06311 2 -3l97 -120c0.528956 -0.654379 1.11511 -1.27039 1.81498 -1.73749c0.699872 -0.467103 1.47234 -0.815188 2.18502 -1.26251c0.721894 -0.453106 1.37289 -1.02607 1.8737 -1.71573
c0.500813 -0.689655 0.856137 -1.47591 1.1263 -2.28427c0.539665 -1.61477 0.813014 -3.30773 1 -5c0.258618 -2.34056 0.396 -4.74136 1.31646 -6.90881c0.920459 -2.16745 2.58112 -4.03056 4.68354 -5.09119c-0.198489 -0.782129 -0.28738 -1.5858 -0.28738 -2.39197
c0 -0.874525 0.104605 -1.75198 0.28738 -2.60803c0.355458 -1.66485 0.892441 -3.30103 1 -5c0.0280869 -0.443655 0.0374493 -0.887803 0.0374493 -1.33221c0 -0.888823 -0.0374493 -1.7787 -0.0374493 -2.66779v-246c0 -1.11114 0.0167405 -2.22241 0.0167405 -3.33351
c0 -0.555551 -0.00418512 -1.11106 -0.0167405 -1.66649c-0.0460409 -2.03677 -0.315801 -4.08104 -1 -6c-0.603025 -1.6913 -1.43102 -3.29695 -2 -5c-0.334561 -1.0014 -0.589972 -2.02711 -0.881948 -3.04175s-0.643566 -2.01507 -1.11805 -2.95825
c-0.504601 -1.00305 -1.13954 -1.93386 -1.70466 -2.90409c-0.565125 -0.970236 -1.0241 -2.00634 -1.29534 -3.09591c-0.332714 -1.33652 -0.44342 -2.74016 -1 -4c-0.338113 -0.765334 -0.826123 -1.45572 -1.36436 -2.09631
c-0.538235 -0.640594 -1.11296 -1.25034 -1.63564 -1.90369c-0.520787 -0.650975 -0.989995 -1.34113 -1.47071 -2.02223c-0.480718 -0.681101 -0.994508 -1.33824 -1.52929 -1.97777l-97 -116c-0.909018 -1.08707 -1.8943 -2.11373 -3 -3
c-0.939007 -0.75266 -1.94716 -1.41711 -3 -2c-0.736744 -0.407887 -1.49288 -0.785009 -2.1899 -1.25759c-0.697019 -0.472576 -1.31876 -1.05849 -1.8101 -1.74241c-0.351353 -0.489067 -0.640342 -1.01931 -0.945563 -1.53842s-0.637417 -1.02714 -1.05444 -1.46158
c-0.522225 -0.544029 -1.17282 -0.953852 -1.86604 -1.25072s-1.42238 -0.499602 -2.13396 -0.749281c-0.921814 -0.323444 -1.80911 -0.746957 -2.62837 -1.27908c-0.819266 -0.532128 -1.57675 -1.153 -2.37163 -1.72092
c-1.34611 -0.961768 -2.89124 -1.73786 -4.54421 -1.80658c-0.0783014 -0.00325509 -0.156662 -0.0048733 -0.235021 -0.0048733c-1.57581 0 -3.15063 0.654443 -4.22077 1.81145h-253v-628zM589 584h98v-122h99v-119h-99v-367h-98v367h-100v119h100v122z" />
    <glyph glyph-name="currency" unicode="&#xa4;" vert-adv-y="0" 
d="M447 374l-205 -256l-54 66l188 240c-52 52 -85 132 -85 220c0 90 33 170 85 222l-192 244l55 66l206 -260c24 12 51 16 79 16s55 -4 79 -16l205 258l56 -66l-189 -242c50 -52 82 -134 82 -222c0 -86 -28 -164 -77 -216l188 -244l-57 -66l-204 258
c-26 -12 -54 -20 -83 -20c-28 0 -53 8 -77 18zM368 644c0 -106 70 -192 156 -192s156 86 156 192s-70 194 -156 194s-156 -88 -156 -194z" />
    <glyph glyph-name="zero" unicode="0" vert-adv-y="0" 
d="M536 888c26 0 49 -28 49 -60v-246c0 -32 -23 -60 -49 -60c-28 0 -49 28 -49 60v246c0 32 21 60 49 60zM295 990v-564l168 -208h148l166 204v568l-172 210h-138zM214 1056l200 246c8 12 23 18 35 18h176c13 0 26 -8 34 -18l199 -246c10 -10 15 -28 15 -42v-616
c0 -16 -7 -34 -15 -42l-194 -240c-10 -12 -24 -18 -34 -18h-185c-13 0 -28 8 -34 18l-197 244c-10 12 -15 28 -15 42v612c0 16 7 34 15 42z" />
    <glyph glyph-name="one" unicode="1" vert-adv-y="0" 
d="M479 1296c10 12 20 20 32 20c6 0 17 0 23 -4c20 -10 24 -30 24 -56v-1156h-97v1008l-156 -196l-67 78z" />
    <glyph glyph-name="two" unicode="2" vert-adv-y="0" 
d="M294 952h-96v64c0 16 8 32 16 42l195 244c10 12 22 18 34 18h282c13 0 26 -8 34 -18l99 -122c10 -12 14 -28 14 -42v-252c0 -16 -6 -32 -14 -42l-498 -628h512v-120h-630c-12 0 -24 6 -34 18s-14 28 -14 42s4 30 14 42l569 712v204l-70 86h-244l-169 -208v-40z" />
    <glyph glyph-name="three" unicode="3" vert-adv-y="0" 
d="M295 1200v120h578v-186c0 -16 -7 -32 -15 -42l-215 -266c6 -2 12 -8 16 -12l197 -244c10 -12 16 -28 16 -42v-134c0 -16 -8 -32 -16 -42l-189 -234c-10 -12 -22 -18 -34 -18h-293c-13 0 -26 8 -34 18l-107 132l68 84l93 -114h257l160 198v84l-168 210h-79
c-12 0 -24 6 -34 18s-15 26 -15 42s5 30 15 42l281 344v42h-482z" />
    <glyph glyph-name="four" unicode="4" vert-adv-y="0" 
d="M777 600h96v-112h-96v-438h-97v438h-432c-26 0 -49 28 -49 60v224c0 12 5 30 15 42l389 488c6 10 21 18 34 18h140v-720zM680 600v600h-22l-367 -458v-142h389z" />
    <glyph glyph-name="five" unicode="5" vert-adv-y="0" 
d="M873 1320v-120h-578v-246h335c12 0 24 -6 34 -18l194 -240c8 -8 15 -26 15 -42v-252c0 -14 -5 -30 -15 -42l-196 -242c-6 -10 -20 -18 -33 -18h-425v120h407l166 208v202l-165 204h-413v486h674z" />
    <glyph glyph-name="six" unicode="6" vert-adv-y="0" 
d="M199 372v2v636c0 14 5 30 15 42l231 286l70 -84l-218 -268v-330l122 150c8 10 21 18 34 18h178c12 0 25 -6 35 -18l192 -242c8 -10 15 -26 15 -42v-144c0 -14 -5 -30 -15 -42l-200 -248c-8 -10 -22 -18 -35 -18h-176c-12 0 -24 6 -34 18l-199 244c-2 2 -15 40 -15 40z
M297 492v-92l170 -210h137l171 214v100l-164 206h-138z" />
    <glyph glyph-name="seven" unicode="7" vert-adv-y="0" 
d="M487 98h-95v568c0 16 6 34 14 42l369 456v36h-576v120h674v-180c0 -14 -5 -32 -15 -42l-371 -458v-542z" />
    <glyph glyph-name="eight" unicode="8" vert-adv-y="0" 
d="M309 1166l94 132c10 14 23 20 36 20h192c14 0 27 -6 35 -16l93 -120c10 -12 15 -26 15 -40v-250l-16 -40l-58 -68l162 -214c6 -10 11 -24 11 -40v-142c0 -14 -5 -26 -15 -38l-196 -238c-8 -10 -18 -14 -31 -14h-194c-14 0 -28 6 -34 14l-189 238l-15 40v142
c0 10 7 24 17 38l158 210l-63 68c-10 10 -16 26 -16 44v238c0 10 4 24 14 36zM297 508v-94l160 -206h155l167 208v92l-167 218h-149zM392 1108v-192l69 -78h152l65 78v204l-66 84h-152z" />
    <glyph glyph-name="nine" unicode="9" vert-adv-y="0" 
d="M777 868l-212 -262c-6 -10 -20 -18 -33 -18h-192c-12 0 -24 6 -34 18l-92 114c-8 8 -15 26 -15 42v254c0 14 5 32 15 42l197 244c6 10 21 18 34 18h281c12 0 25 -6 33 -18l99 -124c8 -10 15 -26 15 -42v-856c0 -14 -5 -30 -15 -42l-129 -160l-68 84l116 140v566z
M777 1032v82l-71 86h-241l-168 -208v-206l63 -78h152z" />
    <glyph glyph-name="germandbls" unicode="&#xdf;" vert-adv-y="0" 
d="M190 1030v5v6v5l2 5l2 4l2 5l1 4l3 4l4 4l196 228l4 6l2 1l2 2l1 1l3 3l4 3l3 2h6h7h108h5l4 1l5 -1l3 -3l4 -4l4 -3l3 -3l3 -3l3 -4l93 -120l5 -6l1 -2l1 -2l1 -2l1 -4l2 -4v-4l1 -3v-2l1 -3v-8v-124v-8l-1 -2v-2l-1 -2v-3l-1 -2l-1 -3v-2v-2l-1 -2l-1 -2l-1 -2l-1 -2
l-2 -1l-2 -2l-1 -1l-65 -86l262 -324l4 -4l3 -4l1 -4l2 -4l1 -4l1 -4v-3l1 -2l1 -3v-8v-246l-1 -5l-1 -6l-2 -5l-1 -4l-1 -4l-1 -4l-2 -4l-3 -4l-4 -4l-91 -112l-4 -4l-3 -3l-3 -3l-4 -2l-4 -2l-4 -2l-3 -2l-4 -3l-4 -1h-204h-6h-6l-3 3l-4 2l-3 3l-4 3l-3 3l-3 4l-99 120
l64 80l85 -100h166l67 80v198l-282 346l-3 4l-3 4l-2 4l-1 5l-1 4l-1 5l-1 5l-1 4v5v14l1 5l3 5l1 4l2 4l3 4l3 4l84 110v78l-66 86h-72l-168 -196v-908h-91v932z" />
    <glyph glyph-name="section" unicode="&#xa7;" vert-adv-y="0" 
d="M628 252l40 48v202l-350 416l-41 -44v-202zM668 146v-106v-16c-2 -4 -6 -8 -8 -12s-3 -8 -7 -12l-90 -122c-4 -4 -6 -8 -10 -10s-8 -8 -12 -10c-2 -1 -2 -1 -4 -1c-4 0 -5 1 -8 1h-252v120h230l65 84v96l-379 448c-4 4 -6 8 -8 12l-7 14
c-0.333333 0.666667 -0.444444 1.33333 -0.444444 2c0 1.33333 0.444444 2.66667 0.444444 4v10v252c0 6 3 10 5 16c2 4 3 10 5 14l10 10l79 84v106v11c0 0.666667 -0.444444 1.77778 -0.444444 3.03704c0 0.62963 0.111111 1.2963 0.444444 1.96296c0 4 3 8 5 12l6 12
l93 122c2 4 6 8 10 10s7 4 11 6s9 10 13 10h253v-122h-232l-67 -88v-92l380 -448c4 -4 6 -8 8 -12c4 -6 5 -10 5 -14c1 -3 1.25 -6 1.25 -8.75s-0.25 -5.25 -0.25 -7.25v-252c0 -6 -3 -12 -5 -16c-2 -6 -2 -10 -4 -14s-5 -8 -9 -12z" />
    <glyph glyph-name="numbersign" unicode="#" vert-adv-y="0" 
d="M569 952h-192v-246h192v246zM280 1196h97v-122h192v122h95v-124h98v-120h-98v-246h98v-120h-98v-120h-95v120h-192v-122h-97v122h-96v122h96v244h-96v122h96v122z" />
    <glyph glyph-name="at" unicode="@" vert-adv-y="0" 
d="M585 704v120h-27l-69 -86v-34h96zM682 704h30l63 80v328l-64 80h-347l-67 -84v-810l59 -76h517v-120h-536c-12 0 -26 6 -36 18l-89 110c-8 10 -13 26 -13 42v860c0 14 3 30 13 42l97 120c8 10 23 18 36 18h385c12 0 26 -6 36 -18l94 -116c8 -10 13 -26 13 -42v-378
c0 -14 -3 -30 -13 -42l-93 -114c-8 -10 -20 -18 -33 -18h-293c-26 0 -49 28 -49 60v118c0 14 3 30 13 42l99 122c8 10 23 14 36 14h93c26 0 49 -24 49 -56v-180z" />
    <glyph glyph-name="percent" unicode="%" vert-adv-y="0" 
d="M695 126c4.6387 -10.0171 11.2549 -19.2633 20 -26c7.9954 -6.1592 17.9073 -9.97805 28 -10c0.0298501 -6.4923e-05 0.0596984 -9.73637e-05 0.0895449 -9.73637e-05c10.3664 0 20.5176 3.91343 28.9105 10.0001c9.12058 6.61441 16.3731 15.7274 21 26
c5.05783 11.2294 7 23.6841 7 36s-1.94217 24.7706 -7 36c-4.6269 10.2726 -11.8794 19.3856 -21 26c-8.39288 6.08667 -18.5441 10.0001 -28.9105 10.0001c-0.0298465 0 -0.0596949 -3.24407e-05 -0.0895449 -9.73637e-05c-10.0927 -0.0219512 -20.0046 -3.8408 -28 -10
c-8.74508 -6.73671 -15.3613 -15.9829 -20 -26c-5.20589 -11.2419 -8 -23.6112 -8 -36s2.79411 -24.7581 8 -36zM595 160c-0.00364989 0.574731 -0.00548181 1.14958 -0.00548181 1.72451c0 31.6678 5.55779 63.6166 19.0055 92.2755c12.201 26.0021 30.8067 49.0576 54 66
c21.4662 15.6809 47.4166 25.9054 74 26c0.122988 0.000437701 0.245964 0.00065633 0.368928 0.00065633c26.4831 0 52.4153 -10.1412 73.6311 -26.0007c22.8206 -17.0592 40.7967 -40.2536 53 -66c13.6159 -28.7265 20.005 -60.6615 20.005 -92.4563
c0 -0.514613 -0.00167376 -1.02919 -0.00501774 -1.54372c-0.207599 -31.9424 -6.69412 -63.9601 -20 -93c-11.99 -26.1681 -29.7842 -49.9837 -53 -67c-21.2565 -15.5802 -47.2561 -25.0007 -73.6074 -25.0007c-0.130842 0 -0.261692 0.000232253 -0.392551 0.000697158
c-26.4583 0.0939993 -52.4882 9.59555 -74 25c-23.5895 16.8923 -42.0212 40.5742 -54 67c-13.158 29.0272 -18.7976 61.1304 -19 93zM300 1092c4.59451 -10.2945 11.8181 -19.4594 21 -26c8.45443 -6.02241 18.6218 -9.80189 29 -10
c0.270956 -0.00517239 0.541907 -0.00775025 0.812814 -0.00775025c10.1651 0 20.2675 3.62945 28.1872 10.0078c8.43203 6.79095 14.3998 16.1993 19 26c5.2981 11.2876 9 23.5308 9 36s-3.7019 24.7124 -9 36c-4.6002 9.80073 -10.568 19.2091 -19 26
c-7.91966 6.3783 -18.0221 10.0078 -28.1872 10.0078c-0.270907 0 -0.541858 -0.00257786 -0.812814 -0.00775025c-10.3782 -0.198115 -20.5456 -3.97759 -29 -10c-9.18191 -6.54062 -16.4055 -15.7055 -21 -26c-5.01869 -11.245 -7 -23.6859 -7 -36s1.98131 -24.755 7 -36z
M200 1126c0 32.0267 7.57508 63.9229 21 93c11.9756 25.9381 29.029 50.0138 52 67c21.5542 15.9385 48.193 25 75 25s53.4458 -9.06153 75 -25c22.971 -16.9862 40.0244 -41.0619 52 -67c13.4249 -29.0771 21 -60.9733 21 -93s-7.57508 -63.9229 -21 -93
c-11.9756 -25.9381 -29.029 -50.0138 -52 -67c-21.5542 -15.9385 -48.193 -25 -75 -25s-53.4458 9.06153 -75 25c-22.971 16.9862 -40.0244 41.0619 -52 67c-13.4249 29.0771 -21 60.9733 -21 93zM217 236c-6.19238 7.93359 -10.6836 17.2061 -13 27
c-1.1582 4.89648 -1.73242 9.92676 -1.73242 14.958c0 5.05762 0.580078 10.1162 1.73242 15.042c2.29297 9.80273 6.79492 19.0713 13 27c13.7949 17.627 36.124 28.0146 58.5059 28.0146c0.387695 0 0.775391 -0.00390625 1.16211 -0.00976562
c22.7686 -0.367188 44.998 -11.2822 59.8271 -28.5635c13.6953 -15.959 21.0469 -37.0312 21.0469 -58.0674c0 -1.74121 -0.0498047 -3.48242 -0.151367 -5.21973c-1.3252 -22.7324 -11.1787 -44.7334 -26.6602 -61.4326
c-15.4814 -16.6982 -36.4033 -28.1016 -58.668 -32.876c-8.38086 -1.79688 -16.9404 -2.66797 -25.5068 -2.66797c-14.1895 0 -28.3994 2.38965 -41.8564 6.91992c-43.1611 14.5303 -77.208 50.6777 -94.6543 92.7441c-10.9189 26.3281 -15.7734 54.7725 -15.7734 83.3359
c0 17.0752 1.73438 34.1924 4.94531 50.9268c8.58301 44.7256 27.2822 87.0488 50.6191 126.157c46.6748 78.2148 110.217 144.734 171.013 212.558c59.7686 68.8418 116.84 139.955 173.986 210.988c57.1475 71.0332 116.521 144.484 197.545 186.279
c32.1641 16.5908 68.1514 27.3945 104.119 27.3945c9.33887 0 18.6768 -0.728516 27.9453 -2.27246c22.4834 -3.74609 44.2959 -12.375 62.4893 -26.1064s32.6592 -32.6973 39.6953 -54.3779c3.08203 -9.49805 4.67871 -19.5176 4.67871 -29.5098
c0 -12.8174 -2.62695 -25.5908 -8.11621 -37.1631c-4.88477 -10.2969 -11.9668 -19.5732 -20.7637 -26.8193s-19.3115 -12.4385 -30.4648 -14.7793c-4.47754 -0.939453 -9.05469 -1.41504 -13.6309 -1.41504c-6.82324 0 -13.6426 1.05762 -20.1172 3.21094
c-10.8145 3.5957 -20.626 10.2686 -27.7373 19.1748s-11.4629 20.0361 -12.002 31.4199c-0.0371094 0.796875 -0.0556641 1.59375 -0.0556641 2.39062c0 10.6016 3.31543 21.2148 9.58008 29.7656c5.55664 7.33789 13.2705 13.082 22 16
c4.07324 1.36133 8.37402 2.06738 12.667 2.06738c4.19238 0 8.37695 -0.673828 12.333 -2.06738c8.41406 -2.96484 15.5107 -8.9668 21 -16c6.19238 -7.93359 10.6836 -17.2061 13 -27c1.1582 -4.89648 1.73242 -9.92676 1.73242 -14.958
c0 -5.05762 -0.580078 -10.1162 -1.73242 -15.042c-2.29297 -9.80273 -6.79492 -19.0713 -13 -27c-13.7949 -17.627 -36.124 -28.0146 -58.5059 -28.0146c-0.387695 0 -0.775391 0.00390625 -1.16211 0.00976562c-22.7686 0.367188 -44.998 11.2822 -59.8271 28.5635
c-13.6953 15.959 -21.0469 37.0312 -21.0469 58.0674c0 1.74121 0.0498047 3.48242 0.151367 5.21973c1.3252 22.7324 11.1787 44.7334 26.6602 61.4326c15.4814 16.6982 36.4033 28.1016 58.668 32.876c8.38086 1.79688 16.9404 2.66797 25.5068 2.66797
c14.1895 0 28.3994 -2.38965 41.8564 -6.91992c43.1611 -14.5303 77.208 -50.6777 94.6543 -92.7441c10.9189 -26.3281 15.7734 -54.7725 15.7734 -83.3359c0 -17.0752 -1.73438 -34.1924 -4.94531 -50.9268c-8.58301 -44.7256 -27.2822 -87.0488 -50.6191 -126.157
c-46.6748 -78.2148 -110.217 -144.734 -171.013 -212.558c-59.7686 -68.8418 -116.84 -139.955 -173.986 -210.988c-57.1475 -71.0332 -116.521 -144.484 -197.545 -186.279c-32.1641 -16.5908 -68.1514 -27.3945 -104.119 -27.3945
c-9.33887 0 -18.6768 0.728516 -27.9453 2.27246c-22.4834 3.74609 -44.2959 12.375 -62.4893 26.1064s-32.6592 32.6973 -39.6953 54.3779c-3.08203 9.49805 -4.67871 19.5176 -4.67871 29.5098c0 12.8174 2.62695 25.5908 8.11621 37.1631
c4.88477 10.2969 11.9668 19.5732 20.7637 26.8193s19.3115 12.4385 30.4648 14.7793c4.47754 0.939453 9.05469 1.41504 13.6309 1.41504c6.82324 0 13.6426 -1.05762 20.1172 -3.21094c10.8145 -3.5957 20.626 -10.2686 27.7373 -19.1748
s11.4629 -20.0361 12.002 -31.4199c0.0371094 -0.796875 0.0556641 -1.59375 0.0556641 -2.39062c0 -10.6016 -3.31543 -21.2148 -9.58008 -29.7656c-5.55664 -7.33789 -13.2705 -13.082 -22 -16c-4.07324 -1.36133 -8.37402 -2.06738 -12.667 -2.06738
c-4.19238 0 -8.37695 0.673828 -12.333 2.06738c-8.41406 2.96484 -15.5107 8.9668 -21 16z" />
    <glyph glyph-name="underscore" unicode="_" vert-adv-y="0" 
d="M189 98h692v-124h-692v124z" />
    <glyph glyph-name="ampersand" unicode="&#x26;" vert-adv-y="0" 
d="M402 484l-3 3l-3 4l-2 3l-3 4l-1 4l-2 4l-1 5v4l1 5v76h-59l-44 -78v-214l67 -84h164l50 62zM206 736l-3 3l-2 4l-3 3v4v6v6v6v246v8v6v8v2l-1 2l1 2l2 2l2 2l2 2l6 6l89 118l2 4l4 3l3 3l3 2l5 2l3 2l5 1l3 -1h5h109h3l4 -1l5 -1l3 -2l4 -2l3 -2l2 -1l2 -2l2 -1l1 -1
l1 -2l2 -1l91 -110l1 -2l1 -2l1 -2l2 -2l1 -2v-2l2 -5l2 -4l1 -5l2 -5v-4l1 -5v-248l1 -3l1 -2l2 -3l-1 -3l-1 -2v-3l-1 -5l-1 -4v-5l-2 -2l-1 -2l-1 -2l-5 -6l-90 -114v-68l153 -186l170 208l66 -80l-172 -210l168 -204l-65 -78l-167 202l-65 -80l-3 -4l-3 -3l-3 -3l-5 -2
l-3 -2l-4 -2l-4 -1l-5 1h-3h-202h-4l-3 -1l-4 1l-3 3l-3 2l-4 3l-2 1l-1 2l-1 1l-2 1l-2 2l-2 1l-97 118l-3 4l-1 4l-2 4l-2 5l-3 4l-1 5l-1 5l1 6l1 5v254v6v6l1 2l3 2l1 2v4v3v4v3l52 88zM485 796v200l-64 80h-69l-63 -84v-206l37 -66h100z" />
    <glyph glyph-name="minus" unicode="&#x2212;" vert-adv-y="0" 
d="M295 712h482v-112h-482v112z" />
    <glyph glyph-name="period" unicode="." vert-adv-y="0" 
d="M381 322h192v-222h-192v222z" />
    <glyph glyph-name="comma" unicode="," vert-adv-y="0" 
d="M669 378v-214l-29 -84l-219 -272l-136 168l191 238v164h193z" />
    <glyph glyph-name="colon" unicode=":" vert-adv-y="0" 
d="M381 322h192v-222h-192v222zM381 822h192v-222h-192v222z" />
    <glyph glyph-name="plus" unicode="+" vert-adv-y="0" 
d="M487 1044h98v-332h288v-126h-288v-320h-98v320h-288v126h288v332z" />
    <glyph glyph-name="logicalnot" unicode="&#xac;" vert-adv-y="0" 
d="M199 820h674v-364h-98v244h-576v120z" />
    <glyph glyph-name="macron" unicode="&#xaf;" vert-adv-y="0" 
d="M270 1318h530v-122h-530v122z" />
    <glyph glyph-name="degree" unicode="&#xb0;" vert-adv-y="0" 
d="M476 1318c107 0 191 -110 191 -242s-84 -242 -191 -242s-191 110 -191 242s84 242 191 242zM377 1076c0 -72 46 -128 99 -128s99 56 99 128s-46 130 -99 130s-99 -58 -99 -130z" />
    <glyph glyph-name="periodcentered" unicode="&#xb7;" vert-adv-y="0" 
d="M377 708h196v-246h-196v246z" />
    <glyph glyph-name="asciicircum" unicode="^" vert-adv-y="0" 
d="M318 992l-34 42l222 274c3.01051 3.71567 6.14426 7.39444 9.98925 10.2379c3.84498 2.8435 8.32286 4.81702 13.0108 5.76205c2.66321 0.536877 5.36626 0.780455 8.0764 0.780455c5.71194 0 11.4554 -1.08198 16.9236 -2.78045
c3.95761 -1.22926 7.80295 -2.90783 11.1968 -5.28603c3.39382 -2.37819 6.18733 -5.49981 8.80323 -8.71397l223 -274l-35 -42l-35 -42l-187 231l-187 -231z" />
    <glyph glyph-name="asciitilde" unicode="~" vert-adv-y="0" 
d="M251 1136l-34 42l97 120c3.13402 3.87713 6.75321 7.38868 11 10c3.81345 2.34486 7.83616 4.35588 12 6c1.74649 0.689614 3.54214 1.27028 5.38942 1.60701c1.84727 0.336739 3.73287 0.392985 5.61058 0.392985h106c4.41339 0 8.87434 -0.432522 13 -2
c4.34402 -1.65044 8.32396 -4.15726 12 -7c3.36534 -2.60247 6.31846 -5.69731 9 -9l177 -218h66l77 96l35 -42l34 -42l-92 -114c-2.6729 -3.31207 -5.58711 -6.45709 -9 -9c-3.9602 -2.95071 -8.34985 -5.33688 -13 -7c-4.15336 -1.48545 -8.58899 -2 -13 -2h-105
c-4.08491 0 -8.20185 0.496485 -12 2c-3.88976 1.53978 -7.5067 3.69826 -11 6c-2.07956 1.37022 -4.10237 2.83625 -5.9516 4.50432c-1.84923 1.66806 -3.47864 3.56231 -5.0484 5.49568l-177 218h-65l-83 -102z" />
    <glyph glyph-name="dieresis" unicode="&#xa8;" vert-adv-y="0" 
d="M275 1318h102v-122h-102v122zM573 1318h100v-122h-100v122z" />
    <glyph glyph-name="grave" unicode="`" vert-adv-y="0" 
d="M416 1302c10 12 22 16 35 16c12 0 24 -4 34 -16l203 -248c10 -12 13 -28 13 -42c0 -16 -3 -32 -13 -44s-22 -16 -35 -16c-12 0 -24 4 -34 16l-203 250c-10 12 -13 28 -13 42c0 16 3 32 13 42z" />
    <glyph glyph-name="acute" unicode="&#xb4;" vert-adv-y="0" 
d="M407 972c-10 12 -15 28 -15 42c0 18 7 34 15 44l194 242c10 12 22 18 34 18c14 0 28 -8 36 -18s15 -26 15 -44c0 -14 -5 -30 -15 -42l-194 -242c-8 -10 -22 -18 -36 -18c-12 0 -24 6 -34 18z" />
    <glyph glyph-name="cedilla" unicode="&#xb8;" vert-adv-y="0" 
d="M468 350h97v-323c0 -16 -6 -33 -14 -42l-91 -112c-9 -12 -23 -18 -34 -18h-147v120h127l62 77v298z" />
    <glyph glyph-name="agrave" unicode="&#xe0;" vert-adv-y="0" 
d="M307 1416c10 12 22 16 35 16c12 0 24 -4 34 -16l203 -248c10 -12 13 -28 13 -42c0 -16 -3 -32 -13 -44s-22 -16 -35 -16c-12 0 -24 4 -34 16l-203 250c-10 12 -13 28 -13 42c0 16 3 32 13 42zM686 216v252h-326l-70 -88v-74l68 -90h328zM783 216h99v-116h-545
c-16 0 -30 12 -34 18l-93 124c-12 14 -16 34 -16 42v120c0 20 12 36 16 42l95 122c12 14 26 16 34 16h347v166l-67 84h-330v118h350c16 0 29 -12 33 -18l96 -120c12 -14 15 -30 15 -40v-558z" />
    <glyph glyph-name="egrave" unicode="&#xe8;" vert-adv-y="0" 
d="M306 1416c10 12 22 16 35 16c12 0 24 -4 34 -16l203 -248c10 -12 13 -28 13 -42c0 -16 -3 -32 -13 -44s-22 -16 -35 -16c-12 0 -24 4 -34 16l-203 250c-10 12 -13 28 -13 42c0 16 3 32 13 42zM279 462v-158l69 -90h427v-112h-446c-14 0 -29 10 -33 16l-100 120
c-12 14 -13 32 -13 42v484c0 20 12 34 16 40l99 126c12 14 28 22 36 22h294c16 0 30 -16 34 -22l95 -124c12 -14 15 -30 15 -40v-304h-493zM280 586h398v156l-70 88h-256l-72 -90v-154z" />
    <glyph glyph-name="igrave" unicode="&#xec;" vert-adv-y="0" 
d="M466 952h99v-854h-99v854zM314 1420c10 12 22 16 35 16c12 0 24 -4 34 -16l203 -248c10 -12 13 -28 13 -42c0 -16 -3 -32 -13 -44s-22 -16 -35 -16c-12 0 -24 4 -34 16l-203 250c-10 12 -13 28 -13 42c0 16 3 32 13 42z" />
    <glyph glyph-name="ograve" unicode="&#xf2;" vert-adv-y="0" 
d="M258 1416c10 12 22 16 35 16c12 0 24 -4 34 -16l203 -248c10 -12 13 -28 13 -42c0 -16 -3 -32 -13 -44s-22 -16 -35 -16c-12 0 -24 4 -34 16l-203 250c-10 12 -13 28 -13 42c0 16 3 32 13 42zM280 748v-444l70 -84h263l65 84v444l-64 88h-264zM199 814l99 126
c12 14 26 14 32 14h306c16 0 29 -12 35 -20l91 -126c10 -12 13 -28 13 -38v-490c0 -20 -11 -36 -15 -42l-94 -118c-9 -13 -21 -14 -29 -14h-5h-302c-14 0 -26 8 -32 14l-100 116c-13 14 -15 32 -15 44v494c0 20 12 34 16 40z" />
    <glyph glyph-name="ugrave" unicode="&#xf9;" vert-adv-y="0" 
d="M304 1416c10 12 22 16 35 16c12 0 24 -4 34 -16l203 -248c10 -12 13 -28 13 -42c0 -16 -3 -32 -13 -44s-22 -16 -35 -16c-12 0 -24 4 -34 16l-203 250c-10 12 -13 28 -13 42c0 16 3 32 13 42zM706 168l-38 -48c-4 -6 -18 -18 -34 -18h-295c-8 0 -20 2 -32 16l-97 116
c-4 6 -14 22 -14 42v676h95v-652l67 -82h257l67 88v646h97v-670c0 -6 -2 -14 -6 -24l30 -40h79v-116h-99c-16 0 -30 8 -34 16z" />
    <glyph glyph-name="atilde" unicode="&#xe3;" vert-adv-y="0" 
d="M255 1254l-34 42l97 120c3.13379 3.87695 6.75293 7.38867 11 10c3.81348 2.34473 7.83594 4.35547 12 6c1.74609 0.689453 3.54199 1.27051 5.38965 1.60742c1.84668 0.335938 3.73242 0.392578 5.61035 0.392578h106c4.41309 0 8.87402 -0.432617 13 -2
c4.34375 -1.65039 8.32422 -4.15723 12 -7c3.36523 -2.60254 6.31836 -5.69727 9 -9l177 -218h66l77 96l35 -42l34 -42l-92 -114c-2.67285 -3.3125 -5.58691 -6.45703 -9 -9c-3.95996 -2.95117 -8.34961 -5.33691 -13 -7c-4.15332 -1.48535 -8.58887 -2 -13 -2h-105
c-4.08496 0 -8.20215 0.496094 -12 2c-3.88965 1.54004 -7.50684 3.69824 -11 6c-2.0791 1.37012 -4.10254 2.83594 -5.95117 4.50391c-1.84961 1.66895 -3.47949 3.5625 -5.04883 5.49609l-177 218h-65l-83 -102zM686 216v252h-326l-70 -88v-74l68 -90h328zM783 216h99
v-116h-545c-16 0 -30 12 -34 18l-93 124c-12 14 -16 34 -16 42v120c0 20 12 36 16 42l95 122c12 14 26 16 34 16h347v166l-67 84h-330v118h350c16 0 29 -12 33 -18l96 -120c12 -14 15 -30 15 -40v-558z" />
    <glyph glyph-name="otilde" unicode="&#xf5;" vert-adv-y="0" 
d="M193 1254l-34 42l97 120c3.13379 3.87695 6.75293 7.38867 11 10c3.81348 2.34473 7.83594 4.35547 12 6c1.74609 0.689453 3.54199 1.27051 5.38965 1.60742c1.84668 0.335938 3.73242 0.392578 5.61035 0.392578h106c4.41309 0 8.87402 -0.432617 13 -2
c4.34375 -1.65039 8.32422 -4.15723 12 -7c3.36523 -2.60254 6.31836 -5.69727 9 -9l177 -218h66l77 96l35 -42l34 -42l-92 -114c-2.67285 -3.3125 -5.58691 -6.45703 -9 -9c-3.95996 -2.95117 -8.34961 -5.33691 -13 -7c-4.15332 -1.48535 -8.58887 -2 -13 -2h-105
c-4.08496 0 -8.20215 0.496094 -12 2c-3.88965 1.54004 -7.50684 3.69824 -11 6c-2.0791 1.37012 -4.10254 2.83594 -5.95117 4.50391c-1.84961 1.66895 -3.47949 3.5625 -5.04883 5.49609l-177 218h-65l-83 -102zM280 748v-444l70 -84h263l65 84v444l-64 88h-264zM199 814
l99 126c12 14 26 14 32 14h306c16 0 29 -12 35 -20l91 -126c10 -12 13 -28 13 -38v-490c0 -20 -11 -36 -15 -42l-94 -118c-9 -13 -21 -14 -29 -14h-5h-302c-14 0 -26 8 -32 14l-100 116c-13 14 -15 32 -15 44v494c0 20 12 34 16 40z" />
    <glyph glyph-name="ydiaeresis" vert-adv-y="0" 
d="M253 1196h102v-122h-102v122zM551 1196h100v-122h-100v122zM446 156l-260 326c-10 12 -15 26 -15 42v428h97v-404l248 -306l148 182v528h97v-552c0 -16 -5 -30 -15 -42l-497 -614l-68 84z" />
    <glyph glyph-name="Yacute" unicode="&#xdd;" vert-adv-y="0" 
d="M493 1238c-10 12 -15 28 -15 42c0 18 7 34 15 44l194 242c10 12 22 18 34 18c14 0 28 -8 36 -18s15 -26 15 -44c0 -14 -5 -30 -15 -42l-194 -242c-8 -10 -22 -18 -36 -18c-12 0 -24 6 -34 18zM585 742v-642h-99v642l-272 348c-10 12 -15 26 -15 42v62h98v-38l241 -304
l237 304v38h98v-58c0 -16 -3 -32 -13 -44z" />
    <glyph glyph-name="yacute" unicode="&#xfd;" vert-adv-y="0" 
d="M441 1092c-10 12 -15 28 -15 42c0 18 7 34 15 44l194 242c10 12 22 18 34 18c14 0 28 -8 36 -18s15 -26 15 -44c0 -14 -5 -30 -15 -42l-194 -242c-8 -10 -22 -18 -36 -18c-12 0 -24 6 -34 18zM458 156l-260 326c-10 12 -15 26 -15 42v428h97v-404l248 -306l148 182v528
h97v-552c0 -16 -5 -30 -15 -42l-497 -614l-68 84z" />
    <glyph glyph-name="eacute" unicode="&#xe9;" vert-adv-y="0" 
d="M506 1092c-10 12 -15 28 -15 42c0 18 7 34 15 44l194 242c10 12 22 18 34 18c14 0 28 -8 36 -18s15 -26 15 -44c0 -14 -5 -30 -15 -42l-194 -242c-8 -10 -22 -18 -36 -18c-12 0 -24 6 -34 18zM279 462v-158l69 -90h427v-112h-446c-14 0 -29 10 -33 16l-100 120
c-12 14 -13 32 -13 42v484c0 20 12 34 16 40l99 126c12 14 28 22 36 22h294c16 0 30 -16 34 -22l95 -124c12 -14 15 -30 15 -40v-304h-493zM280 586h398v156l-70 88h-256l-72 -90v-154z" />
    <glyph glyph-name="onequarter" unicode="&#xbc;" vert-adv-y="0" 
d="M982 346v-120h-48v-126h-98v126h-147c-36 0 -47 40 -47 62v56v58c0 18 10 34 14 40l148 184c10 14 26 20 32 20h52c32 0 47 -36 47 -58v-242h47zM836 346v152l-97 -124v-28h97zM789 1120c10 12 22 18 35 18s26 -6 36 -18s14 -28 14 -44s-4 -32 -12 -44l-584 -732
c-10 -12 -21 -18 -34 -18s-26 6 -36 18s-14 28 -14 44s4 32 12 44zM393 828h-99v360l-13 -16l-68 84l97 118c4 6 14 18 34 18c18 0 49 -18 49 -60v-504z" />
    <glyph glyph-name="onehalf" unicode="&#xbd;" vert-adv-y="0" 
d="M393 828h-99v360l-13 -16l-68 84l97 118c4 6 14 18 34 18c18 0 49 -18 49 -60v-504zM789 1120c10 12 22 18 35 18s26 -6 36 -18s14 -28 14 -44s-4 -32 -12 -44l-584 -732c-10 -12 -21 -18 -34 -18s-26 6 -36 18s-14 28 -14 44s4 32 12 44zM989 222v-120h-297v118
c0 20 10 36 14 42l184 224v20l-18 22h-64l-33 -42l-71 80l47 62c6 10 20 18 36 18h108c8 0 22 -4 34 -18l44 -58c6 -8 13 -24 13 -42v-66c0 -10 -1 -28 -13 -42l-162 -198h178z" />
    <glyph glyph-name="threequarters" unicode="&#xbe;" vert-adv-y="0" 
d="M982 346v-120h-48v-126h-98v126h-147c-36 0 -47 40 -47 62v56v58c0 18 10 34 14 40l148 184c10 14 26 20 32 20h52c32 0 47 -36 47 -58v-242h47zM836 346v152l-97 -124v-28h97zM789 1120c10 12 22 18 35 18s26 -6 36 -18s14 -28 14 -44s-4 -32 -12 -44l-584 -732
c-10 -12 -21 -18 -34 -18s-26 6 -36 18s-14 28 -14 44s4 32 12 44zM278 1202v110h288v-92l-75 -102l59 -76c6 -10 12 -24 12 -36v-104c0 -14 -4 -26 -10 -36l-51 -76c-8 -12 -21 -20 -34 -20h-130c-12 0 -22 6 -30 14l-55 60l59 82l42 -46h93l27 40l-2 62l-24 34h-89v88
l74 98h-154z" />
    <glyph glyph-name="udieresis" unicode="&#xfc;" vert-adv-y="0" 
d="M311 1196h102v-122h-102v122zM609 1196h100v-122h-100v122zM706 168l-38 -48c-4 -6 -18 -18 -34 -18h-295c-8 0 -20 2 -32 16l-97 116c-4 6 -14 22 -14 42v676h95v-652l67 -82h257l67 88v646h97v-670c0 -6 -2 -14 -6 -24l30 -40h79v-116h-99c-16 0 -30 8 -34 16z" />
    <glyph glyph-name="ccedilla" unicode="&#xe7;" vert-adv-y="0" 
d="M775 950v-118h-329l-167 -208v-198l172 -208h324v-116h-133v-321c0 -16 -6 -33 -14 -42l-91 -112c-9 -12 -23 -18 -34 -18h-147v120h127l62 77v296h-114c-6 0 -22 2 -34 16l-199 242c-4 6 -15 22 -15 42v246c0 10 3 28 15 42l195 242c4 6 16 18 32 18h350z" />
    <glyph glyph-name="adieresis" unicode="&#xe4;" vert-adv-y="0" 
d="M261 1320h102v-122h-102v122zM559 1320h100v-122h-100v122zM686 216v252h-326l-70 -88v-74l68 -90h328zM783 216h99v-116h-545c-16 0 -30 12 -34 18l-93 124c-12 14 -16 34 -16 42v120c0 20 12 36 16 42l95 122c12 14 26 16 34 16h347v166l-67 84h-330v118h350
c16 0 29 -12 33 -18l96 -120c12 -14 15 -30 15 -40v-558z" />
    <glyph glyph-name="edieresis" unicode="&#xeb;" vert-adv-y="0" 
d="M261 1316h102v-122h-102v122zM559 1316h100v-122h-100v122zM279 462v-158l69 -90h427v-112h-446c-14 0 -29 10 -33 16l-100 120c-12 14 -13 32 -13 42v484c0 20 12 34 16 40l99 126c12 14 28 22 36 22h294c16 0 30 -16 34 -22l95 -124c12 -14 15 -30 15 -40v-304h-493z
M280 586h398v156l-70 88h-256l-72 -90v-154z" />
    <glyph glyph-name="idieresis" unicode="&#xef;" vert-adv-y="0" 
d="M483 952h99v-854h-99v854zM617 1314h100v-122h-100v122zM319 1314h102v-122h-102v122z" />
    <glyph glyph-name="odieresis" unicode="&#xf6;" vert-adv-y="0" 
d="M259 1316h102v-122h-102v122zM557 1316h100v-122h-100v122zM280 748v-444l70 -84h263l65 84v444l-64 88h-264zM199 814l99 126c12 14 26 14 32 14h306c16 0 29 -12 35 -20l91 -126c10 -12 13 -28 13 -38v-490c0 -20 -11 -36 -15 -42l-94 -118c-9 -13 -21 -14 -29 -14h-5
h-302c-14 0 -26 8 -32 14l-100 116c-13 14 -15 32 -15 44v494c0 20 12 34 16 40z" />
    <glyph glyph-name="uni03BC" unicode="&#x3bc;" vert-adv-y="0" 
d="M193 952h92v-652l70 -82h260l69 88v646h97v-670c0 -6 -2 -14 -6 -24l29 -40h79v-116h-98c-16 0 -31 8 -35 16l-42 50l-39 -48c-4 -6 -18 -18 -34 -18h-299c-8 0 -21 2 -33 16l-14 18v-404h-96v1220z" />
    <glyph glyph-name="acircumflex" unicode="&#xe2;" vert-adv-y="0" 
d="M298 1092l-34 42l222 274c3.01074 3.71582 6.14453 7.39453 9.98926 10.2383c3.84473 2.84277 8.32324 4.81641 13.0107 5.76172c2.66309 0.537109 5.36621 0.780273 8.07617 0.780273c5.71191 0 11.4561 -1.08203 16.9238 -2.78027
c3.95801 -1.22949 7.80273 -2.9082 11.1963 -5.28613c3.39453 -2.37793 6.1875 -5.5 8.80371 -8.71387l223 -274l-35 -42l-35 -42l-187 231l-187 -231zM686 216v252h-326l-70 -88v-74l68 -90h328zM783 216h99v-116h-545c-16 0 -30 12 -34 18l-93 124c-12 14 -16 34 -16 42
v120c0 20 12 36 16 42l95 122c12 14 26 16 34 16h347v166l-67 84h-330v118h350c16 0 29 -12 33 -18l96 -120c12 -14 15 -30 15 -40v-558z" />
    <glyph glyph-name="ecircumflex" unicode="&#xea;" vert-adv-y="0" 
d="M281 1092l-34 42l222 274c3.01074 3.71582 6.14453 7.39453 9.98926 10.2383c3.84473 2.84277 8.32324 4.81641 13.0107 5.76172c2.66309 0.537109 5.36621 0.780273 8.07617 0.780273c5.71191 0 11.4561 -1.08203 16.9238 -2.78027
c3.95801 -1.22949 7.80273 -2.9082 11.1963 -5.28613c3.39453 -2.37793 6.1875 -5.5 8.80371 -8.71387l223 -274l-35 -42l-35 -42l-187 231l-187 -231zM279 462v-158l69 -90h427v-112h-446c-14 0 -29 10 -33 16l-100 120c-12 14 -13 32 -13 42v484c0 20 12 34 16 40l99 126
c12 14 28 22 36 22h294c16 0 30 -16 34 -22l95 -124c12 -14 15 -30 15 -40v-304h-493zM280 586h398v156l-70 88h-256l-72 -90v-154z" />
    <glyph glyph-name="icircumflex" unicode="&#xee;" vert-adv-y="0" 
d="M487 952h98v-854h-98v854zM318 1024l-34 42l222 274c3.01074 3.71582 6.14453 7.39453 9.98926 10.2383c3.84473 2.84277 8.32324 4.81641 13.0107 5.76172c2.66309 0.537109 5.36621 0.780273 8.07617 0.780273c5.71191 0 11.4561 -1.08203 16.9238 -2.78027
c3.95801 -1.22949 7.80273 -2.9082 11.1963 -5.28613c3.39453 -2.37793 6.1875 -5.5 8.80371 -8.71387l223 -274l-35 -42l-35 -42l-187 231l-187 -231z" />
    <glyph glyph-name="ocircumflex" unicode="&#xf4;" vert-adv-y="0" 
d="M261 1092l-34 42l222 274c3.01074 3.71582 6.14453 7.39453 9.98926 10.2383c3.84473 2.84277 8.32324 4.81641 13.0107 5.76172c2.66309 0.537109 5.36621 0.780273 8.07617 0.780273c5.71191 0 11.4561 -1.08203 16.9238 -2.78027
c3.95801 -1.22949 7.80273 -2.9082 11.1963 -5.28613c3.39453 -2.37793 6.1875 -5.5 8.80371 -8.71387l223 -274l-35 -42l-35 -42l-187 231l-187 -231zM280 748v-444l70 -84h263l65 84v444l-64 88h-264zM199 814l99 126c12 14 26 14 32 14h306c16 0 29 -12 35 -20l91 -126
c10 -12 13 -28 13 -38v-490c0 -20 -11 -36 -15 -42l-94 -118c-9 -13 -21 -14 -29 -14h-5h-302c-14 0 -26 8 -32 14l-100 116c-13 14 -15 32 -15 44v494c0 20 12 34 16 40z" />
    <glyph glyph-name="ucircumflex" unicode="&#xfb;" vert-adv-y="0" 
d="M305 1092l-34 42l222 274c3.01074 3.71582 6.14453 7.39453 9.98926 10.2383c3.84473 2.84277 8.32324 4.81641 13.0107 5.76172c2.66309 0.537109 5.36621 0.780273 8.07617 0.780273c5.71191 0 11.4561 -1.08203 16.9238 -2.78027
c3.95801 -1.22949 7.80273 -2.9082 11.1963 -5.28613c3.39453 -2.37793 6.1875 -5.5 8.80371 -8.71387l223 -274l-35 -42l-35 -42l-187 231l-187 -231zM706 168l-38 -48c-4 -6 -18 -18 -34 -18h-295c-8 0 -20 2 -32 16l-97 116c-4 6 -14 22 -14 42v676h95v-652l67 -82h257
l67 88v646h97v-670c0 -6 -2 -14 -6 -24l30 -40h79v-116h-99c-16 0 -30 8 -34 16z" />
    <glyph glyph-name="aacute" unicode="&#xe1;" vert-adv-y="0" 
d="M486 1092c-10 12 -15 28 -15 42c0 18 7 34 15 44l194 242c10 12 22 18 34 18c14 0 28 -8 36 -18s15 -26 15 -44c0 -14 -5 -30 -15 -42l-194 -242c-8 -10 -22 -18 -36 -18c-12 0 -24 6 -34 18zM686 216v252h-326l-70 -88v-74l68 -90h328zM783 216h99v-116h-545
c-16 0 -30 12 -34 18l-93 124c-12 14 -16 34 -16 42v120c0 20 12 36 16 42l95 122c12 14 26 16 34 16h347v166l-67 84h-330v118h350c16 0 29 -12 33 -18l96 -120c12 -14 15 -30 15 -40v-558z" />
    <glyph glyph-name="multiply" unicode="&#xd7;" vert-adv-y="0" 
d="M255 906l70 86l209 -260l211 260l70 -86l-211 -260l211 -260l-70 -84l-211 258l-209 -258l-70 84l211 260z" />
    <glyph glyph-name="iacute" unicode="&#xed;" vert-adv-y="0" 
d="M502 952h103v-854h-103v854zM498 1090c-10 12 -15 28 -15 42c0 18 7 34 15 44l194 242c10 12 22 18 34 18c14 0 28 -8 36 -18s15 -26 15 -44c0 -14 -5 -30 -15 -42l-194 -242c-8 -10 -22 -18 -36 -18c-12 0 -24 6 -34 18z" />
    <glyph glyph-name="oacute" unicode="&#xf3;" vert-adv-y="0" 
d="M444 1092c-10 12 -15 28 -15 42c0 18 7 34 15 44l194 242c10 12 22 18 34 18c14 0 28 -8 36 -18s15 -26 15 -44c0 -14 -5 -30 -15 -42l-194 -242c-8 -10 -22 -18 -36 -18c-12 0 -24 6 -34 18zM280 748v-444l70 -84h263l65 84v444l-64 88h-264zM199 814l99 126
c12 14 26 14 32 14h306c16 0 29 -12 35 -20l91 -126c10 -12 13 -28 13 -38v-490c0 -20 -11 -36 -15 -42l-94 -118c-9 -13 -21 -14 -29 -14h-5h-302c-14 0 -26 8 -32 14l-100 116c-13 14 -15 32 -15 44v494c0 20 12 34 16 40z" />
    <glyph glyph-name="uacute" unicode="&#xfa;" vert-adv-y="0" 
d="M488 1092c-10 12 -15 28 -15 42c0 18 7 34 15 44l194 242c10 12 22 18 34 18c14 0 28 -8 36 -18s15 -26 15 -44c0 -14 -5 -30 -15 -42l-194 -242c-8 -10 -22 -18 -36 -18c-12 0 -24 6 -34 18zM706 168l-38 -48c-4 -6 -18 -18 -34 -18h-295c-8 0 -20 2 -32 16l-97 116
c-4 6 -14 22 -14 42v676h95v-652l67 -82h257l67 88v646h97v-670c0 -6 -2 -14 -6 -24l30 -40h79v-116h-99c-16 0 -30 8 -34 16z" />
    <glyph glyph-name="ntilde" unicode="&#xf1;" vert-adv-y="0" 
d="M241 1254l-34 42l97 120c3.13379 3.87695 6.75293 7.38867 11 10c3.81348 2.34473 7.83594 4.35547 12 6c1.74609 0.689453 3.54199 1.27051 5.38965 1.60742c1.84668 0.335938 3.73242 0.392578 5.61035 0.392578h106c4.41309 0 8.87402 -0.432617 13 -2
c4.34375 -1.65039 8.32422 -4.15723 12 -7c3.36523 -2.60254 6.31836 -5.69727 9 -9l177 -218h66l77 96l35 -42l34 -42l-92 -114c-2.67285 -3.3125 -5.58691 -6.45703 -9 -9c-3.95996 -2.95117 -8.34961 -5.33691 -13 -7c-4.15332 -1.48535 -8.58887 -2 -13 -2h-105
c-4.08496 0 -8.20215 0.496094 -12 2c-3.88965 1.54004 -7.50684 3.69824 -11 6c-2.0791 1.37012 -4.10254 2.83594 -5.95117 4.50391c-1.84961 1.66895 -3.47949 3.5625 -5.04883 5.49609l-177 218h-65l-83 -102zM358 884l39 48c4 6 18 18 34 18h201c8 0 20 -2 32 -16
l96 -116c4 -6 15 -22 15 -42v-674h-93v650l-69 78h-162l-68 -84v-646h-97v670c0 6 2 14 6 24l-29 40h-80v118h103c16 0 26 -10 30 -18z" />
    <glyph glyph-name="Agrave" unicode="&#xc0;" vert-adv-y="0" 
d="M212 1566c10 12 22 16 35 16c12 0 24 -4 34 -16l203 -248c10 -12 13 -28 13 -42c0 -16 -3 -32 -13 -44s-22 -16 -35 -16c-12 0 -24 4 -34 16l-203 250c-10 12 -13 28 -13 42c0 16 3 32 13 42zM295 488v-390h-96v676c0 18 11 34 15 40l286 362c10 14 22 18 32 18
c16 0 30 -8 38 -18l290 -364c12 -14 13 -32 13 -42v-672h-98v390h-480zM297 600h478v146l-241 300l-237 -298v-148z" />
    <glyph glyph-name="Egrave" unicode="&#xc8;" vert-adv-y="0" 
d="M319 1570c10 12 22 16 35 16c12 0 24 -4 34 -16l203 -248c10 -12 13 -28 13 -42c0 -16 -3 -32 -13 -44s-22 -16 -35 -16c-12 0 -24 4 -34 16l-203 250c-10 12 -13 28 -13 42c0 16 3 32 13 42zM199 1196h674v-122h-578v-362h385v-122h-385v-372h578v-120h-674v1098z" />
    <glyph glyph-name="Igrave" unicode="&#xcc;" vert-adv-y="0" 
d="M307 1570c10 12 22 16 35 16c12 0 24 -4 34 -16l203 -248c10 -12 13 -28 13 -42c0 -16 -3 -32 -13 -44s-22 -16 -35 -16c-12 0 -24 4 -34 16l-203 250c-10 12 -13 28 -13 42c0 16 3 32 13 42zM392 1194h288v-120h-95v-856h95v-122h-288v122h95v856h-95v120z" />
    <glyph glyph-name="Ograve" unicode="&#xd2;" vert-adv-y="0" 
d="M306 1568c10 12 22 16 35 16c12 0 24 -4 34 -16l203 -248c10 -12 13 -28 13 -42c0 -16 -3 -32 -13 -44s-22 -16 -35 -16c-12 0 -24 4 -34 16l-203 250c-10 12 -13 28 -13 42c0 16 3 32 13 42zM299 988v-688l63 -80h344l69 86v680l-69 90h-342zM216 1052l91 124
c12 16 26 18 36 18h384c16 0 32 -10 36 -18l97 -124c12 -14 13 -32 13 -42v-730c0 -20 -9 -36 -15 -42l-99 -120c-12 -14 -25 -18 -33 -18h-383c-16 0 -30 10 -34 16l-95 114c-12 14 -15 34 -15 44v738c0 18 11 32 17 40z" />
    <glyph glyph-name="Ugrave" unicode="&#xd9;" vert-adv-y="0" 
d="M296 1566c10 12 22 16 35 16c12 0 24 -4 34 -16l203 -248c10 -12 13 -28 13 -42c0 -16 -3 -32 -13 -44s-22 -16 -35 -16c-12 0 -24 4 -34 16l-203 250c-10 12 -13 28 -13 42c0 16 3 32 13 42zM199 1194h94v-890l69 -84h348l65 86v888h98v-912c0 -8 -1 -26 -13 -40
l-94 -122c-6 -8 -20 -20 -36 -20h-388c-8 0 -23 4 -35 18l-95 118c-4 6 -13 22 -13 42v916z" />
    <glyph glyph-name="Atilde" unicode="&#xc3;" vert-adv-y="0" 
d="M237 1414l-34 42l97 120c3.13379 3.87695 6.75293 7.38867 11 10c3.81348 2.34473 7.83594 4.35547 12 6c1.74609 0.689453 3.54199 1.27051 5.38965 1.60742c1.84668 0.335938 3.73242 0.392578 5.61035 0.392578h106c4.41309 0 8.87402 -0.432617 13 -2
c4.34375 -1.65039 8.32422 -4.15723 12 -7c3.36523 -2.60254 6.31836 -5.69727 9 -9l177 -218h66l77 96l35 -42l34 -42l-92 -114c-2.67285 -3.3125 -5.58691 -6.45703 -9 -9c-3.95996 -2.95117 -8.34961 -5.33691 -13 -7c-4.15332 -1.48535 -8.58887 -2 -13 -2h-105
c-4.08496 0 -8.20215 0.496094 -12 2c-3.88965 1.54004 -7.50684 3.69824 -11 6c-2.0791 1.37012 -4.10254 2.83594 -5.95117 4.50391c-1.84961 1.66895 -3.47949 3.5625 -5.04883 5.49609l-177 218h-65l-83 -102zM295 488v-390h-96v676c0 18 11 34 15 40l286 362
c10 14 22 18 32 18c16 0 30 -8 38 -18l290 -364c12 -14 13 -32 13 -42v-672h-98v390h-480zM297 600h478v146l-241 300l-237 -298v-148z" />
    <glyph glyph-name="Otilde" unicode="&#xd5;" vert-adv-y="0" 
d="M244 1414l-34 42l97 120c3.13379 3.87695 6.75293 7.38867 11 10c3.81348 2.34473 7.83594 4.35547 12 6c1.74609 0.689453 3.54199 1.27051 5.38965 1.60742c1.84668 0.335938 3.73242 0.392578 5.61035 0.392578h106c4.41309 0 8.87402 -0.432617 13 -2
c4.34375 -1.65039 8.32422 -4.15723 12 -7c3.36523 -2.60254 6.31836 -5.69727 9 -9l177 -218h66l77 96l35 -42l34 -42l-92 -114c-2.67285 -3.3125 -5.58691 -6.45703 -9 -9c-3.95996 -2.95117 -8.34961 -5.33691 -13 -7c-4.15332 -1.48535 -8.58887 -2 -13 -2h-105
c-4.08496 0 -8.20215 0.496094 -12 2c-3.88965 1.54004 -7.50684 3.69824 -11 6c-2.0791 1.37012 -4.10254 2.83594 -5.95117 4.50391c-1.84961 1.66895 -3.47949 3.5625 -5.04883 5.49609l-177 218h-65l-83 -102zM299 988v-688l63 -80h344l69 86v680l-69 90h-342zM216 1052
l91 124c12 16 26 18 36 18h384c16 0 32 -10 36 -18l97 -124c12 -14 13 -32 13 -42v-730c0 -20 -9 -36 -15 -42l-99 -120c-12 -14 -25 -18 -33 -18h-383c-16 0 -30 10 -34 16l-95 114c-12 14 -15 34 -15 44v738c0 18 11 32 17 40z" />
    <glyph glyph-name="uni00B9" unicode="&#xb9;" vert-adv-y="0" 
d="M409 1038l-68 84l147 180c10 12 23 16 35 16c14 0 28 -6 34 -16c14 -16 14 -34 14 -42v-734h-99v590z" />
    <glyph glyph-name="uni00B2" unicode="&#xb2;" vert-adv-y="0" 
d="M746 648v-122h-387v70v52c0.761765 4.65232 1.36924 9.32812 2 14c0.639927 4.73974 1.33495 9.51645 3 14c1.36031 3.66297 3.55586 6.9514 6 10l279 348v84l-68 84h-65l-71 -88v-36h-87v58c0 4.01964 0.366755 8.03055 1 12c0.752755 4.71858 1.45522 9.47835 3 14
c1.50568 4.4072 4.11997 8.33996 7 12l96 122c1.46156 1.8574 2.98108 3.67415 4.67012 5.32739c1.68904 1.65325 3.49822 3.17892 5.32988 4.67261c2.8031 2.28587 5.68776 4.54685 9 6c2.02411 0.888016 4.18632 1.44518 6.37958 1.71943
c2.19325 0.274245 4.41009 0.280571 6.62042 0.280571h102c1.71419 0 3.43689 -0.0671995 5.11508 -0.416689c1.67819 -0.34949 3.29905 -0.932581 4.88492 -1.58331c3.87687 -1.59079 7.73641 -3.37137 11 -6c3.49941 -2.81856 6.14664 -6.52891 9 -10l97 -118
c1.35727 -1.65111 2.76268 -3.26166 4.16614 -4.8737c1.40346 -1.61203 2.76757 -3.2739 3.83386 -5.1263c1.21681 -2.11389 2.00257 -4.45137 2.55152 -6.82788c0.548954 -2.37651 0.936933 -4.78728 1.44848 -7.17212c0.495929 -2.31205 1.09086 -4.60416 1.4903 -6.93483
c0.399435 -2.33066 0.509705 -4.70053 0.509705 -7.06517v-128c0 -2.03853 -0.0782046 -4.08414 -0.443376 -6.08969c-0.365171 -2.00556 -0.96122 -3.96067 -1.55662 -5.91031c-1.41781 -4.64258 -2.41742 -9.41097 -4 -14c-1.51894 -4.40448 -4.08816 -8.36299 -7 -12
l-261 -326h280z" />
    <glyph glyph-name="uni00B3" unicode="&#xb3;" vert-adv-y="0" 
d="M338 1196v122h348c32 0 48 -34 48 -56v-4c0 -1.33333 0.888889 -0.888889 0.888889 -1.03704c0 -0.0740741 -0.222222 -0.296296 -0.888889 -0.962963v-60c0 -18 -11 -32 -15 -40l-116 -148c10 -4 16 -10 18 -12l98 -122c10 -12 13 -28 13 -39v-5v-122
c0 -20 -10 -36 -14 -42l-96 -120c-9 -13 -21 -17 -30 -17c-3 0 -4 1 -6 1h-149c-14 0 -26 8 -32 16l-51 56l65 88l38 -42h110l68 84v74l-70 86h-74h-4c-5 0 -20 1 -32 14c-8 10 -14 26 -14 46c0 12 2 26 12 40l164 204h-279z" />
    <glyph glyph-name="ordfeminine" unicode="&#xaa;" vert-adv-y="0" 
d="M685 458v254h-325l-69 -88v-74l70 -92h324zM782 458h99v-116h-543c-16 0 -30 18 -34 24l-96 120c-12 14 -12 34 -12 42v120c0 20 8 34 12 40l98 124c12 14 26 16 34 16h345v162l-66 84h-330v120h350c16 0 29 -14 33 -20l97 -120c12 -14 13 -30 13 -40v-556zM189 218h692
v-120h-692v120z" />
    <glyph glyph-name="masculine" vert-adv-y="0" 
d="M275 990v-444l70 -84h261l64 84v444l-63 88h-262zM194 1056l99 122c12 14 27 16 33 16h302c16 0 30 -10 36 -18l91 -126c10 -12 13 -28 13 -38v-490c0 -20 -11 -36 -15 -42l-94 -118c-9 -13 -20 -14 -28 -14h-6h-299c-14 0 -27 8 -33 14l-101 116c-13 14 -14 32 -14 44
v494c0 20 12 34 16 40zM178 218h596v-120h-596v120z" />
    <glyph glyph-name="guillemotleft" unicode="&#xab;" vert-adv-y="0" 
d="M496 1122l69 -84l-310 -388l310 -384l-69 -84l-342 426c-8 10 -15 26 -15 44c0 12 5 28 15 40zM792 1120l69 -84l-309 -388l309 -384l-69 -84l-342 426c-8 10 -13 26 -13 42c0 14 3 28 13 42z" />
    <glyph glyph-name="guillemotright" unicode="&#xbb;" vert-adv-y="0" 
d="M570 1122l342 -430c10 -14 14 -28 14 -42c0 -16 -6 -32 -14 -42l-342 -426l-69 84l308 384l-308 388zM272 1120l344 -430c10 -12 13 -26 13 -40c0 -18 -7 -34 -13 -44l-344 -426l-68 84l308 384l-308 388z" />
    <glyph glyph-name="exclamdown" unicode="&#xa1;" vert-adv-y="0" 
d="M486 1318h99v-122h-99v122zM486 952h99v-854h-99v854z" />
    <glyph glyph-name="questiondown" unicode="&#xbf;" vert-adv-y="0" 
d="M699 1202h-105v122h105v-122zM890 472v-214c0 -2 -1 -4 -1 -6c-4 -9 -6 -17 -11 -24l-77 -108c-6 -8 -14 -21 -27 -21l-10 1h-326c-4 0 -4 -1 -7 -1c-10 0 -22 10 -27 17l-89 102c-6 8 -16 20 -16 36v12v156c0 16 13 35 20 44l275 314v180h99v-218c0 -2 -2 -6 -2 -8
c-4 -12 -7 -19 -14 -28l-274 -314v-102l57 -66h280l52 64v184h98z" />
    <glyph glyph-name="Adieresis" unicode="&#xc4;" vert-adv-y="0" 
d="M311 1438h102v-122h-102v122zM609 1438h100v-122h-100v122zM295 488v-390h-96v676c0 18 11 34 15 40l286 362c10 14 22 18 32 18c16 0 30 -8 38 -18l290 -364c12 -14 13 -32 13 -42v-672h-98v390h-480zM297 600h478v146l-241 300l-237 -298v-148z" />
    <glyph glyph-name="Edieresis" unicode="&#xcb;" vert-adv-y="0" 
d="M312 1438h102v-122h-102v122zM610 1438h100v-122h-100v122zM199 1196h674v-122h-578v-362h385v-122h-385v-372h578v-120h-674v1098z" />
    <glyph glyph-name="Idieresis" unicode="&#xcf;" vert-adv-y="0" 
d="M317 1432h102v-122h-102v122zM615 1432h100v-122h-100v122zM392 1194h288v-120h-95v-856h95v-122h-288v122h95v856h-95v120z" />
    <glyph glyph-name="Odieresis" unicode="&#xd6;" vert-adv-y="0" 
d="M336 1438h102v-122h-102v122zM634 1438h100v-122h-100v122zM299 988v-688l63 -80h344l69 86v680l-69 90h-342zM216 1052l91 124c12 16 26 18 36 18h384c16 0 32 -10 36 -18l97 -124c12 -14 13 -32 13 -42v-730c0 -20 -9 -36 -15 -42l-99 -120c-12 -14 -25 -18 -33 -18
h-383c-16 0 -30 10 -34 16l-95 114c-12 14 -15 34 -15 44v738c0 18 11 32 17 40z" />
    <glyph glyph-name="Udieresis" unicode="&#xdc;" vert-adv-y="0" 
d="M307 1444h102v-122h-102v122zM605 1444h100v-122h-100v122zM199 1194h94v-890l69 -84h348l65 86v888h98v-912c0 -8 -1 -26 -13 -40l-94 -122c-6 -8 -20 -20 -36 -20h-388c-8 0 -23 4 -35 18l-95 118c-4 6 -13 22 -13 42v916z" />
    <glyph glyph-name="Acircumflex" unicode="&#xc2;" vert-adv-y="0" 
d="M305 1268l-34 42l222 274c3.01074 3.71582 6.14453 7.39453 9.98926 10.2383c3.84473 2.84277 8.32324 4.81641 13.0107 5.76172c2.66309 0.537109 5.36621 0.780273 8.07617 0.780273c5.71191 0 11.4561 -1.08203 16.9238 -2.78027
c3.95801 -1.22949 7.80273 -2.9082 11.1963 -5.28613c3.39453 -2.37793 6.1875 -5.5 8.80371 -8.71387l223 -274l-35 -42l-35 -42l-187 231l-187 -231zM295 488v-390h-96v676c0 18 11 34 15 40l286 362c10 14 22 18 32 18c16 0 30 -8 38 -18l290 -364c12 -14 13 -32 13 -42
v-672h-98v390h-480zM297 600h478v146l-241 300l-237 -298v-148z" />
    <glyph glyph-name="Ecircumflex" unicode="&#xca;" vert-adv-y="0" 
d="M310 1270l-34 42l222 274c3.01074 3.71582 6.14453 7.39453 9.98926 10.2383c3.84473 2.84277 8.32324 4.81641 13.0107 5.76172c2.66309 0.537109 5.36621 0.780273 8.07617 0.780273c5.71191 0 11.4561 -1.08203 16.9238 -2.78027
c3.95801 -1.22949 7.80273 -2.9082 11.1963 -5.28613c3.39453 -2.37793 6.1875 -5.5 8.80371 -8.71387l223 -274l-35 -42l-35 -42l-187 231l-187 -231zM199 1196h674v-122h-578v-362h385v-122h-385v-372h578v-120h-674v1098z" />
    <glyph glyph-name="Icircumflex" unicode="&#xce;" vert-adv-y="0" 
d="M320 1268l-34 42l222 274c3.01074 3.71582 6.14453 7.39453 9.98926 10.2383c3.84473 2.84277 8.32324 4.81641 13.0107 5.76172c2.66309 0.537109 5.36621 0.780273 8.07617 0.780273c5.71191 0 11.4561 -1.08203 16.9238 -2.78027
c3.95801 -1.22949 7.80273 -2.9082 11.1963 -5.28613c3.39453 -2.37793 6.1875 -5.5 8.80371 -8.71387l223 -274l-35 -42l-35 -42l-187 231l-187 -231zM392 1194h288v-120h-95v-856h95v-122h-288v122h95v856h-95v120z" />
    <glyph glyph-name="Ocircumflex" unicode="&#xd4;" vert-adv-y="0" 
d="M320 1268l-34 42l222 274c3.01074 3.71582 6.14453 7.39453 9.98926 10.2383c3.84473 2.84277 8.32324 4.81641 13.0107 5.76172c2.66309 0.537109 5.36621 0.780273 8.07617 0.780273c5.71191 0 11.4561 -1.08203 16.9238 -2.78027
c3.95801 -1.22949 7.80273 -2.9082 11.1963 -5.28613c3.39453 -2.37793 6.1875 -5.5 8.80371 -8.71387l223 -274l-35 -42l-35 -42l-187 231l-187 -231zM299 988v-688l63 -80h344l69 86v680l-69 90h-342zM216 1052l91 124c12 16 26 18 36 18h384c16 0 32 -10 36 -18l97 -124
c12 -14 13 -32 13 -42v-730c0 -20 -9 -36 -15 -42l-99 -120c-12 -14 -25 -18 -33 -18h-383c-16 0 -30 10 -34 16l-95 114c-12 14 -15 34 -15 44v738c0 18 11 32 17 40z" />
    <glyph glyph-name="Ucircumflex" unicode="&#xdb;" vert-adv-y="0" 
d="M302 1268l-34 42l222 274c3.01074 3.71582 6.14453 7.39453 9.98926 10.2383c3.84473 2.84277 8.32324 4.81641 13.0107 5.76172c2.66309 0.537109 5.36621 0.780273 8.07617 0.780273c5.71191 0 11.4561 -1.08203 16.9238 -2.78027
c3.95801 -1.22949 7.80273 -2.9082 11.1963 -5.28613c3.39453 -2.37793 6.1875 -5.5 8.80371 -8.71387l223 -274l-35 -42l-35 -42l-187 231l-187 -231zM199 1194h94v-890l69 -84h348l65 86v888h98v-912c0 -8 -1 -26 -13 -40l-94 -122c-6 -8 -20 -20 -36 -20h-388
c-8 0 -23 4 -35 18l-95 118c-4 6 -13 22 -13 42v916z" />
    <glyph glyph-name="Aacute" unicode="&#xc1;" vert-adv-y="0" 
d="M593 1242c-10 12 -15 28 -15 42c0 18 7 34 15 44l194 242c10 12 22 18 34 18c14 0 28 -8 36 -18s15 -26 15 -44c0 -14 -5 -30 -15 -42l-194 -242c-8 -10 -22 -18 -36 -18c-12 0 -24 6 -34 18zM295 488v-390h-96v676c0 18 11 34 15 40l286 362c10 14 22 18 32 18
c16 0 30 -8 38 -18l290 -364c12 -14 13 -32 13 -42v-672h-98v390h-480zM297 600h478v146l-241 300l-237 -298v-148z" />
    <glyph glyph-name="Eacute" unicode="&#xc9;" vert-adv-y="0" 
d="M483 1242c-10 12 -15 28 -15 42c0 18 7 34 15 44l194 242c10 12 22 18 34 18c14 0 28 -8 36 -18s15 -26 15 -44c0 -14 -5 -30 -15 -42l-194 -242c-8 -10 -22 -18 -36 -18c-12 0 -24 6 -34 18zM199 1196h674v-122h-578v-362h385v-122h-385v-372h578v-120h-674v1098z" />
    <glyph glyph-name="Iacute" unicode="&#xcd;" vert-adv-y="0" 
d="M502 1240c-10 12 -15 28 -15 42c0 18 7 34 15 44l194 242c10 12 22 18 34 18c14 0 28 -8 36 -18s15 -26 15 -44c0 -14 -5 -30 -15 -42l-194 -242c-8 -10 -22 -18 -36 -18c-12 0 -24 6 -34 18zM392 1194h288v-120h-95v-856h95v-122h-288v122h95v856h-95v120z" />
    <glyph glyph-name="Oacute" unicode="&#xd3;" vert-adv-y="0" 
d="M517 1240c-10 12 -15 28 -15 42c0 18 7 34 15 44l194 242c10 12 22 18 34 18c14 0 28 -8 36 -18s15 -26 15 -44c0 -14 -5 -30 -15 -42l-194 -242c-8 -10 -22 -18 -36 -18c-12 0 -24 6 -34 18zM299 988v-688l63 -80h344l69 86v680l-69 90h-342zM216 1052l91 124
c12 16 26 18 36 18h384c16 0 32 -10 36 -18l97 -124c12 -14 13 -32 13 -42v-730c0 -20 -9 -36 -15 -42l-99 -120c-12 -14 -25 -18 -33 -18h-383c-16 0 -30 10 -34 16l-95 114c-12 14 -15 34 -15 44v738c0 18 11 32 17 40z" />
    <glyph glyph-name="Uacute" unicode="&#xda;" vert-adv-y="0" 
d="M494 1238c-10 12 -15 28 -15 42c0 18 7 34 15 44l194 242c10 12 22 18 34 18c14 0 28 -8 36 -18s15 -26 15 -44c0 -14 -5 -30 -15 -42l-194 -242c-8 -10 -22 -18 -36 -18c-12 0 -24 6 -34 18zM199 1194h94v-890l69 -84h348l65 86v888h98v-912c0 -8 -1 -26 -13 -40
l-94 -122c-6 -8 -20 -20 -36 -20h-388c-8 0 -23 4 -35 18l-95 118c-4 6 -13 22 -13 42v916z" />
    <glyph glyph-name="Ntilde" unicode="&#xd1;" vert-adv-y="0" 
d="M239 1412l-34 42l97 120c3.13379 3.87695 6.75293 7.38867 11 10c3.81348 2.34473 7.83594 4.35547 12 6c1.74609 0.689453 3.54199 1.27051 5.38965 1.60742c1.84668 0.335938 3.73242 0.392578 5.61035 0.392578h106c4.41309 0 8.87402 -0.432617 13 -2
c4.34375 -1.65039 8.32422 -4.15723 12 -7c3.36523 -2.60254 6.31836 -5.69727 9 -9l177 -218h66l77 96l35 -42l34 -42l-92 -114c-2.67285 -3.3125 -5.58691 -6.45703 -9 -9c-3.95996 -2.95117 -8.34961 -5.33691 -13 -7c-4.15332 -1.48535 -8.58887 -2 -13 -2h-105
c-4.08496 0 -8.20215 0.496094 -12 2c-3.88965 1.54004 -7.50684 3.69824 -11 6c-2.0791 1.37012 -4.10254 2.83594 -5.95117 4.50391c-1.84961 1.66895 -3.47949 3.5625 -5.04883 5.49609l-177 218h-65l-83 -102zM199 100v1094h96l482 -610v610h96v-1094h-96v300l-482 616
v-916h-96z" />
    <glyph glyph-name="a" unicode="a" vert-adv-y="0" 
d="M686 216v252h-326l-70 -88v-74l68 -90h328zM783 216h99v-116h-545c-16 0 -30 12 -34 18l-93 124c-12 14 -16 34 -16 42v120c0 20 12 36 16 42l95 122c12 14 26 16 34 16h347v166l-67 84h-330v118h350c16 0 29 -12 33 -18l96 -120c12 -14 15 -30 15 -40v-558z" />
    <glyph glyph-name="b" unicode="b" vert-adv-y="0" 
d="M183 104v1214h97v-368h253c16 0 30 -12 34 -18l193 -242c12 -14 14 -32 14 -42v-246c0 -20 -10 -36 -14 -42l-199 -242c-12 -14 -28 -14 -34 -14h-344zM280 218h227l172 208v198l-165 208h-234v-614z" />
    <glyph glyph-name="c" unicode="c" vert-adv-y="0" 
d="M775 950v-118h-329l-167 -208v-198l172 -208h324v-116h-344c-6 0 -22 2 -34 16l-199 242c-4 6 -15 22 -15 42v246c0 10 3 28 15 42l195 242c4 6 16 18 32 18h350z" />
    <glyph glyph-name="d" unicode="d" vert-adv-y="0" 
d="M775 102h-344c-6 0 -22 2 -34 16l-199 242c-4 6 -15 22 -15 42v246c0 10 3 28 15 42l195 242c4 6 16 18 32 18h253v368h97v-1216zM678 218v614h-232l-167 -208v-198l172 -208h227z" />
    <glyph glyph-name="e" unicode="e" vert-adv-y="0" 
d="M279 462v-158l69 -90h427v-112h-446c-14 0 -29 10 -33 16l-100 120c-12 14 -13 32 -13 42v484c0 20 12 34 16 40l99 126c12 14 28 22 36 22h294c16 0 30 -16 34 -22l95 -124c12 -14 15 -30 15 -40v-304h-493zM280 586h398v156l-70 88h-256l-72 -90v-154z" />
    <glyph glyph-name="f" unicode="f" vert-adv-y="0" 
d="M546 1198l-64 -82v-164h196v-122h-198v-732h-96v732h-201v122h201v188c0 16 3 30 13 42l93 118c10 12 21 18 35 18h250v-120h-229z" />
    <glyph glyph-name="g" unicode="g" vert-adv-y="0" 
d="M728 380l-112 -138c-6 -10 -20 -18 -33 -18h-154c-12 0 -25 6 -35 18l-190 236c-8 8 -16 26 -16 42v134c0 14 6 30 16 42l195 244c6 10 21 16 34 16h245c12 0 24 -4 34 -16l98 -124c8 -8 16 -26 16 -42v-742c0 -14 -6 -30 -16 -42l-90 -112c-6 -10 -21 -18 -34 -18h-261
c-12 0 -24 6 -34 18l-94 116l69 84l79 -98h221l62 76v324zM728 548v202l-70 86h-205l-167 -206v-86l162 -200h115z" />
    <glyph glyph-name="h" unicode="h" vert-adv-y="0" 
d="M183 96v1236h97v-536l117 144c10 10 21 10 34 10h193c13 0 24 -6 34 -16l102 -120c10 -12 15 -26 15 -44v-674h-97v648l-74 88h-153l-171 -202v-534h-97z" />
    <glyph glyph-name="i" unicode="i" vert-adv-y="0" 
d="M486 1318h99v-122h-99v122zM486 952h99v-854h-99v854z" />
    <glyph glyph-name="j" unicode="j" vert-adv-y="0" 
d="M786 34c0 -16 -7 -30 -17 -42l-97 -122c-10 -12 -19 -16 -33 -16h-201c-13 0 -24 6 -34 18l-97 122l67 84l85 -106h160l68 86v894h99v-918zM687 1318h100v-122h-100v122z" />
    <glyph glyph-name="k" unicode="k" vert-adv-y="0" 
d="M501 524l269 -342l-70 -84l-287 368h-129v-368h-101v1220h101v-732h131l292 366l68 -84z" />
    <glyph glyph-name="l" unicode="l" vert-adv-y="0" 
d="M594 246l22 -28h79v-120h-99c-13 0 -24 6 -34 18l-51 62c-10 12 -14 26 -14 42v1098h97v-1072z" />
    <glyph glyph-name="m" unicode="m" vert-adv-y="0" 
d="M587 746v-648h-99v648l-67 84h-58l-72 -86v-646h-97v852h99v-34l15 18c10 12 21 18 34 18h100c14 0 26 -6 36 -18l58 -78l61 76c10 12 22 18 35 18h104c13 0 23 -6 33 -18l97 -118c10 -12 14 -26 14 -42v-674h-97v650l-67 82h-63z" />
    <glyph glyph-name="n" unicode="n" vert-adv-y="0" 
d="M358 884l39 48c4 6 18 18 34 18h201c8 0 20 -2 32 -16l96 -116c4 -6 15 -22 15 -42v-674h-93v650l-69 78h-162l-68 -84v-646h-97v670c0 6 2 14 6 24l-29 40h-80v118h103c16 0 26 -10 30 -18z" />
    <glyph glyph-name="o" unicode="o" vert-adv-y="0" 
d="M280 748v-444l70 -84h263l65 84v444l-64 88h-264zM199 814l99 126c12 14 26 14 32 14h306c16 0 29 -12 35 -20l91 -126c10 -12 13 -28 13 -38v-490c0 -20 -11 -36 -15 -42l-94 -118c-9 -13 -21 -14 -29 -14h-5h-302c-14 0 -26 8 -32 14l-100 116c-13 14 -15 32 -15 44
v494c0 20 12 34 16 40z" />
    <glyph glyph-name="p" unicode="p" vert-adv-y="0" 
d="M183 956h356c10 0 16 0 22 -8l199 -236c4 -6 14 -22 14 -42v-268c0 -10 -2 -28 -14 -42l-195 -242c-4 -6 -16 -18 -32 -18h-253v-368h-97v1224zM280 830v-612h232l167 208v220l-157 184h-242z" />
    <glyph glyph-name="q" unicode="q" vert-adv-y="0" 
d="M783 948v-1078h99v-124h-198v362h-248c-16 0 -28 12 -32 18l-194 242c-12 14 -16 32 -16 42v238c0 20 12 36 16 42l198 242c12 14 29 16 35 16h340zM684 832h-222l-172 -208v-190l167 -208h227v606z" />
    <glyph glyph-name="r" unicode="r" vert-adv-y="0" 
d="M360 626v-526h-96v668c0 18 -4 30 -14 44c-12 12 -21 18 -37 18h-30v122h80c28 0 97 -58 97 -122v-38l112 140c10 12 21 20 34 20h118c14 0 26 -6 34 -18l102 -122c10 -12 15 -26 15 -44v-60h-97v36l-74 86h-77z" />
    <glyph glyph-name="s" unicode="s" vert-adv-y="0" 
d="M672 744l-71 88h-249l-47 -60l452 -442c12 -12 18 -26 18 -44s-5 -34 -15 -46l-102 -124c-10 -12 -21 -18 -34 -18h-292c-13 0 -24 6 -34 18l-100 120c-10 12 -15 26 -15 44v56h97v-30l72 -88h252l49 60l-450 440c-12 10 -16 26 -18 44v7c0 15 5 29 13 39l97 126
c10 12 21 18 35 18h290c13 0 24 -6 34 -18l101 -122c10 -12 15 -26 15 -42v-64h-98v38z" />
    <glyph glyph-name="t" unicode="t" vert-adv-y="0" 
d="M583 246l20 -28h80v-120h-99c-13 0 -24 6 -34 18l-50 62c-10 12 -15 26 -15 42v610h-199v122h199v366h98v-366h199v-122h-199v-584z" />
    <glyph glyph-name="u" unicode="u" vert-adv-y="0" 
d="M706 168l-38 -48c-4 -6 -18 -18 -34 -18h-295c-8 0 -20 2 -32 16l-97 116c-4 6 -14 22 -14 42v676h95v-652l67 -82h257l67 88v646h97v-670c0 -6 -2 -14 -6 -24l30 -40h79v-116h-99c-16 0 -30 8 -34 16z" />
    <glyph glyph-name="v" unicode="v" vert-adv-y="0" 
d="M291 782l245 -508l249 514v162h97v-178c0 -12 -3 -20 -7 -30l-297 -616c-10 -20 -24 -30 -42 -30s-32 10 -42 30l-293 610c-4 10 -7 18 -7 30v184h97v-168z" />
    <glyph glyph-name="w" unicode="w" vert-adv-y="0" 
d="M588 422l141 -178l56 64v644h97v-670c0 -18 -6 -32 -16 -44l-103 -122c-10 -10 -22 -16 -34 -16s-23 6 -33 18l-158 198l-162 -204c-10 -12 -21 -20 -34 -20s-24 8 -34 20l-98 124c-10 12 -16 26 -16 42v674h97v-650l51 -62l147 182v164h99v-164z" />
    <glyph glyph-name="x" unicode="x" vert-adv-y="0" 
d="M536 440l-249 -306v-38h-97v64c0 16 2 30 12 42l265 322l-265 324c-10 12 -12 28 -12 44v60h97v-40l249 -302l249 302v40h97v-60c0 -16 -4 -32 -14 -44l-264 -322l264 -324c10 -12 14 -26 14 -42v-64h-97v38z" />
    <glyph glyph-name="y" unicode="y" vert-adv-y="0" 
d="M458 156l-260 326c-10 12 -15 26 -15 42v428h97v-404l248 -306l148 182v528h97v-552c0 -16 -5 -30 -15 -42l-497 -614l-68 84z" />
    <glyph glyph-name="z" unicode="z" vert-adv-y="0" 
d="M194 952h688l-488 -734h488v-120h-688l490 732h-490v122z" />
    <glyph glyph-name="ae" unicode="&#xe6;" vert-adv-y="0" 
d="M488 588h-29l-172 -208v-78l71 -84h60l70 88v282zM488 708v36l-72 86h-226v120h245c16 0 31 -10 35 -16l64 -78l65 78c4 6 18 16 34 16h104c6 0 22 -2 34 -16l99 -120c6 -8 14 -24 14 -44v-308h-299v-158l70 -86h225v-120h-247c-8 0 -22 4 -34 18l-63 80l-63 -80
c-12 -16 -26 -18 -34 -18h-101c-16 0 -29 10 -33 16l-101 120c-12 14 -14 34 -14 44v128c0 20 10 36 14 42l201 242c12 14 26 18 34 18h49zM585 588h202v158l-71 84h-63l-68 -80v-162z" />
    <glyph glyph-name="oslash" unicode="&#xf8;" vert-adv-y="0" 
d="M666 770l-49 62h-160l-71 -86v-326zM684 622l-276 -340l45 -62h164l67 84v318zM783 742v-462c0 -16 -7 -30 -17 -42l-95 -120c-10 -12 -20 -14 -34 -14h-203c-13 0 -24 6 -34 18l-62 74l-66 -82l-68 84l85 104v468c0 16 4 30 14 42l99 122c10 12 20 20 33 20h204
c14 0 25 -2 35 -14l62 -86l66 86l68 -88z" />
    <glyph glyph-name="aring" unicode="&#xe5;" vert-adv-y="0" 
d="M510 1558c107 0 191 -110 191 -242s-84 -242 -191 -242s-191 110 -191 242s84 242 191 242zM411 1316c0 -72 46 -128 99 -128s99 56 99 128s-46 130 -99 130s-99 -58 -99 -130zM686 216v252h-326l-70 -88v-74l68 -90h328zM783 216h99v-116h-545c-16 0 -30 12 -34 18
l-93 124c-12 14 -16 34 -16 42v120c0 20 12 36 16 42l95 122c12 14 26 16 34 16h347v166l-67 84h-330v118h350c16 0 29 -12 33 -18l96 -120c12 -14 15 -30 15 -40v-558z" />
    <glyph glyph-name="uni0247" unicode="&#x247;" vert-adv-y="0" 
d="M238 100c-29 0 -51 34 -51 69c0 20 5 31 13 41l44 56c-0.333333 0.666667 -0.444444 1.33333 -0.444444 1.96296c0 1.25926 0.444444 2.37037 0.444444 3.03704v9v472c0 20 13 34 17 40l99 126c12 14 27 22 35 22h240c16 0 30 -16 34 -22l47 -62l67 84c9 11 16 20 35 20
c28 0 50 -27 50 -61c0 -19 -6 -35 -14 -45l-75 -94v-298h-237l-163 -208l31 -40h373v-112h-393c-14 0 -28 10 -32 16l-45 54l-40 -50c-9 -11 -16 -22 -35 -22zM340 384l62 78h-62v-78zM500 586l149 188l-34 44h-202l-71 -90v-142h158zM641 586h44v56z" />
    <glyph glyph-name="fm" vert-adv-y="0" 
d="M189 1318h692v-244h-692v244zM486 952h198v-244h-198v244zM486 462h198c-37 -304 -155 -442 -396 -488z" />
    <glyph glyph-name="dup" vert-adv-y="0" 
d="M486 466h99v-368h-99v368zM486 954h99v-368h-99v368zM800 814l70 -84l-161 -200l163 -208l-69 -84l-231 292zM271 814l229 -284l-231 -292l-69 84l164 208l-160 200zM189 1318h692v-244h-692v244z" />
    <glyph glyph-name="A" unicode="A" vert-adv-y="0" 
d="M295 488v-390h-96v676c0 18 11 34 15 40l286 362c10 14 22 18 32 18c16 0 30 -8 38 -18l290 -364c12 -14 13 -32 13 -42v-672h-98v390h-480zM297 600h478v146l-241 300l-237 -298v-148z" />
    <glyph glyph-name="B" unicode="B" vert-adv-y="0" 
d="M295 218v858h-96v118h431c16 0 30 -10 36 -16l194 -250c10 -12 13 -26 13 -40c0 -20 -7 -36 -15 -46l-164 -194l164 -198c10 -12 15 -28 15 -40c0 -18 -7 -34 -15 -44l-197 -250c-12 -14 -26 -18 -34 -18h-428v120h96zM607 586h-215v-368h213l151 188zM605 708l151 180
l-147 188h-217v-368h213z" />
    <glyph glyph-name="C" unicode="C" vert-adv-y="0" 
d="M873 1058l-68 -84l-86 102h-157l-265 -328v-202l267 -328h154l84 110l71 -84l-99 -128c-6 -8 -20 -18 -36 -18h-194c-8 0 -22 6 -34 20l-296 360c-4 6 -15 22 -15 42v252c0 10 1 28 13 42l296 364c4 6 18 16 34 16h196c8 0 23 0 35 -14z" />
    <glyph glyph-name="D" unicode="D" vert-adv-y="0" 
d="M392 220h217l166 206v440l-166 210h-217v-856zM295 1076h-96v118h431c16 0 30 -12 34 -18l194 -244c12 -14 15 -32 15 -42v-488c0 -20 -11 -38 -15 -44l-196 -240c-12 -14 -25 -20 -33 -20h-430v120h96v858z" />
    <glyph glyph-name="E" unicode="E" vert-adv-y="0" 
d="M199 1196h674v-122h-578v-362h385v-122h-385v-372h578v-120h-674v1098z" />
    <glyph glyph-name="F" unicode="F" vert-adv-y="0" 
d="M199 1194h674v-120h-578v-362h482v-112h-482v-502h-96v1096z" />
    <glyph glyph-name="G" unicode="G" vert-adv-y="0" 
d="M487 600h386v-112h-96v-386h-335c-8 0 -22 2 -34 16l-194 238c-4 6 -15 22 -15 42v496c0 10 1 32 13 46l194 238c4 8 19 16 35 16h194c8 0 23 -2 35 -16l122 -152l-70 -84l-107 134h-154l-164 -206v-446l164 -202h221v266h-195v112z" />
    <glyph glyph-name="H" unicode="H" vert-adv-y="0" 
d="M199 1194h96v-482h482v482h96v-1094h-96v500h-482v-500h-96v1094z" />
    <glyph glyph-name="I" unicode="I" vert-adv-y="0" 
d="M392 1194h288v-120h-95v-856h95v-122h-288v122h95v856h-95v120z" />
    <glyph glyph-name="J" unicode="J" vert-adv-y="0" 
d="M188 464h95v-162l72 -82h150l68 86v768h-97v120h290v-120h-97v-792c0 -8 -1 -28 -13 -42l-95 -122c-6 -8 -20 -18 -36 -18h-191c-6 0 -22 2 -34 16l-98 116c-4 6 -14 22 -14 42v190z" />
    <glyph glyph-name="K" unicode="K" vert-adv-y="0" 
d="M301 376v-278h-102v1096h102v-646l474 608v38h97v-62c0 -16 -6 -30 -16 -42l-348 -444l350 -444c10 -12 15 -26 15 -42v-62h-98v38l-334 426z" />
    <glyph glyph-name="L" unicode="L" vert-adv-y="0" 
d="M199 1194h96v-976h578v-120h-674v1096z" />
    <glyph glyph-name="M" unicode="M" vert-adv-y="0" 
d="M585 740v-152h-99v152l-189 248v-888h-98v1032c0 26 11 46 31 56c6 4 12 6 18 6c12 0 23 -8 33 -20l251 -322l259 326c10 12 21 16 33 16c4 0 9 2 13 2c2 0 2 -1 5 -2c20 -10 31 -32 31 -58v-1036h-98v892z" />
    <glyph glyph-name="N" unicode="N" vert-adv-y="0" 
d="M199 100v1094h96l482 -610v610h96v-1094h-96v300l-482 616v-916h-96z" />
    <glyph glyph-name="O" unicode="O" vert-adv-y="0" 
d="M299 988v-688l63 -80h344l69 86v680l-69 90h-342zM216 1052l91 124c12 16 26 18 36 18h384c16 0 32 -10 36 -18l97 -124c12 -14 13 -32 13 -42v-730c0 -20 -9 -36 -15 -42l-99 -120c-12 -14 -25 -18 -33 -18h-383c-16 0 -30 10 -34 16l-95 114c-12 14 -15 34 -15 44v738
c0 18 11 32 17 40z" />
    <glyph glyph-name="P" unicode="P" vert-adv-y="0" 
d="M295 586h314l168 210v78l-166 200h-316v-488zM295 462v-366h-96v1098h431c13 0 24 -4 34 -16l194 -238c10 -12 15 -24 15 -40v-128c0 -16 -3 -30 -13 -42l-196 -246c-10 -12 -21 -22 -34 -22h-335z" />
    <glyph glyph-name="Q" unicode="Q" vert-adv-y="0" 
d="M702 166l164 -218l-71 -80l-174 236h-178c-13 0 -23 6 -33 18l-196 238c-10 12 -15 26 -15 42v494c0 16 5 32 15 44l194 238c10 12 21 16 34 16h191c13 0 24 -4 34 -16l191 -244c10 -12 15 -26 15 -42v-492c0 -18 -5 -30 -15 -42zM633 248l142 178v442l-163 208h-149
l-166 -204v-444l166 -204h69l-41 80c-4 10 -7 18 -7 30v130h97v-114z" />
    <glyph glyph-name="R" unicode="R" vert-adv-y="0" 
d="M552 588l306 -382c10 -12 15 -26 15 -42v-64h-96v28l-364 460h-118v-488h-96v1094h527c13 0 23 -6 33 -18l99 -120c10 -12 15 -26 15 -42v-246c0 -16 -5 -30 -15 -42l-95 -120c-10 -12 -21 -18 -34 -18h-177zM295 708h413l67 84v196l-69 86h-411v-366z" />
    <glyph glyph-name="S" unicode="S" vert-adv-y="0" 
d="M773 996l-62 80h-341l-69 -86v-64l547 -476c14 -12 22 -30 22 -50v-118c0 -16 -6 -28 -14 -40l-91 -124c-10 -12 -22 -22 -36 -22h-383c-13 0 -23 6 -33 18l-99 122c-10 12 -15 26 -15 42v62h98v-38l69 -84h342l65 88v62l-548 476c-14 12 -21 30 -21 50v120
c0 16 4 30 14 42l99 122c10 12 22 16 35 16h378c13 0 25 -4 35 -16l93 -116c10 -12 15 -26 15 -42v-64h-100v40z" />
    <glyph glyph-name="T" unicode="T" vert-adv-y="0" 
d="M199 1194h674v-120h-288v-976h-98v976h-288v120z" />
    <glyph glyph-name="U" unicode="U" vert-adv-y="0" 
d="M199 1194h94v-890l69 -84h348l65 86v888h98v-912c0 -8 -1 -26 -13 -40l-94 -122c-6 -8 -20 -20 -36 -20h-388c-8 0 -23 4 -35 18l-95 118c-4 6 -13 22 -13 42v916z" />
    <glyph glyph-name="V" unicode="V" vert-adv-y="0" 
d="M296 1026l234 -716l245 714v170h97v-182c0 -8 0 -16 -2 -24l-294 -856c-8 -22 -25 -36 -46 -36s-36 14 -44 36l-287 858c-1 3 -1 5 -1 7c0 5 1 10 1 15v182h97v-168z" />
    <glyph glyph-name="W" unicode="W" vert-adv-y="0" 
d="M532 314l-154 -200c-10 -12 -21 -18 -33 -18c-13 0 -24 6 -34 18l-97 120c-10 12 -15 26 -15 42v918h96v-894l50 -58l141 184v278h97v-282l143 -180l49 60v892h98v-918c0 -18 -5 -32 -15 -44l-99 -118c-10 -10 -20 -18 -33 -18c-12 0 -24 8 -34 20z" />
    <glyph glyph-name="X" unicode="X" vert-adv-y="0" 
d="M532 562l-234 -306v-154h-97v178c0 16 5 30 15 42l249 324l-249 330c-10 12 -15 26 -15 42v178h97v-154l236 -310l242 308v154h97v-178c0 -16 -5 -30 -15 -42l-255 -326l255 -328c10 -12 15 -26 15 -42v-178h-97v154z" />
    <glyph glyph-name="Y" unicode="Y" vert-adv-y="0" 
d="M585 742v-642h-99v642l-272 348c-10 12 -15 26 -15 42v62h98v-38l241 -304l237 304v38h98v-58c0 -16 -3 -32 -13 -44z" />
    <glyph glyph-name="Z" unicode="Z" vert-adv-y="0" 
d="M872 1012c0 -16 -6 -30 -16 -42l-559 -712v-38h576v-122h-674v184c0 16 5 30 15 42l560 712v38h-575v120h673v-182z" />
    <glyph glyph-name="AE" unicode="&#xc6;" vert-adv-y="0" 
d="M584 1074l-297 -326v-162h297v488zM188 98v414v244c0 56 22 84 54 120l237 264c26 28 43 44 65 54h336v-120h-197v-366h197v-122h-197v-368h197v-120h-296v364h-297v-364h-99z" />
    <glyph glyph-name="Oslash" unicode="&#xd8;" vert-adv-y="0" 
d="M784 864l-479 -584l49 -60h360l70 86v558zM763 1012l-49 64h-358l-65 -88v-554zM208 1052l91 124c12 16 26 18 36 18h400c16 0 32 -10 36 -18l97 -124c12 -14 13 -32 13 -42v-730c0 -20 -9 -36 -15 -42l-99 -120c-12 -14 -25 -18 -33 -18h-399c-16 0 -30 10 -34 16
l-95 114c-12 14 -15 34 -15 44v738c0 18 11 32 17 40z" />
    <glyph glyph-name="Aring" unicode="&#xc5;" vert-adv-y="0" 
d="M289 296v-198h-95v508c0 18 10 34 14 40l292 362c10 14 22 18 32 18c16 0 30 -8 38 -18l296 -364c12 -14 14 -32 14 -42v-504h-97l1 198h-495zM291 418h492v160l-249 304l-243 -302v-162zM516 1598c107 0 191 -110 191 -242s-84 -242 -191 -242s-191 110 -191 242
s84 242 191 242zM417 1356c0 -72 46 -128 99 -128s99 56 99 128s-46 130 -99 130s-99 -58 -99 -130z" />
    <glyph glyph-name="Ccedilla" unicode="&#xc7;" vert-adv-y="0" 
d="M873 1058l-68 -84l-86 102h-157l-265 -328v-202l267 -328h154l84 110l71 -84l-99 -128c-6 -8 -20 -18 -36 -18h-84v-308.87c0 -15.4844 -6 -31.9365 -14 -40.6465l-91 -108.39c-9 -11.6133 -23 -17.4199 -34 -17.4199h-147v116.132h127l62 74.5186v284.676h-13
c-8 0 -22 6 -34 20l-296 360c-4 6 -15 22 -15 42v252c0 10 1 28 13 42l296 364c4 6 18 16 34 16h196c8 0 23 0 35 -14z" />
    <glyph glyph-name="semicolon" unicode=";" vert-adv-y="0" 
d="M478 822h193v-222h-193v222zM669 378v-214l-29 -84l-219 -272l-136 168l191 238v164h193z" />
    <glyph glyph-name="asterisk" unicode="*" vert-adv-y="0" 
d="M486 708h99v-368h-99v368zM486 1196h99v-368h-99v368zM801 1056l69 -84l-160 -200l163 -208l-70 -84l-231 292zM272 1056l228 -284l-231 -292l-68 84l163 208l-160 200z" />
    <glyph glyph-name="c0" vert-adv-y="0" 
 />
    <glyph glyph-name="c1" vert-adv-y="0" 
 />
    <glyph glyph-name="c2" vert-adv-y="0" 
 />
    <glyph glyph-name="c3" vert-adv-y="0" 
 />
    <glyph glyph-name="c4" vert-adv-y="0" 
 />
    <glyph glyph-name="c5" vert-adv-y="0" 
 />
    <glyph glyph-name="c6" vert-adv-y="0" 
 />
    <glyph glyph-name="c7" vert-adv-y="0" 
 />
    <glyph glyph-name="c8" vert-adv-y="0" 
 />
    <glyph glyph-name="c9" vert-adv-y="0" 
 />
    <glyph glyph-name="ca" vert-adv-y="0" 
 />
    <glyph glyph-name="cb" vert-adv-y="0" 
 />
    <glyph glyph-name="cc" vert-adv-y="0" 
 />
    <glyph glyph-name="cd" vert-adv-y="0" 
 />
    <glyph glyph-name="ce" vert-adv-y="0" 
 />
    <glyph glyph-name="cf" vert-adv-y="0" 
 />
    <glyph glyph-name="copyright" unicode="&#xa9;" vert-adv-y="0" 
d="M684 950v-120h-130l-68 -86v-196l68 -86h130v-120h-150c-8 0 -23 4 -35 18l-97 122c-4 6 -13 22 -13 42v244c0 10 1 28 13 42l97 122c4 8 19 18 35 18h150zM210 996l146 182c12 14 25 16 33 16h297c16 0 31 -8 35 -16l145 -184c12 -14 14 -32 14 -42v-610
c0 -20 -10 -38 -14 -44l-145 -180c-12 -14 -27 -18 -35 -18h-297c-16 0 -30 12 -34 18l-145 180c-12 14 -14 34 -14 44v612c0 20 10 36 14 42zM293 928v-564l117 -144h256l117 144v564l-117 148h-254z" />
    <glyph glyph-name="registered" unicode="&#xae;" vert-adv-y="0" 
d="M210 996l146 182c12 14 24 16 32 16h298c16 0 29 -8 35 -16l145 -184c12 -14 14 -32 14 -42v-612c0 -20 -10 -36 -14 -42l-145 -180c-13 -14 -27 -18 -35 -18h-298c-16 0 -29 10 -33 18l-145 180c-12 14 -14 32 -14 42v614c0 20 10 34 14 42zM293 928v-564l117 -144h256
l117 144v564l-117 148h-254zM388 950h197c16 0 30 -10 34 -16l52 -60c12 -14 15 -32 15 -44v-122c0 -20 -9 -36 -15 -44l-44 -52l51 -118c2 -6 4 -16 4 -28v-124h-97v110l-59 134h-41v-246h-97v610zM485 830v-124h81l19 28v70l-19 26h-81z" />
    <glyph glyph-name="boxA" vert-adv-y="0" 
d="M102 462h868v-488h-868v488zM200 342v-244h672v244h-672zM199 586h-97l3 552c0 20 10 36 14 42l198 240c10 12 21 16 31 16c16 0 30 -8 38 -18l195 -242c12 -14 13 -32 13 -42v-548h-97v244h-297zM200 950h297v160l-147 182l-148 -180z" />
    <glyph glyph-name="insert" vert-adv-y="0" 
d="M102 36v368l432 548l436 -554l-1 -362l-435 546z" />
    <glyph glyph-name="boxB" vert-adv-y="0" 
d="M102 462h867v-488h-867v488zM200 342v-244h670v244h-670zM476 1318v120l347 -2c16 0 29 -10 33 -16l99 -122c12 -14 15 -32 15 -42v-120c0 -20 -9 -38 -15 -44l-64 -76l63 -84c12 -14 13 -32 13 -40v-124c0 -20 -9 -36 -13 -42l-98 -120c-12 -14 -25 -18 -33 -18h-347
v120h96v610h-96zM672 708h130l68 84v76l-65 84h-133v-244zM672 1318v-246h127l74 88v72l-70 86h-131z" />
    <glyph glyph-name="box6" vert-adv-y="0" 
d="M388 464h30l82 104c4 6 18 18 34 18h101c8 0 20 -4 32 -18l100 -120c6 -6 16 -24 16 -44v-124c0 -8 -2 -26 -14 -40l-95 -124c-6 -8 -20 -20 -36 -20h-201c-8 0 -22 4 -34 18l-98 122c-4 6 -14 22 -14 42v490c0 10 2 28 14 42l97 124l71 -82l-85 -108v-280zM388 344v-42
l71 -86h158l69 90v74l-73 86h-57l-85 -104c-12 -14 -26 -18 -34 -18h-49zM200 1074v-1100h672v1100h-672zM102 1196h868v-1342h-868v1342z" />
    <glyph glyph-name="plusminus" unicode="&#xb1;" vert-adv-y="0" 
d="M486 1318h99v-366h296v-122h-296v-368h-99v368h-297v122h297v366zM189 342h692v-124h-692v124z" />
    <glyph glyph-name="Eth" unicode="&#xd0;" vert-adv-y="0" 
d="M287 1076h-98v118h447c16 0 30 -10 34 -18l194 -244c12 -14 15 -32 15 -42v-488c0 -20 -9 -36 -15 -44l-196 -240c-12 -14 -25 -20 -33 -20h-446v120h98v378h-97v108h97v372zM386 220h229l167 206v440l-167 210h-229v-372h200v-108h-200v-376z" />
    <glyph glyph-name="rightarrow" vert-adv-y="0" 
d="M587 952l292 -306l-292 -304v244h-494v122h494v244z" />
    <glyph glyph-name="Thorn" unicode="&#xde;" vert-adv-y="0" 
d="M190 1194h95v-180h350c16 0 30 -12 34 -18l197 -242c12 -14 14 -34 14 -44v-124c0 -20 -10 -36 -14 -42l-197 -244c-12 -14 -26 -18 -34 -18h-350v-182h-95v1094zM285 894v-492h328l169 210v74l-167 208h-330z" />
    <glyph glyph-name="upshift" vert-adv-y="0" 
d="M382 -22v652h-252l402 644l400 -644h-250v-652h-300zM480 98h105v652h151l-204 328l-204 -328h152v-652z" />
    <glyph glyph-name="human" vert-adv-y="0" 
d="M270 114l-62 94l277 282v218h-296v122h296v132c-60 26 -97 98 -97 174c0 106 71 188 148 188c87 0 147 -92 147 -188c0 -84 -43 -150 -100 -174l2 -132h296v-122h-296v-218l279 -288l-61 -92l-269 276zM485 1136c0 -36 23 -64 51 -64c24 0 50 24 50 64
c0 36 -22 68 -50 68c-24 0 -51 -28 -51 -68z" />
    <glyph glyph-name="underB" vert-adv-y="0" 
d="M291 1318v120h347c16 0 32 -12 36 -18l99 -120c12 -14 12 -34 12 -44v-120c0 -20 -8 -38 -14 -44l-63 -76l63 -84c12 -14 12 -32 12 -40v-124c0 -20 -10 -36 -14 -42l-95 -120c-12 -14 -28 -18 -36 -18h-347v120h97v610h-97zM487 708h132l67 86v74l-64 86h-135v-246z
M487 1318v-246h128l73 88v72l-69 86h-132zM102 462h868v-120h-868v120z" />
    <glyph glyph-name="downshift" vert-adv-y="0" 
d="M387 1316h301v-652h249l-401 -644l-401 644h252v652zM484 1196v-652h-152l204 -328l204 328h-149v652h-107z" />
    <glyph glyph-name="boxquestion" vert-adv-y="0" 
d="M394 830h-97v184c0 20 8 36 14 42l100 122c12 14 26 18 34 18h201c16 0 28 -12 34 -20l97 -124c12 -14 15 -30 15 -40v-240c0 -20 -11 -36 -15 -42l-184 -228v-158h-97v182c0 10 2 28 14 42l184 230v188l-69 90h-160l-71 -88v-158zM494 218h99v-120h-99v120zM200 1318
v-1344h672v1344h-672zM102 1440h868v-1586h-868v1586z" />
    <glyph glyph-name="boxsolid" vert-adv-y="0" 
d="M102 1440h868v-1586h-868v1586z" />
    <glyph glyph-name="e0" vert-adv-y="0" 
 />
    <glyph glyph-name="e1" vert-adv-y="0" 
 />
    <glyph glyph-name="e2" vert-adv-y="0" 
 />
    <glyph glyph-name="e3" vert-adv-y="0" 
 />
    <glyph glyph-name="e4" vert-adv-y="0" 
 />
    <glyph glyph-name="e5" vert-adv-y="0" 
 />
    <glyph glyph-name="e6" vert-adv-y="0" 
 />
    <glyph glyph-name="e7" vert-adv-y="0" 
 />
    <glyph glyph-name="e8" vert-adv-y="0" 
 />
    <glyph glyph-name="e9" vert-adv-y="0" 
 />
    <glyph glyph-name="ea" vert-adv-y="0" 
 />
    <glyph glyph-name="eb" vert-adv-y="0" 
 />
    <glyph glyph-name="ec" vert-adv-y="0" 
 />
    <glyph glyph-name="ed" vert-adv-y="0" 
 />
    <glyph glyph-name="ee" vert-adv-y="0" 
 />
    <glyph glyph-name="badcommhi" vert-adv-y="0" 
d="M102 1378l544 -668h323v-122l-234 -2l234 -280l1 -366l-520 646h-348v124h241l-241 304v364z" />
    <glyph glyph-name="commhi" vert-adv-y="0" 
d="M102 704h868v-118h-868v118z" />
    <glyph glyph-name="commjag" vert-adv-y="0" 
d="M102 590v120h661l-393 -492h600v-120h-833l393 492h-428z" />
    <glyph glyph-name="commlo" vert-adv-y="0" 
d="M102 220h868v-124h-868v124z" />
    <glyph glyph-name="clockleft" vert-adv-y="0" 
d="M798 1254c0 36 24 66 53 66s54 -30 54 -66s-25 -66 -54 -66s-53 30 -53 66zM507 1134c0 36 24 66 53 66s54 -30 54 -66s-25 -66 -54 -66s-53 30 -53 66zM307 894c0 36 25 66 54 66s53 -30 53 -66s-24 -66 -53 -66s-54 30 -54 66zM207 524c0 38 24 68 55 68
c29 0 52 -30 52 -68c0 -36 -23 -64 -52 -64c-31 0 -55 28 -55 64zM307 160c0 36 25 64 54 64s53 -28 53 -64c0 -38 -24 -68 -53 -68s-54 30 -54 68zM505 -84c0 36 23 66 52 66c31 0 55 -30 55 -66s-24 -66 -55 -66c-29 0 -52 30 -52 66zM800 -208c0 38 24 68 55 68
c29 0 51 -30 51 -68c0 -36 -22 -64 -51 -64c-31 0 -55 28 -55 64zM981 770v-170l-77 -100v-492h-98v516c0 10 1 28 13 44z" />
    <glyph glyph-name="clockright" vert-adv-y="0" 
d="M264 1254c0 36 25 66 54 66s54 -30 54 -66s-25 -66 -54 -66s-54 30 -54 66zM463 1016c0 36 25 68 54 68s53 -32 53 -68s-24 -64 -53 -64s-54 28 -54 64zM559 648c0 36 23 66 52 66s55 -30 55 -66s-26 -66 -55 -66s-52 30 -52 66zM462 282c0 36 23 66 52 66s55 -30 55 -66
s-26 -66 -55 -66s-52 30 -52 66zM267 40c0 36 23 64 52 64s55 -28 55 -64s-26 -68 -55 -68s-52 32 -52 68zM293 1074l69 -84l-292 -368v172z" />
    <glyph glyph-name="lock" vert-adv-y="0" 
d="M977 1494v-548l-188 -234l188 -233v-551l-409 510l-465 -580v548l243 306l-243 302v546l465 -574z" />
    <glyph glyph-name="eth" unicode="&#xf0;" vert-adv-y="0" 
 />
    <glyph glyph-name="leftarrow" vert-adv-y="0" 
d="M483 952v-244h494v-122h-494v-244l-292 304z" />
    <glyph glyph-name="thorn" unicode="&#xfe;" vert-adv-y="0" 
d="M190 1318h100v-370h250c16 0 31 -12 35 -18l195 -242c12 -14 14 -32 14 -42v-244c0 -20 -10 -36 -14 -42l-198 -246c-12 -14 -26 -18 -34 -18h-248v-364h-100v1586zM290 828v-612h228l169 210v196l-167 206h-230z" />
    <glyph glyph-name="keyleft" vert-adv-y="0" 
d="M518 776c0 -110 71 -204 165 -204c89 0 165 88 165 204c0 110 -71 204 -165 204c-89 0 -165 -88 -165 -204zM420 776c0 184 122 324 263 324c133 0 238 -120 259 -270h62v-122h-65c-26 -150 -133 -256 -256 -256c-149 0 -263 150 -263 324z" />
    <glyph glyph-name="keyright" vert-adv-y="0" 
d="M102 830h868v-488h-197v368h-99v-246h-296v244h-276v122z" />
    <glyph glyph-name="box4" vert-adv-y="0" 
d="M686 462h98v-120h-98v-244h-97v244h-249c-18 0 -49 18 -49 60v120c0 10 3 28 15 44l297 368c2 0 14 16 35 16c18 0 48 -16 48 -60v-428zM589 462v284l-201 -248v-36h201zM198 1076v-1102h676v1102h-676zM102 1192h868v-1340h-868v1340z" />
    <glyph glyph-name="underA" vert-adv-y="0" 
d="M102 460h868v-116h-868v116zM396 592l-97 2l4 552c0 20 10 34 14 42l198 238c10 12 21 16 33 16c14 0 27 -6 35 -16l196 -242c12 -16 13 -34 13 -44v-548h-98v244h-296zM398 956h296v160l-146 182l-148 -178z" />
    <glyph glyph-name="magcard" vert-adv-y="0" 
d="M199 464v-116h681v116h-681zM199 948v-360h674v360h-674zM102 1076h868v-860h-868v860z" />
    <glyph glyph-name="boxhuman" vert-adv-y="0" 
d="M487 1016c0 -36 23 -64 51 -64c24 0 50 24 50 64c0 36 -22 68 -50 68c-24 0 -51 -28 -51 -68zM102 1440h868v-1580h-868v1580zM876 54v534h-290v-218zM876 710v610h-674v-610h285v132c-60 26 -97 98 -97 174c0 106 71 188 148 188c87 0 147 -92 147 -188
c0 -84 -43 -150 -100 -174l1 -132h290zM261 -32h547l-272 298zM202 588v-524l285 306v218h-285z" />
    <glyph glyph-name="apl_space" vert-adv-y="0" 
 />
    <glyph glyph-name="apl_bracketright" vert-adv-y="0" 
d="M402 1318h296v-1344h-296v124h197v1098h-197v122z" />
    <glyph glyph-name="apl_bracketleft" vert-adv-y="0" 
d="M402 1318h296v-122h-198v-1098h198v-124h-296v1344z" />
    <glyph glyph-name="apl_stile" vert-adv-y="0" 
d="M500 1600h99v-2000h-99v2000z" />
    <glyph glyph-name="apl_2vertical" vert-adv-y="0" 
d="M746 1602h100v-2000h-100v2000zM254 1602h97v-2000h-97v2000z" />
    <glyph glyph-name="apl_2horizontal" vert-adv-y="0" 
d="M102 -86h868v-122h-868v122zM102 1378h868v-120h-868v120z" />
    <glyph glyph-name="apl_leftvbar" vert-adv-y="0" 
d="M195 1602h98v-2000h-98v2000z" />
    <glyph glyph-name="apl_rightvbar" vert-adv-y="0" 
d="M804 1602h100v-2000h-100v2000z" />
    <glyph glyph-name="apl_midvbar" vert-adv-y="0" 
d="M500 1602h99v-1624h-99v1624z" />
    <glyph glyph-name="apl_leftsolid" vert-adv-y="0" 
d="M51 1600h438v-2000h-438v2000z" />
    <glyph glyph-name="apl_rightsolid" vert-adv-y="0" 
d="M591 1600h438v-2000h-438v2000z" />
    <glyph glyph-name="apl_topsolid" vert-adv-y="0" 
d="M103 1600h874v-1000h-874v1000z" />
    <glyph glyph-name="apl_bottomsolid" vert-adv-y="0" 
d="M103 600h874v-1000h-874v1000z" />
    <glyph glyph-name="apl_solid" vert-adv-y="0" 
d="M103 1600h874v-2000h-874v2000z" />
    <glyph glyph-name="apl_midhbar" vert-adv-y="0" 
d="M102 708h866v-122h-866v122z" />
    <glyph glyph-name="apl_lowerleft" vert-adv-y="0" 
d="M539 1560h98v-768l70 -84h308v-120h-330c-12 0 -23 6 -33 18l-97 120c-8 10 -16 26 -16 42v792z" />
    <glyph glyph-name="apl_upperleft" vert-adv-y="0" 
d="M539 -264v792c0 16 8 32 16 42l97 120c10 12 21 18 33 18h330v-120h-308l-70 -84v-768h-98z" />
    <glyph glyph-name="apl_leftjoin" vert-adv-y="0" 
d="M543 1602h99v-894h373v-122h-373v-984h-99v2000z" />
    <glyph glyph-name="apl_bottomjoin" vert-adv-y="0" 
d="M497 1602h98v-894h372v-122h-866v122h396v894z" />
    <glyph glyph-name="apl_intersect" vert-adv-y="0" 
d="M497 1602h99v-894h372v-122h-372v-982h-99v982h-395v122h395v894z" />
    <glyph glyph-name="apl_lowerright" vert-adv-y="0" 
d="M549 1560v-792c0 -16 -8 -32 -16 -42l-97 -120c-10 -12 -21 -18 -33 -18h-330v120h308l70 84v768h98z" />
    <glyph glyph-name="apl_upperright" vert-adv-y="0" 
d="M344 -268h-98v768l-70 84h-308v120h330c12 0 23 -6 33 -18l97 -120c8 -10 16 -26 16 -42v-792z" />
    <glyph glyph-name="apl_rightjoin" vert-adv-y="0" 
d="M454 1602h99v-2000h-99v984h-396v122h396v894z" />
    <glyph glyph-name="apl_topjoin" vert-adv-y="0" 
d="M102 708h866v-122h-372v-982h-99v982h-395v122z" />
    <glyph glyph-name="dec_solid" vert-adv-y="0" 
d="M350 1602h396v-2000h-396v2000z" />
    <glyph glyph-name="dec_filled_circle" vert-adv-y="0" 
d="M368 646c0 134 83 240 184 240c102 0 185 -106 185 -240c0 -132 -83 -240 -185 -240c-101 0 -184 108 -184 240z" />
    <glyph glyph-name="dec_halftone_block" vert-adv-y="0" 
 />
    <glyph glyph-name="dec_ht" vert-adv-y="0" 
d="M248 1378h97v-244h100v244h97v-608h-97v244h-100v-244h-97v608zM494 646h298v-122h-100v-486h-99v486l-99 2v120z" />
    <glyph glyph-name="dec_ff" vert-adv-y="0" 
d="M494 652h295v-120h-198v-124h149v-122h-149v-242h-97v608zM247 1378h295v-120h-198v-124h150v-122h-150v-242h-97v608z" />
    <glyph glyph-name="dec_cr" vert-adv-y="0" 
d="M542 1196h-97v38l-20 22h-67l-14 -16v-324l16 -24h69l14 20v40h97v-62c0 -10 -2 -26 -12 -40l-42 -58c-6 -8 -18 -20 -36 -20h-110c-10 0 -24 4 -36 20l-43 60c-6 8 -14 22 -14 40v372c0 10 3 28 15 42l42 52c4 6 18 18 34 18h107c6 0 21 -2 33 -16l48 -56
c6 -8 16 -24 16 -46v-62zM496 36v608h198c16 0 29 -10 35 -18l46 -60c12 -14 14 -34 14 -42v-62c0 -20 -10 -36 -14 -42l-73 -92l82 -202c4 -10 5 -20 5 -26v-64h-97v50l-79 198h-20v-248h-97zM593 402h32l67 84v16l-18 24l-81 -2v-122z" />
    <glyph glyph-name="dec_lf" vert-adv-y="0" 
d="M494 652h295v-120h-198v-124h149v-122h-149v-242h-97v608zM247 1378h97v-488h198v-120h-295v608z" />
    <glyph glyph-name="dec_degree" vert-adv-y="0" 
d="M377 1074c0 -74 49 -134 107 -134c60 0 111 60 111 134s-51 134 -111 134c-58 0 -107 -60 -107 -134zM296 1074c0 130 84 234 188 234c105 0 192 -104 192 -234c0 -128 -87 -234 -192 -234c-104 0 -188 106 -188 234z" />
    <glyph glyph-name="dec_plusminus" vert-adv-y="0" 
d="M500 1318h99v-366h296v-122h-296v-368h-99v368h-297v122h297v366zM203 342h692v-124h-692v124z" />
    <glyph glyph-name="dec_nl" vert-adv-y="0" 
d="M248 1378h97l149 -304v304h99v-608l-95 2l-153 302v-304h-97v608zM494 646h99v-488h199v-120h-298v608z" />
    <glyph glyph-name="dec_vt" vert-adv-y="0" 
d="M246 1380h97v-346l76 -110l75 110v346h97v-368c0 -10 -2 -24 -12 -38l-124 -182s0.987654 0.790123 1.20713 0.790123c0.0274348 0 0.0428669 -0.0123457 0.0428669 -0.0401235c0 -0.25 -1.25 -1.75 -6.25 -6.75c-8 -8 -20 -16 -33 -16s-25 6 -35 22l-125 182
c-4 6 -11 20 -11 38v368zM494 646h298v-122h-100v-486h-99v486l-99 2v120z" />
    <glyph glyph-name="dec_lowerright" vert-adv-y="0" 
d="M557 1560v-792c0 -16 -8 -32 -16 -42l-97 -120c-10 -12 -21 -18 -33 -18h-330v120h308l70 84v768h98z" />
    <glyph glyph-name="dec_upperright" vert-adv-y="0" 
d="M344 -268h-98v768l-70 84h-308v120h330c12 0 23 -6 33 -18l97 -120c8 -10 16 -26 16 -42v-792z" />
    <glyph glyph-name="dec_upperleft" vert-adv-y="0" 
d="M539 -264v792c0 16 8 32 16 42l97 120c10 12 21 18 33 18h330v-120h-308l-70 -84v-768h-98z" />
    <glyph glyph-name="dec_lowerleft" vert-adv-y="0" 
d="M539 1560h98v-768l70 -84h308v-120h-330c-12 0 -23 6 -33 18l-97 120c-8 10 -16 26 -16 42v792z" />
    <glyph glyph-name="dec_intersect" vert-adv-y="0" 
d="M497 1600h99v-892h374v-122h-374v-986h-99v986h-395v122h395v892z" />
    <glyph glyph-name="dec_hbar1" vert-adv-y="0" 
d="M102 1440h868v-122h-868v122z" />
    <glyph glyph-name="dec_hbar2" vert-adv-y="0" 
d="M102 1074h868v-122h-868v122z" />
    <glyph glyph-name="dec_hbar3" vert-adv-y="0" 
d="M102 708h868v-122h-868v122z" />
    <glyph glyph-name="dec_hbar4" vert-adv-y="0" 
d="M102 342h868v-124h-868v124z" />
    <glyph glyph-name="dec_hbar5" vert-adv-y="0" 
d="M102 -26h868v-120h-868v120z" />
    <glyph glyph-name="dec_leftjoin" vert-adv-y="0" 
d="M543 1600h99v-892h375v-122h-375v-986h-99v2000z" />
    <glyph glyph-name="dec_rightjoin" vert-adv-y="0" 
d="M454 1600h99v-2000h-99v986h-396v122h396v892z" />
    <glyph glyph-name="dec_bottomjoin" vert-adv-y="0" 
d="M497 1598h99v-890h374v-122h-868v122h395v890z" />
    <glyph glyph-name="dec_topjoin" vert-adv-y="0" 
d="M102 708h868v-122h-374v-984h-99v984h-395v122z" />
    <glyph glyph-name="dec_vbar" vert-adv-y="0" 
d="M500 1600h99v-2000h-99v2000z" />
    <glyph glyph-name="dec_notgreater" vert-adv-y="0" 
d="M781 198c8 -12 14 -28 14 -44s-7 -30 -15 -42s-21 -18 -34 -20c-4 0 -5 -1 -9 -1c-9 0 -16 3 -25 9l-393 490v112l391 498c7 4 15 7 24 7c3 0 5 -1 9 -1c12 -2 21 -8 29 -18c10 -10 14 -26 16 -42c0 -4 1 -7 1 -11c0 -12 -4 -22 -8 -33l-369 -456zM254 -26h592v-120h-592
v120z" />
    <glyph glyph-name="dec_notless" vert-adv-y="0" 
d="M328 1098c-8 12 -11 28 -11 44s6 30 14 42s20 20 33 22c3 0 3 1 6 1c11 0 20 -4 30 -11l393 -490v-110l-392 -500c-6 -4 -13 -5 -20 -5c-4 0 -9 0 -13 1c-12 2 -21 6 -29 16c-10 10 -16 26 -18 42c0 3 -1 5 -1 8c0 13 5 24 10 36l368 456zM254 -26h592v-120h-592v120z
" />
    <glyph glyph-name="dec_pi" vert-adv-y="0" 
d="M203 1074h692v-122h-99l1 -854h-99v854l-298 2v-670c0 -6 0 -16 -4 -26l-55 -160l-88 52l50 148v656h-99z" />
    <glyph glyph-name="dec_notequal" vert-adv-y="0" 
d="M277 224l-67 84l123 154h-130v124h230l99 122h-330v122h429l189 234l68 -84l-120 -150h125v-122h-223l-100 -122h324v-124h-423z" />
    <glyph glyph-name="dec_sterling" vert-adv-y="0" 
d="M354 220l-12 4h-45v-12h45zM497 280l14 -4c1.17676 -0.335938 2.33984 -0.770508 3.33301 -1.48535s1.81934 -1.63184 2.66699 -2.51465c0.90332 -0.94043 1.86035 -1.8291 2.88379 -2.63672s2.09375 -1.55469 3.11621 -2.36328c1.85156 -1.46484 3.46289 -3.20703 5 -5
l36 -42h162l86 100l66 -88l-100 -116c-2.63184 -3.05371 -5.6084 -5.82129 -9 -8c-3.76953 -2.42188 -7.78125 -4.48926 -12 -6c-4.15332 -1.4873 -8.58887 -2 -13 -2h-198c-1.87695 0 -3.76172 0.0654297 -5.60547 0.413086
c-1.84375 0.348633 -3.63477 0.93457 -5.39453 1.58691c-4.06445 1.50586 -8.12109 3.06543 -12 5c-2.13867 1.06641 -4.19141 2.32129 -6.03223 3.8457c-1.83984 1.52441 -3.43066 3.32422 -4.96777 5.1543l-42 50l-33 12l-55 -66
c-2.8877 -3.46484 -6.12891 -6.68555 -10 -9c-3.46191 -2.07031 -7.19531 -3.65918 -11 -5c-1.92383 -0.677734 -3.88867 -1.25781 -5.90039 -1.59863s-4.05957 -0.401367 -6.09961 -0.401367h-101c-4.32324 0 -8.70312 0.233398 -12.8066 1.59375
s-7.83789 3.67969 -11.1934 6.40625c-7.39941 6.01367 -13.6182 13.5312 -18 22c-2.37012 4.58105 -4.07129 9.50879 -4.98828 14.584s-1.01172 10.2588 -1.01172 15.416v122c0 5.15723 0.0947266 10.3408 1.01172 15.416s2.61816 10.0029 4.98828 14.584
c4.38184 8.46875 10.6006 15.9863 18 22c3.35547 2.72656 7.08984 5.0459 11.1934 6.40625s8.4834 1.59375 12.8066 1.59375h98c1.01758 0 2.03809 -0.0742188 3.03027 -0.299805s1.96484 -0.541016 2.96973 -0.700195
c0.549805 -0.0869141 1.10352 -0.118164 1.65918 -0.118164c0.779297 0 1.5625 0.0615234 2.34082 0.118164c0.463867 0.0341797 0.930664 0.0576172 1.39648 0.0576172c0.561523 0 1.12207 -0.0341797 1.67578 -0.125977
c1.01367 -0.166016 1.98145 -0.533203 2.92773 -0.931641l38 -16v386h-199v122h199v306c0 4.68848 0.00683594 9.41797 1 14c1.05078 4.85059 3.07422 9.42578 5 14c1.04785 2.48828 2.1084 4.97656 3.41113 7.34082c1.30371 2.36328 2.90918 4.5459 4.58887 6.65918l97 122
c2.79785 3.51855 5.48828 7.19434 9 10c3.85645 3.08008 8.48926 4.99707 13 7c2.05371 0.912109 4.13281 1.79199 6.3125 2.33691s4.44043 0.663086 6.6875 0.663086h104c1.76855 0 3.55664 -0.126953 5.23438 -0.685547
c1.67871 -0.558594 3.22168 -1.45117 4.76562 -2.31445c2.08496 -1.16504 4.24316 -2.19727 6.46094 -3.08496s4.46973 -1.72266 6.53906 -2.91504c2.26172 -1.30273 4.25 -3.04004 6.00684 -4.9707c1.75586 -1.93066 3.35254 -4 4.99316 -6.0293l97 -120l-69 -84l-83 102
h-63l-69 -86v-282h198v-122h-198v-426z" />
    <glyph glyph-name="dec_periodcentered" vert-adv-y="0" 
d="M391 708h196v-246h-196v246z" />
    <glyph glyph-name="quotesingle" unicode="'" vert-adv-y="0" 
d="M500 1318h99v-366h-99v366z" />
    <glyph glyph-name="uni00AD" unicode="&#xad;" vert-adv-y="0" 
d="M302 708h495v-122h-495v122z" />
    <glyph glyph-name="uni00B5" unicode="&#xb5;" vert-adv-y="0" 
d="M193 952h92v-652l70 -82h260l69 88v646h97v-670c0 -6 -2 -14 -6 -24l29 -40h79v-116h-98c-16 0 -31 8 -35 16l-42 50l-39 -48c-4 -6 -18 -18 -34 -18h-299c-8 0 -21 2 -33 16l-14 18v-404h-96v1220z" />
    <glyph glyph-name="divide" unicode="&#xf7;" vert-adv-y="0" 
d="M437 1134h198v-244h-198v244zM189 708h692v-122h-692v122zM437 402h198v-244h-198v244z" />
    <glyph glyph-name="ydieresis" unicode="&#xff;" vert-adv-y="0" 
d="M253 1196h102v-122h-102v122zM551 1196h100v-122h-100v122zM446 156l-260 326c-10 12 -15 26 -15 42v428h97v-404l248 -306l148 182v528h97v-552c0 -16 -5 -30 -15 -42l-497 -614l-68 84z" />
    <glyph glyph-name="uni1E54" unicode="&#x1e54;" vert-adv-y="0" 
d="M357 1242c-10 12 -15 28 -15 42c0 18 7 34 15 44l194 242c10 12 22 18 34 18c14 0 28 -8 36 -18s15 -26 15 -44c0 -14 -5 -30 -15 -42l-194 -242c-8 -10 -22 -18 -36 -18c-12 0 -24 6 -34 18zM283 586h314l168 210v78l-166 200h-316v-488zM283 462v-366h-96v1098h431
c13 0 24 -4 34 -16l194 -238c10 -12 15 -24 15 -40v-128c0 -16 -3 -30 -13 -42l-196 -246c-10 -12 -21 -22 -34 -22h-335z" />
    <glyph glyph-name="uni1E55" unicode="&#x1e55;" vert-adv-y="0" 
d="M476 1092c-10 12 -15 28 -15 42c0 18 7 34 15 44l194 242c10 12 22 18 34 18c14 0 28 -8 36 -18s15 -26 15 -44c0 -14 -5 -30 -15 -42l-194 -242c-8 -10 -22 -18 -36 -18c-12 0 -24 6 -34 18zM171 956h356c10 0 16 0 22 -8l199 -236c4 -6 14 -22 14 -42v-268
c0 -10 -2 -28 -14 -42l-195 -242c-4 -6 -16 -18 -32 -18h-253v-368h-97v1224zM268 830v-612h232l167 208v220l-157 184h-242z" />
    <glyph glyph-name="uni1E57" unicode="&#x1e57;" vert-adv-y="0" 
d="M307 1238c0 62 41 112 91 112s91 -50 91 -112s-41 -112 -91 -112s-91 50 -91 112zM171 956h356c10 0 16 0 22 -8l199 -236c4 -6 14 -22 14 -42v-268c0 -10 -2 -28 -14 -42l-195 -242c-4 -6 -16 -18 -32 -18h-253v-368h-97v1224zM268 830v-612h232l167 208v220l-157 184
h-242z" />
    <glyph glyph-name="ordmasculine" unicode="&#xba;" vert-adv-y="0" 
d="M275 990v-444l70 -84h261l64 84v444l-63 88h-262zM194 1056l99 122c12 14 27 16 33 16h302c16 0 30 -10 36 -18l91 -126c10 -12 13 -28 13 -38v-490c0 -20 -11 -36 -15 -42l-94 -118c-9 -13 -20 -14 -28 -14h-6h-299c-14 0 -27 8 -33 14l-101 116c-13 14 -14 32 -14 44
v494c0 20 12 34 16 40zM178 218h596v-120h-596v120z" />
    <glyph glyph-name="Amacron" unicode="&#x100;" vert-adv-y="0" 
d="M244 1438h530v-122h-530v122zM283 488v-390h-96v676c0 18 11 34 15 40l286 362c10 14 22 18 32 18c16 0 30 -8 38 -18l290 -364c12 -14 13 -32 13 -42v-672h-98v390h-480zM285 600h478v146l-241 300l-237 -298v-148z" />
    <glyph glyph-name="amacron" unicode="&#x101;" vert-adv-y="0" 
d="M266 1196h530v-122h-530v122zM674 216v252h-326l-70 -88v-74l68 -90h328zM771 216h99v-116h-545c-16 0 -30 12 -34 18l-93 124c-12 14 -16 34 -16 42v120c0 20 12 36 16 42l95 122c12 14 26 16 34 16h347v166l-67 84h-330v118h350c16 0 29 -12 33 -18l96 -120
c12 -14 15 -30 15 -40v-558z" />
    <glyph glyph-name="Abreve" unicode="&#x102;" vert-adv-y="0" 
d="M403 1420c10 12 22 18 32 18c14 0 28 -8 36 -18l67 -82l68 82c10 12 23 18 33 18c28 0 49 -30 49 -62c0 -14 -2 -28 -14 -42l-102 -124c-8 -10 -22 -16 -36 -16c-12 0 -22 4 -32 16l-101 124c-8 10 -15 26 -15 44c0 14 5 30 15 42zM289 464v-366h-95v552
c0 20 10 36 14 42l292 362c10 12 22 18 32 18c14 0 28 -8 36 -18l298 -364c12 -14 14 -32 14 -42v-550h-97v366h-494zM291 586h492v38l-249 304l-243 -304v-38z" />
    <glyph glyph-name="abreve" unicode="&#x103;" vert-adv-y="0" 
d="M400 1300c10 12 23 18 33 18c14 0 28 -8 36 -18l65 -82l69 82c10 12 22 18 32 18c14 0 28 -8 36 -18s15 -26 15 -44c0 -12 -5 -28 -15 -40l-102 -124c-8 -10 -21 -18 -35 -18c-12 0 -23 6 -33 18l-101 124c-8 10 -14 26 -14 44c0 12 4 28 14 40zM686 216v252h-326
l-70 -88v-74l68 -90h328zM783 216h99v-116h-545c-16 0 -30 12 -34 18l-93 124c-12 14 -16 34 -16 42v120c0 20 12 36 16 42l95 122c12 14 26 16 34 16h347v166l-67 84h-330v118h350c16 0 29 -12 33 -18l96 -120c12 -14 15 -30 15 -40v-558z" />
    <glyph glyph-name="Nacute" unicode="&#x143;" vert-adv-y="0" 
d="M475 1244c-10 12 -15 28 -15 42c0 18 7 34 15 44l194 242c10 12 22 18 34 18c14 0 28 -8 36 -18s15 -26 15 -44c0 -14 -5 -30 -15 -42l-194 -242c-8 -10 -22 -18 -36 -18c-12 0 -24 6 -34 18zM187 100v1094h96l482 -610v610h96v-1094h-96v300l-482 616v-916h-96z" />
    <glyph glyph-name="nacute" unicode="&#x144;" vert-adv-y="0" 
d="M482 1092c-10 12 -15 28 -15 42c0 18 7 34 15 44l194 242c10 12 22 18 34 18c14 0 28 -8 36 -18s15 -26 15 -44c0 -14 -5 -30 -15 -42l-194 -242c-8 -10 -22 -18 -36 -18c-12 0 -24 6 -34 18zM346 884l39 48c4 6 18 18 34 18h201c8 0 20 -2 32 -16l96 -116
c4 -6 15 -22 15 -42v-674h-93v650l-69 78h-162l-68 -84v-646h-97v670c0 6 2 14 6 24l-29 40h-80v118h103c16 0 26 -10 30 -18z" />
    <glyph glyph-name="Dcaron" unicode="&#x10e;" vert-adv-y="0" 
d="M555 1548l34 -42l-222 -274c-3.01074 -3.71582 -6.14453 -7.39453 -9.98926 -10.2383c-3.84473 -2.84277 -8.32324 -4.81641 -13.0107 -5.76172c-2.66309 -0.537109 -5.36621 -0.780273 -8.07617 -0.780273c-5.71191 0 -11.4561 1.08203 -16.9238 2.78027
c-3.95801 1.22949 -7.80273 2.9082 -11.1963 5.28613c-3.39453 2.37793 -6.1875 5.5 -8.80371 8.71387l-223 274l35 42l35 42l187 -231l187 231zM380 220h217l166 206v440l-166 210h-217v-856zM283 1076h-96v118h431c16 0 30 -12 34 -18l194 -244c12 -14 15 -32 15 -42v-488
c0 -20 -11 -38 -15 -44l-196 -240c-12 -14 -25 -20 -33 -20h-430v120h96v858z" />
    <glyph glyph-name="dcaron" unicode="&#x10f;" vert-adv-y="0" 
d="M763 102h-344c-6 0 -22 2 -34 16l-199 242c-4 6 -15 22 -15 42v246c0 10 3 28 15 42l195 242c4 6 16 18 32 18h253v368h97v-1216zM666 218v614h-232l-167 -208v-198l172 -208h227z" />
    <glyph glyph-name="dcroat" unicode="&#x111;" vert-adv-y="0" 
d="M682 218v614h-231l-168 -208v-198l172 -208h227zM779 102h-343c-6 0 -22 2 -34 16l-200 242c-4 6 -14 22 -14 42v246c0 10 2 28 14 42l195 242c4 6 16 18 32 18h253v110h-235v122h235v136h97v-136h77v-122h-77v-958z" />
    <glyph glyph-name="Dcroat" unicode="&#x110;" vert-adv-y="0" 
d="M287 1076h-98v118h447c16 0 30 -10 34 -18l194 -244c12 -14 15 -32 15 -42v-488c0 -20 -9 -36 -15 -44l-196 -240c-12 -14 -25 -20 -33 -20h-446v120h98v376h-97v122h97v360zM386 220h229l167 206v440l-167 210h-229v-360h99v-122h-99v-374z" />
    <glyph glyph-name="Emacron" unicode="&#x112;" vert-adv-y="0" 
d="M248 1438h530v-122h-530v122zM187 1196h674v-122h-578v-362h385v-122h-385v-372h578v-120h-674v1098z" />
    <glyph glyph-name="emacron" unicode="&#x113;" vert-adv-y="0" 
d="M225 1196h530v-122h-530v122zM267 462v-158l69 -90h427v-112h-446c-14 0 -29 10 -33 16l-100 120c-12 14 -13 32 -13 42v484c0 20 12 34 16 40l99 126c12 14 28 22 36 22h294c16 0 30 -16 34 -22l95 -124c12 -14 15 -30 15 -40v-304h-493zM268 586h398v156l-70 88h-256
l-72 -90v-154z" />
    <glyph glyph-name="Ebreve" unicode="&#x114;" vert-adv-y="0" 
d="M285 1498h97c2 -16 2 -30 6 -46s9 -30 15 -44s15 -22 23 -32c10 -12 19 -24 31 -32s22 -12 35 -16c12 -4 24 -10 36 -10c13 0 25 6 37 10s22 10 34 18s21 20 29 30s17 20 23 34s11 32 15 48c4 14 4 26 4 40h97c0 -26 -2 -52 -8 -76s-14 -48 -24 -70s-23 -44 -37 -62
s-31 -34 -49 -46s-37 -22 -58 -30c-20 -6 -40 -12 -61 -12s-41 2 -62 8s-40 18 -58 30s-36 28 -52 46c-14 18 -29 38 -39 60c-12 22 -20 46 -24 72c-4 24 -10 54 -10 80zM189 1074h692v-122h-593v-366h396v-124h-396v-244h593v-120h-692v976z" />
    <glyph glyph-name="ebreve" unicode="&#x115;" vert-adv-y="0" 
d="M279 462v-158l69 -90h427v-112h-446c-14 0 -29 10 -33 16l-100 120c-12 14 -13 32 -13 42v484c0 20 12 34 16 40l99 126c12 14 28 22 36 22h294c16 0 30 -16 34 -22l95 -124c12 -14 15 -30 15 -40v-304h-493zM280 586h398v156l-70 88h-256l-72 -90v-154zM283 1370l97 4
c1.35254 -15.4619 3.63867 -30.8477 7 -46c3.33887 -15.0508 7.76367 -29.9014 14 -44c5.70703 -12.9023 12.9854 -25.1465 22 -36c9.09375 -10.9492 19.9453 -20.4326 32 -28c10.8945 -6.83887 22.7168 -12.1816 35 -16c11.6572 -3.62402 23.793 -5.84668 36 -6
c0.441406 -0.00585938 0.881836 -0.00878906 1.32324 -0.00878906c12.1143 0 24.2148 2.08496 35.6768 6.00879c12.1797 4.16992 23.6377 10.3604 34 18c10.8447 7.99512 20.501 17.5459 29 28c9.00293 11.0732 16.7402 23.1758 23 36
c6.81543 13.9609 11.8398 28.7891 15 44c2.69824 12.9863 4.05176 26.252 4.05176 39.5156c0 1.49512 -0.0175781 2.99023 -0.0517578 4.48438h97c0.0439453 -2.07812 0.0654297 -4.15625 0.0654297 -6.23438c0 -23.46 -2.76953 -46.9102 -8.06543 -69.7656
c-5.57715 -24.0684 -13.7949 -47.5 -24 -70c-9.9668 -21.9736 -21.9766 -43.1201 -37 -62c-13.998 -17.5908 -30.5967 -33.0889 -49 -46c-17.873 -12.54 -37.4111 -22.7334 -58 -30c-19.3018 -6.8125 -39.5547 -11.0254 -60 -12
c-2.95898 -0.140625 -5.92188 -0.211914 -8.88477 -0.211914c-18.3213 0 -36.6455 2.7041 -54.1152 8.21191c-21.126 6.66016 -40.876 17.2656 -59 30c-18.7783 13.1943 -35.9873 28.6406 -51 46c-15.6523 18.0986 -28.7588 38.375 -39 60
c-10.8506 22.9131 -18.5547 47.2393 -24 72c-5.49512 24.9844 -8.76172 50.4482 -10 76z" />
    <glyph glyph-name="Edotaccent" unicode="&#x116;" vert-adv-y="0" 
d="M433 1372c0 62 41 112 91 112s91 -50 91 -112s-41 -112 -91 -112s-91 50 -91 112zM187 1196h674v-122h-578v-362h385v-122h-385v-372h578v-120h-674v1098z" />
    <glyph glyph-name="edotaccent" unicode="&#x117;" vert-adv-y="0" 
d="M393 1238c0 62 41 112 91 112s91 -50 91 -112s-41 -112 -91 -112s-91 50 -91 112zM267 462v-158l69 -90h427v-112h-446c-14 0 -29 10 -33 16l-100 120c-12 14 -13 32 -13 42v484c0 20 12 34 16 40l99 126c12 14 28 22 36 22h294c16 0 30 -16 34 -22l95 -124
c12 -14 15 -30 15 -40v-304h-493zM268 586h398v156l-70 88h-256l-72 -90v-154z" />
    <glyph glyph-name="Eogonek" unicode="&#x118;" vert-adv-y="0" 
d="M199 1196h674v-122h-578v-362h385v-122h-385v-372h578v-120h-103v-36l35 -46h36v-116h-57c-16 0 -22 6 -32 18l-62 82l-8 12c-2 2 -5 10 -5 18v68h-478v1098z" />
    <glyph glyph-name="eogonek" unicode="&#x119;" vert-adv-y="0" 
d="M588 12c-2 2 -5 10 -5 18v72h-254c-14 0 -29 10 -33 16l-100 120c-12 14 -13 32 -13 42v484c0 20 12 34 16 40l99 126c12 14 28 22 36 22h294c16 0 30 -16 34 -22l95 -124c12 -14 15 -30 15 -40v-304h-493v-158l69 -90h427v-112h-99v-40l35 -46h36v-116h-57
c-16 0 -22 6 -32 18l-62 82zM280 586h398v156l-70 88h-256l-72 -90v-154z" />
    <glyph glyph-name="Ecaron" unicode="&#x11a;" vert-adv-y="0" 
d="M555 1548l34 -42l-222 -274c-3.01074 -3.71582 -6.14453 -7.39453 -9.98926 -10.2383c-3.84473 -2.84277 -8.32324 -4.81641 -13.0107 -5.76172c-2.66309 -0.537109 -5.36621 -0.780273 -8.07617 -0.780273c-5.71191 0 -11.4561 1.08203 -16.9238 2.78027
c-3.95801 1.22949 -7.80273 2.9082 -11.1963 5.28613c-3.39453 2.37793 -6.1875 5.5 -8.80371 8.71387l-223 274l35 42l35 42l187 -231l187 231zM187 1196h674v-122h-578v-362h385v-122h-385v-372h578v-120h-674v1098z" />
    <glyph glyph-name="ecaron" unicode="&#x11b;" vert-adv-y="0" 
d="M518 1370l34 -42l-222 -274c-3.01074 -3.71582 -6.14453 -7.39453 -9.98926 -10.2383c-3.84473 -2.84277 -8.32324 -4.81641 -13.0107 -5.76172c-2.66309 -0.537109 -5.36621 -0.780273 -8.07617 -0.780273c-5.71191 0 -11.4561 1.08203 -16.9238 2.78027
c-3.95801 1.22949 -7.80273 2.9082 -11.1963 5.28613c-3.39453 2.37793 -6.1875 5.5 -8.80371 8.71387l-223 274l35 42l35 42l187 -231l187 231zM267 462v-158l69 -90h427v-112h-446c-14 0 -29 10 -33 16l-100 120c-12 14 -13 32 -13 42v484c0 20 12 34 16 40l99 126
c12 14 28 22 36 22h294c16 0 30 -16 34 -22l95 -124c12 -14 15 -30 15 -40v-304h-493zM268 586h398v156l-70 88h-256l-72 -90v-154z" />
    <glyph glyph-name="gcircumflex" unicode="&#x11d;" vert-adv-y="0" 
d="M297 1092l-34 42l222 274c3.01074 3.71582 6.14453 7.39453 9.98926 10.2383c3.84473 2.84277 8.32324 4.81641 13.0107 5.76172c2.66309 0.537109 5.36621 0.780273 8.07617 0.780273c5.71191 0 11.4561 -1.08203 16.9238 -2.78027
c3.95801 -1.22949 7.80273 -2.9082 11.1963 -5.28613c3.39453 -2.37793 6.1875 -5.5 8.80371 -8.71387l223 -274l-35 -42l-35 -42l-187 231l-187 -231zM716 380l-112 -138c-6 -10 -20 -18 -33 -18h-154c-12 0 -25 6 -35 18l-190 236c-8 8 -16 26 -16 42v134c0 14 6 30 16 42
l195 244c6 10 21 16 34 16h245c12 0 24 -4 34 -16l98 -124c8 -8 16 -26 16 -42v-742c0 -14 -6 -30 -16 -42l-90 -112c-6 -10 -21 -18 -34 -18h-261c-12 0 -24 6 -34 18l-94 116l69 84l79 -98h221l62 76v324zM716 548v202l-70 86h-205l-167 -206v-86l162 -200h115z" />
    <glyph glyph-name="Gcircumflex" unicode="&#x11c;" vert-adv-y="0" 
d="M296 1270l-34 42l222 274c3.01074 3.71582 6.14453 7.39453 9.98926 10.2383c3.84473 2.84277 8.32324 4.81641 13.0107 5.76172c2.66309 0.537109 5.36621 0.780273 8.07617 0.780273c5.71191 0 11.4561 -1.08203 16.9238 -2.78027
c3.95801 -1.22949 7.80273 -2.9082 11.1963 -5.28613c3.39453 -2.37793 6.1875 -5.5 8.80371 -8.71387l223 -274l-35 -42l-35 -42l-187 231l-187 -231zM475 600h386v-112h-96v-386h-335c-8 0 -22 2 -34 16l-194 238c-4 6 -15 22 -15 42v496c0 10 1 32 13 46l194 238
c4 8 19 16 35 16h194c8 0 23 -2 35 -16l122 -152l-70 -84l-107 134h-154l-164 -206v-446l164 -202h221v266h-195v112z" />
    <glyph glyph-name="Gbreve" unicode="&#x11e;" vert-adv-y="0" 
d="M404 1420c10 12 22 18 32 18c14 0 27 -8 35 -18l67 -82l68 82c10 12 21 18 33 18c14 0 27 -8 35 -20c8 -10 14 -26 14 -44c0 -12 -4 -28 -14 -40l-102 -124c-8 -10 -22 -16 -36 -16c-12 0 -22 4 -32 16l-100 124c-8 10 -15 26 -15 44c0 14 5 30 15 42zM486 586h397v-122
h-102v-304c0 -22 -16 -58 -50 -58h-295c-8 0 -22 2 -34 16l-194 238c-4 6 -15 22 -15 42v416c0 10 1 28 13 42l194 242c4 8 18 18 34 18h203c8 0 23 -4 35 -18l97 -122l-69 -84l-83 104h-162l-165 -206v-366l165 -202h229v242h-198v122z" />
    <glyph glyph-name="gbreve" unicode="&#x11f;" vert-adv-y="0" 
d="M403 1420c10 12 22 18 32 18c14 0 28 -8 36 -18l67 -82l68 82c10 12 21 18 33 18c14 0 27 -8 35 -20c8 -10 14 -26 14 -44c0 -12 -4 -28 -14 -40l-102 -124c-8 -10 -22 -16 -36 -16c-12 0 -22 4 -32 16l-101 124c-8 10 -15 26 -15 44c0 14 5 30 15 42zM785 462v288
l-73 84h-255l-168 -208v-82l168 -202h156l81 102c10 12 22 18 35 18h56zM785 342h-35l-82 -102c-8 -12 -21 -22 -35 -22h-196c-13 0 -24 6 -34 18l-197 240c-10 12 -15 26 -15 42v134c0 18 5 32 15 42l197 238c10 12 21 22 34 22h295c13 0 24 -4 34 -14l102 -120
c10 -12 15 -26 15 -44v-740c0 -16 -7 -30 -15 -42l-93 -120c-10 -12 -22 -18 -36 -18h-302c-13 0 -24 6 -34 18l-98 120l67 84l85 -102h261l67 84v282z" />
    <glyph glyph-name="Gdotaccent" unicode="&#x120;" vert-adv-y="0" 
d="M433 1372c0 62 41 112 91 112s91 -50 91 -112s-41 -112 -91 -112s-91 50 -91 112zM475 600h386v-112h-96v-386h-335c-8 0 -22 2 -34 16l-194 238c-4 6 -15 22 -15 42v496c0 10 1 32 13 46l194 238c4 8 19 16 35 16h194c8 0 23 -2 35 -16l122 -152l-70 -84l-107 134h-154
l-164 -206v-446l164 -202h221v266h-195v112z" />
    <glyph glyph-name="gdotaccent" unicode="&#x121;" vert-adv-y="0" 
d="M433 1238c0 62 41 112 91 112s91 -50 91 -112s-41 -112 -91 -112s-91 50 -91 112zM716 380l-112 -138c-6 -10 -20 -18 -33 -18h-154c-12 0 -25 6 -35 18l-190 236c-8 8 -16 26 -16 42v134c0 14 6 30 16 42l195 244c6 10 21 16 34 16h245c12 0 24 -4 34 -16l98 -124
c8 -8 16 -26 16 -42v-742c0 -14 -6 -30 -16 -42l-90 -112c-6 -10 -21 -18 -34 -18h-261c-12 0 -24 6 -34 18l-94 116l69 84l79 -98h221l62 76v324zM716 548v202l-70 86h-205l-167 -206v-86l162 -200h115z" />
    <glyph glyph-name="Gcommaaccent" unicode="&#x122;" vert-adv-y="0" 
d="M912 1590v-304c0 -16 -5 -28 -13 -40l-96 -120c-10 -12 -20 -18 -33 -18h-55.8158l65.8158 -82l-70 -84l-107 134h-154l-164 -206v-446l164 -202h221v266h-195v112h386v-112h-96v-386h-335c-8 0 -22 2 -34 16l-194 238c-4 6 -15 22 -15 42v496c0 10 1 32 13 46l194 238
c4 8 19 16 35 16h191v28h132l66 86v282h94z" />
    <glyph glyph-name="gcommaaccent" unicode="&#x123;" vert-adv-y="0" 
d="M728 548v202l-70 86h-205l-167 -206v-86l162 -200h115zM728 380l-112 -138c-6 -10 -20 -18 -33 -18h-154c-12 0 -25 6 -35 18l-190 236c-8 8 -16 26 -16 42v134c0 14 6 30 16 42l195 244c6 10 21 16 34 16h245c12 0 24 -4 34 -16l98 -124c8 -8 16 -26 16 -42v-742
c0 -14 -6 -30 -16 -42l-90 -112c-6 -10 -21 -18 -34 -18h-261c-12 0 -24 6 -34 18l-94 116l69 84l79 -98h221l62 76v324zM912 1590v-304c0 -16 -5 -28 -13 -40l-96 -120c-10 -12 -20 -18 -33 -18h-150v114h132l66 86v282h94z" />
    <glyph glyph-name="uni007F" vert-adv-y="0" 
 />
    <glyph glyph-name="uni0080" vert-adv-y="0" 
 />
    <glyph glyph-name="uni0081" vert-adv-y="0" 
 />
    <glyph glyph-name="uni0082" vert-adv-y="0" 
 />
    <glyph glyph-name="uni0083" vert-adv-y="0" 
 />
    <glyph glyph-name="uni0084" vert-adv-y="0" 
 />
    <glyph glyph-name="uni0085" unicode="&#x85;" vert-adv-y="0" 
 />
    <glyph glyph-name="uni0086" vert-adv-y="0" 
 />
    <glyph glyph-name="uni0087" vert-adv-y="0" 
 />
    <glyph glyph-name="uni0088" vert-adv-y="0" 
 />
    <glyph glyph-name="uni0089" vert-adv-y="0" 
 />
    <glyph glyph-name="uni008A" vert-adv-y="0" 
 />
    <glyph glyph-name="uni008B" vert-adv-y="0" 
 />
    <glyph glyph-name="uni008C" vert-adv-y="0" 
 />
    <glyph glyph-name="uni008D" vert-adv-y="0" 
 />
    <glyph glyph-name="uni008E" vert-adv-y="0" 
 />
    <glyph glyph-name="uni008F" vert-adv-y="0" 
 />
    <glyph glyph-name="uni0090" vert-adv-y="0" 
 />
    <glyph glyph-name="uni0091" vert-adv-y="0" 
 />
    <glyph glyph-name="uni0092" vert-adv-y="0" 
 />
    <glyph glyph-name="uni0093" vert-adv-y="0" 
 />
    <glyph glyph-name="uni0094" vert-adv-y="0" 
 />
    <glyph glyph-name="uni0095" vert-adv-y="0" 
 />
    <glyph glyph-name="uni0096" vert-adv-y="0" 
 />
    <glyph glyph-name="uni0097" vert-adv-y="0" 
 />
    <glyph glyph-name="uni0098" vert-adv-y="0" 
 />
    <glyph glyph-name="uni0099" vert-adv-y="0" 
 />
    <glyph glyph-name="uni009A" vert-adv-y="0" 
 />
    <glyph glyph-name="uni009B" vert-adv-y="0" 
 />
    <glyph glyph-name="uni009C" vert-adv-y="0" 
 />
    <glyph glyph-name="uni009D" vert-adv-y="0" 
 />
    <glyph glyph-name="uni009E" vert-adv-y="0" 
 />
    <glyph glyph-name="uni009F" vert-adv-y="0" 
 />
    <glyph glyph-name="uni00A0" unicode="&#xa0;" vert-adv-y="0" 
 />
    <glyph glyph-name="Aogonek" unicode="&#x104;" vert-adv-y="0" 
d="M297 600h478v146l-241 300l-237 -298v-148zM295 488v-390h-96v676c0 18 11 34 15 40l286 362c10 14 22 18 32 18c16 0 30 -8 38 -18l290 -364c12 -14 13 -32 13 -42v-672h-31v-38l35 -46h36v-116h-57c-16 0 -22 6 -32 18l-62 82l-8 12c-2 2 -5 10 -5 18v132h26v328h-480z
" />
    <glyph glyph-name="aogonek" unicode="&#x105;" vert-adv-y="0" 
d="M783 216h99v-116h-138v-38l35 -46h36v-116h-57c-16 0 -22 6 -32 18l-62 82l-8 12c-2 2 -5 10 -5 18v70h-314c-16 0 -30 12 -34 18l-93 124c-12 14 -16 34 -16 42v120c0 20 12 36 16 42l95 122c12 14 26 16 34 16h347v166l-67 84h-330v118h350c16 0 29 -12 33 -18l96 -120
c12 -14 15 -30 15 -40v-558zM686 216v252h-326l-70 -88v-74l68 -90h328z" />
    <glyph glyph-name="Cacute" unicode="&#x106;" vert-adv-y="0" 
d="M616 1242c-10 12 -15 28 -15 42c0 18 7 34 15 44l194 242c10 12 22 18 34 18c14 0 28 -8 36 -18s15 -26 15 -44c0 -14 -5 -30 -15 -42l-194 -242c-8 -10 -22 -18 -36 -18c-12 0 -24 6 -34 18zM861 1058l-68 -84l-86 102h-157l-265 -328v-202l267 -328h154l84 110l71 -84
l-99 -128c-6 -8 -20 -18 -36 -18h-194c-8 0 -22 6 -34 20l-296 360c-4 6 -15 22 -15 42v252c0 10 1 28 13 42l296 364c4 6 18 16 34 16h196c8 0 23 0 35 -14z" />
    <glyph glyph-name="cacute" unicode="&#x107;" vert-adv-y="0" 
d="M551 1092c-10 12 -15 28 -15 42c0 18 7 34 15 44l194 242c10 12 22 18 34 18c14 0 28 -8 36 -18s15 -26 15 -44c0 -14 -5 -30 -15 -42l-194 -242c-8 -10 -22 -18 -36 -18c-12 0 -24 6 -34 18zM763 950v-118h-329l-167 -208v-198l172 -208h324v-116h-344
c-6 0 -22 2 -34 16l-199 242c-4 6 -15 22 -15 42v246c0 10 3 28 15 42l195 242c4 6 16 18 32 18h350z" />
    <glyph glyph-name="Ccircumflex" unicode="&#x108;" vert-adv-y="0" 
d="M401 1270l-34 42l222 274c3.01074 3.71582 6.14453 7.39453 9.98926 10.2383c3.84473 2.84277 8.32324 4.81641 13.0107 5.76172c2.66309 0.537109 5.36621 0.780273 8.07617 0.780273c5.71191 0 11.4561 -1.08203 16.9238 -2.78027
c3.95801 -1.22949 7.80273 -2.9082 11.1963 -5.28613c3.39453 -2.37793 6.1875 -5.5 8.80371 -8.71387l223 -274l-35 -42l-35 -42l-187 231l-187 -231zM861 1058l-68 -84l-86 102h-157l-265 -328v-202l267 -328h154l84 110l71 -84l-99 -128c-6 -8 -20 -18 -36 -18h-194
c-8 0 -22 6 -34 20l-296 360c-4 6 -15 22 -15 42v252c0 10 1 28 13 42l296 364c4 6 18 16 34 16h196c8 0 23 0 35 -14z" />
    <glyph glyph-name="ccircumflex" unicode="&#x109;" vert-adv-y="0" 
d="M368 1092l-34 42l222 274c3.01074 3.71582 6.14453 7.39453 9.98926 10.2383c3.84473 2.84277 8.32324 4.81641 13.0107 5.76172c2.66309 0.537109 5.36621 0.780273 8.07617 0.780273c5.71191 0 11.4561 -1.08203 16.9238 -2.78027
c3.95801 -1.22949 7.80273 -2.9082 11.1963 -5.28613c3.39453 -2.37793 6.1875 -5.5 8.80371 -8.71387l223 -274l-35 -42l-35 -42l-187 231l-187 -231zM763 950v-118h-329l-167 -208v-198l172 -208h324v-116h-344c-6 0 -22 2 -34 16l-199 242c-4 6 -15 22 -15 42v246
c0 10 3 28 15 42l195 242c4 6 16 18 32 18h350z" />
    <glyph glyph-name="Cdotaccent" unicode="&#x10a;" vert-adv-y="0" 
d="M526 1372c0 62 41 112 91 112s91 -50 91 -112s-41 -112 -91 -112s-91 50 -91 112zM861 1058l-68 -84l-86 102h-157l-265 -328v-202l267 -328h154l84 110l71 -84l-99 -128c-6 -8 -20 -18 -36 -18h-194c-8 0 -22 6 -34 20l-296 360c-4 6 -15 22 -15 42v252c0 10 1 28 13 42
l296 364c4 6 18 16 34 16h196c8 0 23 0 35 -14z" />
    <glyph glyph-name="cdotaccent" unicode="&#x10b;" vert-adv-y="0" 
d="M393 1238c0 62 41 112 91 112s91 -50 91 -112s-41 -112 -91 -112s-91 50 -91 112zM763 950v-118h-329l-167 -208v-198l172 -208h324v-116h-344c-6 0 -22 2 -34 16l-199 242c-4 6 -15 22 -15 42v246c0 10 3 28 15 42l195 242c4 6 16 18 32 18h350z" />
    <glyph glyph-name="Ccaron" unicode="&#x10c;" vert-adv-y="0" 
d="M649 1548l34 -42l-222 -274c-3.01074 -3.71582 -6.14453 -7.39453 -9.98926 -10.2383c-3.84473 -2.84277 -8.32324 -4.81641 -13.0107 -5.76172c-2.66309 -0.537109 -5.36621 -0.780273 -8.07617 -0.780273c-5.71191 0 -11.4561 1.08203 -16.9238 2.78027
c-3.95801 1.22949 -7.80273 2.9082 -11.1963 5.28613c-3.39453 2.37793 -6.1875 5.5 -8.80371 8.71387l-223 274l35 42l35 42l187 -231l187 231zM861 1058l-68 -84l-86 102h-157l-265 -328v-202l267 -328h154l84 110l71 -84l-99 -128c-6 -8 -20 -18 -36 -18h-194
c-8 0 -22 6 -34 20l-296 360c-4 6 -15 22 -15 42v252c0 10 1 28 13 42l296 364c4 6 18 16 34 16h196c8 0 23 0 35 -14z" />
    <glyph glyph-name="ccaron" unicode="&#x10d;" vert-adv-y="0" 
d="M630 1386l34 -42l-222 -274c-3.01074 -3.71582 -6.14453 -7.39453 -9.98926 -10.2383c-3.84473 -2.84277 -8.32324 -4.81641 -13.0107 -5.76172c-2.66309 -0.537109 -5.36621 -0.780273 -8.07617 -0.780273c-5.71191 0 -11.4561 1.08203 -16.9238 2.78027
c-3.95801 1.22949 -7.80273 2.9082 -11.1963 5.28613c-3.39453 2.37793 -6.1875 5.5 -8.80371 8.71387l-223 274l35 42l35 42l187 -231l187 231zM763 950v-118h-329l-167 -208v-198l172 -208h324v-116h-344c-6 0 -22 2 -34 16l-199 242c-4 6 -15 22 -15 42v246
c0 10 3 28 15 42l195 242c4 6 16 18 32 18h350z" />
    <glyph glyph-name="uni1E56" unicode="&#x1e56;" vert-adv-y="0" 
d="M357 1372c0 62 41 112 91 112s91 -50 91 -112s-41 -112 -91 -112s-91 50 -91 112zM283 586h314l168 210v78l-166 200h-316v-488zM283 462v-366h-96v1098h431c13 0 24 -4 34 -16l194 -238c10 -12 15 -24 15 -40v-128c0 -16 -3 -30 -13 -42l-196 -246
c-10 -12 -21 -22 -34 -22h-335z" />
    <glyph glyph-name="uniFF00" unicode="&#xff00;" vert-adv-y="0" 
 />
    <glyph glyph-name="uniFF01" unicode="&#xff01;" vert-adv-y="0" 
d="M486 220h100v-122h-100v122zM486 1318h99v-856h-99v856z" />
    <glyph glyph-name="uniFF02" unicode="&#xff02;" vert-adv-y="0" 
d="M276 1318h101v-366h-101v366zM573 1318h99v-366h-99v366z" />
    <glyph glyph-name="uniFF03" unicode="&#xff03;" vert-adv-y="0" 
d="M569 952h-192v-246h192v246zM280 1196h97v-122h192v122h95v-124h98v-120h-98v-246h98v-120h-98v-120h-95v120h-192v-122h-97v122h-96v122h96v244h-96v122h96v122z" />
    <glyph glyph-name="uniFF04" unicode="&#xff04;" vert-adv-y="0" 
d="M892 1076v-120h-299v-246h146c13 0 28 -8 36 -18l101 -124c10 -12 12 -28 12 -42v-128c0 -16 -4 -32 -12 -42l-98 -120c-10 -12 -24 -18 -36 -18h-149v-240h-97v240h-288v120h288v252h-148c-12 0 -23 6 -33 18l-97 120c-8 10 -16 26 -16 42v126c0 14 6 30 16 42l97 120
c8 10 20 18 33 18h148v240h97v-240h299zM496 956h-126l-71 -86v-76l71 -84h126v246zM593 338h129l69 84v78l-71 90h-127v-252z" />
    <glyph glyph-name="uniFF05" unicode="&#xff05;" vert-adv-y="0" 
d="M695 126c4.63867 -10.0176 11.2549 -19.2637 20 -26c7.99512 -6.15918 17.9072 -9.97852 28 -10h0.0898438c10.3662 0 20.5176 3.91309 28.9102 10c9.12012 6.61426 16.373 15.7275 21 26c5.05762 11.2295 7 23.6846 7 36s-1.94238 24.7705 -7 36
c-4.62695 10.2725 -11.8799 19.3857 -21 26c-8.39258 6.08691 -18.5439 10 -28.9102 10h-0.0898438c-10.0928 -0.0214844 -20.0049 -3.84082 -28 -10c-8.74512 -6.73633 -15.3613 -15.9824 -20 -26c-5.20605 -11.2422 -8 -23.6113 -8 -36s2.79395 -24.7578 8 -36zM595 160
c-0.00390625 0.575195 -0.00585938 1.14941 -0.00585938 1.72461c0 31.668 5.55859 63.6162 19.0059 92.2754c12.2012 26.002 30.8066 49.0576 54 66c21.4658 15.6807 47.417 25.9053 74 26c0.123047 0 0.246094 0.000976562 0.369141 0.000976562
c26.4834 0 52.415 -10.1416 73.6309 -26.001c22.8203 -17.0596 40.7969 -40.2539 53 -66c13.6162 -28.7266 20.0049 -60.6611 20.0049 -92.4561c0 -0.514648 -0.00195312 -1.0293 -0.00488281 -1.54395c-0.208008 -31.9424 -6.69434 -63.96 -20 -93
c-11.9902 -26.168 -29.7842 -49.9834 -53 -67c-21.2568 -15.5801 -47.2559 -25.001 -73.6074 -25.001c-0.130859 0 -0.261719 0.000976562 -0.392578 0.000976562c-26.458 0.09375 -52.4883 9.5957 -74 25c-23.5898 16.8926 -42.0215 40.5742 -54 67
c-13.1582 29.0273 -18.7979 61.1309 -19 93zM300 1092c4.59473 -10.2949 11.8184 -19.459 21 -26c8.4541 -6.02246 18.6221 -9.80176 29 -10c0.270508 -0.00488281 0.541992 -0.0078125 0.8125 -0.0078125c10.165 0 20.2676 3.62988 28.1875 10.0078
c8.43164 6.79102 14.3994 16.1992 19 26c5.29785 11.2881 9 23.5312 9 36s-3.70215 24.7119 -9 36c-4.60059 9.80078 -10.5684 19.209 -19 26c-7.91992 6.37793 -18.0225 10.0078 -28.1875 10.0078c-0.270508 0 -0.541992 -0.00292969 -0.8125 -0.0078125
c-10.3779 -0.198242 -20.5459 -3.97754 -29 -10c-9.18164 -6.54102 -16.4053 -15.7051 -21 -26c-5.01855 -11.2451 -7 -23.6855 -7 -36s1.98145 -24.7549 7 -36zM200 1126c0 32.0264 7.5752 63.9229 21 93c11.9756 25.9385 29.0293 50.0137 52 67
c21.5537 15.9385 48.1934 25 75 25s53.4463 -9.06152 75 -25c22.9707 -16.9863 40.0244 -41.0615 52 -67c13.4248 -29.0771 21 -60.9736 21 -93s-7.5752 -63.9229 -21 -93c-11.9756 -25.9385 -29.0293 -50.0137 -52 -67c-21.5537 -15.9385 -48.1934 -25 -75 -25
s-53.4463 9.06152 -75 25c-22.9707 16.9863 -40.0244 41.0615 -52 67c-13.4248 29.0771 -21 60.9736 -21 93zM217 236c-6.19238 7.93359 -10.6836 17.2061 -13 27c-1.1582 4.89648 -1.73242 9.92676 -1.73242 14.958c0 5.05762 0.580078 10.1162 1.73242 15.042
c2.29297 9.80273 6.79492 19.0713 13 27c13.7949 17.627 36.124 28.0146 58.5059 28.0146c0.387695 0 0.775391 -0.00390625 1.16211 -0.00976562c22.7686 -0.367188 44.998 -11.2822 59.8271 -28.5635c13.6953 -15.959 21.0469 -37.0312 21.0469 -58.0674
c0 -1.74121 -0.0498047 -3.48242 -0.151367 -5.21973c-1.3252 -22.7324 -11.1787 -44.7334 -26.6602 -61.4326c-15.4814 -16.6982 -36.4033 -28.1016 -58.668 -32.876c-8.38086 -1.79688 -16.9404 -2.66797 -25.5068 -2.66797c-14.1895 0 -28.3994 2.38965 -41.8564 6.91992
c-43.1611 14.5303 -77.208 50.6777 -94.6543 92.7441c-10.9189 26.3281 -15.7734 54.7725 -15.7734 83.3359c0 17.0752 1.73438 34.1924 4.94531 50.9268c8.58301 44.7256 27.2822 87.0488 50.6191 126.157c46.6748 78.2148 110.217 144.734 171.013 212.558
c59.7686 68.8418 116.84 139.955 173.986 210.988c57.1475 71.0332 116.521 144.484 197.545 186.279c32.1641 16.5908 68.1514 27.3945 104.119 27.3945c9.33887 0 18.6768 -0.728516 27.9453 -2.27246c22.4834 -3.74609 44.2959 -12.375 62.4893 -26.1064
s32.6592 -32.6973 39.6953 -54.3779c3.08203 -9.49805 4.67871 -19.5176 4.67871 -29.5098c0 -12.8174 -2.62695 -25.5908 -8.11621 -37.1631c-4.88477 -10.2969 -11.9668 -19.5732 -20.7637 -26.8193s-19.3115 -12.4385 -30.4648 -14.7793
c-4.47754 -0.939453 -9.05469 -1.41504 -13.6309 -1.41504c-6.82324 0 -13.6426 1.05762 -20.1172 3.21094c-10.8145 3.5957 -20.626 10.2686 -27.7373 19.1748s-11.4629 20.0361 -12.002 31.4199c-0.0371094 0.796875 -0.0556641 1.59375 -0.0556641 2.39062
c0 10.6016 3.31543 21.2148 9.58008 29.7656c5.55664 7.33789 13.2705 13.082 22 16c4.07324 1.36133 8.37402 2.06738 12.667 2.06738c4.19238 0 8.37695 -0.673828 12.333 -2.06738c8.41406 -2.96484 15.5107 -8.9668 21 -16c6.19238 -7.93359 10.6836 -17.2061 13 -27
c1.1582 -4.89648 1.73242 -9.92676 1.73242 -14.958c0 -5.05762 -0.580078 -10.1162 -1.73242 -15.042c-2.29297 -9.80273 -6.79492 -19.0713 -13 -27c-13.7949 -17.627 -36.124 -28.0146 -58.5059 -28.0146c-0.387695 0 -0.775391 0.00390625 -1.16211 0.00976562
c-22.7686 0.367188 -44.998 11.2822 -59.8271 28.5635c-13.6953 15.959 -21.0469 37.0312 -21.0469 58.0674c0 1.74121 0.0498047 3.48242 0.151367 5.21973c1.3252 22.7324 11.1787 44.7334 26.6602 61.4326c15.4814 16.6982 36.4033 28.1016 58.668 32.876
c8.38086 1.79688 16.9404 2.66797 25.5068 2.66797c14.1895 0 28.3994 -2.38965 41.8564 -6.91992c43.1611 -14.5303 77.208 -50.6777 94.6543 -92.7441c10.9189 -26.3281 15.7734 -54.7725 15.7734 -83.3359c0 -17.0752 -1.73438 -34.1924 -4.94531 -50.9268
c-8.58301 -44.7256 -27.2822 -87.0488 -50.6191 -126.157c-46.6748 -78.2148 -110.217 -144.734 -171.013 -212.558c-59.7686 -68.8418 -116.84 -139.955 -173.986 -210.988c-57.1475 -71.0332 -116.521 -144.484 -197.545 -186.279
c-32.1641 -16.5908 -68.1514 -27.3945 -104.119 -27.3945c-9.33887 0 -18.6768 0.728516 -27.9453 2.27246c-22.4834 3.74609 -44.2959 12.375 -62.4893 26.1064s-32.6592 32.6973 -39.6953 54.3779c-3.08203 9.49805 -4.67871 19.5176 -4.67871 29.5098
c0 12.8174 2.62695 25.5908 8.11621 37.1631c4.88477 10.2969 11.9668 19.5732 20.7637 26.8193s19.3115 12.4385 30.4648 14.7793c4.47754 0.939453 9.05469 1.41504 13.6309 1.41504c6.82324 0 13.6426 -1.05762 20.1172 -3.21094
c10.8145 -3.5957 20.626 -10.2686 27.7373 -19.1748s11.4629 -20.0361 12.002 -31.4199c0.0371094 -0.796875 0.0556641 -1.59375 0.0556641 -2.39062c0 -10.6016 -3.31543 -21.2148 -9.58008 -29.7656c-5.55664 -7.33789 -13.2705 -13.082 -22 -16
c-4.07324 -1.36133 -8.37402 -2.06738 -12.667 -2.06738c-4.19238 0 -8.37695 0.673828 -12.333 2.06738c-8.41406 2.96484 -15.5107 8.9668 -21 16z" />
    <glyph glyph-name="uniFF06" unicode="&#xff06;" vert-adv-y="0" 
d="M402 484l-3 3l-3 4l-2 3l-3 4l-1 4l-2 4l-1 5v4l1 5v76h-59l-44 -78v-214l67 -84h164l50 62zM206 736l-3 3l-2 4l-3 3v4v6v6v6v246v8v6v8v2l-1 2l1 2l2 2l2 2l2 2l6 6l89 118l2 4l4 3l3 3l3 2l5 2l3 2l5 1l3 -1h5h109h3l4 -1l5 -1l3 -2l4 -2l3 -2l2 -1l2 -2l2 -1l1 -1
l1 -2l2 -1l91 -110l1 -2l1 -2l1 -2l2 -2l1 -2v-2l2 -5l2 -4l1 -5l2 -5v-4l1 -5v-248l1 -3l1 -2l2 -3l-1 -3l-1 -2v-3l-1 -5l-1 -4v-5l-2 -2l-1 -2l-1 -2l-5 -6l-90 -114v-68l153 -186l170 208l66 -80l-172 -210l168 -204l-65 -78l-167 202l-65 -80l-3 -4l-3 -3l-3 -3l-5 -2
l-3 -2l-4 -2l-4 -1l-5 1h-3h-202h-4l-3 -1l-4 1l-3 3l-3 2l-4 3l-2 1l-1 2l-1 1l-2 1l-2 2l-2 1l-97 118l-3 4l-1 4l-2 4l-2 5l-3 4l-1 5l-1 5l1 6l1 5v254v6v6l1 2l3 2l1 2v4v3v4v3l52 88zM485 796v200l-64 80h-69l-63 -84v-206l37 -66h100z" />
    <glyph glyph-name="uniFF07" unicode="&#xff07;" vert-adv-y="0" 
d="M500 1318h99v-366h-99v366z" />
    <glyph glyph-name="uniFF08" unicode="&#xff08;" vert-adv-y="0" 
d="M416 940l202 238c10 10 21 18 33 18c13 0 24 -8 32 -20c10 -12 15 -26 15 -42s-5 -28 -15 -40l-188 -226v-440l190 -232c10 -10 15 -26 15 -42s-5 -28 -15 -38c-10 -12 -20 -18 -32 -18s-25 6 -33 18l-203 250c-10 12 -15 22 -15 38v488c0 16 4 36 14 48z" />
    <glyph glyph-name="uniFF09" unicode="&#xff09;" vert-adv-y="0" 
d="M477 354l-202 -238c-10 -10 -21 -18 -33 -18c-13 0 -24 8 -32 20c-10 12 -15 26 -15 42s5 28 15 40l188 226v440l-190 232c-10 10 -15 26 -15 42s5 28 15 38c10 12 20 18 32 18s25 -6 33 -18l203 -250c10 -12 15 -22 15 -38v-488c0 -16 -4 -36 -14 -48z" />
    <glyph glyph-name="uniFF0A" unicode="&#xff0a;" vert-adv-y="0" 
d="M486 708h99v-368h-99v368zM486 1196h99v-368h-99v368zM801 1056l69 -84l-160 -200l163 -208l-70 -84l-231 292zM272 1056l228 -284l-231 -292l-68 84l163 208l-160 200z" />
    <glyph glyph-name="uniFF0B" unicode="&#xff0b;" vert-adv-y="0" 
d="M487 1044h98v-332h288v-126h-288v-320h-98v320h-288v126h288v332z" />
    <glyph glyph-name="uniFF0C" unicode="&#xff0c;" vert-adv-y="0" 
d="M669 378v-214l-29 -84l-219 -272l-136 168l191 238v164h193z" />
    <glyph glyph-name="uniFF0D" unicode="&#xff0d;" vert-adv-y="0" 
d="M295 712h482v-112h-482v112z" />
    <glyph glyph-name="uniFF0E" unicode="&#xff0e;" vert-adv-y="0" 
d="M381 322h192v-222h-192v222z" />
    <glyph glyph-name="uniFF0F" unicode="&#xff0f;" vert-adv-y="0" 
d="M217 236c-6.19238 7.93359 -10.6836 17.2061 -13 27c-1.1582 4.89648 -1.73242 9.92676 -1.73242 14.958c0 5.05762 0.580078 10.1162 1.73242 15.042c2.29297 9.80273 6.79492 19.0713 13 27c13.7949 17.627 36.124 28.0146 58.5059 28.0146
c0.387695 0 0.775391 -0.00390625 1.16211 -0.00976562c22.7686 -0.367188 44.998 -11.2822 59.8271 -28.5635c13.6953 -15.959 21.0469 -37.0312 21.0469 -58.0674c0 -1.74121 -0.0498047 -3.48242 -0.151367 -5.21973
c-1.3252 -22.7324 -11.1787 -44.7334 -26.6602 -61.4326c-15.4814 -16.6982 -36.4033 -28.1016 -58.668 -32.876c-8.38086 -1.79688 -16.9404 -2.66797 -25.5068 -2.66797c-14.1895 0 -28.3994 2.38965 -41.8564 6.91992c-43.1611 14.5303 -77.208 50.6777 -94.6543 92.7441
c-10.9189 26.3281 -15.7734 54.7725 -15.7734 83.3359c0 17.0752 1.73438 34.1924 4.94531 50.9268c8.58301 44.7256 27.2822 87.0488 50.6191 126.157c46.6748 78.2148 110.217 144.734 171.013 212.558c59.7686 68.8418 116.84 139.955 173.986 210.988
c57.1475 71.0332 116.521 144.484 197.545 186.279c32.1641 16.5908 68.1514 27.3945 104.119 27.3945c9.33887 0 18.6768 -0.728516 27.9453 -2.27246c22.4834 -3.74609 44.2959 -12.375 62.4893 -26.1064s32.6592 -32.6973 39.6953 -54.3779
c3.08203 -9.49805 4.67871 -19.5176 4.67871 -29.5098c0 -12.8174 -2.62695 -25.5908 -8.11621 -37.1631c-4.88477 -10.2969 -11.9668 -19.5732 -20.7637 -26.8193s-19.3115 -12.4385 -30.4648 -14.7793c-4.47754 -0.939453 -9.05469 -1.41504 -13.6309 -1.41504
c-6.82324 0 -13.6426 1.05762 -20.1172 3.21094c-10.8145 3.5957 -20.626 10.2686 -27.7373 19.1748s-11.4629 20.0361 -12.002 31.4199c-0.0371094 0.796875 -0.0556641 1.59375 -0.0556641 2.39062c0 10.6016 3.31543 21.2148 9.58008 29.7656
c5.55664 7.33789 13.2705 13.082 22 16c4.07324 1.36133 8.37402 2.06738 12.667 2.06738c4.19238 0 8.37695 -0.673828 12.333 -2.06738c8.41406 -2.96484 15.5107 -8.9668 21 -16c6.19238 -7.93359 10.6836 -17.2061 13 -27
c1.1582 -4.89648 1.73242 -9.92676 1.73242 -14.958c0 -5.05762 -0.580078 -10.1162 -1.73242 -15.042c-2.29297 -9.80273 -6.79492 -19.0713 -13 -27c-13.7949 -17.627 -36.124 -28.0146 -58.5059 -28.0146c-0.387695 0 -0.775391 0.00390625 -1.16211 0.00976562
c-22.7686 0.367188 -44.998 11.2822 -59.8271 28.5635c-13.6953 15.959 -21.0469 37.0312 -21.0469 58.0674c0 1.74121 0.0498047 3.48242 0.151367 5.21973c1.3252 22.7324 11.1787 44.7334 26.6602 61.4326c15.4814 16.6982 36.4033 28.1016 58.668 32.876
c8.38086 1.79688 16.9404 2.66797 25.5068 2.66797c14.1895 0 28.3994 -2.38965 41.8564 -6.91992c43.1611 -14.5303 77.208 -50.6777 94.6543 -92.7441c10.9189 -26.3281 15.7734 -54.7725 15.7734 -83.3359c0 -17.0752 -1.73438 -34.1924 -4.94531 -50.9268
c-8.58301 -44.7256 -27.2822 -87.0488 -50.6191 -126.157c-46.6748 -78.2148 -110.217 -144.734 -171.013 -212.558c-59.7686 -68.8418 -116.84 -139.955 -173.986 -210.988c-57.1475 -71.0332 -116.521 -144.484 -197.545 -186.279
c-32.1641 -16.5908 -68.1514 -27.3945 -104.119 -27.3945c-9.33887 0 -18.6768 0.728516 -27.9453 2.27246c-22.4834 3.74609 -44.2959 12.375 -62.4893 26.1064s-32.6592 32.6973 -39.6953 54.3779c-3.08203 9.49805 -4.67871 19.5176 -4.67871 29.5098
c0 12.8174 2.62695 25.5908 8.11621 37.1631c4.88477 10.2969 11.9668 19.5732 20.7637 26.8193s19.3115 12.4385 30.4648 14.7793c4.47754 0.939453 9.05469 1.41504 13.6309 1.41504c6.82324 0 13.6426 -1.05762 20.1172 -3.21094
c10.8145 -3.5957 20.626 -10.2686 27.7373 -19.1748s11.4629 -20.0361 12.002 -31.4199c0.0371094 -0.796875 0.0556641 -1.59375 0.0556641 -2.39062c0 -10.6016 -3.31543 -21.2148 -9.58008 -29.7656c-5.55664 -7.33789 -13.2705 -13.082 -22 -16
c-4.07324 -1.36133 -8.37402 -2.06738 -12.667 -2.06738c-4.19238 0 -8.37695 0.673828 -12.333 2.06738c-8.41406 2.96484 -15.5107 8.9668 -21 16z" />
    <glyph glyph-name="uniFF10" unicode="&#xff10;" vert-adv-y="0" 
d="M536 888c26 0 49 -28 49 -60v-246c0 -32 -23 -60 -49 -60c-28 0 -49 28 -49 60v246c0 32 21 60 49 60zM295 990v-564l168 -208h148l166 204v568l-172 210h-138zM214 1056l200 246c8 12 23 18 35 18h176c13 0 26 -8 34 -18l199 -246c10 -10 15 -28 15 -42v-616
c0 -16 -7 -34 -15 -42l-194 -240c-10 -12 -24 -18 -34 -18h-185c-13 0 -28 8 -34 18l-197 244c-10 12 -15 28 -15 42v612c0 16 7 34 15 42z" />
    <glyph glyph-name="uniFF11" unicode="&#xff11;" vert-adv-y="0" 
d="M479 1296c10 12 20 20 32 20c6 0 17 0 23 -4c20 -10 24 -30 24 -56v-1156h-97v1008l-156 -196l-67 78z" />
    <glyph glyph-name="uniFF12" unicode="&#xff12;" vert-adv-y="0" 
d="M294 952h-96v64c0 16 8 32 16 42l195 244c10 12 22 18 34 18h282c13 0 26 -8 34 -18l99 -122c10 -12 14 -28 14 -42v-252c0 -16 -6 -32 -14 -42l-498 -628h512v-120h-630c-12 0 -24 6 -34 18s-14 28 -14 42s4 30 14 42l569 712v204l-70 86h-244l-169 -208v-40z" />
    <glyph glyph-name="uniFF13" unicode="&#xff13;" vert-adv-y="0" 
d="M295 1200v120h578v-186c0 -16 -7 -32 -15 -42l-215 -266c6 -2 12 -8 16 -12l197 -244c10 -12 16 -28 16 -42v-134c0 -16 -8 -32 -16 -42l-189 -234c-10 -12 -22 -18 -34 -18h-293c-13 0 -26 8 -34 18l-107 132l68 84l93 -114h257l160 198v84l-168 210h-79
c-12 0 -24 6 -34 18s-15 26 -15 42s5 30 15 42l281 344v42h-482z" />
    <glyph glyph-name="uniFF14" unicode="&#xff14;" vert-adv-y="0" 
d="M777 600h96v-112h-96v-438h-97v438h-432c-26 0 -49 28 -49 60v224c0 12 5 30 15 42l389 488c6 10 21 18 34 18h140v-720zM680 600v600h-22l-367 -458v-142h389z" />
    <glyph glyph-name="uniFF15" unicode="&#xff15;" vert-adv-y="0" 
d="M873 1320v-120h-578v-246h335c12 0 24 -6 34 -18l194 -240c8 -8 15 -26 15 -42v-252c0 -14 -5 -30 -15 -42l-196 -242c-6 -10 -20 -18 -33 -18h-425v120h407l166 208v202l-165 204h-413v486h674z" />
    <glyph glyph-name="uniFF16" unicode="&#xff16;" vert-adv-y="0" 
d="M199 372v2v636c0 14 5 30 15 42l231 286l70 -84l-218 -268v-330l122 150c8 10 21 18 34 18h178c12 0 25 -6 35 -18l192 -242c8 -10 15 -26 15 -42v-144c0 -14 -5 -30 -15 -42l-200 -248c-8 -10 -22 -18 -35 -18h-176c-12 0 -24 6 -34 18l-199 244c-2 2 -15 40 -15 40z
M297 492v-92l170 -210h137l171 214v100l-164 206h-138z" />
    <glyph glyph-name="uniFF17" unicode="&#xff17;" vert-adv-y="0" 
d="M487 98h-95v568c0 16 6 34 14 42l369 456v36h-576v120h674v-180c0 -14 -5 -32 -15 -42l-371 -458v-542z" />
    <glyph glyph-name="uniFF18" unicode="&#xff18;" vert-adv-y="0" 
d="M309 1166l94 132c10 14 23 20 36 20h192c14 0 27 -6 35 -16l93 -120c10 -12 15 -26 15 -40v-250l-16 -40l-58 -68l162 -214c6 -10 11 -24 11 -40v-142c0 -14 -5 -26 -15 -38l-196 -238c-8 -10 -18 -14 -31 -14h-194c-14 0 -28 6 -34 14l-189 238l-15 40v142
c0 10 7 24 17 38l158 210l-63 68c-10 10 -16 26 -16 44v238c0 10 4 24 14 36zM297 508v-94l160 -206h155l167 208v92l-167 218h-149zM392 1108v-192l69 -78h152l65 78v204l-66 84h-152z" />
    <glyph glyph-name="uniFF19" unicode="&#xff19;" vert-adv-y="0" 
d="M777 868l-212 -262c-6 -10 -20 -18 -33 -18h-192c-12 0 -24 6 -34 18l-92 114c-8 8 -15 26 -15 42v254c0 14 5 32 15 42l197 244c6 10 21 18 34 18h281c12 0 25 -6 33 -18l99 -124c8 -10 15 -26 15 -42v-856c0 -14 -5 -30 -15 -42l-129 -160l-68 84l116 140v566z
M777 1032v82l-71 86h-241l-168 -208v-206l63 -78h152z" />
    <glyph glyph-name="uniFF1A" unicode="&#xff1a;" vert-adv-y="0" 
d="M381 322h192v-222h-192v222zM381 822h192v-222h-192v222z" />
    <glyph glyph-name="uniFF1B" unicode="&#xff1b;" vert-adv-y="0" 
d="M478 822h193v-222h-193v222zM669 378v-214l-29 -84l-219 -272l-136 168l191 238v164h193z" />
    <glyph glyph-name="uniFF1C" unicode="&#xff1c;" vert-adv-y="0" 
d="M769 198c8 -12 14 -28 14 -44s-8 -30 -16 -42s-20 -18 -33 -20c-4 0 -5 -1 -9 -1c-9 0 -16 3 -25 9l-394 490v112l392 492c9 5 18 12 29 12h3c12 -2 21 -8 29 -18c10 -10 14 -26 16 -42c0 -4 1 -7 1 -11c0 -12 -3 -22 -7 -33l-369 -456z" />
    <glyph glyph-name="uniFF1D" unicode="&#xff1d;" vert-adv-y="0" 
d="M199 934h674v-112h-674v112zM199 600h674v-112h-674v112z" />
    <glyph glyph-name="uniFF1E" unicode="&#xff1e;" vert-adv-y="0" 
d="M112 1100c-8 12 -14 28 -14 44s8 30 16 42s20 18 33 20c4 0 5 1 9 1c9 0 16 -3 25 -9l394 -490v-112l-392 -492c-9 -5 -18 -12 -29 -12h-3c-12 2 -21 8 -29 18c-10 10 -14 26 -16 42c0 4 -1 7 -1 11c0 12 3 22 7 33l369 456z" />
    <glyph glyph-name="uniFF1F" unicode="&#xff1f;" vert-adv-y="0" 
d="M403 954h-97v184c0 16 6 32 14 42l102 124c10 12 24 14 34 14h278c13 0 26 -6 34 -16l102 -126c10 -12 14 -28 14 -42v-122c0 -16 -8 -34 -16 -44l-272 -320v-184h-97v210c0 14 4 32 14 44l275 320v72l-74 90h-238l-73 -88v-158zM499 222h97v-122h-97v122z" />
    <glyph glyph-name="uniFF20" unicode="&#xff20;" vert-adv-y="0" 
d="M585 704v120h-27l-69 -86v-34h96zM682 704h30l63 80v328l-64 80h-347l-67 -84v-810l59 -76h517v-120h-536c-12 0 -26 6 -36 18l-89 110c-8 10 -13 26 -13 42v860c0 14 3 30 13 42l97 120c8 10 23 18 36 18h385c12 0 26 -6 36 -18l94 -116c8 -10 13 -26 13 -42v-378
c0 -14 -3 -30 -13 -42l-93 -114c-8 -10 -20 -18 -33 -18h-293c-26 0 -49 28 -49 60v118c0 14 3 30 13 42l99 122c8 10 23 14 36 14h93c26 0 49 -24 49 -56v-180z" />
    <glyph glyph-name="uniFF22" unicode="&#xff22;" vert-adv-y="0" 
d="M295 218v858h-96v118h431c16 0 30 -10 36 -16l194 -250c10 -12 13 -26 13 -40c0 -20 -7 -36 -15 -46l-164 -194l164 -198c10 -12 15 -28 15 -40c0 -18 -7 -34 -15 -44l-197 -250c-12 -14 -26 -18 -34 -18h-428v120h96zM607 586h-215v-368h213l151 188zM605 708l151 180
l-147 188h-217v-368h213z" />
    <glyph glyph-name="uniFF23" unicode="&#xff23;" vert-adv-y="0" 
d="M873 1058l-68 -84l-86 102h-157l-265 -328v-202l267 -328h154l84 110l71 -84l-99 -128c-6 -8 -20 -18 -36 -18h-194c-8 0 -22 6 -34 20l-296 360c-4 6 -15 22 -15 42v252c0 10 1 28 13 42l296 364c4 6 18 16 34 16h196c8 0 23 0 35 -14z" />
    <glyph glyph-name="uniFF24" unicode="&#xff24;" vert-adv-y="0" 
d="M392 220h217l166 206v440l-166 210h-217v-856zM295 1076h-96v118h431c16 0 30 -12 34 -18l194 -244c12 -14 15 -32 15 -42v-488c0 -20 -11 -38 -15 -44l-196 -240c-12 -14 -25 -20 -33 -20h-430v120h96v858z" />
    <glyph glyph-name="uniFF25" unicode="&#xff25;" vert-adv-y="0" 
d="M199 1196h674v-122h-578v-362h385v-122h-385v-372h578v-120h-674v1098z" />
    <glyph glyph-name="uniFF26" unicode="&#xff26;" vert-adv-y="0" 
d="M199 1194h674v-120h-578v-362h482v-112h-482v-502h-96v1096z" />
    <glyph glyph-name="uniFF27" unicode="&#xff27;" vert-adv-y="0" 
d="M487 600h386v-112h-96v-386h-335c-8 0 -22 2 -34 16l-194 238c-4 6 -15 22 -15 42v496c0 10 1 32 13 46l194 238c4 8 19 16 35 16h194c8 0 23 -2 35 -16l122 -152l-70 -84l-107 134h-154l-164 -206v-446l164 -202h221v266h-195v112z" />
    <glyph glyph-name="uniFF28" unicode="&#xff28;" vert-adv-y="0" 
d="M199 1194h96v-482h482v482h96v-1094h-96v500h-482v-500h-96v1094z" />
    <glyph glyph-name="uniFF29" unicode="&#xff29;" vert-adv-y="0" 
d="M392 1194h288v-120h-95v-856h95v-122h-288v122h95v856h-95v120z" />
    <glyph glyph-name="uniFF2A" unicode="&#xff2a;" vert-adv-y="0" 
d="M188 464h95v-162l72 -82h150l68 86v768h-97v120h290v-120h-97v-792c0 -8 -1 -28 -13 -42l-95 -122c-6 -8 -20 -18 -36 -18h-191c-6 0 -22 2 -34 16l-98 116c-4 6 -14 22 -14 42v190z" />
    <glyph glyph-name="uniFF2B" unicode="&#xff2b;" vert-adv-y="0" 
d="M301 376v-278h-102v1096h102v-646l474 608v38h97v-62c0 -16 -6 -30 -16 -42l-348 -444l350 -444c10 -12 15 -26 15 -42v-62h-98v38l-334 426z" />
    <glyph glyph-name="uniFF2C" unicode="&#xff2c;" vert-adv-y="0" 
d="M199 1194h96v-976h578v-120h-674v1096z" />
    <glyph glyph-name="uniFF2D" unicode="&#xff2d;" vert-adv-y="0" 
d="M585 740v-152h-99v152l-189 248v-888h-98v1032c0 26 11 46 31 56c6 4 12 6 18 6c12 0 23 -8 33 -20l251 -322l259 326c10 12 21 16 33 16c4 0 9 2 13 2c2 0 2 -1 5 -2c20 -10 31 -32 31 -58v-1036h-98v892z" />
    <glyph glyph-name="uniFF2E" unicode="&#xff2e;" vert-adv-y="0" 
d="M199 100v1094h96l482 -610v610h96v-1094h-96v300l-482 616v-916h-96z" />
    <glyph glyph-name="uniFF2F" unicode="&#xff2f;" vert-adv-y="0" 
d="M299 988v-688l63 -80h344l69 86v680l-69 90h-342zM216 1052l91 124c12 16 26 18 36 18h384c16 0 32 -10 36 -18l97 -124c12 -14 13 -32 13 -42v-730c0 -20 -9 -36 -15 -42l-99 -120c-12 -14 -25 -18 -33 -18h-383c-16 0 -30 10 -34 16l-95 114c-12 14 -15 34 -15 44v738
c0 18 11 32 17 40z" />
    <glyph glyph-name="uniFF30" unicode="&#xff30;" vert-adv-y="0" 
d="M295 586h314l168 210v78l-166 200h-316v-488zM295 462v-366h-96v1098h431c13 0 24 -4 34 -16l194 -238c10 -12 15 -24 15 -40v-128c0 -16 -3 -30 -13 -42l-196 -246c-10 -12 -21 -22 -34 -22h-335z" />
    <glyph glyph-name="uniFF31" unicode="&#xff31;" vert-adv-y="0" 
d="M702 166l164 -218l-71 -80l-174 236h-178c-13 0 -23 6 -33 18l-196 238c-10 12 -15 26 -15 42v494c0 16 5 32 15 44l194 238c10 12 21 16 34 16h191c13 0 24 -4 34 -16l191 -244c10 -12 15 -26 15 -42v-492c0 -18 -5 -30 -15 -42zM633 248l142 178v442l-163 208h-149
l-166 -204v-444l166 -204h69l-41 80c-4 10 -7 18 -7 30v130h97v-114z" />
    <glyph glyph-name="uniFF32" unicode="&#xff32;" vert-adv-y="0" 
d="M552 588l306 -382c10 -12 15 -26 15 -42v-64h-96v28l-364 460h-118v-488h-96v1094h527c13 0 23 -6 33 -18l99 -120c10 -12 15 -26 15 -42v-246c0 -16 -5 -30 -15 -42l-95 -120c-10 -12 -21 -18 -34 -18h-177zM295 708h413l67 84v196l-69 86h-411v-366z" />
    <glyph glyph-name="uniFF33" unicode="&#xff33;" vert-adv-y="0" 
d="M773 996l-62 80h-341l-69 -86v-64l547 -476c14 -12 22 -30 22 -50v-118c0 -16 -6 -28 -14 -40l-91 -124c-10 -12 -22 -22 -36 -22h-383c-13 0 -23 6 -33 18l-99 122c-10 12 -15 26 -15 42v62h98v-38l69 -84h342l65 88v62l-548 476c-14 12 -21 30 -21 50v120
c0 16 4 30 14 42l99 122c10 12 22 16 35 16h378c13 0 25 -4 35 -16l93 -116c10 -12 15 -26 15 -42v-64h-100v40z" />
    <glyph glyph-name="uniFF34" unicode="&#xff34;" vert-adv-y="0" 
d="M199 1194h674v-120h-288v-976h-98v976h-288v120z" />
    <glyph glyph-name="uniFF35" unicode="&#xff35;" vert-adv-y="0" 
d="M199 1194h94v-890l69 -84h348l65 86v888h98v-912c0 -8 -1 -26 -13 -40l-94 -122c-6 -8 -20 -20 -36 -20h-388c-8 0 -23 4 -35 18l-95 118c-4 6 -13 22 -13 42v916z" />
    <glyph glyph-name="uniFF36" unicode="&#xff36;" vert-adv-y="0" 
d="M296 1026l234 -716l245 714v170h97v-182c0 -8 0 -16 -2 -24l-294 -856c-8 -22 -25 -36 -46 -36s-36 14 -44 36l-287 858c-1 3 -1 5 -1 7c0 5 1 10 1 15v182h97v-168z" />
    <glyph glyph-name="uniFF37" unicode="&#xff37;" vert-adv-y="0" 
d="M532 314l-154 -200c-10 -12 -21 -18 -33 -18c-13 0 -24 6 -34 18l-97 120c-10 12 -15 26 -15 42v918h96v-894l50 -58l141 184v278h97v-282l143 -180l49 60v892h98v-918c0 -18 -5 -32 -15 -44l-99 -118c-10 -10 -20 -18 -33 -18c-12 0 -24 8 -34 20z" />
    <glyph glyph-name="uniFF38" unicode="&#xff38;" vert-adv-y="0" 
d="M532 562l-234 -306v-154h-97v178c0 16 5 30 15 42l249 324l-249 330c-10 12 -15 26 -15 42v178h97v-154l236 -310l242 308v154h97v-178c0 -16 -5 -30 -15 -42l-255 -326l255 -328c10 -12 15 -26 15 -42v-178h-97v154z" />
    <glyph glyph-name="uniFF39" unicode="&#xff39;" vert-adv-y="0" 
d="M585 742v-642h-99v642l-272 348c-10 12 -15 26 -15 42v62h98v-38l241 -304l237 304v38h98v-58c0 -16 -3 -32 -13 -44z" />
    <glyph glyph-name="uniFF3A" unicode="&#xff3a;" vert-adv-y="0" 
d="M872 1012c0 -16 -6 -30 -16 -42l-559 -712v-38h576v-122h-674v184c0 16 5 30 15 42l560 712v38h-575v120h673v-182z" />
    <glyph glyph-name="uniFF3B" unicode="&#xff3b;" vert-adv-y="0" 
d="M392 1318h288v-122h-194v-1098h194v-124h-288v1344z" />
    <glyph glyph-name="uniFF3C" unicode="&#xff3c;" vert-adv-y="0" 
d="M159 973c7.93359 6.19238 17.2061 10.6836 27 13c4.89648 1.1582 9.92676 1.73242 14.958 1.73242c5.05762 0 10.1162 -0.580078 15.042 -1.73242c9.80273 -2.29297 19.0713 -6.79492 27 -13c17.627 -13.7949 28.0146 -36.124 28.0146 -58.5059
c0 -0.387695 -0.00390625 -0.775391 -0.00976562 -1.16211c-0.367188 -22.7686 -11.2822 -44.998 -28.5635 -59.8271c-15.959 -13.6953 -37.0312 -21.0469 -58.0674 -21.0469c-1.74121 0 -3.48242 0.0498047 -5.21973 0.151367
c-22.7324 1.3252 -44.7334 11.1787 -61.4326 26.6602c-16.6982 15.4814 -28.1016 36.4033 -32.876 58.668c-1.79688 8.38086 -2.66797 16.9404 -2.66797 25.5068c0 14.1895 2.38965 28.3994 6.91992 41.8564c14.5303 43.1611 50.6777 77.208 92.7441 94.6543
c26.3281 10.9189 54.7725 15.7734 83.3359 15.7734c17.0752 0 34.1924 -1.73438 50.9268 -4.94531c44.7256 -8.58301 87.0488 -27.2822 126.157 -50.6191c78.2148 -46.6748 144.734 -110.217 212.558 -171.013c68.8418 -59.7686 139.955 -116.84 210.988 -173.986
c71.0332 -57.1475 144.484 -116.521 186.279 -197.545c16.5908 -32.1641 27.3945 -68.1514 27.3945 -104.119c0 -9.33887 -0.728516 -18.6768 -2.27246 -27.9453c-3.74609 -22.4834 -12.375 -44.2959 -26.1064 -62.4893s-32.6973 -32.6592 -54.3779 -39.6953
c-9.49805 -3.08203 -19.5176 -4.67871 -29.5098 -4.67871c-12.8174 0 -25.5908 2.62695 -37.1631 8.11621c-10.2969 4.88477 -19.5732 11.9668 -26.8193 20.7637s-12.4385 19.3115 -14.7793 30.4648c-0.939453 4.47754 -1.41504 9.05469 -1.41504 13.6309
c0 6.82324 1.05762 13.6426 3.21094 20.1172c3.5957 10.8145 10.2686 20.626 19.1748 27.7373s20.0361 11.4629 31.4199 12.002c0.796875 0.0371094 1.59375 0.0556641 2.39062 0.0556641c10.6016 0 21.2148 -3.31543 29.7656 -9.58008
c7.33789 -5.55664 13.082 -13.2705 16 -22c1.36133 -4.07324 2.06738 -8.37402 2.06738 -12.667c0 -4.19238 -0.673828 -8.37695 -2.06738 -12.333c-2.96484 -8.41406 -8.9668 -15.5107 -16 -21c-7.93359 -6.19238 -17.2061 -10.6836 -27 -13
c-4.89648 -1.1582 -9.92676 -1.73242 -14.958 -1.73242c-5.05762 0 -10.1162 0.580078 -15.042 1.73242c-9.80273 2.29297 -19.0713 6.79492 -27 13c-17.627 13.7949 -28.0146 36.124 -28.0146 58.5059c0 0.387695 0.00390625 0.775391 0.00976562 1.16211
c0.367188 22.7686 11.2822 44.998 28.5635 59.8271c15.959 13.6953 37.0312 21.0469 58.0674 21.0469c1.74121 0 3.48242 -0.0498047 5.21973 -0.151367c22.7324 -1.3252 44.7334 -11.1787 61.4326 -26.6602c16.6982 -15.4814 28.1016 -36.4033 32.876 -58.668
c1.79688 -8.38086 2.66797 -16.9404 2.66797 -25.5068c0 -14.1895 -2.38965 -28.3994 -6.91992 -41.8564c-14.5303 -43.1611 -50.6777 -77.208 -92.7441 -94.6543c-26.3281 -10.9189 -54.7725 -15.7734 -83.3359 -15.7734c-17.0752 0 -34.1924 1.73438 -50.9268 4.94531
c-44.7256 8.58301 -87.0488 27.2822 -126.157 50.6191c-78.2148 46.6748 -144.734 110.217 -212.558 171.013c-68.8418 59.7686 -139.955 116.84 -210.988 173.986c-71.0332 57.1475 -144.484 116.521 -186.279 197.545c-16.5908 32.1641 -27.3945 68.1514 -27.3945 104.119
c0 9.33887 0.728516 18.6768 2.27246 27.9453c3.74609 22.4834 12.375 44.2959 26.1064 62.4893s32.6973 32.6592 54.3779 39.6953c9.49805 3.08203 19.5176 4.67871 29.5098 4.67871c12.8174 0 25.5908 -2.62695 37.1631 -8.11621
c10.2969 -4.88477 19.5732 -11.9668 26.8193 -20.7637s12.4385 -19.3115 14.7793 -30.4648c0.939453 -4.47754 1.41504 -9.05469 1.41504 -13.6309c0 -6.82324 -1.05762 -13.6426 -3.21094 -20.1172c-3.5957 -10.8145 -10.2686 -20.626 -19.1748 -27.7373
s-20.0361 -11.4629 -31.4199 -12.002c-0.796875 -0.0371094 -1.59375 -0.0556641 -2.39062 -0.0556641c-10.6016 0 -21.2148 3.31543 -29.7656 9.58008c-7.33789 5.55664 -13.082 13.2705 -16 22c-1.36133 4.07324 -2.06738 8.37402 -2.06738 12.667
c0 4.19238 0.673828 8.37695 2.06738 12.333c2.96484 8.41406 8.9668 15.5107 16 21z" />
    <glyph glyph-name="uniFF3D" unicode="&#xff3d;" vert-adv-y="0" 
d="M392 1318h288v-1344h-288v124h193v1098h-193v122z" />
    <glyph glyph-name="uniFF3E" unicode="&#xff3e;" vert-adv-y="0" 
d="M318 992l-34 42l222 274c3.01074 3.71582 6.14453 7.39453 9.98926 10.2383c3.84473 2.84277 8.32324 4.81641 13.0107 5.76172c2.66309 0.537109 5.36621 0.780273 8.07617 0.780273c5.71191 0 11.4561 -1.08203 16.9238 -2.78027
c3.95801 -1.22949 7.80273 -2.9082 11.1963 -5.28613c3.39453 -2.37793 6.1875 -5.5 8.80371 -8.71387l223 -274l-35 -42l-35 -42l-187 231l-187 -231z" />
    <glyph glyph-name="uniFF3F" unicode="&#xff3f;" vert-adv-y="0" 
d="M189 98h692v-124h-692v124z" />
    <glyph glyph-name="uniFF40" unicode="&#xff40;" vert-adv-y="0" 
d="M416 1302c10 12 22 16 35 16c12 0 24 -4 34 -16l203 -248c10 -12 13 -28 13 -42c0 -16 -3 -32 -13 -44s-22 -16 -35 -16c-12 0 -24 4 -34 16l-203 250c-10 12 -13 28 -13 42c0 16 3 32 13 42z" />
    <glyph glyph-name="uniFF41" unicode="&#xff41;" vert-adv-y="0" 
d="M686 216v252h-326l-70 -88v-74l68 -90h328zM783 216h99v-116h-545c-16 0 -30 12 -34 18l-93 124c-12 14 -16 34 -16 42v120c0 20 12 36 16 42l95 122c12 14 26 16 34 16h347v166l-67 84h-330v118h350c16 0 29 -12 33 -18l96 -120c12 -14 15 -30 15 -40v-558z" />
    <glyph glyph-name="uniFF42" unicode="&#xff42;" vert-adv-y="0" 
d="M183 104v1214h97v-368h253c16 0 30 -12 34 -18l193 -242c12 -14 14 -32 14 -42v-246c0 -20 -10 -36 -14 -42l-199 -242c-12 -14 -28 -14 -34 -14h-344zM280 218h227l172 208v198l-165 208h-234v-614z" />
    <glyph glyph-name="uniFF43" unicode="&#xff43;" vert-adv-y="0" 
d="M775 950v-118h-329l-167 -208v-198l172 -208h324v-116h-344c-6 0 -22 2 -34 16l-199 242c-4 6 -15 22 -15 42v246c0 10 3 28 15 42l195 242c4 6 16 18 32 18h350z" />
    <glyph glyph-name="uniFF44" unicode="&#xff44;" vert-adv-y="0" 
d="M775 102h-344c-6 0 -22 2 -34 16l-199 242c-4 6 -15 22 -15 42v246c0 10 3 28 15 42l195 242c4 6 16 18 32 18h253v368h97v-1216zM678 218v614h-232l-167 -208v-198l172 -208h227z" />
    <glyph glyph-name="uniFF45" unicode="&#xff45;" vert-adv-y="0" 
d="M279 462v-158l69 -90h427v-112h-446c-14 0 -29 10 -33 16l-100 120c-12 14 -13 32 -13 42v484c0 20 12 34 16 40l99 126c12 14 28 22 36 22h294c16 0 30 -16 34 -22l95 -124c12 -14 15 -30 15 -40v-304h-493zM280 586h398v156l-70 88h-256l-72 -90v-154z" />
    <glyph glyph-name="uniFF46" unicode="&#xff46;" vert-adv-y="0" 
d="M546 1198l-64 -82v-164h196v-122h-198v-732h-96v732h-201v122h201v188c0 16 3 30 13 42l93 118c10 12 21 18 35 18h250v-120h-229z" />
    <glyph glyph-name="uniFF47" unicode="&#xff47;" vert-adv-y="0" 
d="M728 380l-112 -138c-6 -10 -20 -18 -33 -18h-154c-12 0 -25 6 -35 18l-190 236c-8 8 -16 26 -16 42v134c0 14 6 30 16 42l195 244c6 10 21 16 34 16h245c12 0 24 -4 34 -16l98 -124c8 -8 16 -26 16 -42v-742c0 -14 -6 -30 -16 -42l-90 -112c-6 -10 -21 -18 -34 -18h-261
c-12 0 -24 6 -34 18l-94 116l69 84l79 -98h221l62 76v324zM728 548v202l-70 86h-205l-167 -206v-86l162 -200h115z" />
    <glyph glyph-name="uniFF48" unicode="&#xff48;" vert-adv-y="0" 
d="M183 96v1236h97v-536l117 144c10 10 21 10 34 10h193c13 0 24 -6 34 -16l102 -120c10 -12 15 -26 15 -44v-674h-97v648l-74 88h-153l-171 -202v-534h-97z" />
    <glyph glyph-name="uniFF49" unicode="&#xff49;" vert-adv-y="0" 
d="M486 1318h99v-122h-99v122zM486 952h99v-854h-99v854z" />
    <glyph glyph-name="uniFF4A" unicode="&#xff4a;" vert-adv-y="0" 
d="M786 34c0 -16 -7 -30 -17 -42l-97 -122c-10 -12 -19 -16 -33 -16h-201c-13 0 -24 6 -34 18l-97 122l67 84l85 -106h160l68 86v894h99v-918zM687 1318h100v-122h-100v122z" />
    <glyph glyph-name="uniFF4B" unicode="&#xff4b;" vert-adv-y="0" 
d="M501 524l269 -342l-70 -84l-287 368h-129v-368h-101v1220h101v-732h131l292 366l68 -84z" />
    <glyph glyph-name="uniFF4C" unicode="&#xff4c;" vert-adv-y="0" 
d="M594 246l22 -28h79v-120h-99c-13 0 -24 6 -34 18l-51 62c-10 12 -14 26 -14 42v1098h97v-1072z" />
    <glyph glyph-name="uniFF4D" unicode="&#xff4d;" vert-adv-y="0" 
d="M587 746v-648h-99v648l-67 84h-58l-72 -86v-646h-97v852h99v-34l15 18c10 12 21 18 34 18h100c14 0 26 -6 36 -18l58 -78l61 76c10 12 22 18 35 18h104c13 0 23 -6 33 -18l97 -118c10 -12 14 -26 14 -42v-674h-97v650l-67 82h-63z" />
    <glyph glyph-name="uniFF4E" unicode="&#xff4e;" vert-adv-y="0" 
d="M358 884l39 48c4 6 18 18 34 18h201c8 0 20 -2 32 -16l96 -116c4 -6 15 -22 15 -42v-674h-93v650l-69 78h-162l-68 -84v-646h-97v670c0 6 2 14 6 24l-29 40h-80v118h103c16 0 26 -10 30 -18z" />
    <glyph glyph-name="uniFF4F" unicode="&#xff4f;" vert-adv-y="0" 
d="M280 748v-444l70 -84h263l65 84v444l-64 88h-264zM199 814l99 126c12 14 26 14 32 14h306c16 0 29 -12 35 -20l91 -126c10 -12 13 -28 13 -38v-490c0 -20 -11 -36 -15 -42l-94 -118c-9 -13 -21 -14 -29 -14h-5h-302c-14 0 -26 8 -32 14l-100 116c-13 14 -15 32 -15 44
v494c0 20 12 34 16 40z" />
    <glyph glyph-name="uniFF50" unicode="&#xff50;" vert-adv-y="0" 
d="M183 956h356c10 0 16 0 22 -8l199 -236c4 -6 14 -22 14 -42v-268c0 -10 -2 -28 -14 -42l-195 -242c-4 -6 -16 -18 -32 -18h-253v-368h-97v1224zM280 830v-612h232l167 208v220l-157 184h-242z" />
    <glyph glyph-name="uniFF51" unicode="&#xff51;" vert-adv-y="0" 
d="M783 948v-1078h99v-124h-198v362h-248c-16 0 -28 12 -32 18l-194 242c-12 14 -16 32 -16 42v238c0 20 12 36 16 42l198 242c12 14 29 16 35 16h340zM684 832h-222l-172 -208v-190l167 -208h227v606z" />
    <glyph glyph-name="uniFF52" unicode="&#xff52;" vert-adv-y="0" 
d="M360 626v-526h-96v668c0 18 -4 30 -14 44c-12 12 -21 18 -37 18h-30v122h80c28 0 97 -58 97 -122v-38l112 140c10 12 21 20 34 20h118c14 0 26 -6 34 -18l102 -122c10 -12 15 -26 15 -44v-60h-97v36l-74 86h-77z" />
    <glyph glyph-name="uniFF53" unicode="&#xff53;" vert-adv-y="0" 
d="M672 744l-71 88h-249l-47 -60l452 -442c12 -12 18 -26 18 -44s-5 -34 -15 -46l-102 -124c-10 -12 -21 -18 -34 -18h-292c-13 0 -24 6 -34 18l-100 120c-10 12 -15 26 -15 44v56h97v-30l72 -88h252l49 60l-450 440c-12 10 -16 26 -18 44v7c0 15 5 29 13 39l97 126
c10 12 21 18 35 18h290c13 0 24 -6 34 -18l101 -122c10 -12 15 -26 15 -42v-64h-98v38z" />
    <glyph glyph-name="uniFF54" unicode="&#xff54;" vert-adv-y="0" 
d="M583 246l20 -28h80v-120h-99c-13 0 -24 6 -34 18l-50 62c-10 12 -15 26 -15 42v610h-199v122h199v366h98v-366h199v-122h-199v-584z" />
    <glyph glyph-name="uniFF55" unicode="&#xff55;" vert-adv-y="0" 
d="M706 168l-38 -48c-4 -6 -18 -18 -34 -18h-295c-8 0 -20 2 -32 16l-97 116c-4 6 -14 22 -14 42v676h95v-652l67 -82h257l67 88v646h97v-670c0 -6 -2 -14 -6 -24l30 -40h79v-116h-99c-16 0 -30 8 -34 16z" />
    <glyph glyph-name="uniFF56" unicode="&#xff56;" vert-adv-y="0" 
d="M291 782l245 -508l249 514v162h97v-178c0 -12 -3 -20 -7 -30l-297 -616c-10 -20 -24 -30 -42 -30s-32 10 -42 30l-293 610c-4 10 -7 18 -7 30v184h97v-168z" />
    <glyph glyph-name="uniFF57" unicode="&#xff57;" vert-adv-y="0" 
d="M588 422l141 -178l56 64v644h97v-670c0 -18 -6 -32 -16 -44l-103 -122c-10 -10 -22 -16 -34 -16s-23 6 -33 18l-158 198l-162 -204c-10 -12 -21 -20 -34 -20s-24 8 -34 20l-98 124c-10 12 -16 26 -16 42v674h97v-650l51 -62l147 182v164h99v-164z" />
    <glyph glyph-name="uniFF58" unicode="&#xff58;" vert-adv-y="0" 
d="M536 440l-249 -306v-38h-97v64c0 16 2 30 12 42l265 322l-265 324c-10 12 -12 28 -12 44v60h97v-40l249 -302l249 302v40h97v-60c0 -16 -4 -32 -14 -44l-264 -322l264 -324c10 -12 14 -26 14 -42v-64h-97v38z" />
    <glyph glyph-name="uniFF59" unicode="&#xff59;" vert-adv-y="0" 
d="M458 156l-260 326c-10 12 -15 26 -15 42v428h97v-404l248 -306l148 182v528h97v-552c0 -16 -5 -30 -15 -42l-497 -614l-68 84z" />
    <glyph glyph-name="uniFF5A" unicode="&#xff5a;" vert-adv-y="0" 
d="M194 952h688l-488 -734h488v-120h-688l490 732h-490v122z" />
    <glyph glyph-name="uniFF5B" unicode="&#xff5b;" vert-adv-y="0" 
d="M666 1346v-120h-126l-73 -88v-342c0 -20 -9 -36 -13 -42l-63 -80l63 -82c4 -6 13 -22 13 -42v-342l73 -88h126v-120h-145c-16 0 -31 12 -35 18l-101 122c-12 14 -15 34 -15 44v342l-68 88h-58v120h58l68 86v344c0 10 3 28 15 42l101 122c4 8 19 18 35 18h145z" />
    <glyph glyph-name="uniFF5C" unicode="&#xff5c;" vert-adv-y="0" 
d="M486 1440h99v-1676h-99v1676z" />
    <glyph glyph-name="uniFF5D" unicode="&#xff5d;" vert-adv-y="0" 
d="M433 1322c4 0 6 -2 8 -2s5 -2 7 -2s5 -2 7 -2s4 -2 6 -4s1 -2 3 -4l4 -4l101 -122c2 -2 4 -6 6 -8s2 -4 4 -8s2 -10 4 -14c0 -2 1 -4 1 -6v-8v-342l68 -88h58v-120h-58l-68 -86v-344v-6s-1 -4 -1 -6s-2 -6 -2 -8s0 -6 -2 -8s-2 -6 -4 -8l-6 -6l-101 -122l-4 -4
s-1 -2 -3 -4s-4 -4 -6 -4s-5 -2 -7 -2s-5 -2 -7 -2s-4 -2 -8 -2h-145v120h126l73 88v342v10c0 2 -0.25 3.5 -0.25 4.75s0.25 2.25 1.25 3.25c2 2 2 4 4 6s0 6 2 8c0 2 2 4 2 6s2 2 4 4l63 80l-63 82c-2 2 -4 2 -4 4s-2 4 -2 6c-2 2 0 6 -2 8s-2 4 -4 6
c-1 1 -1.25 2 -1.25 3.25s0.25 2.75 0.25 4.75v10v342l-73 88h-126v120h145z" />
    <glyph glyph-name="uniFF5E" unicode="&#xff5e;" vert-adv-y="0" 
d="M251 1136l-34 42l97 120c3.13379 3.87695 6.75293 7.38867 11 10c3.81348 2.34473 7.83594 4.35547 12 6c1.74609 0.689453 3.54199 1.27051 5.38965 1.60742c1.84668 0.335938 3.73242 0.392578 5.61035 0.392578h106c4.41309 0 8.87402 -0.432617 13 -2
c4.34375 -1.65039 8.32422 -4.15723 12 -7c3.36523 -2.60254 6.31836 -5.69727 9 -9l177 -218h66l77 96l35 -42l34 -42l-92 -114c-2.67285 -3.3125 -5.58691 -6.45703 -9 -9c-3.95996 -2.95117 -8.34961 -5.33691 -13 -7c-4.15332 -1.48535 -8.58887 -2 -13 -2h-105
c-4.08496 0 -8.20215 0.496094 -12 2c-3.88965 1.54004 -7.50684 3.69824 -11 6c-2.0791 1.37012 -4.10254 2.83594 -5.95117 4.50391c-1.84961 1.66895 -3.47949 3.5625 -5.04883 5.49609l-177 218h-65l-83 -102z" />
    <glyph glyph-name="uni2E28" unicode="&#x2e28;" vert-adv-y="0" 
d="M528 940l202 238c10 10 21 18 33 18c13 0 24 -8 32 -20c10 -12 15 -26 15 -42s-5 -28 -15 -40l-188 -226v-440l190 -232c10 -10 15 -26 15 -42s-5 -28 -15 -38c-10 -12 -20 -18 -32 -18s-25 6 -33 18l-203 250c-10 12 -15 22 -15 38v488c0 16 4 36 14 48zM280 940
l202 238c10 10 21 18 33 18c13 0 24 -8 32 -20c10 -12 15 -26 15 -42s-5 -28 -15 -40l-188 -226v-440l190 -232c10 -10 15 -26 15 -42s-5 -28 -15 -38c-10 -12 -20 -18 -32 -18s-25 6 -33 18l-203 250c-10 12 -15 22 -15 38v488c0 16 4 36 14 48z" />
    <glyph glyph-name="uni2E29" unicode="&#x2e29;" vert-adv-y="0" 
d="M603 354l-202 -238c-10 -10 -21 -18 -33 -18c-13 0 -24 8 -32 20c-10 12 -15 26 -15 42s5 28 15 40l188 226v440l-190 232c-10 10 -15 26 -15 42s5 28 15 38c10 12 20 18 32 18s25 -6 33 -18l203 -250c10 -12 15 -22 15 -38v-488c0 -16 -4 -36 -14 -48zM354 354
l-202 -238c-10 -10 -21 -18 -33 -18c-13 0 -24 8 -32 20c-10 12 -15 26 -15 42s5 28 15 40l188 226v440l-190 232c-10 10 -15 26 -15 42s5 28 15 38c10 12 20 18 32 18s25 -6 33 -18l203 -250c10 -12 15 -22 15 -38v-488c0 -16 -4 -36 -14 -48z" />
    <glyph glyph-name="uniFF61" unicode="&#xff61;" vert-adv-y="0" 
d="M414 296v-152h123v152h-123zM377 388h196c20 0 35 -22 35 -46v-244c0 -24 -15 -46 -35 -46h-196c-20 0 -37 22 -37 46v244c0 24 17 46 37 46z" />
    <glyph glyph-name="uniFF62" unicode="&#xff62;" vert-adv-y="0" 
d="M496 1298h-363v-576h-81v678h444v-102z" />
    <glyph glyph-name="uniFF63" unicode="&#xff63;" vert-adv-y="0" 
d="M572 -290h363v576h81v-678h-444v102z" />
    <glyph glyph-name="uniFF64" unicode="&#xff64;" vert-adv-y="0" 
 />
    <glyph glyph-name="uniFF65" unicode="&#xff65;" vert-adv-y="0" 
d="M431 878h192v-222h-192v222z" />
    <glyph glyph-name="uniFFE0" unicode="&#xffe0;" vert-adv-y="0" 
d="M474 1318h99v-244h197v-122h-197v-366h197v-122h-197v-244l-99 2v242h-166c-1.00195 0 -2.00293 -0.0429688 -3.00293 -0.0947266c-0.395508 -0.0205078 -0.792969 -0.0341797 -1.18945 -0.0341797c-0.605469 0 -1.20996 0.0332031 -1.80762 0.128906
c-1.35742 0.217773 -2.65039 0.736328 -4 1c-1 0.195312 -2.02148 0.239258 -3.03711 0.323242c-1.01465 0.0830078 -2.03516 0.256836 -2.96289 0.676758c-1.09766 0.496094 -2.02051 1.29883 -3 2c-1.2168 0.871094 -2.59375 1.48828 -4 2
c-1.4082 0.512695 -2.82422 1.07129 -4 2c-1.11035 0.87793 -2.00293 1.99512 -3 3c-0.996094 1.00488 -2.08984 1.91699 -3 3c-0.536133 0.637695 -1.00781 1.32715 -1.4873 2.00977c-0.478516 0.681641 -0.985352 1.34473 -1.5127 1.99023l-80 98
c-1.35059 0.292969 -2.57324 1.10352 -3.40918 2.2041s-1.25684 2.4541 -1.59082 3.7959c-0.254883 1.02539 -0.537109 2.05078 -1 3c-0.327148 0.669922 -0.710938 1.3125 -1 2c-0.40918 0.97168 -0.609375 2.02051 -1 3c-0.276367 0.692383 -0.645508 1.34375 -1 2
c-0.353516 0.65625 -0.678711 1.32715 -1 2s-0.65625 1.33887 -1 2c-0.245117 0.47168 -0.489258 0.946289 -0.671875 1.44531c-0.183594 0.499023 -0.296875 1.02441 -0.328125 1.55469c-0.00878906 0.142578 -0.0117188 0.285156 -0.0117188 0.427734
c0 0.384766 0.0224609 0.770508 0.0224609 1.15527c0 0.138672 -0.00292969 0.27832 -0.0107422 0.416992c-0.0302734 0.53125 -0.142578 1.05664 -0.327148 1.55469c-0.183594 0.499023 -0.431641 0.97168 -0.672852 1.44531
c-0.314453 0.619141 -0.612305 1.25098 -0.799805 1.91992c-0.161133 0.569336 -0.242188 1.16113 -0.242188 1.75293c0 0.102539 0.00292969 0.205078 0.0078125 0.307617c0.0664062 1.3877 0.576172 2.70801 1.03418 4.01953
c0.454102 1.29785 0.832031 2.63867 0.87207 4.0127c0.00292969 0.0830078 0.00390625 0.166016 0.00390625 0.249023c0 1.29199 -0.292969 2.58594 -0.875977 3.73828v292c0 0.854492 0.0644531 1.71289 0.279297 2.54004
c0.213867 0.827148 0.527344 1.62695 0.720703 2.45996c0.15332 0.661133 0.214844 1.33887 0.214844 2.01855c0 0.325195 -0.0136719 0.651367 -0.0390625 0.976562c-0.0683594 0.883789 -0.181641 1.76855 -0.181641 2.6543
c0 0.117188 0.00195312 0.233398 0.00585938 0.350586c0.03125 0.850586 0.18457 1.69336 0.386719 2.52051s0.436523 1.64648 0.613281 2.47949c0.353516 1.66504 0.451172 3.38965 1 5c0.481445 1.41309 1.30762 2.67773 2 4c0.833984 1.5918 1.37012 3.31738 2 5
c0.523438 1.39941 1.18262 2.74902 2 4c0.912109 1.39551 1.97949 2.68164 3 4c1.02051 1.31738 2.00391 2.66309 3 4l73 98c1.68652 1.98438 3.23145 4.08887 5 6c0.320312 0.345703 0.651367 0.682617 1 1c0.891602 0.813477 1.91602 1.46973 3 2
c0.669922 0.327148 1.35254 0.629883 2 1c1.04395 0.59668 1.9668 1.38477 3 2c0.772461 0.459961 1.61035 0.799805 2.46289 1.08789c0.851562 0.287109 1.71289 0.552734 2.53711 0.912109c1.36719 0.59668 2.6123 1.45312 4 2c1.28027 0.504883 2.65234 0.71875 4 1
c1.66504 0.34668 3.30566 0.851562 5 1c0.553711 0.0488281 1.1084 0.0644531 1.66406 0.0644531c1.11133 0 2.22461 -0.0644531 3.33594 -0.0644531h170v244zM474 952h-149l-45 -60v-242l48 -64h146v366z" />
    <glyph glyph-name="uniFFE1" unicode="&#xffe1;" vert-adv-y="0" 
d="M354 220l-12 4h-45v-12h45zM497 280l14 -4c1.17676 -0.335938 2.33984 -0.770508 3.33301 -1.48535s1.81934 -1.63184 2.66699 -2.51465c0.90332 -0.94043 1.86035 -1.8291 2.88379 -2.63672s2.09375 -1.55469 3.11621 -2.36328c1.85156 -1.46484 3.46289 -3.20703 5 -5
l36 -42h162l86 100l66 -88l-100 -116c-2.63184 -3.05371 -5.6084 -5.82129 -9 -8c-3.76953 -2.42188 -7.78125 -4.48926 -12 -6c-4.15332 -1.4873 -8.58887 -2 -13 -2h-198c-1.87695 0 -3.76172 0.0654297 -5.60547 0.413086
c-1.84375 0.348633 -3.63477 0.93457 -5.39453 1.58691c-4.06445 1.50586 -8.12109 3.06543 -12 5c-2.13867 1.06641 -4.19141 2.32129 -6.03223 3.8457c-1.83984 1.52441 -3.43066 3.32422 -4.96777 5.1543l-42 50l-33 12l-55 -66
c-2.8877 -3.46484 -6.12891 -6.68555 -10 -9c-3.46191 -2.07031 -7.19531 -3.65918 -11 -5c-1.92383 -0.677734 -3.88867 -1.25781 -5.90039 -1.59863s-4.05957 -0.401367 -6.09961 -0.401367h-101c-4.32324 0 -8.70312 0.233398 -12.8066 1.59375
s-7.83789 3.67969 -11.1934 6.40625c-7.39941 6.01367 -13.6182 13.5312 -18 22c-2.37012 4.58105 -4.07129 9.50879 -4.98828 14.584s-1.01172 10.2588 -1.01172 15.416v122c0 5.15723 0.0947266 10.3408 1.01172 15.416s2.61816 10.0029 4.98828 14.584
c4.38184 8.46875 10.6006 15.9863 18 22c3.35547 2.72656 7.08984 5.0459 11.1934 6.40625s8.4834 1.59375 12.8066 1.59375h98c1.01758 0 2.03809 -0.0742188 3.03027 -0.299805s1.96484 -0.541016 2.96973 -0.700195
c0.549805 -0.0869141 1.10352 -0.118164 1.65918 -0.118164c0.779297 0 1.5625 0.0615234 2.34082 0.118164c0.463867 0.0341797 0.930664 0.0576172 1.39648 0.0576172c0.561523 0 1.12207 -0.0341797 1.67578 -0.125977
c1.01367 -0.166016 1.98145 -0.533203 2.92773 -0.931641l38 -16v386h-199v122h199v306c0 4.68848 0.00683594 9.41797 1 14c1.05078 4.85059 3.07422 9.42578 5 14c1.04785 2.48828 2.1084 4.97656 3.41113 7.34082c1.30371 2.36328 2.90918 4.5459 4.58887 6.65918l97 122
c2.79785 3.51855 5.48828 7.19434 9 10c3.85645 3.08008 8.48926 4.99707 13 7c2.05371 0.912109 4.13281 1.79199 6.3125 2.33691s4.44043 0.663086 6.6875 0.663086h104c1.76855 0 3.55664 -0.126953 5.23438 -0.685547
c1.67871 -0.558594 3.22168 -1.45117 4.76562 -2.31445c2.08496 -1.16504 4.24316 -2.19727 6.46094 -3.08496s4.46973 -1.72266 6.53906 -2.91504c2.26172 -1.30273 4.25 -3.04004 6.00684 -4.9707c1.75586 -1.93066 3.35254 -4 4.99316 -6.0293l97 -120l-69 -84l-83 102
h-63l-69 -86v-282h198v-122h-198v-426z" />
    <glyph glyph-name="uniFFE2" unicode="&#xffe2;" vert-adv-y="0" 
d="M883 612h-100v210h-592v120h692v-330z" />
    <glyph glyph-name="uniFFE3" unicode="&#xffe3;" vert-adv-y="0" 
d="M133 1318h818v-122h-818v122z" />
    <glyph glyph-name="uniFFE4" unicode="&#xffe4;" vert-adv-y="0" 
d="M486 708v732h99v-732h-99zM585 468v-704h-99v704h99z" />
    <glyph glyph-name="uniFFE5" unicode="&#xffe5;" vert-adv-y="0" 
d="M486 704v38l-272 348c-10 12 -15 26 -15 42v62h98v-38l241 -304l237 304v38h98v-58c0 -16 -3 -32 -13 -44l-275 -350v-38h288v-112h-288v-222h288v-112h-288v-158h-99v158h-287v112h287v222h-287v112h287z" />
    <glyph glyph-name="uniFFE6" unicode="&#xffe6;" vert-adv-y="0" 
d="M532 314l-97 -200c-8 -14 -21 -18 -33 -18c-13 0 -24 6 -34 18l-98 120c-10 12 -14 26 -14 42v212h-57v112h57v222h-57v112h57v260h97v-260h366v262h97v-262h57v-112h-57v-222h57v-112h-57v-212c0 -18 -4 -32 -14 -44l-100 -118c-10 -10 -20 -16 -33 -16
c-12 0 -26 4 -34 18zM353 488v-188l49 -58l84 184v62h-133zM583 488v-66l86 -180l50 60v186h-136zM353 600h133v104h97v-104h136v222h-366v-222z" />
    <glyph glyph-name="uniFFE7" unicode="&#xffe7;" vert-adv-y="0" 
 />
    <glyph glyph-name="uniFFE8" unicode="&#xffe8;" vert-adv-y="0" 
 />
    <glyph glyph-name="uniFFE9" unicode="&#xffe9;" vert-adv-y="0" 
d="M520 952v-244h332v-122h-332v-244l-292 304z" />
    <glyph glyph-name="uniFFEA" unicode="&#xffea;" vert-adv-y="0" 
d="M787 672h-198v-412h-98v412h-198l247 360z" />
    <glyph glyph-name="uniFFEB" unicode="&#xffeb;" vert-adv-y="0" 
d="M560 952l292 -306l-292 -304v244h-332v122h332v244z" />
    <glyph glyph-name="uniFFEC" unicode="&#xffec;" vert-adv-y="0" 
d="M293 624h198v408h98v-408h198l-247 -364z" />
    <glyph glyph-name="uniFFED" unicode="&#xffed;" vert-adv-y="0" 
d="M364 1020h340v-432h-340v432z" />
    <glyph glyph-name="uniFFEE" unicode="&#xffee;" vert-adv-y="0" 
d="M370 804c0 -126 79 -226 178 -226c97 0 178 100 178 226s-81 226 -178 226c-99 0 -178 -100 -178 -226zM289 804c0 180 115 326 259 326c142 0 259 -146 259 -326s-117 -326 -259 -326c-144 0 -259 146 -259 326z" />
    <glyph glyph-name="uniFFFC" unicode="&#xfffc;" vert-adv-y="0" 
d="M748 382h81v-284c0 -14 -4 -30 -12 -38l-48 -52c-8 -8 -17 -12 -27 -12h-87c-10 0 -20 6 -28 14l-47 52c-8 10 -13 24 -13 36v96h81v-74l21 -24h59l20 24v262zM305 1382h158c22 0 39 -22 39 -50v-288c0 -28 -17 -50 -39 -50h-158c-22 0 -43 22 -43 50v288
c0 28 21 50 43 50zM343 1282v-188h78v188h-78zM412 776v100h130c10 0 19 -4 25 -12l68 -72c10 -10 13 -22 13 -36c0 -16 -6 -32 -16 -40l-29 -34l32 -38c10 -10 13 -24 13 -38c0 -12 -5 -26 -13 -34l-61 -76c-8 -10 -22 -14 -30 -14h-132v100h9v194h-9zM502 582h26l20 24
l-23 28h-23v-52zM502 776v-42h23l19 20l-19 22h-23z" />
    <glyph glyph-name="uniFFFD" unicode="&#xfffd;" vert-adv-y="0" 
d="M442 736c8 0 17 10 17 20v70l25 32h115l28 -32v-20l-143 -162c-10 -10 -13 -24 -13 -36v-92c0 -10 8 -20 16 -20h49c8 0 16 10 16 20v70l142 164c6 8 14 20 14 36v60c0 12 -4 24 -12 34l-50 62c-8 10 -19 14 -29 14h-149c-6 0 -17 0 -27 -12l-53 -62
c-6 -8 -10 -20 -10 -34v-92c0 -10 8 -20 16 -20h48zM484 416c-8 0 -16 -10 -16 -20v-60c0 -10 8 -20 16 -20h56c8 0 16 10 16 20v60c0 10 -8 20 -16 20h-56zM155 688l347 428c10 12 21 18 34 18s24 -6 34 -18l347 -428c10 -12 14 -28 14 -42s-4 -30 -14 -42l-347 -428
c-10 -12 -21 -18 -34 -18s-24 6 -34 18l-347 428c-10 12 -14 28 -14 42s4 30 14 42z" />
    <glyph glyph-name="uniFFFE" vert-adv-y="0" 
 />
    <glyph glyph-name="uni2B60" unicode="&#x2b60;" vert-adv-y="0" 
d="M313 1502h97v-728h-97v728zM410 122h-97v388c0 20 9 38 19 48l259 250v296h-74l123 360l123 -360h-75v-326c0 -14 -6 -36 -19 -48l-259 -250v-358z" />
    <glyph glyph-name="uni2B61" unicode="&#x2b61;" vert-adv-y="0" 
d="M500 646h97l149 -304v304h99v-608h-99l-149 304v-304h-97v608zM253 1382h99v-488h200v-120h-299v608z" />
    <glyph glyph-name="uni2B62" unicode="&#x2b62;" vert-adv-y="0" 
d="M433 1116h281v-90h-281v-436h90v184h146v86h-146v80h191v-236c-4 -6 -12 -10 -22 -14s-17 -6 -23 -6h-75v-94c0 -24 -5 -46 -19 -64s-32 -26 -52 -26h-90c-20 0 -39 8 -53 26s-22 40 -22 64v436c0 24 8 46 22 64s33 26 53 26z" />
    <glyph glyph-name="uni2B63" unicode="&#x2b63;" vert-adv-y="0" 
d="M358 1116h282c20 0 38 -8 52 -26s22 -40 22 -64v-86c0 -24 -8 -44 -22 -62s-32 -26 -52 -26h-43v-262c0 -24 -8 -46 -22 -64s-32 -26 -52 -26h-90c-20 0 -39 8 -53 26s-22 40 -22 64v114v236h75v-350h90v350h117v86h-282v90z" />
    <glyph glyph-name="uni2B64" unicode="&#x2b64;" vert-adv-y="0" 
d="M536 1186c84 0 114 -74 126 -160c2 -12 4 -20 4 -28v-132h97v-138c0 -29 -12 -81 -18 -108c-26 -108 -94 -192 -209 -192c-145 0 -207 126 -227 278c-1 4 -1 8 -1 11c0 7 1 14 1 19v130h97v132c0 3 -1 8 -1 15c0 21 7 37 11 53c18 65 50 120 120 120zM536 1106
c-37 0 -46 -26 -57 -58c-4 -10 -4 -26 -4 -50s-4 -42 -4 -58v-74h130v132c0 22 -4 40 -8 50s-4 22 -8 32c-9 18 -27 26 -49 26zM585 686c0 46 -13 100 -49 100s-49 -54 -49 -100c0 -39 7 -64 23 -84c8 -10 16 -16 26 -16c21 0 40 30 44 52c4 14 5 30 5 48z" />
    <glyph glyph-name="uni2B80" unicode="&#x2b80;" vert-adv-y="0" 
d="M110 1600l769 -1002l-761 -998h-25v2000h17z" />
    <glyph glyph-name="uni2B81" unicode="&#x2b81;" vert-adv-y="0" 
d="M100 1578c6 8 13 14 26 14c10 0 20 -4 26 -16l667 -944c6 -8 10 -18 10 -34s-4 -26 -10 -34l-667 -946c-6 -12 -16 -14 -26 -14c-13 0 -20 4 -26 12c-6 12 -13 24 -13 36c0 16 4 26 10 34l643 912l-643 912c-6 8 -10 22 -10 38c0 12 7 18 13 30z" />
    <glyph glyph-name="uni2B82" unicode="&#x2b82;" vert-adv-y="0" 
d="M970 1600h17v-2000h-25l-761 998z" />
    <glyph glyph-name="uni2B83" unicode="&#x2b83;" vert-adv-y="0" 
d="M964 1578c6 -8 13 -18 13 -30c0 -16 -4 -30 -10 -38l-643 -912l643 -912c6 -8 10 -18 10 -34s-7 -24 -13 -36c-6 -8 -15 -12 -28 -12c-10 0 -16 2 -22 14l-669 946c-6 8 -10 18 -10 34s4 22 10 34l669 944c6 12 12 16 22 16c13 0 22 -6 28 -14z" />
    <glyph glyph-name="uni21E0" unicode="&#x21e0;" vert-adv-y="0" 
d="M483 952v-244h34v-122h-34v-244l-292 304zM564 708h101v-122h-101v122zM912 708h65v-122h-65v122zM740 708h100v-122h-100v122z" />
    <glyph glyph-name="uni21E1" unicode="&#x21e1;" vert-adv-y="0" 
d="M240 770l248 362l246 -362h-197v-42h-99v42h-198zM438 670h99v-124h-99v124zM438 242h99v-82h-99v82zM438 454h99v-124h-99v124z" />
    <glyph glyph-name="uni21E2" unicode="&#x21e2;" vert-adv-y="0" 
d="M587 952l292 -306l-292 -304v244h-34v122h34v244zM506 708v-122h-101v122h101zM158 708v-122h-65v122h65zM330 708v-122h-100v122h100z" />
    <glyph glyph-name="uni21E3" unicode="&#x21e3;" vert-adv-y="0" 
d="M734 522l-248 -362l-246 362h198v42h99v-42h197zM537 622h-99v124h99v-124zM537 1050h-99v82h99v-82zM537 838h-99v124h99v-124z" />
    <glyph glyph-name="uni25B4" unicode="&#x25b4;" vert-adv-y="0" 
d="M289 604l254 473l240 -473h-494z" />
    <glyph glyph-name="uni25BE" unicode="&#x25be;" vert-adv-y="0" 
d="M543 655l-254 473h494z" />
    <glyph glyph-name="SF110000" unicode="&#x2502;" vert-adv-y="0" 
d="M599 1600v-2000h-99v2000h99z" />
    <glyph glyph-name="SF100000" unicode="&#x2500;" vert-adv-y="0" 
d="M977 710v-122h-874v122h874z" />
    <glyph glyph-name="SF050000" unicode="&#x253c;" vert-adv-y="0" 
d="M498 1600h99v-890h380v-122h-380v-988h-99v988h-395v122h395v890z" />
    <glyph glyph-name="uniE0B0" unicode="&#xe0b0;" vert-adv-y="0" 
d="M103 1592l742 -994l-742 -994h-14v1988h14z" />
    <glyph glyph-name="uniE0B1" unicode="&#xe0b1;" vert-adv-y="0" 
d="M100 1578c6 8 13 14 26 14c10 0 20 -4 26 -16l667 -944c6 -8 10 -18 10 -34s-4 -26 -10 -34l-667 -946c-6 -12 -16 -14 -26 -14c-13 0 -20 4 -26 12c-6 12 -13 24 -13 36c0 16 4 26 10 34l643 912l-643 912c-6 8 -10 22 -10 38c0 12 7 18 13 30z" />
    <glyph glyph-name="uniE0A2" unicode="&#xe0a2;" vert-adv-y="0" 
d="M536 1376c118 0 178 -111 190 -240c2 -18 4 -30 4 -42v-198h146v-208c0 -44 -17 -122 -26 -162c-18 -66 -58 -149 -97 -194c-50 -54 -124 -94 -217 -94c-114 0 -184 51 -238 124c-18 24 -34 48 -44 74c-17 49 -38 98 -46 156c-6 24 -6 46 -8 64s-4 32 -4 44v196h146v198
c0 6 4 20 4 42c0 20 6 40 10 58c12 43 35 92 57 124c22 35 72 58 123 58zM536 1256c-32 0 -56 -11 -68 -42c-15 -43 -25 -53 -25 -120c0 -36 -4 -64 -4 -88v-110h194v198c0 32 -6 60 -12 74c-11 52 -33 88 -85 88zM536 776c-32 0 -60 -43 -65 -78c-6 -22 -8 -46 -8 -72
c0 -56 9 -99 34 -126c13 -16 25 -24 39 -24c30 0 61 43 65 78c6 20 8 44 8 72c0 53 -9 101 -34 128c-13 16 -25 22 -39 22z" />
    <glyph glyph-name="uniE0A0" unicode="&#xe0a0;" vert-adv-y="0" 
d="M313 1502h97v-728h-97v728zM410 122h-97v388c0 20 9 38 19 48l259 250v296h-74l123 360l123 -360h-75v-326c0 -14 -6 -36 -19 -48l-259 -250v-358z" />
    <glyph glyph-name="uniE0A1" unicode="&#xe0a1;" vert-adv-y="0" 
d="M500 646h97l149 -304v304h99v-608h-99l-149 304v-304h-97v608zM253 1382h99v-488h200v-120h-299v608z" />
    <glyph glyph-name="block" unicode="&#x2588;" vert-adv-y="0" 
d="M103 1600h874v-2000h-874v2000z" />
    <glyph glyph-name="NameMe.702" vert-adv-y="0" 
d="M297 1336v-1100h477v1100h-477zM199 1458h674v-1342h-674v1342z" />
    <glyph glyph-name="uniFF21" unicode="&#xff21;" vert-adv-y="0" 
d="M295 488v-390h-96v676c0 18 11 34 15 40l286 362c10 14 22 18 32 18c16 0 30 -8 38 -18l290 -364c12 -14 13 -32 13 -42v-672h-98v390h-480zM297 600h478v146l-241 300l-237 -298v-148z" />
    <glyph glyph-name="SF080000" unicode="&#x251c;" vert-adv-y="0" 
d="M545 1600h98v-890h380v-122h-380v-988h-98v2000z" />
    <glyph glyph-name="SF090000" unicode="&#x2524;" vert-adv-y="0" 
d="M454 1600h99v-2000h-99v988h-396v122h396v890z" />
    <glyph glyph-name="SF010000" unicode="&#x250c;" vert-adv-y="0" 
d="M545 -398v1108h478v-122h-378v-986h-100z" />
    <glyph glyph-name="SF030000" unicode="&#x2510;" vert-adv-y="0" 
d="M554 -398h-100v986h-396v122h496v-1108z" />
    <glyph glyph-name="SF020000" unicode="&#x2514;" vert-adv-y="0" 
d="M545 1600h100v-890h378v-122h-478v1012z" />
    <glyph glyph-name="SF040000" unicode="&#x2518;" vert-adv-y="0" 
d="M554 1600v-1012h-496v122h396v890h100z" />
    <glyph glyph-name="uni21E7" unicode="&#x21e7;" vert-adv-y="0" 
d="M382 -22v652h-252l402 644l400 -644h-250v-652h-300zM480 98h105v652h151l-204 328l-204 -328h152v-652z" />
    <glyph glyph-name="uni21E9" unicode="&#x21e9;" vert-adv-y="0" 
d="M387 1316h301v-652h249l-401 -644l-401 644h252v652zM484 1196v-652h-152l204 -328l204 328h-149v652h-107z" />
    <glyph glyph-name="arrowleft" unicode="&#x2190;" vert-adv-y="0" 
d="M483 952v-244h494v-122h-494v-244l-292 304z" />
    <glyph glyph-name="arrowright" unicode="&#x2192;" vert-adv-y="0" 
d="M599 952l292 -306l-292 -304v244h-494v122h494v244z" />
    <glyph glyph-name="filledbox" unicode="&#x25a0;" vert-adv-y="0" 
d="M222 1012h628v-776h-628v776z" />
    <glyph glyph-name="lfblock" unicode="&#x258c;" vert-adv-y="0" 
d="M53 1600h438v-2000h-438v2000z" />
    <glyph glyph-name="rtblock" unicode="&#x2590;" vert-adv-y="0" 
d="M591 1600h438v-2000h-438v2000z" />
    <glyph glyph-name="upblock" unicode="&#x2580;" vert-adv-y="0" 
d="M103 1600h874v-1000h-874v1000z" />
    <glyph glyph-name="dnblock" unicode="&#x2584;" vert-adv-y="0" 
d="M103 600h874v-1000h-874v1000z" />
    <glyph glyph-name="NameMe.721" vert-adv-y="0" 
d="M164 810h246v312l522 -496l-522 -494v308h-246v370zM261 690v-130h246v-186l266 252l-266 252v-188h-246z" />
    <glyph glyph-name="uni21E8" unicode="&#x21e8;" vert-adv-y="0" 
d="M164 810h246v312l522 -496l-522 -494v308h-246v370zM261 690v-130h246v-186l266 252l-266 252v-188h-246z" />
    <glyph glyph-name="NameMe.1114234" vert-adv-y="0" 
d="M723 444h-246v-312l-522 496l522 494v-308h246v-370zM626 564v130h-246v186l-266 -252l266 -252v188h246z" />
    <glyph glyph-name="uni21E6" unicode="&#x21e6;" vert-adv-y="0" 
d="M723 444h-246v-312l-522 496l522 494v-308h246v-370zM626 564v130h-246v186l-266 -252l266 -252v188h246z" />
    <glyph glyph-name="Hcircumflex" unicode="&#x124;" vert-adv-y="0" 
d="M318 1250l-34 42l222 274c3.01074 3.71582 6.14453 7.39453 9.98926 10.2383c3.84473 2.84277 8.32324 4.81641 13.0107 5.76172c2.66309 0.537109 5.36621 0.780273 8.07617 0.780273c5.71191 0 11.4561 -1.08203 16.9238 -2.78027
c3.95801 -1.22949 7.80273 -2.9082 11.1963 -5.28613c3.39453 -2.37793 6.1875 -5.5 8.80371 -8.71387l223 -274l-35 -42l-35 -42l-187 231l-187 -231zM199 1194h96v-482h482v482h96v-1094h-96v500h-482v-500h-96v1094z" />
    <glyph glyph-name="hcircumflex" unicode="&#x125;" vert-adv-y="0" 
d="M183 96v1236h97v-0.846847l200 246.847c3.01074 3.71582 6.14453 7.39453 9.98926 10.2383c3.84473 2.84277 8.32324 4.81641 13.0107 5.76172c2.66309 0.537109 5.36621 0.780273 8.07617 0.780273c5.71191 0 11.4561 -1.08203 16.9238 -2.78027
c3.95801 -1.22949 7.80273 -2.9082 11.1963 -5.28613c3.39453 -2.37793 6.1875 -5.5 8.80371 -8.71387l223 -274l-35 -42l-35 -42l-187 231l-187 -231l-35 42l-12 14.8235v-480.824l117 144c10 10 21 10 34 10h193c13 0 24 -6 34 -16l102 -120c10 -12 15 -26 15 -44v-674
h-97v648l-74 88h-153l-171 -202v-534h-97z" />
    <glyph glyph-name="Hbar" unicode="&#x126;" vert-adv-y="0" 
d="M188 1194h99v-254h496v254h97v-254h39v-118h-39v-724h-97v488h-496v-488h-99v724h-41v118h41v254zM783 822h-496v-114h496v114z" />
    <glyph glyph-name="hbar" unicode="&#x127;" vert-adv-y="0" 
d="M169 1076h-39v118h39v138h97v-138h225v-118h-225v-280l117 144c10 10 21 10 34 10h197c13 0 23 -6 33 -16l102 -120c10 -12 15 -26 15 -44v-674h-97v648l-73 88h-158l-170 -202v-534h-97v980z" />
    <glyph glyph-name="Itilde" unicode="&#x128;" vert-adv-y="0" 
d="M251 1412l-34 42l97 120c3.13379 3.87695 6.75293 7.38867 11 10c3.81348 2.34473 7.83594 4.35547 12 6c1.74609 0.689453 3.54199 1.27051 5.38965 1.60742c1.84668 0.335938 3.73242 0.392578 5.61035 0.392578h106c4.41309 0 8.87402 -0.432617 13 -2
c4.34375 -1.65039 8.32422 -4.15723 12 -7c3.36523 -2.60254 6.31836 -5.69727 9 -9l177 -218h66l77 96l35 -42l34 -42l-92 -114c-2.67285 -3.3125 -5.58691 -6.45703 -9 -9c-3.95996 -2.95117 -8.34961 -5.33691 -13 -7c-4.15332 -1.48535 -8.58887 -2 -13 -2h-105
c-4.08496 0 -8.20215 0.496094 -12 2c-3.88965 1.54004 -7.50684 3.69824 -11 6c-2.0791 1.37012 -4.10254 2.83594 -5.95117 4.50391c-1.84961 1.66895 -3.47949 3.5625 -5.04883 5.49609l-177 218h-65l-83 -102zM392 1194h288v-120h-95v-856h95v-122h-288v122h95v856h-95
v120z" />
    <glyph glyph-name="itilde" unicode="&#x129;" vert-adv-y="0" 
d="M251 1242l-34 42l97 120c3.13379 3.87695 6.75293 7.38867 11 10c3.81348 2.34473 7.83594 4.35547 12 6c1.74609 0.689453 3.54199 1.27051 5.38965 1.60742c1.84668 0.335938 3.73242 0.392578 5.61035 0.392578h106c4.41309 0 8.87402 -0.432617 13 -2
c4.34375 -1.65039 8.32422 -4.15723 12 -7c3.36523 -2.60254 6.31836 -5.69727 9 -9l177 -218h66l77 96l35 -42l34 -42l-92 -114c-2.67285 -3.3125 -5.58691 -6.45703 -9 -9c-3.95996 -2.95117 -8.34961 -5.33691 -13 -7c-4.15332 -1.48535 -8.58887 -2 -13 -2h-105
c-4.08496 0 -8.20215 0.496094 -12 2c-3.88965 1.54004 -7.50684 3.69824 -11 6c-2.0791 1.37012 -4.10254 2.83594 -5.95117 4.50391c-1.84961 1.66895 -3.47949 3.5625 -5.04883 5.49609l-177 218h-65l-83 -102zM486 952h99v-854h-99v854z" />
    <glyph glyph-name="imacron" unicode="&#x12b;" vert-adv-y="0" 
d="M270 1318h530v-122h-530v122zM486 952h99v-854h-99v854z" />
    <glyph glyph-name="ibreve" unicode="&#x12d;" vert-adv-y="0" 
d="M283 1314l97 4c1.35254 -15.4619 3.63867 -30.8477 7 -46c3.33887 -15.0508 7.76367 -29.9014 14 -44c5.70703 -12.9023 12.9854 -25.1465 22 -36c9.09375 -10.9492 19.9453 -20.4326 32 -28c10.8945 -6.83887 22.7168 -12.1816 35 -16
c11.6572 -3.62402 23.793 -5.84668 36 -6c0.441406 -0.00585938 0.881836 -0.00878906 1.32324 -0.00878906c12.1143 0 24.2148 2.08496 35.6768 6.00879c12.1797 4.16992 23.6377 10.3604 34 18c10.8447 7.99512 20.501 17.5459 29 28
c9.00293 11.0732 16.7402 23.1758 23 36c6.81543 13.9609 11.8398 28.7891 15 44c2.69824 12.9863 4.05176 26.252 4.05176 39.5156c0 1.49512 -0.0175781 2.99023 -0.0517578 4.48438h97c0.0439453 -2.07812 0.0654297 -4.15625 0.0654297 -6.23438
c0 -23.46 -2.76953 -46.9102 -8.06543 -69.7656c-5.57715 -24.0684 -13.7949 -47.5 -24 -70c-9.9668 -21.9736 -21.9766 -43.1201 -37 -62c-13.998 -17.5908 -30.5967 -33.0889 -49 -46c-17.873 -12.54 -37.4111 -22.7334 -58 -30
c-19.3018 -6.8125 -39.5547 -11.0254 -60 -12c-2.95898 -0.140625 -5.92188 -0.211914 -8.88477 -0.211914c-18.3213 0 -36.6455 2.7041 -54.1152 8.21191c-21.126 6.66016 -40.876 17.2656 -59 30c-18.7783 13.1943 -35.9873 28.6406 -51 46
c-15.6523 18.0986 -28.7588 38.375 -39 60c-10.8506 22.9131 -18.5547 47.2393 -24 72c-5.49512 24.9844 -8.76172 50.4482 -10 76zM486 952h99v-854h-99v854z" />
    <glyph glyph-name="iogonek" unicode="&#x12f;" vert-adv-y="0" 
d="M454 -240c-2 2 -5 10 -5 18v132h93v-100l35 -46h36v-116h-57c-16 0 -22 6 -32 18l-62 82zM486 1318h99v-122h-99v122zM486 952h99v-854h-99v854z" />
    <glyph glyph-name="dotlessi" unicode="&#x131;" vert-adv-y="0" 
d="M486 952h99v-854h-99v854z" />
    <glyph glyph-name="Idotaccent" unicode="&#x130;" vert-adv-y="0" 
d="M386 1194h297v-120h-98v-856h98v-122h-297v122h100v856h-100v120zM486 1440h99v-122h-99v122z" />
    <glyph glyph-name="Imacron" unicode="&#x12a;" vert-adv-y="0" 
d="M270 1440h530v-122h-530v122zM392 1194h288v-120h-95v-856h95v-122h-288v122h95v856h-95v120z" />
    <glyph glyph-name="Ibreve" unicode="&#x12c;" vert-adv-y="0" 
d="M283 1534l97 4c1.35254 -15.4619 3.63867 -30.8477 7 -46c3.33887 -15.0508 7.76367 -29.9014 14 -44c5.70703 -12.9023 12.9854 -25.1465 22 -36c9.09375 -10.9492 19.9453 -20.4326 32 -28c10.8945 -6.83887 22.7168 -12.1816 35 -16
c11.6572 -3.62402 23.793 -5.84668 36 -6c0.441406 -0.00585938 0.881836 -0.00878906 1.32324 -0.00878906c12.1143 0 24.2148 2.08496 35.6768 6.00879c12.1797 4.16992 23.6377 10.3604 34 18c10.8447 7.99512 20.501 17.5459 29 28
c9.00293 11.0732 16.7402 23.1758 23 36c6.81543 13.9609 11.8398 28.7891 15 44c2.69824 12.9863 4.05176 26.252 4.05176 39.5156c0 1.49512 -0.0175781 2.99023 -0.0517578 4.48438h97c0.0439453 -2.07812 0.0654297 -4.15625 0.0654297 -6.23438
c0 -23.46 -2.76953 -46.9102 -8.06543 -69.7656c-5.57715 -24.0684 -13.7949 -47.5 -24 -70c-9.9668 -21.9736 -21.9766 -43.1201 -37 -62c-13.998 -17.5908 -30.5967 -33.0889 -49 -46c-17.873 -12.54 -37.4111 -22.7334 -58 -30
c-19.3018 -6.8125 -39.5547 -11.0254 -60 -12c-2.95898 -0.140625 -5.92188 -0.211914 -8.88477 -0.211914c-18.3213 0 -36.6455 2.7041 -54.1152 8.21191c-21.126 6.66016 -40.876 17.2656 -59 30c-18.7783 13.1943 -35.9873 28.6406 -51 46
c-15.6523 18.0986 -28.7588 38.375 -39 60c-10.8506 22.9131 -18.5547 47.2393 -24 72c-5.49512 24.9844 -8.76172 50.4482 -10 76zM392 1194h288v-120h-95v-856h95v-122h-288v122h95v856h-95v120z" />
    <glyph glyph-name="Iogonek" unicode="&#x12e;" vert-adv-y="0" 
d="M504 -240c-2 2 -5 10 -5 18v132h93v-100l35 -46h36v-116h-57c-16 0 -22 6 -32 18l-62 82zM392 1194h288v-120h-95v-856h95v-122h-288v122h95v856h-95v120z" />
    <glyph glyph-name="ogonek" unicode="&#x2db;" vert-adv-y="0" 
d="M256 12c-2 2 -5 10 -5 18v132h93v-100l35 -46h36v-116h-57c-16 0 -22 6 -32 18l-62 82z" />
    <glyph glyph-name="breve" unicode="&#x2d8;" vert-adv-y="0" 
d="M283 1314l97 4c1.35269 -15.4617 3.63861 -30.8476 7 -46c3.33877 -15.0505 7.76359 -29.9014 14 -44c5.70741 -12.9027 12.9857 -25.1466 22 -36c9.0942 -10.9496 19.9449 -20.4321 32 -28c10.8946 -6.83933 22.7164 -12.1814 35 -16
c11.6577 -3.62403 23.793 -5.84673 36 -6c0.441126 -0.00553869 0.882265 -0.00830215 1.32339 -0.00830215c12.1141 0 24.2146 2.0841 35.6766 6.0083c12.1796 4.16987 23.638 10.3607 34 18c10.8443 7.9949 20.5007 17.5463 29 28c9.0027 11.0728 16.7399 23.1755 23 36
c6.81497 13.9613 11.8394 28.7891 15 44c2.69844 12.9868 4.05157 26.2516 4.05157 39.5159c0 1.49484 -0.0171852 2.98966 -0.0515669 4.48409h97c0.0436475 -2.07808 0.0653865 -4.1565 0.0653865 -6.23486c0 -23.459 -2.76962 -46.9096 -8.06539 -69.7651
c-5.57684 -24.0686 -13.7946 -47.5 -24 -70c-9.96665 -21.9736 -21.9763 -43.1198 -37 -62c-13.9977 -17.5909 -30.597 -33.0886 -49 -46c-17.8733 -12.5397 -37.4112 -22.7337 -58 -30c-19.3016 -6.81204 -39.5548 -11.0254 -60 -12
c-2.95923 -0.141064 -5.92219 -0.211805 -8.88524 -0.211805c-18.3205 0 -36.6446 2.70438 -54.1148 8.2118c-21.1255 6.65976 -40.8762 17.2655 -59 30c-18.7781 13.1942 -35.9876 28.6411 -51 46c-15.6519 18.0983 -28.7592 38.3746 -39 60
c-10.8504 22.9128 -18.5543 47.2396 -24 72c-5.49492 24.9843 -8.76187 50.4486 -10 76z" />
    <glyph glyph-name="Jcircumflex" unicode="&#x134;" vert-adv-y="0" 
d="M225 1268l-34 42l222 274c3.01074 3.71582 6.14453 7.39453 9.98926 10.2383c3.84473 2.84277 8.32324 4.81641 13.0107 5.76172c2.66309 0.537109 5.36621 0.780273 8.07617 0.780273c5.71191 0 11.4561 -1.08203 16.9238 -2.78027
c3.95801 -1.22949 7.80273 -2.9082 11.1963 -5.28613c3.39453 -2.37793 6.1875 -5.5 8.80371 -8.71387l223 -274l-35 -42l-35 -42l-187 231l-187 -231zM188 464h95v-162l72 -82h150l68 86v768h-97v120h290v-120h-97v-792c0 -8 -1 -28 -13 -42l-95 -122
c-6 -8 -20 -18 -36 -18h-191c-6 0 -22 2 -34 16l-98 116c-4 6 -14 22 -14 42v190z" />
    <glyph glyph-name="jcircumflex" unicode="&#x135;" vert-adv-y="0" 
d="M783 34c0 -16 -6 -30 -16 -42l-97 -122c-10 -12 -20 -16 -34 -16h-201c-13 0 -23 6 -33 18l-99 122l69 84l85 -106h160l67 86v894h99v-918zM316 1084l-34 42l222 274c3.01074 3.71582 6.14453 7.39453 9.98926 10.2383c3.84473 2.84277 8.32324 4.81641 13.0107 5.76172
c2.66309 0.537109 5.36621 0.780273 8.07617 0.780273c5.71191 0 11.4561 -1.08203 16.9238 -2.78027c3.95801 -1.22949 7.80273 -2.9082 11.1963 -5.28613c3.39453 -2.37793 6.1875 -5.5 8.80371 -8.71387l223 -274l-35 -42l-35 -42l-187 231l-187 -231z" />
    <glyph glyph-name="IJ" unicode="&#x132;" vert-adv-y="0" 
d="M423 464h93v-162l72 -82h74l68 86v768h-56v120h204v-120h-50v-792c0 -8 -1 -28 -13 -42l-95 -122c-6 -8 -20 -22 -36 -22h-116c-6 0 -22 6 -34 20l-97 116c-4 6 -14 22 -14 42v190zM196 1194h227v-120h-65v-856h65v-122h-227v122h63v856h-63v120z" />
    <glyph glyph-name="ij" unicode="&#x133;" vert-adv-y="0" 
d="M786 34c0 -16 -7 -30 -17 -42l-97 -122c-10 -12 -19 -16 -33 -16h-201c-13 0 -24 6 -34 18l-97 122l67 84l85 -106h160l68 86v894h99v-918zM687 1318h100v-122h-100v122zM486 1318h99v-122h-99v122zM486 952h99v-854h-99v854z" />
    <glyph glyph-name="ellipsis" unicode="&#x2026;" vert-adv-y="0" 
d="M367 342h115v-244h-115v244zM129 342h115v-244h-115v244zM604 342h115v-244h-115v244z" />
    <glyph glyph-name="uni27F3" unicode="&#x27f3;" vert-adv-y="0" 
d="M818 948v240c0 32 22 60 48 60s49 -28 49 -60v-424c0 -32 -23 -60 -49 -60h-340c-26 0 -49 28 -49 60s23 60 49 60h168h18h52c-39 110 -126 186 -228 186c-138 0 -250 -136 -250 -306s112 -310 250 -310c105 0 195 82 231 196h103c-40 -182 -174 -316 -334 -316
c-191 0 -347 194 -347 430s156 426 347 426c117 0 219 -72 282 -182z" />
    <glyph glyph-name="etilde" unicode="&#x1ebd;" vert-adv-y="0" 
d="M279 462v-158l69 -90h427v-112h-446c-14 0 -29 10 -33 16l-100 120c-12 14 -13 32 -13 42v484c0 20 12 34 16 40l99 126c12 14 28 22 36 22h294c16 0 30 -16 34 -22l95 -124c12 -14 15 -30 15 -40v-304h-493zM280 586h398v156l-70 88h-256l-72 -90v-154zM251 1136l-34 42
l97 120c3.13379 3.87695 6.75293 7.38867 11 10c3.81348 2.34473 7.83594 4.35547 12 6c1.74609 0.689453 3.54199 1.27051 5.38965 1.60742c1.84668 0.335938 3.73242 0.392578 5.61035 0.392578h106c4.41309 0 8.87402 -0.432617 13 -2
c4.34375 -1.65039 8.32422 -4.15723 12 -7c3.36523 -2.60254 6.31836 -5.69727 9 -9l177 -218h66l77 96l35 -42l34 -42l-92 -114c-2.67285 -3.3125 -5.58691 -6.45703 -9 -9c-3.95996 -2.95117 -8.34961 -5.33691 -13 -7c-4.15332 -1.48535 -8.58887 -2 -13 -2h-105
c-4.08496 0 -8.20215 0.496094 -12 2c-3.88965 1.54004 -7.50684 3.69824 -11 6c-2.0791 1.37012 -4.10254 2.83594 -5.95117 4.50391c-1.84961 1.66895 -3.47949 3.5625 -5.04883 5.49609l-177 218h-65l-83 -102z" />
    <glyph glyph-name="utilde" unicode="&#x169;" vert-adv-y="0" 
d="M706 168l-38 -48c-4 -6 -18 -18 -34 -18h-295c-8 0 -20 2 -32 16l-97 116c-4 6 -14 22 -14 42v676h95v-652l67 -82h257l67 88v646h97v-670c0 -6 -2 -14 -6 -24l30 -40h79v-116h-99c-16 0 -30 8 -34 16zM251 1136l-34 42l97 120c3.13379 3.87695 6.75293 7.38867 11 10
c3.81348 2.34473 7.83594 4.35547 12 6c1.74609 0.689453 3.54199 1.27051 5.38965 1.60742c1.84668 0.335938 3.73242 0.392578 5.61035 0.392578h106c4.41309 0 8.87402 -0.432617 13 -2c4.34375 -1.65039 8.32422 -4.15723 12 -7c3.36523 -2.60254 6.31836 -5.69727 9 -9
l177 -218h66l77 96l35 -42l34 -42l-92 -114c-2.67285 -3.3125 -5.58691 -6.45703 -9 -9c-3.95996 -2.95117 -8.34961 -5.33691 -13 -7c-4.15332 -1.48535 -8.58887 -2 -13 -2h-105c-4.08496 0 -8.20215 0.496094 -12 2c-3.88965 1.54004 -7.50684 3.69824 -11 6
c-2.0791 1.37012 -4.10254 2.83594 -5.95117 4.50391c-1.84961 1.66895 -3.47949 3.5625 -5.04883 5.49609l-177 218h-65l-83 -102z" />
    <glyph glyph-name="Etilde" unicode="&#x1ebc;" vert-adv-y="0" 
d="M189 940h692v-122h-593v-208h396v-122h-396v-270h593v-120h-692v842zM251 1136l-34 42l97 120c3.13379 3.87695 6.75293 7.38867 11 10c3.81348 2.34473 7.83594 4.35547 12 6c1.74609 0.689453 3.54199 1.27051 5.38965 1.60742
c1.84668 0.335938 3.73242 0.392578 5.61035 0.392578h106c4.41309 0 8.87402 -0.432617 13 -2c4.34375 -1.65039 8.32422 -4.15723 12 -7c3.36523 -2.60254 6.31836 -5.69727 9 -9l177 -218h66l77 96l35 -42l34 -42l-92 -114c-2.67285 -3.3125 -5.58691 -6.45703 -9 -9
c-3.95996 -2.95117 -8.34961 -5.33691 -13 -7c-4.15332 -1.48535 -8.58887 -2 -13 -2h-105c-4.08496 0 -8.20215 0.496094 -12 2c-3.88965 1.54004 -7.50684 3.69824 -11 6c-2.0791 1.37012 -4.10254 2.83594 -5.95117 4.50391
c-1.84961 1.66895 -3.47949 3.5625 -5.04883 5.49609l-177 218h-65l-83 -102z" />
    <glyph glyph-name="Utilde" unicode="&#x168;" vert-adv-y="0" 
d="M192 940h96v-636l68 -84h360l67 86v634h97v-658c0 -8 -2 -26 -14 -40l-93 -122c-6 -8 -20 -20 -36 -20h-402c-8 0 -22 4 -34 18l-95 118c-4 6 -14 22 -14 42v662zM251 1136l-34 42l97 120c3.13379 3.87695 6.75293 7.38867 11 10c3.81348 2.34473 7.83594 4.35547 12 6
c1.74609 0.689453 3.54199 1.27051 5.38965 1.60742c1.84668 0.335938 3.73242 0.392578 5.61035 0.392578h106c4.41309 0 8.87402 -0.432617 13 -2c4.34375 -1.65039 8.32422 -4.15723 12 -7c3.36523 -2.60254 6.31836 -5.69727 9 -9l177 -218h66l77 96l35 -42l34 -42
l-92 -114c-2.67285 -3.3125 -5.58691 -6.45703 -9 -9c-3.95996 -2.95117 -8.34961 -5.33691 -13 -7c-4.15332 -1.48535 -8.58887 -2 -13 -2h-105c-4.08496 0 -8.20215 0.496094 -12 2c-3.88965 1.54004 -7.50684 3.69824 -11 6
c-2.0791 1.37012 -4.10254 2.83594 -5.95117 4.50391c-1.84961 1.66895 -3.47949 3.5625 -5.04883 5.49609l-177 218h-65l-83 -102z" />
    <glyph glyph-name="macute" unicode="&#x1e3f;" vert-adv-y="0" 
d="M587 746v-648h-99v648l-67 84h-58l-72 -86v-646h-97v852h99v-34l15 18c10 12 21 18 34 18h100c14 0 26 -6 36 -18l58 -78l61 76c10 12 22 18 35 18h104c13 0 23 -6 33 -18l97 -118c10 -12 14 -26 14 -42v-674h-97v650l-67 82h-63zM407 972c-10 12 -15 28 -15 42
c0 18 7 34 15 44l194 242c10 12 22 18 34 18c14 0 28 -8 36 -18s15 -26 15 -44c0 -14 -5 -30 -15 -42l-194 -242c-8 -10 -22 -18 -36 -18c-12 0 -24 6 -34 18z" />
    <glyph glyph-name="NameMe.755" vert-adv-y="0" 
d="M189 940h692v-122h-593v-208h396v-122h-396v-270h593v-120h-692v842z" />
    <glyph glyph-name="NameMe.756" vert-adv-y="0" 
d="M192 940h96v-636l68 -84h360l67 86v634h97v-658c0 -8 -2 -26 -14 -40l-93 -122c-6 -8 -20 -20 -36 -20h-402c-8 0 -22 4 -34 18l-95 118c-4 6 -14 22 -14 42v662z" />
    <glyph glyph-name="gacute" unicode="&#x1f5;" vert-adv-y="0" 
d="M728 374l-112 -138c-6 -10 -20 -18 -33 -18h-154c-12 0 -25 6 -35 18l-190 236c-8 8 -16 26 -16 42v134c0 14 6 30 16 42l195 244c6 10 21 16 34 16h245c12 0 24 -4 34 -16l98 -124c8 -8 16 -26 16 -42v-742c0 -14 -6 -30 -16 -42l-90 -112c-6 -10 -21 -18 -34 -18h-261
c-12 0 -24 6 -34 18l-94 116l69 84l79 -98h221l62 76v324zM728 542v202l-70 86h-205l-167 -206v-86l162 -200h115zM411 1026c-10 12 -15 28 -15 42c0 18 7 34 15 44l194 242c10 12 22 18 34 18c14 0 28 -8 36 -18s15 -26 15 -44c0 -14 -5 -30 -15 -42l-194 -242
c-8 -10 -22 -18 -36 -18c-12 0 -24 6 -34 18z" />
    <glyph glyph-name="kacute" unicode="&#x1e31;" vert-adv-y="0" 
d="M501 524l269 -342l-70 -84l-287 368h-129v-368h-101v1220h101v-732h131l292 366l68 -84zM506 972c-10 12 -15 28 -15 42c0 18 7 34 15 44l194 242c10 12 22 18 34 18c14 0 28 -8 36 -18s15 -26 15 -44c0 -14 -5 -30 -15 -42l-194 -242c-8 -10 -22 -18 -36 -18
c-12 0 -24 6 -34 18z" />
    <glyph glyph-name="lacute" unicode="&#x13a;" vert-adv-y="0" 
d="M594 246l22 -28h79v-120h-99c-13 0 -24 6 -34 18l-51 62c-10 12 -14 26 -14 42v722h97v-696zM502 1016c-10 12 -15 28 -15 42c0 18 7 34 15 44l194 242c10 12 22 18 34 18c14 0 28 -8 36 -18s15 -26 15 -44c0 -14 -5 -30 -15 -42l-194 -242c-8 -10 -22 -18 -36 -18
c-12 0 -24 6 -34 18z" />
    <glyph glyph-name="zacute" unicode="&#x17a;" vert-adv-y="0" 
d="M194 952h688l-488 -734h488v-120h-688l490 732h-490v122zM407 1016c-10 12 -15 28 -15 42c0 18 7 34 15 44l194 242c10 12 22 18 34 18c14 0 28 -8 36 -18s15 -26 15 -44c0 -14 -5 -30 -15 -42l-194 -242c-8 -10 -22 -18 -36 -18c-12 0 -24 6 -34 18z" />
    <glyph glyph-name="smalll" vert-adv-y="0" 
d="M594 246l22 -28h79v-120h-99c-13 0 -24 6 -34 18l-51 62c-10 12 -14 26 -14 42v722h97v-696z" />
    <glyph glyph-name="sacute" unicode="&#x15b;" vert-adv-y="0" 
d="M672 744l-71 88h-249l-47 -60l452 -442c12 -12 18 -26 18 -44s-5 -34 -15 -46l-102 -124c-10 -12 -21 -18 -34 -18h-292c-13 0 -24 6 -34 18l-100 120c-10 12 -15 26 -15 44v56h97v-30l72 -88h252l49 60l-450 440c-12 10 -16 26 -18 44v7c0 15 5 29 13 39l97 126
c10 12 21 18 35 18h290c13 0 24 -6 34 -18l101 -122c10 -12 15 -26 15 -42v-64h-98v38zM407 1018c-10 12 -15 28 -15 42c0 18 7 34 15 44l194 242c10 12 22 18 34 18c14 0 28 -8 36 -18s15 -26 15 -44c0 -14 -5 -30 -15 -42l-194 -242c-8 -10 -22 -18 -36 -18
c-12 0 -24 6 -34 18z" />
    <glyph glyph-name="wacute" unicode="&#x1e83;" vert-adv-y="0" 
d="M588 422l141 -178l56 64v644h97v-670c0 -18 -6 -32 -16 -44l-103 -122c-10 -10 -22 -16 -34 -16s-23 6 -33 18l-158 198l-162 -204c-10 -12 -21 -20 -34 -20s-24 8 -34 20l-98 124c-10 12 -16 26 -16 42v674h97v-650l51 -62l147 182v164h99v-164zM407 972
c-10 12 -15 28 -15 42c0 18 7 34 15 44l194 242c10 12 22 18 34 18c14 0 28 -8 36 -18s15 -26 15 -44c0 -14 -5 -30 -15 -42l-194 -242c-8 -10 -22 -18 -36 -18c-12 0 -24 6 -34 18z" />
    <glyph glyph-name="NameMe.2214" vert-adv-y="0" 
d="M360 626v-526h-96v668c0 18 -4 30 -14 44c-12 12 -21 18 -37 18h-30v122h80c28 0 97 -58 97 -122v-38l112 140c10 12 21 20 34 20h118c14 0 26 -6 34 -18l102 -122c10 -12 15 -26 15 -44v-60h-97v36l-74 86h-77zM407 972c-10 12 -15 28 -15 42c0 18 7 34 15 44l194 242
c10 12 22 18 34 18c14 0 28 -8 36 -18s15 -26 15 -44c0 -14 -5 -30 -15 -42l-194 -242c-8 -10 -22 -18 -36 -18c-12 0 -24 6 -34 18z" />
    <glyph glyph-name="uni27EB" unicode="&#x27eb;" vert-adv-y="0" 
d="M570 1122l342 -430c10 -14 14 -28 14 -42c0 -16 -6 -32 -14 -42l-342 -426l-69 84l308 384l-308 388zM272 1120l344 -430c10 -12 13 -26 13 -40c0 -18 -7 -34 -13 -44l-344 -426l-68 84l308 384l-308 388z" />
    <glyph glyph-name="uni27EA" unicode="&#x27ea;" vert-adv-y="0" 
d="M496 1122l69 -84l-310 -388l310 -384l-69 -84l-342 426c-8 10 -15 26 -15 44c0 12 5 28 15 40zM792 1120l69 -84l-309 -388l309 -384l-69 -84l-342 426c-8 10 -13 26 -13 42c0 14 3 28 13 42z" />
    <glyph glyph-name="SF060000" unicode="&#x252c;" vert-adv-y="0" 
d="M977 710v-122h-380v-988h-99v988h-395v122h874z" />
    <glyph glyph-name="SF070000" unicode="&#x2534;" vert-adv-y="0" 
d="M102 588v122h396v890h99v-890h379v-122h-874z" />
    <glyph glyph-name="SF390000" unicode="&#x2554;" vert-adv-y="0" 
d="M1011 830v-122h-475v-1108h-99v1230h574zM1011 584v-122h-279v-862h-99v984h378z" />
    <glyph glyph-name="SF250000" unicode="&#x2557;" vert-adv-y="0" 
d="M664 830v-1230h-98v1108h-496v122h594zM469 584v-984h-99v862h-300v122h399z" />
    <glyph glyph-name="SF260000" unicode="&#x255d;" vert-adv-y="0" 
d="M664 1600v-1138h-594v122h496v1016h98zM469 1600v-892h-399v122h300v770h99z" />
    </font>
</defs>
</svg>
